<svg height="2086" viewBox="0 0 2118.81 2085.06" width="2119" xmlns="http://www.w3.org/2000/svg"><path d="m1867.69 1222.12c9.71 2.29 18.72 4.32 27.67 6.56 7.62 1.91 14.93 1.49 21.66-2.76 15.75-10 33.37-14.59 51.47-16.79 28.71-3.49 57.55-5.63 86.53-4.4 11.55.5 22.52 3.44 33.38 7.09 16.62 5.58 25.13 18 29 34.26 3.56 14.89.33 28.26-9.65 40a121.25 121.25 0 0 1 -19.31 18.44c-8.82 6.65-17.36 13.67-26 20.55-9.59 7.63-20.4 13.1-31.58 17.9a259.27 259.27 0 0 1 -47.93 15c-6.62 1.42-13.27 2.85-19.74 4.82a24.19 24.19 0 0 0 -9.25 4.93c-6.77 6.27-13.07 13-20.26 20.35a79.78 79.78 0 0 0 2.72 9.32c5.61 13.63 4.15 27.27.45 41a48 48 0 0 1 -1.75 5.06 30.82 30.82 0 0 0 .38 24c1.64 4 3.11 8 4.9 11.87 5.77 12.51 8 25.89 9.54 39.38.92 7.89-.26 15.74-2.27 23.34a40.32 40.32 0 0 1 -5.05 10.53c-2 3.32-4.78 6.22-7 9.42-3.92 5.52-5.59 11.58-3.36 18.21 2 6.09 4.13 12.17 6.53 18.12 5.53 13.7 9 27.76 9.47 42.61.37 11.77 1.26 23.53 2 35.28a617.38 617.38 0 0 0 11.86 85.79 294.23 294.23 0 0 1 6.06 44.5c.84 15.32 1.14 30.67 2.26 46 1.17 16 3 32 4.61 47.92 1.19 12.08 2.43 24.15 3.63 36.23 1.47 14.79-.67 29.12-4.89 43.34-3.15 10.57-5.55 21.39-7.93 32.18a16.46 16.46 0 0 0 .53 8.29c4.94 14.89 10.17 29.69 15.33 44.5.82 2.34 1.8 4.62 2.56 6.56 2.47 10.55 27.33 11.49-196.77 8.84q-133.38.33-266.75.42c-9.6 0-19.21.75-28.82 1.1-1.77.06-3.55-.09-5.33-.19-4.26-.25-8.53-.77-12.79-.76q-435.46 1.24-870.93 2.59-171.94.54-343.88 1.19-111.39.33-222.79.39c-4.23 0-8.47-.19-12.91-.3a78.28 78.28 0 0 1 -5-29.76c.25-14.62 1.46-29.22 2.52-43.82 1.15-16 2.65-32 3.89-48 .61-7.83 1.12-15.66 1.44-23.5 1-23.59-1.31-47.06-2.8-70.56-.15-2.5-.36-5-.39-7.49-.22-22.85-.19-45.7-.66-68.55-.34-16.46.84-32.82 2.46-49.15a137.8 137.8 0 0 1 2.89-16.86 575.78 575.78 0 0 1 15.76-57.79c6.74-19.94 13.48-39.94 16.26-60.94 1.26-9.55 2.4-19.13 3.31-28.71a154.7 154.7 0 0 1 6.51-32.45 357.23 357.23 0 0 0 12.92-57.35 100.5 100.5 0 0 1 4-17.69 226.92 226.92 0 0 0 9.37-40.52c2-13.69 5.79-27.18 9.52-40.55 3.05-11 7.17-21.62 11-33.08-2.08-1-3.84-1.93-5.69-2.63-14.37-5.39-29-10.15-42.12-18.39a180.08 180.08 0 0 1 -19.33-13.39c-11.45-9.62-23.88-18.1-34.15-29.11-4.63-5-9.06-10.09-11.66-16.53-4.18-10.35-4.22-20.76-1.32-31.46 4.51-16.59 14.92-27.11 31.29-32.18 10.62-3.29 21.31-5.7 32.5-5.88 17.14-.29 34.26-.54 51.31 1.71a38.18 38.18 0 0 0 5.35.22 182.25 182.25 0 0 1 35.1 3.54c1.69.32 3.42.45 5.52.72 4.74-11.55 9.62-22.61 13.82-33.93a277.57 277.57 0 0 1 17.28-36.78 111.2 111.2 0 0 1 16.39-22.41c22.4-24.07 43.13-49.52 63-75.68 15.62-20.52 32.76-39.68 53.81-54.86 18.27-13.17 37.4-25 58.19-33.84 14.78-6.31 29.46-12.81 43.23-21.19 7-4.26 13.64-8.87 19-15.86-2.2-1.47-3.87-2.79-5.72-3.79a18 18 0 0 1 -9.75-14.51c-1.17-10.63-2-21.3-3.06-31.95a17.59 17.59 0 0 1 4.62-13.79 108.55 108.55 0 0 1 9.51-10.12 54.24 54.24 0 0 0 16.7-26.89c1.92-6.87 4.26-13.61 6.22-20.47 4-14.05 11-26.27 21.83-36.19 6.59-6 12.89-12.35 19.43-18.43a70.42 70.42 0 0 1 28.56-16.31c9.24-2.7 18.46-5.5 27.74-8.1 14.47-4 29.21-6 44.21-7.41a53.7 53.7 0 0 1 29.83 5.58c5.82 2.85 11.59 5.45 16.26 10a39.52 39.52 0 0 0 4.28 3.23c6.61-7.48 12.41-15.13 19.33-21.58s15.09-11.84 23.56-18.35c.66-4.88-2.21-9.94-4.4-15.09-3.63-8.53-7.5-17-11.19-25.48-1.14-2.61-2.07-5.32-3-8-3.74-10.87-6.33-21.91-5.28-33.57.89-9.94 1.86-19.9 2.13-29.87.32-11.75.58-23.58-.33-35.28-1-12.77-2.13-25.57-5.29-38.11a53.37 53.37 0 0 1 -.8-21.3 29.33 29.33 0 0 1 1.86-7.2c3.17-7.24 9.51-10.51 17.34-9.19 2.08.35 4.12.87 6.4 1.35 1.64-5.29.25-10.18-.12-15.08s-.4-9.94-.82-14.88a36 36 0 0 0 -1.58-9.36 60.43 60.43 0 0 1 -3.66-21 30.38 30.38 0 0 0 -.46-7.47c-3.6-13.79-4.95-28.14-9.94-41.56a66.06 66.06 0 0 1 -2.57-37.89c1.8-8.37 3-16.85 4.71-25.24a14.51 14.51 0 0 1 2.6-5.72 51 51 0 0 0 9.09-20.4c4.8-23.17 12.37-45.35 21.72-67 2.63-6.1 4.73-11.9 11.8-14.06 2.5-.77 4-2.79 5-5.26 7.93-20 22.07-35.66 36.41-51.1a40.54 40.54 0 0 1 9.37-7c3.52-2.05 6.68-4.5 8.3-8.1 6-13.31 17.51-21.31 28.24-30.1a31.87 31.87 0 0 1 5.38-3.51c7.34-3.85 13.92-8.55 18.73-15.55 2.1-3.06 5.29-4.68 8.89-5.55 3.11-.76 6.18-1.74 9.31-2.42 6.69-1.44 13.07-3.4 18.6-7.74 2.2-1.73 5.05-2.61 7.59-3.9a28.57 28.57 0 0 0 4.69-2.54c3.07-2.36 5.6-6.15 9-7.21 10.56-3.28 20-9.74 31.16-11.15 3.62-.46 6.69-2 9.94-3.54 10.82-5.27 21.72-10.54 34.41-10.23 5.62.14 11.28-1.5 16.94-2.13 7.78-.86 15.65-1.14 23.36-2.42a75.34 75.34 0 0 0 17.42-4.91c7.61-3.29 15.18-3.43 23-2 2.11.37 4.24.7 6.3 1.27a15.64 15.64 0 0 0 10.45-.66 48.92 48.92 0 0 1 37.57-.2 38.27 38.27 0 0 0 17.84 2.68 42.86 42.86 0 0 1 24.75 5.28 33.88 33.88 0 0 0 17.42 4.28 30.45 30.45 0 0 1 9.43 1.63c13.32 4 26.55 8.22 39.89 12.12a26.55 26.55 0 0 1 11 6.29c4.58 4.34 9.8 6.89 16.3 7 5.56.07 10.34 2.8 14.57 6.14a38.61 38.61 0 0 0 14.06 7.29 36.67 36.67 0 0 1 12.15 6.5 121.6 121.6 0 0 1 13.32 12.37c4.21 4.39 8.4 8.51 14 11.37 3.28 1.67 6.07 5 8.17 8.16a46.25 46.25 0 0 0 14.31 14.22c7.08 4.4 12.65 10.4 17.59 17 3.62 4.87 7.41 9.63 10.83 14.64a100 100 0 0 0 15.5 17.55c6 5.46 10.69 12.4 15.57 19a189.14 189.14 0 0 1 21 37.22 92.94 92.94 0 0 0 11.67 20.38c3 3.85 4.93 8.63 6.92 13.17 1.57 3.57 2.17 7.58 3.77 11.14 9.26 20.57 9.16 42.28 7.88 64.1-.32 5.38-.69 10.67.66 15.94 2.15 8.44 1.38 17 1.26 25.58a10.82 10.82 0 0 1 -1.65 6.06c-3.35 4.44-3.13 9.22-2.67 14.29a130.31 130.31 0 0 1 -.17 26.71c-.6 5.3-.3 10.7-.44 16.05-.11 4.28-.39 8.56-.4 12.84 0 8.79-2.13 16.81-7.34 24.1-3.35 4.68-5 10.26-5.93 16a72.65 72.65 0 0 1 -8.91 25c-3.4 5.78-7 11.69-8 18.58a21.77 21.77 0 0 0 0 3.14c3.83-.83 5-4.12 7.11-6.41 2.87-3.17 5.43-6.64 8.47-9.63 4.42-4.33 13.28-5.55 19-2.57s7.9 8.35 7.13 14.43c-.89 7.05-2.5 14-4 21-1.72 8-4 15.93-5.4 24a53.11 53.11 0 0 0 -.32 13.86c1.27 13.85 2.91 27.67 4.38 41.51 1 10 2 19.87.24 29.88a70.11 70.11 0 0 1 -8.1 22c-4.62 8.44-9.24 16.89-9.81 27.43 1.64.93 3.38 2 5.22 2.93 8.25 4 15.31 9.75 19.61 17.65 5.56 10.2 13.51 17.44 23.42 22.79 8.51 4.6 14.46 11.59 19.17 19.69a49.74 49.74 0 0 1 5.34 12.76c2.33 9.28 7.94 15.72 15.78 20.67 10.1 6.38 18.11 15 25.37 24.33 7.62 9.82 11.9 21.08 14 33.23 2.35 13.83-1.52 26.19-9.48 37.37-1.82 2.54-4.72 4.29-7 6.49-1.16 1.11-2.15 2.4-3.68 4.15a22.36 22.36 0 0 0 3.79 1c26.1 1.18 51.94 4.43 77.25 10.92 21.48 5.51 42.19 13.23 61.1 25.17 9.06 5.71 18.29 11.14 27.41 16.76a57.5 57.5 0 0 1 8 5.42c12.33 10.86 25.49 20.68 38.52 30.66 9.13 7 16.53 15.57 23.43 24.8 13.18 17.62 22.5 37.16 30.81 57.35 6.39 15.5 12.9 31 20.17 46.08 3.36 7 8.24 13.36 13.18 19.4a47.93 47.93 0 0 1 10 21c3.48 16.39 7.28 32.71 11 49 .62 3.39 1.78 6.71 2.6 9.51zm-536.84-87.45c-2.73.67-4.51.73-5.88 1.51-6.82 3.87-13.89 7.44-20.22 12-19.39 14-39.85 26.42-60 39.31-25.29 16.18-53 26.14-81.74 33.88-21 5.67-42.14 10.95-63.22 16.39-6.22 1.61-12.44 3.23-19 2.41-1.35-.17-2.88 0-3.3 2.57 4 4 8.22 8.2 12.41 12.51 6.46 6.65 6.95 7.6 8.3 15-.63-.15-1.53-.08-1.86-.49-9.24-11.48-20.86-20.47-31.73-30.23-6.68-6-14.28-10.6-22.14-14.94-19-10.53-38-21.24-56.74-32.31a152.48 152.48 0 0 1 -19.94-14.37c-15.89-13.26-31.32-27.06-47.21-40.33-49.05-40.95-97.59-82.54-149.68-119.71a186.52 186.52 0 0 1 -24.6-20.59c-14.32-14.55-29.81-27.73-45.69-40.43-27-21.63-54.46-42.76-81.67-64.17q-9.26-7.29-18.13-15c-12.12-10.54-24.06-21.28-36.19-31.81-6.29-5.46-11.27-11.56-14.42-19.51-5.67-14.33-3.83-27.17 5.5-39.17 3.17-4.09 7-6.93 12.4-7.63 7.69-1 14.15-4.53 19.71-9.94a25 25 0 0 1 15.24-7.13c8.86-.86 17.72-1.77 26.59-2.53 14-1.19 23.51-7.14 27-24.18-8.61-10.33-21.3-13.43-33.26-17.82a9.93 9.93 0 0 0 -4.25-.1c-11 1.19-22 2.08-32.95 3.75-16.63 2.54-32.49 8.22-48.53 13.06a57.39 57.39 0 0 0 -22.79 13.64c-7 6.62-13.87 13.39-20.9 20a64.37 64.37 0 0 0 -18.15 29.69c-2.57 8.91-5.49 17.72-8.29 26.56a54.52 54.52 0 0 1 -15.93 25 132.17 132.17 0 0 0 -9.64 10 14.31 14.31 0 0 0 -4.05 11.73c1 9.21 2.08 18.42 2.8 27.66.48 6 3.54 10 8.76 12.44 7.4 3.52 14.73 7.26 22.34 10.29a155.47 155.47 0 0 1 26.48 13.94 327.16 327.16 0 0 1 45.84 35.15 137.19 137.19 0 0 0 29.55 21.08c14.05 7.39 26.28 17.07 37.9 27.74a220.94 220.94 0 0 0 67.35 42.94c8.92 3.59 17.61 7.84 26.15 12.26 21.24 11 42.28 22.35 63.49 33.37 18.37 9.55 37 18.57 55.25 28.35a214.2 214.2 0 0 1 26.19 16.6c11.76 8.71 23.12 18 34.28 27.44 21 17.77 41.69 35.84 64.1 51.83 5.23 3.74 10.64 7.27 15.53 11.41 5.16 4.37 9.81 9.33 14.62 14.1.3.3 0 1.17 0 2.56a59.28 59.28 0 0 1 -5.58-3c-29.11-20.08-57.53-41-84.1-64.45-13.9-12.27-28.49-23.83-43.29-35-17.73-13.4-37.86-22.82-57.56-32.91-25.09-12.84-50.11-25.83-75.19-38.72-9.83-5-19.7-10.07-29.63-14.94-1.37-.67-3-2.15-5.22-.37 1.66 3.59 4.66 6.14 7.21 9 12.56 14.16 25.39 28.11 34.73 44.75 14.77 26.31 35.52 47.33 58.83 65.9 16.49 13.14 34.7 23.77 53 34.26 14.23 8.15 27.87 17.31 41.63 26.26 3.78 2.46 7.69 5.1 10.05 10.12-1.42.72-2.71 2-3.67 1.73a13.08 13.08 0 0 1 -4.57-2.59 414.18 414.18 0 0 0 -50.57-32.15 363.17 363.17 0 0 1 -46.6-30.34c-19.33-14.81-36.88-31.61-51-51.63-5.34-7.57-10-15.63-15-23.46-13.11-20.57-29.71-38.33-45.67-56.61a27 27 0 0 0 -7.74-5.56 256.26 256.26 0 0 1 -54.78-39.06 157.71 157.71 0 0 0 -33-23.63 147.08 147.08 0 0 1 -30.47-21.63c-15.75-14.6-33.09-27.17-51.28-38.56-10.31-6.46-21.68-10.38-32.79-14.78-1.56 1.35-2.7 2.2-3.67 3.22-7.23 7.52-15.59 13.46-24.59 18.76-12.05 7.09-24.74 12.74-37.51 18.27-18.77 8.12-36.09 18.75-52.84 30.32-23.49 16.24-42.07 37.42-59.18 60a924.68 924.68 0 0 1 -60.47 72.23 106.39 106.39 0 0 0 -15.32 20.55c-11.85 21.23-21.4 43.52-30.35 66.09-.35.87 0 2 .11 3.44a38.37 38.37 0 0 0 4.78 2.14 117.57 117.57 0 0 1 27.36 12 24.07 24.07 0 0 0 19.6 2.41c4.47-1.24 9-2.34 13.5-3.38 2.77-.65 5.6-1.55 8.39-1.51 12.11.15 24.32-.66 36.13 3 5.78 1.8 11.56 3.58 17.31 5.44 6.79 2.2 13.55 4.48 20.32 6.71 20 6.58 40.35 11.9 60 19.62 25.51 10 48.8 23.42 68.7 42.59 19.37 18.66 36.94 38.87 51.4 61.46 9.17 14.33 20.28 26.61 32.43 38.24a167.34 167.34 0 0 0 47.45 32.43c2.28 1 4.49 2.21 6.75 3.25 9.79 4.52 18.58 10.68 27 17.31 16 12.67 29.66 27.78 42.94 43.23a151 151 0 0 1 25.49 43.1c1.58 4 3.15 8 4.6 12 6.92 19.25 11.59 39 11.68 59.54 0 10-.46 20 0 30 .79 17.15 4.43 33.94 7.63 50.76 3.33 17.53 7.2 35 5.92 53a77.58 77.58 0 0 1 -17.4 44.08 42.69 42.69 0 0 1 -7.06 6.48c-3.62 2.86-7.59 5.3-11.14 8.25a20.4 20.4 0 0 1 -13.71 5.19c-6-.11-12.1-.66-18.13-1.15-2-.17-4-.73-6.65-1.24-3.85 15.08-8 29.43-11.09 44-3.63 17.45-6.06 35.14-9.4 52.66a77.44 77.44 0 0 0 1.84 37.09c6.21 20.59 10.13 41.56 13.23 62.74a116.67 116.67 0 0 1 1.16 22.37c-.66 14.6-.29 29.25-.29 43.88 0 .62.54 1.25 1.06 2.36 3.38 1.54 7.34.89 11.17.89q42.84 0 85.69-.15l741.28-2.22c3.57 0 7.15.12 10.71-.1a40 40 0 0 0 6-1.25 43.79 43.79 0 0 0 .5-4.78c-.25-16.06-.56-32.11-.81-48.16a42.73 42.73 0 0 1 .27-6.4c3.15-23.32 5.9-46.68 13.53-69.19a79.18 79.18 0 0 0 2.85-39.16c-4.92-28.1-9-56.37-16.94-83.88-1.35-4.73-2.58-9.51-3.83-14.09-7.39.86-14.05 1.87-20.75 2.37a24.84 24.84 0 0 1 -18.74-6.38c-3-2.56-6.43-4.49-9.43-7-3.26-2.73-6.79-5.41-9.2-8.81a110.87 110.87 0 0 1 -9.63-16.62c-7.29-15.42-7.71-31.9-5.38-48.29 2.87-20.13 6.74-40.11 10.45-60.11a151.27 151.27 0 0 0 2.54-34.09c-.68-16.1 0-32 3.26-47.89 3.44-16.92 9.43-32.84 16.32-48.55a139.67 139.67 0 0 1 18.86-31c9.79-12.34 20.66-23.65 31.85-34.68a164.7 164.7 0 0 1 47.26-32.77c15.35-7 29.61-15.68 42-27.19 12-11.16 24.41-22 33.38-36 15.26-23.84 32.5-46.08 53-65.64 10.34-9.85 20.85-19.54 33.15-27 20.9-12.66 43.45-21.49 66.67-28.75 12.94-4 26-7.74 38.81-12.14 16.88-5.81 33.66-11.82 51.59-13.64.6-.06 1.13-.75 1.85-1.25-1.53-6.5-3.08-13.07-4.61-19.64-2.91-12.5-6-25-8.61-37.52a41.62 41.62 0 0 0 -10.18-19.68 88.69 88.69 0 0 1 -15.17-24.46c-8.37-19.7-16.77-39.39-25.48-59-13-29.22-31-54.51-58.27-72.35a81 81 0 0 1 -11-8.48 162.92 162.92 0 0 0 -29.17-21.67c-7.69-4.52-15.2-9.35-23-13.76-17.78-10.12-36.81-17.15-56.54-22.42-17.31-4.63-35-6.79-52.75-8.84-11-1.26-22-1.36-33.07-2.09a10 10 0 0 0 -8.46 3.74 61.14 61.14 0 0 0 -4.82 5.73c-9.88 14-19.9 27.88-29.48 42.06-9 13.3-17.44 27-26.24 40.4-9.38 14.33-19.07 28.46-28.32 42.87-8.74 13.61-18.51 26.31-31.15 36.5-12.22 9.85-24.65 19.45-37.14 29a180.68 180.68 0 0 1 -15.13 10.08 36.06 36.06 0 0 0 -7.8 7 93.1 93.1 0 0 0 -17.07 25.71c-.84 1.93-2.34 3.57-3.54 5.35q-11.1 16.39-22.18 32.81c-6.35 9.57-13.35 18.57-23.35 24.67-11.58 7-23.14 14.16-35 20.73-14 7.78-28.16 15.5-43.89 19.54a33.08 33.08 0 0 1 -4.35.43c2.67-4.45 6.56-5.74 9.92-7.54 21-11.33 42.29-22.24 62.75-34.71a90.11 90.11 0 0 0 29.61-28.67c6.59-10.18 13.85-19.92 20.57-30 3.94-5.93 7.41-12.18 11-18.31.72-1.16 1.15-2.45 2.24-4.9zm73.73-590.31a61 61 0 0 1 -.1-6.92c.63-6.72 1.58-13.42 2.19-20.15 1.23-13.83 1.55-27.74 5.41-41.27 1.14-4 1.1-8.49 1-12.73-.36-10.73-.37-21.41 2.33-31.9a23.82 23.82 0 0 0 .19-10.56c-1.82-9.81-3.49-19.65-5.12-29.5-3.5-21.13-7-42.21-14.71-62.39a86.75 86.75 0 0 1 -5.65-23.86 77.47 77.47 0 0 0 -13-37c-15.74-23.8-32-47.14-56.56-63.35-10.23-6.74-20.23-13.28-32-16.76a64 64 0 0 1 -22.38-12.27c-3.32-2.71-6.69-5.36-10-8.1a56.88 56.88 0 0 0 -18.44-10.69 191 191 0 0 1 -28.32-12.54 33.37 33.37 0 0 0 -15.37-4.07 143.5 143.5 0 0 1 -37-4.92c-6.25-1.71-12.3-3.27-17.83-6.79-9.71-6.18-20.35-8.76-31.73-6.25-11.83 2.61-23.34 1.64-34.92-1.47-9.33-2.52-18.34-1.85-26.57 4-8.49 6.06-18.29 7.69-28.44 7.8-7.5.09-15 .11-22.49 0a70.31 70.31 0 0 0 -20.07 2.84c-17.19 4.78-34.24 9.86-50.74 16.81-8.19 3.45-16.88 5.72-25.42 8.29a96.62 96.62 0 0 1 -15.53 3.79 42.37 42.37 0 0 0 -16.13 5.24c-4 2.33-8.29 4.25-12.1 6.86-7.81 5.37-16.24 8.94-25.7 9.77-6.59.57-11.24 4-14.92 9.21-6.56 9.34-13.38 18.5-19.8 27.93-6.87 10.09-14.59 19.3-24.09 27.07-10.1 8.26-17.75 18.21-21.87 31a117.89 117.89 0 0 1 -19.33 36.79c-5.62 7.2-9 15.33-9.09 24.66 0 1.76-.53 3.52-.69 5.29-1.21 12.75-4 25.29-3.47 38.27.45 10.3-.27 20.67-.79 31-.6 12.09-2.36 24.12-1 36.3.8 7.07 1 14.22 1.31 21.35.62 13.15-1.57 26.31 0 39.48a5.85 5.85 0 0 1 -.68 3c-.24.53-1.08.79-2.33 1.62-.81-2.88-1.69-5.5-2.28-8.19-2-9.08-4.25-18.1-8.79-26.29a27.8 27.8 0 0 0 -6.47-8.33c-5-4-11.58-1.92-14.07 4a29.6 29.6 0 0 0 -1.22 5.18 38.88 38.88 0 0 0 .55 17 244.5 244.5 0 0 1 5.3 33.77c1.51 16.74 2.39 33.5-.07 50.21-3.12 21.23-2.19 42 6.76 61.84 1.46 3.26 2.66 6.63 4.17 9.86 5.74 12.29 11.6 24.49 13.76 38.13.52 3.29 2.86 6.41 4.81 9.3 1 1.45 3 1.86 4.92-.4-2.18-12.58-4.09-25.59-6.74-38.44-3.63-17.64-4-35.43-3.63-53.29 0-1.44-.55-3.63 2.61-4.08 2.08 3.88 1.61 8.17 1.65 12.26.13 11.79.41 23.55 2.8 35.16 5 24.09 9.79 48.22 13.13 72.6a310.41 310.41 0 0 0 9.66 44.91c3.3 11.28 5.67 22.85 8.16 34.36 3.17 14.64 6.07 29.34 9 44a84.61 84.61 0 0 0 10 25.85c2.51 4.31 5.25 8.51 7.63 12.9 3.56 6.57 7 13.24 10.31 19.93 2.07 4.14 3.75 8.48 5.87 12.59 4.25 8.25 8.49 16.51 13.1 24.56a178.52 178.52 0 0 0 11.58 17.93c4.69 6.28 10.08 12 15.08 18.08a59.31 59.31 0 0 1 5.74 7.71c10.07 17.26 20.36 34.41 29.89 52 8.39 15.47 18.55 29.65 29.33 43.42a62.22 62.22 0 0 0 11.7 10.91c9.11 6.87 18.39 13.55 27.86 19.92a128.34 128.34 0 0 0 49.32 19.64c21 3.83 42.56 4.54 63.38 9.77 2.37.59 5 .33 7.47.3 4.64-.05 9.29-.47 13.92-.31 19.56.66 37.24-6 54.14-14.63 12.68-6.45 25.19-13.52 34.68-24.69 1.82-2.15 4.39-3.65 6.48-5.59a127 127 0 0 0 9.17-9c7.57-8.55 14.84-17.37 22.42-25.91 4-4.53 8.39-8.75 12.69-13 5.07-5 10.24-9.92 15.38-14.86a74.8 74.8 0 0 1 7-6.55c6.94-5.13 12.88-11.22 18.63-17.61 7.39-8.24 14.26-16.83 21-25.59a201.81 201.81 0 0 0 20.42-32.57c11.09-22 21.91-44.08 33.68-65.68 9.79-18 16.88-37.09 23.17-56.34 7.64-23.36 13.72-47.28 19.27-71.23 6.6-28.48 12.49-57.14 16.48-86.14 1-7.06 1.66-14.16 2.55-21.23.21-1.68.13-3.65 3.29-4.46.19 4.66.52 9.15.39 13.68-.56 19.7-4.16 39-8 58.24-1.87 9.22.22 16.93 3.46 24.8 2.65 6.45 9.31 8.13 15.08 4.36 4.57-3 7.87-7.12 10.74-11.75a104.28 104.28 0 0 0 14.26-37.84c2.09-12.63 6.78-23.93 12.87-34.89a53.13 53.13 0 0 0 6.64-26.72c0-5-.32-10-.77-14.95-1.07-11.72-2-23.47-3.54-35.13-2.32-17.74.11-34.8 5.74-51.65a76 76 0 0 0 3.36-16.74c.81-8.54-4.6-12.66-12.83-10.24a9.12 9.12 0 0 0 -3.59 2.18c-2.29 2.24-4.49 4.58-6.55 7-4.8 5.74-9.43 11.63-14.28 17.33-1.73 2.24-3.47 4.86-7.67 3.76zm522.22 841.25c4.08-3.93 7.93-7.59 11.71-11.32 2.78-2.73 5.84-5.29 8.13-8.41a25 25 0 0 1 14.94-9.6q13.51-3.3 27-6.54c26.27-6.25 51.23-15.46 72.76-32.35 7.57-6 14.78-12.38 22.52-18.09 6.37-4.71 11.83-10.22 17.26-15.93 7.91-8.32 11.6-18.13 10.24-29.31-2.67-21.91-10-30.84-27.35-36.87a112.7 112.7 0 0 0 -33.52-6.26c-24-.82-47.79 1.51-71.61 3.27-20.74 1.54-40.9 6.32-58.88 17.7-6.65 4.21-13.94 5.34-21.6 4.13a81.46 81.46 0 0 1 -12.53-2.7 69.06 69.06 0 0 0 -25.4-2.87c-14 .78-27.6 3.13-40.73 8.2-7.65 3-15.43 5.56-23.2 8.2-16.86 5.75-33.86 11.14-50.62 17.2-26.82 9.71-50.81 24-71.4 44.09a370.29 370.29 0 0 0 -49.1 59.21c-6.6 9.83-13.39 19.36-22.2 27.31-10.06 9.07-19.59 18.84-30.39 26.92-9.36 7-19.87 12.65-30.4 17.83a168.94 168.94 0 0 0 -44.53 31.12c-8.65 8.5-17 17.31-25 26.44-7.73 8.86-15.42 17.94-20.35 28.76-5.17 11.35-10.48 22.73-14.43 34.53-5.81 17.3-9.51 35.14-8.16 53.61 1.12 15.43-.8 30.69-3 45.83-2.41 16.94-6.11 33.68-9.34 50.49-2.37 12.33-4 24.77-2.35 37.26 2.35 18.3 8.68 34.55 25.66 44.58a37.22 37.22 0 0 1 5.84 4.68 20.31 20.31 0 0 0 13.65 5.22c18.94.68 33.47-8.3 46.18-21.07a18.74 18.74 0 0 0 5-11.56c1.3-12.17 5.22-23.63 10-34.86 5.13-12.15 9.93-24.43 15-36.6a116.25 116.25 0 0 0 7.52-27.8c1.2-8.1 3.1-16.11 4.86-24.12.32-1.45.34-3.6 3.1-3.7a25.83 25.83 0 0 1 .46 4.17c-1 17.86-2.83 35.62-9.36 52.44-5.42 14-11.25 27.76-17.15 41.53-4.11 9.59-7.2 19.44-7.92 29.85-1.16 17 3.29 31.74 17.43 42.5a21.61 21.61 0 0 1 4 3.53c5.38 6.81 12.88 8.53 20.95 8.9 11.62.55 22.28-2.19 33-7.2 12.75-6 21.37-15 26.42-26.55-1.44-7.36-2.67-13.62-3.88-19.9-2-10.67-.26-21.33 0-32 .4-14.79 4.3-28.89 7.62-43.12a36.53 36.53 0 0 1 2.7-7c3.15-6.79 6.43-13.53 9.62-20.31a153.71 153.71 0 0 1 20.84-32.3 240 240 0 0 0 26.46-40.08c.92-1.72 1.2-4.25 3.93-4.45.29.2.77.37.78.58a6.9 6.9 0 0 1 0 3 177.49 177.49 0 0 1 -24.74 42.37c-9.15 11.51-17.3 23.57-23.39 37-3.54 7.79-7.94 15.33-10.31 23.47-6.11 21-8.51 42.61-8.28 64.51.19 18.58 7.75 33.81 20.81 46.59a36.65 36.65 0 0 0 14.44 8.85c15.26 5 28.77 1.87 41.29-7.63 10.19-7.73 17.62-17.76 23.53-28.81 12.3-23 24.18-46.13 34.79-69.91a18.92 18.92 0 0 0 1.39-6.14c1.19-15.66 2-31.34 3.46-47 1.9-20.3 5.14-40.34 12.9-59.41 5.25-12.88 10.28-25.85 15.26-38.84 4-10.31 8.19-20.55 9.76-31.62a29.09 29.09 0 0 1 2.21-7.12c.27-.64 1.73-.76 2.63-1.12.37.89.93 1.57.86 2.17-1.1 9.2-1.91 18.48-5.07 27.27-5.06 14.09-10 28.23-15.58 42.12-6.28 15.64-11.56 31.48-13.59 48.28-1 8.14-2 16.27-2.91 24.42a636.6 636.6 0 0 0 -3.7 71.6 82.28 82.28 0 0 0 10.51 39.92c2.5 4.56 6 8.09 10.79 10q11.48 4.38 23.14 8.27a14.89 14.89 0 0 0 6.34.53c12.82-1.5 24.25-5.79 32.37-16.57a135.24 135.24 0 0 0 17.83-31.56c8.75-22 13.57-45.06 20.37-67.57 6-19.79 12.39-39.46 18.92-59.07 3.72-11.16 8.47-22 12.07-33.18 4.31-13.4 10-25.91 19.18-36.72 4.29-5 6.26-11.08 7.09-17.62 1.13-9 .44-17.78-1-26.64-1.95-11.74-6.33-22.64-11.07-33.44-5.11-11.62-6.58-23.29-.65-35.11a5.47 5.47 0 0 0 .35-1c3.83-12.86 5.88-25.73.64-38.79-1.42-3.68-2.27-7.53-3.82-12.71zm-1360.62 261.07 2-.56c.88 3 2 5.87 2.59 8.89 1.73 8.75 3 17.59 4.92 26.31 3.43 15.77 10.06 30.43 16.33 45.2 6.41 15.11 13.27 30.06 14.9 46.71.67 6.81 4.25 12 9.78 15.87a57.63 57.63 0 0 1 6 4.42c9.78 9 21.77 11.66 34.5 12.08a20.79 20.79 0 0 0 14.74-5.32c3.21-2.78 6.95-5 10.38-7.51a26.12 26.12 0 0 0 4.84-4.15c8.09-9.81 14-20.79 15.6-33.52 1.29-10.27 1.57-20.64-.32-30.95-3.42-18.59-6.87-37.19-10.07-55.82-3-17.62-4.71-35.33-3.75-53.27a118.62 118.62 0 0 0 -1-19.18c-1.69-15.34-6-30-11.66-44.35-6.44-16.39-14.14-32-25.72-45.4-6.29-7.29-12.66-14.53-19.22-21.58-16.94-18.21-36.25-33.07-59.07-43.48a129.78 129.78 0 0 1 -27.39-16.62c-12.19-9.81-23.38-20.89-34.66-31.76a84.09 84.09 0 0 1 -11.51-14c-15.68-23.52-32.59-46-53.17-65.54-11.14-10.56-22.58-20.79-36.09-28.39-20-11.26-41.21-19.6-63-26.63-13.9-4.48-28-8.51-41.59-13.8a153.68 153.68 0 0 0 -42.54-9.92 81.14 81.14 0 0 0 -32.79 3.45c-12.62 4.16-24.58 2.74-35.69-5a49.6 49.6 0 0 0 -10.51-5.24 134.2 134.2 0 0 0 -34.16-8.58c-12.05-1.29-24.2-1.62-36.26-2.86-16.38-1.68-32.78-1.63-49.2-1.2-12.68.34-24.67 3.69-36.09 9-4.51 2.12-8.95 4.61-11.69 9.07-4.14 6.75-7.35 13.93-8.35 21.84-1.45 11.52 1.08 21.9 9 30.81 5.49 6.15 11.16 12 17.86 16.88 3.17 2.3 6 5 9.18 7.36 9.4 7.06 18.45 14.7 28.39 20.91 16.14 10.08 34 16.47 52.42 21.1 11.42 2.86 22.86 5.62 34.3 8.4a21.94 21.94 0 0 1 12.35 7.88c3.11 3.86 6.92 7.16 10.43 10.69s7 7 10.49 10.51c-1.68 5.74-2.91 11-4.75 15.93a35.17 35.17 0 0 0 -1.85 17.9c1 6.31 1.82 12.87 4.22 18.7 5 12.11 4 23.63-1.09 35.22-1.14 2.62-2.3 5.23-3.46 7.84a106.39 106.39 0 0 0 -9 38.36c-.55 11.53.13 23 8.32 32.34 8.69 9.88 13.65 21.66 17.88 33.84 7.72 22.24 15.57 44.43 22.94 66.78 5 15.23 9.9 30.56 13.79 46.11a477.24 477.24 0 0 0 14.95 48 126.26 126.26 0 0 0 16.3 30c6.76 9.46 15.66 15.4 27.11 17.62 4.19.81 8.36 2.5 12.62 1q12.58-4.45 25-9.36c4.1-1.62 7-4.77 9.19-8.63 5.93-10.38 10.15-21.42 10.43-33.39.37-15.69.27-31.42-.46-47.1-.71-15-2-29.92-3.91-44.78-2.06-16.27-4.85-32.45-10.88-47.88-5.85-15-11.26-30.07-17.1-45a130.34 130.34 0 0 1 -7.78-32.16 52.8 52.8 0 0 1 0-6c4.37.19 4.07 3.24 4.72 5.44 2.92 9.91 5.29 20 8.71 29.74 4 11.43 8.73 22.63 13.45 33.8a208.65 208.65 0 0 1 15.71 62c1.72 18.11 2.88 36.28 4.33 54.43a15.72 15.72 0 0 0 1 5.2c4.27 9.41 8.55 18.83 13.16 28.08 6.22 12.45 12.93 24.66 19.08 37.14 4.14 8.4 9.47 15.94 15.14 23.3a60.53 60.53 0 0 0 16 14.07c14.71 9.23 30.43 9.75 44.49.45a58.5 58.5 0 0 0 26.33-41.22c1.64-11 .6-22 .2-33.09-.53-14.44-4.54-28.14-7.5-42.08a23.41 23.41 0 0 0 -1.85-5c-3.74-8.1-7-16.51-11.46-24.17a321.18 321.18 0 0 0 -20-30.31 200.64 200.64 0 0 1 -25.22-43.32c-.52-1.25-.95-2.72 1.22-3.41 2.92 1.67 3.44 5.06 5.11 7.67 7.13 11.09 13.31 23 21.74 33 15.67 18.6 26.22 39.85 35.75 61.82a39.06 39.06 0 0 1 1.64 5.08c5 18 6.82 36.45 7.63 55a98.27 98.27 0 0 1 -5.11 35.47c6 14 13 20.62 25.93 27.41 12.16 6.38 24.62 9 38.17 7.16 6.24-.85 11.67-2.81 15.91-7.79 2.05-2.41 4.89-4.13 7.28-6.26 1.86-1.66 3.94-3.23 5.26-5.26 6.81-10.41 10.87-21.62 9.59-34.35a101.8 101.8 0 0 0 -7.79-29.92c-5.18-12.13-9.8-24.51-15.24-36.53-7.35-16.24-9.27-33.59-11.28-51-.42-3.54-.07-7.11-.07-10.64zm-444.18-288.34a61.56 61.56 0 0 0 -2.74 6c-3.32 10.55-6.83 21.06-9.74 31.72-3.65 13.41-7.6 26.8-8.56 40.76-.79 11.5-3.62 22.47-7.28 33.35a100.94 100.94 0 0 0 -4.68 19.65 324 324 0 0 1 -12.18 57.49 166.86 166.86 0 0 0 -6.82 33.47c-1.09 11-2.37 22-4.07 32.93-3.14 20.18-9.51 39.53-16.16 58.77-14.24 41.18-22 83.42-20.78 127.13q.75 27.27 1.45 54.55c.2 7.86.15 15.72.53 23.56.42 8.54 1.46 17.06 1.8 25.6a573.68 573.68 0 0 1 -2.6 83.41c-1.27 12.07-2.4 24.15-3.26 36.25-.79 11-1.52 22.07-1.54 33.11 0 7.73.67 15.6 5.27 22.41 2.08.19 3.85.5 5.61.5q39.63-.18 79.27-.47a20.52 20.52 0 0 0 4.17-.75c2.75-6.77 4.88-12.83 7.62-18.6 3.83-8 7.64-16.17 12.33-23.72 6.34-10.23 9.84-21.19 11.8-33a215.23 215.23 0 0 1 6.09-26c4.36-14.7 9.51-29.17 13.89-43.86a344.85 344.85 0 0 1 23.1-58.64c5.84-11.42 12.17-22.57 16.87-34.62 7.15-18.37 11.15-37.62 16.9-56.37 3.35-10.91 6.21-22 9.21-33 1.21-4.46 3.16-9 3.05-13.47s-2.44-8.86-3.73-13.31c-.7-2.4-1.33-4.82-1.87-7.26a510.79 510.79 0 0 0 -15.49-55.64c-1.62-4.72-2.89-9.56-4.4-14.32q-3.23-10.21-6.58-20.38c-4-12.2-8.46-24.27-11.92-36.62a64.64 64.64 0 0 0 -13.7-25.1c-2.33-2.71-5.05-5.16-6.91-8.16a43.58 43.58 0 0 1 -5.38-11.51 65.29 65.29 0 0 1 -1.78-23.39c1.47-13.92 4.28-27.59 10.41-40.24 6.21-12.82 7.89-25.15 2.64-39.11-4.95-13.18-5.41-27.26.45-40.84a86 86 0 0 0 2.84-9.32c-3.08-2.82-6-5.4-8.8-8.09-3.09-3-6.39-5.75-9-9.08a21.64 21.64 0 0 0 -12.31-8c-10.72-2.49-21.45-5.04-33.02-7.79zm949-158c16.37-12.44 33.14-22.62 51.28-30.28 9.52-4 19.24-7.6 29-11.1 7.83-2.83 15-6.66 21-12.47 17-16.35 33.55-33.13 48-51.76a79.13 79.13 0 0 1 25-21.46c14.55-7.91 27.07-18.4 38.62-30.27 4.86-5 6.81-10.17 7.1-17 .82-19.23 1.55-38.51 5.39-57.48a27.73 27.73 0 0 0 0-4.42c-1.54 1.73-2.43 2.4-2.9 3.3-11.8 22.27-27.5 41.67-44.91 59.65-9.89 10.22-20.93 19.3-31.21 29.17-7.73 7.43-15.47 14.77-22.34 23-5.94 7.13-11.66 14.51-18.22 21-8.83 8.8-18.28 17-27.65 25.23-2.65 2.33-5.93 4-9 5.81s-6.19 3.56-9.25 5.39c-12.67 7.59-26.38 12.55-40.68 15.88-14.06 3.27-28.39 2.3-42.64 2.17-3.14 0-6.25-1.33-9.39-1.91-4.2-.77-8.41-1.51-12.63-2.09-3.89-.54-7.81-.8-11.7-1.29-9.2-1.15-18.4-2.3-27.59-3.56a131 131 0 0 1 -52.78-19.59c-10.83-6.87-21-14.76-31.3-22.46a61.8 61.8 0 0 1 -11-10.15c-9.7-11.91-18.91-24.2-26.57-37.56-7.09-12.39-14.19-24.78-21.09-37.28-8.47-15.34-17.65-30.17-29.65-43.1-2.66-2.87-4.9-6.13-7.43-9.13a44 44 0 0 0 -4.15-3.58c.76 13.28 1.08 24.93 2.19 36.51 1.15 12.12-1 24.09-1.21 36 7.38 5.72 14.56 11 21.44 16.66q43.83 36.06 87.54 72.29c18.18 15 36.31 30 53.84 45.77a135.39 135.39 0 0 0 20.48 15.45c18 10.85 36.5 21 54.72 31.52 7.1 4.11 14 8.61 21 12.73 2.39 1.38 5.08 2.8 7.75 3.07 8.89.88 17.75.89 26.56-1.45 22.07-5.87 44.28-11.23 66.31-17.23 24.85-6.77 49.18-15.08 71.31-28.6 22.54-13.77 45.2-27.38 66.43-43.17a117.6 117.6 0 0 1 25.17-14 160.27 160.27 0 0 0 36.19-20.6c9.91-7.61 20.06-14.91 29.88-22.62 15-11.77 28.08-25.27 37.86-41.85a340.15 340.15 0 0 1 18.45-28.86c21.38-29.06 38.32-61.07 60.18-89.8 6.29-8.27 12.44-16.49 21.52-22.06 4.54-2.79 8.63-6.34 12.78-9.72a21.27 21.27 0 0 0 4.26-4.72 42.3 42.3 0 0 0 6.14-34.71c-4.92-20.67-17.64-35.68-34.4-47.44-10.07-7.06-17.37-15.26-20.72-27.4a42.06 42.06 0 0 0 -19.61-25.8c-11.57-6.78-21.29-15.06-27.94-27.25a31.82 31.82 0 0 0 -19.66-15.72c-1.13 3.84-1.85 7.35-3.21 10.6-2.34 5.6-2 10.88-.08 16.59 5.26 15.91 10 32 15.07 47.95a110.61 110.61 0 0 1 5 29.47c.43 12.24-2.8 23.44-10.77 32.82-14.33 16.86-28.62 33.77-45.65 48.11a57.13 57.13 0 0 0 -9.69 11.3c-6.92 10-13.34 20.27-20.27 30.24-7.16 10.3-13.63 21-18.34 32.6-9.09 22.45-22.4 42.11-38.06 60.42-17.53 20.49-36.28 39.38-60.58 52-6.75 3.49-12 8.92-16.65 14.9-14.89 19.26-32 36.43-49.31 53.5a62.47 62.47 0 0 1 -24.45 14.91c-5.07 1.71-10.1 3.55-15.12 5.42-16.11 6-31.31 13.85-46.2 22.37-5.57 3.19-11.19 6.39-17.68 7.4a17.34 17.34 0 0 1 -3.78-.24zm854.84 376.32a74.42 74.42 0 0 0 -3.27 7c-3.52 10.85-6.87 21.76-10.39 32.61-6 18.64-12.17 37.26-18.25 55.89-.34 1-.62 2-.9 3.08-4.68 17.56-9.33 35.14-14.08 52.68-.76 2.79-1.36 5.39-.53 8.35 2.52 8.91 4.73 17.92 7.18 26.85 4.43 16.16 8.76 32.35 13.48 48.43 4.63 15.74 10.05 31.16 18 45.68 8.53 15.64 16.84 31.43 22 48.64a82.24 82.24 0 0 1 3.8 26.28c-.29 11.38-.43 23 3.27 33.92 3.76 11.13 8.49 21.93 12.86 32.84.21.54 1 .85 1.83 1.5a44.82 44.82 0 0 0 2-5q3.08-11.34 6-22.72c2.55-10.06 4.44-20.22 3.48-30.68-1.19-12.77-2.37-25.55-3.76-38.31s-3.54-25.46-4.44-38.25c-1.26-18.14-1.83-36.33-2.41-54.51a260.4 260.4 0 0 0 -4.1-37.18c-3-17.2-6.51-34.33-9.11-51.59-3.73-24.72-5.17-49.66-6.16-74.63-.39-10-.6-20-3.48-29.67-3.97-13.24-8.29-26.34-12.98-41.19zm-1302.7 499.34a8.82 8.82 0 0 0 1-2.39c.7-25.29 2.16-50.6-2.21-75.77-2.19-12.64-3.46-25.45-7.84-37.64-1.32-3.68-2.09-7.56-3.19-11.32a91.38 91.38 0 0 1 -3-37.09 92.52 92.52 0 0 0 -.19-26.59c-.56-3.5-.16-7.15-.73-10.65a138.14 138.14 0 0 0 -3.58-16.65c-1.12-3.8-3.45-7.08-8.86-7.53-5.46 11.65-6.08 25.53-14.77 35.66 8.7 10.67 9.38 12.42 11 25.54.64 5.31 1.54 10.59 2.35 15.88a301.42 301.42 0 0 1 3.75 47.93c-.11 17.48.33 35 .66 52.44.25 13.55.75 27.09 1 40.64 0 1.53.52 3.51-1.56 4.44-2.81-.92-2.2-3.32-2.28-5.25-.38-10-.22-20-1-30-1.59-19.22-2.39-38.45-2.14-57.71a297 297 0 0 0 -3.83-53.27c-1.13-6.67-1.49-13.46-2.35-20.18-.78-6.12-2.32-11.87-8.75-15.32-7 5-14 9.56-19.88 15.27a137.42 137.42 0 0 1 9.75 41c.7 8.16 1.48 16.33 1.8 24.51.85 21.74 1.48 43.49 2.17 65.23.15 5 .08 10 .32 15 .37 7.79.91 15.57 1.38 23.24 1.51.58 2.48 1.27 3.44 1.28q21.95.09 43.9 0a17.18 17.18 0 0 0 3.64-.7zm-164.78-155.7c-10.38-2.58-30.67-4.1-39-3a23.2 23.2 0 0 0 -.9 2.89c-2.13 11.68-1.65 23.47-.91 35.18 1.29 20.73 0 41.38-2 61.92a456.69 456.69 0 0 0 -2.26 52.28c0 2.39.74 4.78 1.25 7.87a180.49 180.49 0 0 0 22.61.31c7.7-.25 15.57 1.31 23.43-1.28.26-2 .57-3.74.67-5.47.72-12.09 1.58-24.17 2-36.27.27-7.83.07-15.68-.25-23.51-.4-10-1.3-19.89-1.69-29.85-.75-18.84-1.27-37.7-1.95-56.55a26.51 26.51 0 0 0 -1-4.48zm1367.74 152.16c-.1-2 .16-4.13-.36-6.08-2.73-10.33-5.6-20.63-8.53-30.91-2.45-8.56-5.51-17-7.48-25.65a347.71 347.71 0 0 0 -13.22-44c-7.79-21.06-15.11-42.3-22.66-63.45a40.73 40.73 0 0 0 -1.91-3.9c-11.5-.22-21.62 3.85-32.2 7.29 3.67 11.06 6.92 21.6 10.67 32 10.43 28.88 19.35 58.23 25.38 88.32 3.25 16.23 10 31.14 14.52 46.68 9.42 1.38 26.86 1.24 35.79-.3zm-1322.1 3.54c1.38-8.41.14-16.93.24-25.43s0-17.13.87-25.61.43-17 .06-25.57c-.39-8.88-.85-17.85.06-26.65.88-8.64-.84-17-.72-25.56s1.07-16.94-.91-25.46c-12.8-.33-25.18-.66-37.56-1a1.61 1.61 0 0 0 -.95.35 11.18 11.18 0 0 0 -1.29 1.62c.39 7 .84 14.75 1.27 22.52.52 9.59 1.77 19.21 1.32 28.76a224.4 224.4 0 0 0 .8 28.77 131.06 131.06 0 0 1 .81 13.84c-.41 17.43-1.07 34.85-1.61 52.28-.07 2.4 0 4.81 0 7 8.61 2.45 28.99 2.42 37.61.14zm-166.67 1.44c.65-13 2.73-25 2.18-37.1-.59-12.84-.67-25.59 1.55-38.39a156.07 156.07 0 0 0 1-44.76c-.65-5.62-.2-11.4.05-17.09.48-11 1.21-22.07 1.73-33.11a47.53 47.53 0 0 0 -.58-6.49c-7.34-2.52-12.18-9.14-19.91-10.12-4.7 2.4-5.43 6.65-6.05 10.92a330.79 330.79 0 0 0 -3.3 43.69c-.1 8.9-.82 17.79-1.35 26.68-.31 5.34-1.16 10.68-1.1 16 .12 10.78-1.71 21.25-3.72 31.78-3.09 16.12-5.22 32.38-4.9 48.86.06 3.1-.52 6.49 2.71 9.56a314.12 314.12 0 0 0 31.73-.43zm70.5-1c.13-3.26.35-6.73.4-10.2.17-13.9 0-27.77 1.44-41.68 1.86-18.43 3.16-36.93 2.84-55.53-.27-15.68.64-31.39 1-47.08 0-2-.23-4-.34-5.73-9.37-2.11-18.07-4.09-26.77-6-2-.44-4.06-1.43-6.15.5a13.84 13.84 0 0 0 -.73 2.84c-.9 14.94-1.82 29.89-2.56 44.84-.42 8.55-1.32 17.18-.63 25.66 2 24.3-1.58 48.49-.74 72.75.13 3.85-1.24 7.73-1.63 11.63-.27 2.72-.05 5.49-.05 8.14 9.09 1.79 24.66 1.77 33.96-.16zm1296.47-163.71c.39 2.41.42 4.55 1.09 6.45 2.63 7.39 5.28 14.79 8.26 22a135.36 135.36 0 0 1 8.33 27.6 390.78 390.78 0 0 0 11.43 47.85q7 22.46 14 44.93c1.25 4 2.53 8 3.88 12.22h26.29a51.8 51.8 0 0 0 5.61-.71c-.15-2 0-3.86-.47-5.46a104.08 104.08 0 0 0 -4-11.05 129.13 129.13 0 0 1 -7-22.4c-5-21.16-10.36-42.26-16.21-63.21-4.12-14.76-9.25-29.23-14-43.81-2.19-6.71-4.55-13.35-6.76-19.81-1.83-.19-2.93-.56-3.91-.36-8.68 1.82-17.33 3.74-26.5 5.74zm-1406.4 164.63c.13-2.28.35-4 .31-5.67-.53-20.76 2.29-41.19 5.69-61.59.7-4.19 1.08-8.45 1.42-12.7.81-10.29 1.52-20.6 2.23-30.9.56-8.16 1.36-16.31 1.53-24.47.36-18.12 1.27-36.13 6.56-53.61l-18.64-13.32a26.42 26.42 0 0 0 -1.48 4.62q-.84 7.42-1.36 14.88c-.81 11.72-1.36 23.47-2.37 35.17-.65 7.43-1.29 15-3.08 22.18-5 20-10.71 39.89-15.83 59.9-4.24 16.55-8.07 33.21-12 49.85-1.2 5.16-1.66 10.4.31 16.47 12.33-.31 24.26.68 36.71-.81zm-76 0c-.37-5.35-3.75-9.06-7-12.71-3.78-4.27-8-8.16-11.82-12.37-9.91-10.83-15.36-23.74-18-38.08a107.92 107.92 0 0 1 -1.93-25.51c.74-14.44-4.06-27.74-7.66-42.75-1.4 2.35-2.34 3.41-2.73 4.65-1.6 5.09-2.78 10.32-4.58 15.33a231 231 0 0 0 -11.47 44.41c-.16 1.05-.54 2.07-.69 3.13-1.06 7.55-4.24 14.2-8 20.76-6.08 10.47-11.73 21.19-17.37 31.9-1.78 3.39-4 6.84-2.61 11.52a44.62 44.62 0 0 0 5 .73c19.09.84 80.59.15 88.82-.97zm1754.81-5.08c-2.37-13.11-7.16-24.28-11.05-35.69-4-11.82-8.67-23.42-13.11-35.08-4.21-11-7.5-22.47-14.7-34.34-.9 5.71-1.76 9.51-2 13.36a54.23 54.23 0 0 1 -9.1 26c-5.25 8.09-10.24 16.33-15.54 24.38a125.43 125.43 0 0 1 -9.48 12.93c-7.91 9.22-16.19 18.09-26 25.41-1.12.84-2.32 1.82-1 4h97a32.93 32.93 0 0 0 4.94-.93zm-118.22.17c-2.2-9.51-3.77-18.61-7-27.24a393.41 393.41 0 0 1 -14.06-47.12q-4.67-19.8-9.34-39.59c-3.13-13.2-6.45-26.34-12.09-38.77-3.53-7.79-7-15.61-10.57-23.4a20 20 0 0 0 -10.24-10c-8.33 3.17-9.49 3.91-16.81 10.9 1.2 3.66 2.38 7.71 3.85 11.66 7.57 20.41 15.44 40.7 22.75 61.2 3.59 10 6.3 20.42 9.21 30.7 2.53 8.92 4.74 17.93 7.17 26.88 3.18 11.69 6.45 23.36 9.66 35 .67 2.41.89 5 2 7.21.66 1.39 2.42 3.07 3.8 3.17 6.91.6 13.97 1.21 21.63-.56zm-1604.59 5a126.16 126.16 0 0 1 3.77-27.75c6-24.19 12.36-48.31 18.5-72.48 3.32-13.1 8-25.88 9.41-39.44q3.43-33.42 6.77-66.87c-2.75-3.42-5.36-6.79-8.11-10s-4.77-7.68-9.72-9.58a19.32 19.32 0 0 0 -1.08 3.51c-.89 11.36-1.59 22.75-2.58 34.1-.9 10.29-1.7 20.61-3.25 30.81-3.74 24.7-11.2 48.57-17 72.8-.92 3.78-2.51 7.41-3.8 11.11-1.41 4-2.73 8.09-4.28 12.07-7.18 18.43-7.49 38.32-12.66 57.49 6.86 8 15.41 4.68 23.99 4.26zm1429.74-3.72c10 .48 19.83.9 30.16-.37-.37-2.23-.57-4-1-5.65-3.82-17-7.9-34-11.43-51-4.46-21.62-8.17-43.4-15.37-64.38-1.6-4.67-2.22-9.69-3.31-14.55-1.7-7.59-3.42-15.17-5.07-22.5-8.51-1.25-19.58.12-28 3.44.79 3.64 1.49 7.44 2.43 11.17 4.83 19.35 10.06 38.61 14.5 58.05 3.57 15.62 6.36 31.42 9.22 47.19 1.59 8.75 2.71 17.59 3.84 26.41a32.34 32.34 0 0 0 3.99 12.22zm219.81-42.09c-8.16-29.12-11.66-59.08-22.94-87-1.06-2.63-1.44-5.53-2.35-8.23-5.11-15.19-9.75-30.57-15.62-45.47-3.78-9.6-8.31-18.88-11.18-28.87-1.47-5.11-3.86-10-9.07-13.33-7.12 5.92-11.38 14.42-18.34 20.23.32.72.37 1.18.61 1.34 10.76 7 16.35 17.42 19.33 29.58.93 3.8 2.46 7.45 3.56 11.21 2.8 9.56 5.58 19.13 8.25 28.73 1.63 5.84 2.94 11.76 4.57 17.59 4.7 16.81 9.52 33.6 14.22 50.41a60.55 60.55 0 0 1 1.35 7.35c.87 5.64 1.54 11.31 2.55 16.93a60.69 60.69 0 0 0 2.65 10.33c1.14 3.12 1.3 6.86 4.69 9.78 6.15-6.59 12.34-12.42 17.68-20.55zm-1536.83 45.4c.5-1.94.94-3.62 1.35-5.31 2.47-10.18 1.71-20.6 2.23-30.92.94-18.88 3-37.74 1.06-56.68a31.87 31.87 0 0 1 0-5.35c1.42-21 2.89-42 4.29-63 .16-2.41 0-4.83 0-7.64-8.78-2.14-16.49-6-25.44-5.49-2.1 4.71-2 9.41-2.07 13.92q-.21 26.78.11 53.55a201.39 201.39 0 0 1 -1.59 30.94c-1.82 12.68-3.79 25.39-1.46 38.34.74 4.1-.2 8.51-.47 12.77-.42 6.41-1.06 12.8-1.31 19.21-.08 1.95.79 3.94 1.26 6.08 7.69.54 14.71 1.05 22-.39zm1436.21-192.36c2.6 3.51 5.12 6.11 6.7 9.19 3.56 7 6.71 14.17 9.93 21.32 7.51 16.68 11.49 34.45 15.77 52.11 3.77 15.59 6.92 31.35 11.38 46.74 5.16 17.77 12 35 16.64 53 .15.57.84 1 1.75 2.06 5.39-2.49 9.66-6.49 13.72-11-.45-2.7-.38-5.34-1.33-7.55-4.31-10-5.23-20.66-6.88-31.22a146.69 146.69 0 0 0 -3.53-16.73c-4.29-15.45-8.88-30.81-13.29-46.23-1.37-4.79-2.51-9.65-3.81-14.46-1.87-6.87-3.71-13.75-5.69-20.59-2.08-7.19-4.59-14.27-6.38-21.53-1.5-6-4.5-11.22-7.65-16.39a18.44 18.44 0 0 0 -12.37-8.9zm-1270.63 31.75a32.73 32.73 0 0 1 4.55 18.51 37.39 37.39 0 0 0 .82 7.42 235.49 235.49 0 0 1 2.84 37.23c.25 30.26-1.22 60.54 1 90.77.15 2 .54 4 .86 6.34 9 .47 17.3 1.61 25.84-1 0-1.9.11-3.3 0-4.67-1.06-12-2.8-24.07-3.12-36.13-.67-24.55-1-49.1-2.69-73.62a287.27 287.27 0 0 0 -3.6-29.61 144.7 144.7 0 0 0 -3.84-16.6c-.64-2.13-2.62-3.86-3.94-5.69zm4.06 160.3c0-6.66.16-12.33 0-18-.26-7.11-1.29-14.21-1.19-21.31.49-35.67 1.27-71.33-3.31-106.83-.61-4.67-1.32-9.19-5.78-12.76l-15.57 2.89c-.2 2.48-.56 4.55-.51 6.61.23 10.34 1.18 20.71.75 31-.84 20 .25 39.92.14 59.87 0 2.86-.13 5.71-.16 8.56-.19 14.62-.41 29.24-.49 43.85 0 2 .71 4 1.14 6.22a111.59 111.59 0 0 0 24.98-.1zm1003.59-12.38c0-8.94-.16-16 .05-23.1.16-5.33 1-10.63 1.17-16 .3-8.56.29-17.13.49-25.69.23-10 .15-19.93-1.76-29.85-1.14-5.91-1.14-12.06-1.44-18.11-1-20.67-2.19-41.31-6.64-61.6-1-4.59-1.64-9.07.13-13.67a9 9 0 0 0 .28-5.1c-4.63-17.7-10.93-34.7-21.88-49.62-.79-1.07-1.61-2.39-3.68-.82.57 10.09 3.15 20.11 6 30a220.38 220.38 0 0 1 6.44 31.41c.61 4.59 1.57 9.14 2.35 13.7 2.25 13 4 26 2.72 39.35-1.47 14.89-1.58 29.91-2.38 44.87-.57 10.68-1.43 21.34-1.91 32-.39 8.89-.48 17.8-.58 26.7 0 1.74-.08 3.94.87 5.14 5.46 6.93 10.36 14.45 19.77 20.39zm-4.51-184.62c.44 3.76.5 5.8.93 7.75a256.88 256.88 0 0 1 5.28 34.8c1.51 18.78 2.15 37.61 3.67 56.41 1.6 19.8 1 39.83-.64 59.76a136.33 136.33 0 0 0 .64 24.48c.77 7.8 4 10.57 11.57 11.31 3.79.37 7.73.7 11.82-.87 0-2.76.07-5.18 0-7.59-.31-8.9-.73-17.79-1-26.69-.73-24.19.89-48.42-2.27-72.57a133.14 133.14 0 0 0 -4.31-21.88c-4.89-16-7.6-32.48-9.6-49.39zm90.12 38.53c1.82 9.73 3.38 18.08 5 26.43 2.82 15 5.78 30 8.44 45.11 1.36 7.7 1.44 15.7 3.45 23.2a305.2 305.2 0 0 1 8.6 45 42.75 42.75 0 0 0 5.47 16.18c3.65 0 6.84.12 10 0 3.37-.16 7 .87 10.65-1.79-2.94-17.26-5.63-34.44-8.85-51.52-3.29-17.48-6.33-35.08-10.92-52.24-4.49-16.78-6.76-34.15-12.81-50.37zm-1366.83-89.67c-1 3.29-2.19 5.44-2.32 7.65-.49 8.54-.59 17.11-1 25.66-.72 17.13-2.39 34.17-6.74 50.8q-11.07 42.42-22.56 84.74c-4.2 15.48-8.79 30.86-13.16 46.31-.66 2.33-1.06 4.74-1.6 7.21 4.7 4.8 9.15 9.35 13.64 13.87.16.17.62 0 1.51 0 1.69-3 1.78-6.52 2.09-10 1.58-17.19 6.59-33.53 12.09-49.76 2.74-8.09 5.53-16.17 7.87-24.38q3.67-12.84 6.47-25.92c3-14.29 6.11-28.59 8.41-43 1.81-11.25 2.48-22.68 3.64-34 1.12-10.94 2.23-21.88 3.41-33.46zm1337.52 244.62c-1.23-20.6-2.24-40.85-3.7-61.06-1-13.49-2.59-26.94-4-40.41-.69-6.73-1.56-13.44-2.31-20.17-.83-7.44-1.4-14.91-2.49-22.31-.93-6.27-2.43-12.46-3.68-18.73-8.16-2.56-14.84-7.18-22.42-9.91-.4 1.35-.87 2.08-.74 2.68 2.43 11.87 4 24 7.69 35.48 3.82 11.7 5.43 23.54 6.57 35.59a201 201 0 0 1 .85 27.77c-.41 9.59.44 19.24.59 28.87.15 10 0 20 .22 30 .08 4.2.16 8.49 2 12.76 7.27.79 14.16 1.41 21.42-.56zm311.41-51.08c.65 0 1.14.14 1.26 0 2.19-2.76 4.27-5.6 6.49-8.34 5.16-6.35 4.48-13 1.63-20.09-2.51-6.26-4.45-12.75-6.43-19.2-1.47-4.76-2.58-9.63-3.9-14.43-3-11-6.56-21.88-9-33-3-13.26-7.06-26.13-11.23-39-5.59-17.29-12.79-34-17-51.79a62.57 62.57 0 0 0 -3.59-10c-.82-1.88-2-3.73-4.79-3.41l-15 21c6.75 7.13 10.28 15.94 12.73 25.35.88 3.43 2.54 6.65 3.8 10 6.08 16 12.29 31.9 18.17 47.95 4.29 11.7 8.18 23.56 12.17 35.37a83.44 83.44 0 0 1 2.26 8.23c3.69 16.33 7.31 32.68 11 49a8.37 8.37 0 0 0 1.43 2.36zm-163.56 50.93c-.49-2.78-.72-5.23-1.38-7.57-2.12-7.54-4.36-15.06-6.63-22.57-6.71-22.2-13.44-44.37-17.46-67.29a200.82 200.82 0 0 0 -6.11-23.81c-3.44-11.25-7.28-22.37-11.06-33.51a42.06 42.06 0 0 0 -2.69-5.42c-5.5.1-10.5-.46-15.82 1.74a68.9 68.9 0 0 0 1.16 7.18c4.64 17.21 9.9 34.27 14 51.61 6.1 26 11.36 52.25 17 78.38 1.06 4.88 2.31 9.71 3.61 14.53.63 2.35 1.58 4.62 2.46 7.14 7.7.69 15.03 1.2 22.92-.41zm-1495.29-269.31c-4.75 14.84-4.76 28.14-5.6 41.21a233.28 233.28 0 0 1 -12 60.59c-8 23.62-15.85 47.3-23.73 71-3.83 11.48-7.33 23.09-11.49 34.45-3.1 8.47-1.77 16 2.81 23.37 1.69 2.72 3.38 5.44 5.24 8.05.52.72 1.64 1 3.08 1.87 2.34-3.51 3-7.35 4-11 1.47-5.14 2.81-10.31 4.22-15.46 6.13-22.33 12.31-44.63 18.36-67 3-11 5.48-22.12 8.61-33.07a207.73 207.73 0 0 0 7.93-58 135.38 135.38 0 0 1 5.61-39.23c-2.36-4.69-3.2-10.34-7.04-16.78zm1370.61 269.95c-.27-4.75-.45-8.61-.72-12.45-1.56-22.41-2.85-44.84-4.81-67.21-1.45-16.68-3.68-33.29-5.77-49.9-.57-4.58-1.85-9.06-2.85-13.58-1.07-4.81-2.2-9.6-3.21-14-10.12-3.14-10.12-3.14-16.15-2.32.09 1.35.09 2.74.29 4.1q2.85 20.09 5.77 40.18c1.63 11.28 3.9 22.52 4.73 33.87 1.36 18.48 1.9 37 2.52 55.56a185.34 185.34 0 0 0 2.67 25.58c5.81 1.18 11.03.93 17.53.17zm-1428.4-68.48 2.32-.14c2.41-7.39 4.84-14.78 7.23-22.18 9-27.78 18-55.56 26.85-83.37 5.09-16 9.07-32.18 9.61-49.11a191.86 191.86 0 0 1 2.47-26.56 143.28 143.28 0 0 1 6.62-24.67c2.65-7.23 1.28-13.43-2-21.2a304.24 304.24 0 0 0 -7.75 31.29c-3.22 15.68-6.37 31.39-10.34 46.89s-10.59 30.22-17 44.92c-2.13 4.88-3.79 10-5.68 15-4.41 11.64-8.55 23.38-13.36 34.86a27.37 27.37 0 0 0 -2.22 15.49c1 6.3 1.29 12.73 1.68 19.11.3 5 .18 10 .43 15a24.78 24.78 0 0 0 1.14 4.67zm1672.48-188.29c6.3 4.06 8.3 10.6 10.38 17.07 2.5 7.8 4.81 15.67 7.39 23.45 5.83 17.6 12.11 35.06 17.56 52.78 4.19 13.62 7.35 27.56 11 41.34 2.85 10.67 5.72 21.34 8.71 32 1.78 6.36 2.79 7.88 7.49 12.59a48.92 48.92 0 0 0 5.11-29.08c-1-7-3.12-13.9-5.23-20.69-1.9-6.12-4.53-12-6.73-18-5.72-15.74-11.51-31.46-17-47.27-4.82-13.79-9.68-27.59-13.86-41.58-4.59-15.38-8.37-31-12.64-46.46-.52-1.84-1.91-3.45-3.49-6.2zm-256.4 99.54c.56 4.33.56 7.22 1.34 9.87 5.31 17.89 6.46 36.49 8.81 54.8 2.9 22.57 3.66 45.42 5.54 68.13.67 8.05.38 16.28 2.76 23.94 12 1.78 17.51 1.58 24.7-1-3.8-10-4.82-20.65-6.17-31.25-.94-7.38-3.3-14.58-4.77-21.91-1.33-6.61-2.37-13.29-3.46-19.95-.51-3.17-.73-6.38-1.28-9.54q-5.45-31-11-62.06c-.55-3.1-1.32-6.15-2.09-9.69zm-103.9-102.14c-3-4.56-5.3-8.17-7.81-11.61a3.17 3.17 0 0 0 -2.81-.64c-.85.26-2.08 1.38-2 2.07a39 39 0 0 0 1.1 8.35c7.56 28.26 12.56 57 17.82 85.77a106.26 106.26 0 0 1 -3.4 52.73 203.14 203.14 0 0 0 -9.38 44.9c-.3 3.5-.64 7.27.29 10.55 2.65 9.28 6.52 18.11 12.47 25.84.76 1 1.57 2.55 4.08 1.51.16-2 .43-4.37.54-6.74.16-3.55.11-7.12.34-10.67.65-9.94 1.52-19.87 2.09-29.81 1.13-19.57 2.14-39.14 3.16-58.71a44.92 44.92 0 0 0 0-8.52c-2.41-16.56-4.67-33.15-7.65-49.61-2.16-11.9-5.58-23.56-8-35.42-1.33-6.54-2.94-13.22-.88-19.99zm430 134.57c4.15-16.12 3.58-31.43-2.25-46.63a388.88 388.88 0 0 0 -18.46-39.77 220.28 220.28 0 0 1 -15.71-38.59c-5.73-19.14-11-38.4-16.57-57.6-.66-2.27-1.71-4.43-3.21-8.24-1.47 5-2.69 8.26-3.35 11.61-1.06 5.33-1.54 10.47 3.16 14.89 1.92 1.81 2.87 4.91 3.67 7.6 4 13.68 7.75 27.46 11.84 41.13 3.76 12.63 7.52 25.27 11.87 37.71 6.59 18.84 13.64 37.53 20.58 56.25 2.69 7.26 5.61 14.43 8.43 21.64zm-1691.1-187.68c-4.34 8.63-5.47 15.7-7.48 22.45-4.89 16.41-9.34 32.95-14.34 49.32s-12.94 31.69-21 46.81c-6.42 12-11 24.76-15 37.72-2.92 9.49-2.48 18.93 1 28.78 1.27-1.67 2.6-2.8 3.13-4.23 3.37-9 6.58-18.08 9.8-27.15 1.31-3.69 2.32-7.49 3.78-11.12 3.48-8.59 7.13-17.11 10.73-25.66a231.77 231.77 0 0 0 13.38-43.92c3.23-15.71 7-31.31 10.69-46.94 1.44-6.18 3-12.35 7.36-16.78-.59-2.74-1.05-4.77-2.05-9.28zm1253 313.16c14.84 0 28.66.52 42.48-.4.38 0 .7-1 1.13-1.63-2.49-2-5.08-3.82-7.47-5.92a86.73 86.73 0 0 1 -6.83-6.73c-2.14-2.36-4-5-6.09-7.41s-4.44-4.61-6.53-7-4.11-4.91-6-7.49-3.49-5.37-5.35-8c-1.74-2.43-2.41-5.67-5.89-8.57-1.13 18.17-1.35 34.96.55 53.15zm-897.58-230.27c2.52 2 5 3.42 6.81 5.48a27 27 0 0 1 4.23 7.32 89.34 89.34 0 0 1 2.72 9.16c.68 2.39-.07 5.21 1.62 7.59.74-.66 1.17-.85 1.23-1.13q2.79-13 5.47-25.94a6.72 6.72 0 0 0 -.15-3.15c-1.8-5.75-3.61-11.5-5.64-17.17-.41-1.14-1.78-1.94-3.06-3.27a105.65 105.65 0 0 0 -13.23 21.11zm17.7-25.54c1.73 3.62 3.47 7 5 10.56.67 1.53 1.45 2.23 3.44 1.3 1.55-6.23 3.18-12.69 4.74-19.17a5.05 5.05 0 0 0 .09-3.09 6.23 6.23 0 0 0 -2.74-2.75 3 3 0 0 0 -2.73 1c-2.57 3.73-4.92 7.63-7.8 12.15z"/><g fill="#fff"><path d="m1330.85 1134.67c-1.09 2.45-1.52 3.74-2.19 4.88-3.63 6.13-7.1 12.38-11 18.31-6.72 10.1-14 19.84-20.57 30a90.11 90.11 0 0 1 -29.61 28.67c-20.46 12.47-41.7 23.38-62.75 34.71-3.36 1.8-7.25 3.09-9.92 7.54a33.08 33.08 0 0 0 4.35-.43c15.73-4 29.85-11.76 43.89-19.54 11.86-6.57 23.42-13.69 35-20.73 10-6.08 17-15.09 23.45-24.63q11.05-16.42 22.18-32.81c1.2-1.78 2.7-3.42 3.54-5.35a93.1 93.1 0 0 1 17.07-25.71 36.06 36.06 0 0 1 7.8-7 180.68 180.68 0 0 0 15.13-10.08c12.49-9.51 24.92-19.11 37.14-29 12.64-10.19 22.41-22.89 31.15-36.5 9.25-14.41 18.94-28.54 28.32-42.87 8.8-13.43 17.25-27.1 26.24-40.4 9.58-14.18 19.6-28.08 29.48-42.06a61.14 61.14 0 0 1 4.82-5.73 10 10 0 0 1 8.46-3.74c11 .73 22.11.83 33.07 2.09 17.72 2.05 35.44 4.21 52.75 8.84 19.73 5.27 38.76 12.3 56.54 22.42 7.76 4.41 15.27 9.24 23 13.76a162.92 162.92 0 0 1 29.09 21.69 81 81 0 0 0 11 8.48c27.24 17.84 45.24 43.13 58.27 72.35 8.71 19.56 17.11 39.25 25.48 59a88.69 88.69 0 0 0 15.17 24.46 41.62 41.62 0 0 1 10.18 19.68c2.59 12.57 5.7 25 8.61 37.52 1.53 6.57 3.08 13.14 4.61 19.64-.72.5-1.25 1.19-1.85 1.25-17.93 1.82-34.71 7.83-51.59 13.64-12.81 4.4-25.87 8.09-38.81 12.14-23.22 7.26-45.77 16.09-66.67 28.75-12.3 7.46-22.81 17.15-33.15 27-20.54 19.56-37.78 41.8-53 65.64-9 14-21.34 24.84-33.38 36-12.43 11.51-26.69 20.15-42 27.19a164.7 164.7 0 0 0 -47.26 32.77c-11.19 11-22.06 22.34-31.85 34.68a139.67 139.67 0 0 0 -18.86 31c-6.89 15.71-12.88 31.63-16.32 48.55-3.24 15.9-3.94 31.79-3.26 47.89a151.27 151.27 0 0 1 -2.54 34.09c-3.71 20-7.58 40-10.45 60.11-2.33 16.39-1.91 32.87 5.38 48.29a110.87 110.87 0 0 0 9.63 16.62c2.41 3.4 5.94 6.08 9.2 8.81 3 2.5 6.48 4.43 9.43 7a24.84 24.84 0 0 0 18.74 6.38c6.7-.5 13.36-1.51 20.75-2.37 1.25 4.58 2.48 9.36 3.83 14.09 7.89 27.51 12 55.78 16.94 83.88a79.18 79.18 0 0 1 -2.85 39.16c-7.63 22.51-10.38 45.87-13.53 69.19a42.73 42.73 0 0 0 -.27 6.4c.25 16 .56 32.1.81 48.16a43.79 43.79 0 0 1 -.5 4.78 40 40 0 0 1 -6 1.25c-3.56.22-7.14.09-10.71.1l-741.28 2.22q-42.84.12-85.69.15c-3.83 0-7.79.65-11.17-.89-.52-1.11-1.06-1.74-1.06-2.36 0-14.63-.37-29.28.29-43.88a116.67 116.67 0 0 0 -1.16-22.37c-3.1-21.18-7-42.15-13.23-62.74a77.44 77.44 0 0 1 -1.84-37.09c3.34-17.52 5.77-35.21 9.4-52.66 3-14.6 7.24-29 11.09-44 2.67.51 4.64 1.07 6.65 1.24 6 .49 12.08 1 18.13 1.15a20.4 20.4 0 0 0 13.71-5.19c3.55-3 7.52-5.39 11.14-8.25a42.69 42.69 0 0 0 7.06-6.48 77.58 77.58 0 0 0 17.4-44.08c1.28-18.07-2.59-35.5-5.92-53-3.2-16.82-6.84-33.61-7.63-50.76-.46-10 0-20 0-30-.09-20.59-4.76-40.29-11.68-59.54-1.45-4-3-8-4.6-12a151 151 0 0 0 -25.56-43.06c-13.28-15.45-26.91-30.56-42.94-43.23-8.38-6.63-17.17-12.79-27-17.31-2.26-1-4.47-2.23-6.75-3.25a167.34 167.34 0 0 1 -47.45-32.43c-12.15-11.63-23.26-23.91-32.43-38.24-14.46-22.59-32-42.8-51.4-61.46-19.9-19.17-43.19-32.54-68.7-42.59-19.62-7.72-40-13-60-19.62-6.77-2.23-13.53-4.51-20.32-6.71-5.75-1.86-11.53-3.64-17.31-5.44-11.81-3.67-24-2.86-36.13-3-2.79 0-5.62.86-8.39 1.51-4.52 1-9 2.14-13.5 3.38a24.07 24.07 0 0 1 -19.6-2.41 117.57 117.57 0 0 0 -27.36-12 38.37 38.37 0 0 1 -4.78-2.14c-.07-1.41-.46-2.57-.11-3.44 9-22.57 18.5-44.86 30.35-66.09a106.39 106.39 0 0 1 15.32-20.55 924.68 924.68 0 0 0 60.47-72.23c17.11-22.56 35.69-43.74 59.18-60 16.75-11.57 34.07-22.2 52.84-30.32 12.77-5.53 25.46-11.18 37.51-18.27 9-5.3 17.36-11.24 24.59-18.76 1-1 2.11-1.87 3.67-3.22 11.11 4.4 22.48 8.32 32.79 14.78 18.19 11.39 35.53 24 51.28 38.56a147.08 147.08 0 0 0 30.47 21.63 157.71 157.71 0 0 1 33 23.63 256.26 256.26 0 0 0 54.78 39.06 27 27 0 0 1 7.74 5.56c16 18.28 32.56 36 45.67 56.61 5 7.83 9.63 15.89 15 23.46 14.12 20 31.67 36.82 51 51.63a363.17 363.17 0 0 0 46.65 30.31 414.18 414.18 0 0 1 50.57 32.15 13.08 13.08 0 0 0 4.57 2.59c1 .22 2.25-1 3.67-1.73-2.36-5-6.27-7.66-10.05-10.12-13.76-9-27.4-18.11-41.63-26.26-18.3-10.49-36.51-21.12-53-34.26-23.31-18.57-44.06-39.59-58.83-65.9-9.34-16.64-22.17-30.59-34.73-44.75-2.55-2.87-5.55-5.42-7.21-9 2.21-1.78 3.85-.3 5.22.37 9.93 4.87 19.8 9.89 29.63 14.94 25.08 12.89 50.1 25.88 75.19 38.72 19.7 10.09 39.83 19.51 57.56 32.91 14.8 11.18 29.39 22.74 43.29 35 26.57 23.44 55 44.37 84.1 64.45a59.28 59.28 0 0 0 5.58 3c0-1.39.26-2.26 0-2.56-4.81-4.77-9.46-9.73-14.62-14.1-4.89-4.14-10.3-7.67-15.53-11.41-22.41-16-43.13-34.06-64.1-51.83-11.16-9.46-22.52-18.73-34.28-27.44a214.2 214.2 0 0 0 -26.18-16.61c-18.24-9.78-36.88-18.8-55.25-28.35-21.21-11-42.25-22.38-63.49-33.37-8.54-4.42-17.23-8.67-26.15-12.26a220.94 220.94 0 0 1 -67.35-42.94c-11.62-10.67-23.85-20.35-37.9-27.74a137.19 137.19 0 0 1 -29.55-21.08 327.16 327.16 0 0 0 -45.84-35.15 155.47 155.47 0 0 0 -26.48-13.94c-7.61-3-14.94-6.77-22.34-10.29-5.22-2.48-8.28-6.41-8.76-12.44-.72-9.24-1.78-18.45-2.8-27.66a14.31 14.31 0 0 1 4.04-11.78 132.17 132.17 0 0 1 9.64-10 54.52 54.52 0 0 0 15.93-25c2.8-8.84 5.72-17.65 8.29-26.56a64.37 64.37 0 0 1 18.14-29.73c7-6.59 13.89-13.36 20.9-20a57.39 57.39 0 0 1 22.79-13.64c16-4.84 31.9-10.52 48.53-13.06 10.92-1.67 22-2.56 32.95-3.75a9.93 9.93 0 0 1 4.25.1c12 4.39 24.65 7.49 33.26 17.82-3.52 17-13 23-27 24.18-8.87.76-17.73 1.67-26.59 2.53a25 25 0 0 0 -15.24 7.13c-5.56 5.41-12 8.95-19.71 9.94-5.36.7-9.23 3.54-12.4 7.63-9.33 12-11.17 24.84-5.5 39.17 3.15 7.95 8.13 14 14.42 19.51 12.13 10.53 24.07 21.27 36.19 31.81q8.89 7.73 18.13 15c27.21 21.41 54.63 42.54 81.67 64.17 15.88 12.7 31.37 25.88 45.69 40.43a186.52 186.52 0 0 0 24.6 20.59c52.09 37.17 100.63 78.76 149.68 119.71 15.89 13.27 31.32 27.07 47.21 40.33a152.48 152.48 0 0 0 19.94 14.37c18.74 11.07 37.7 21.78 56.74 32.31 7.86 4.34 15.46 9 22.14 14.94 10.87 9.76 22.49 18.75 31.73 30.23.33.41 1.23.34 1.86.49-1.35-7.39-1.84-8.34-8.3-15-4.19-4.31-8.46-8.54-12.41-12.51.42-2.58 2-2.74 3.3-2.57 6.56.82 12.78-.8 19-2.41 21.08-5.44 42.21-10.72 63.22-16.39 28.7-7.74 56.45-17.7 81.74-33.88 20.14-12.89 40.6-25.26 60-39.31 6.33-4.58 13.4-8.15 20.22-12 1.33-.73 3.11-.79 5.84-1.46zm-844 114.58.9-1.13a41.35 41.35 0 0 0 -3.22-3.51 414.5 414.5 0 0 1 -68.25-76.38c-6.25-9.11-12.56-18.21-19.29-27-17.99-23.23-40.14-40.29-69.31-47.23-13.24-3.14-25.87-7.94-37.35-15.48-.88-.57-2.34-.26-5.14-.49 2.7 2.65 4.05 4.29 5.69 5.55a73.75 73.75 0 0 0 21.73 11.28c6.76 2.24 13.58 4.32 20.37 6.48a106.4 106.4 0 0 1 42.81 25.4c12.35 12.06 22.44 25.83 32 40.08a346.19 346.19 0 0 0 30.48 39.92c13.17 14.6 27 28.49 43.38 39.53 1.61 1.14 3.42 2 5.15 2.98zm1288.25-155.8c-2.75-1.14-4.33-.51-5.39 1-4.52 6.4-9.28 12.66-13.29 19.37a577.49 577.49 0 0 0 -39.63 79.21c-3.48 8.57-7.53 16.91-11.37 25.32-3 6.48-6.23 12.82-8.93 19.4-1.33 3.22-1.8 6.81-2.42 10.28-.27 1.52.53 2.68 2.54 2.58a22 22 0 0 0 1.62-2.56c10.65-22.53 21.28-45 31-68 12.23-28.85 26.12-57 44.19-82.79a25.3 25.3 0 0 0 1.63-3.81zm-2.16 131.36c5.84-8.37 8.45-16.06 12-23.23 3.49-7 6.78-14.07 10.36-21 3.67-7.11 7.57-14.09 11.69-21.73-1.62.11-2.88-.18-3.44.32a20.64 20.64 0 0 0 -4.22 4.69c-10.45 17.39-19.48 35.47-25.62 54.87-.43 1.27-.39 2.67-.82 6.08zm-1521.42-54.14c5.18 4.11 8.73 6.94 12.3 9.75 6.42 5 12.67 10.35 19.36 15 4.91 3.44 10.37 6.1 15.66 9 1 .55 2.65 1.19 3.34-.59-5.94-4.49-11.87-8.88-17.7-13.4-7.58-5.88-15.05-11.91-22.62-17.79a20.9 20.9 0 0 0 -5.43-3.21c-.94-.38-2.34.57-4.91 1.24z"/><path d="m1404.58 544.36c4.2 1.1 5.94-1.52 7.71-3.6 4.85-5.7 9.48-11.59 14.28-17.33 2.06-2.46 4.26-4.8 6.55-7a9.12 9.12 0 0 1 3.59-2.18c8.23-2.42 13.64 1.7 12.83 10.24a76 76 0 0 1 -3.36 16.74c-5.63 16.85-8.06 33.91-5.74 51.65 1.52 11.66 2.47 23.41 3.54 35.13.45 5 .73 10 .77 14.95a53.13 53.13 0 0 1 -6.64 26.72c-6.09 11-10.78 22.26-12.87 34.89a104.28 104.28 0 0 1 -14.24 37.8c-2.87 4.63-6.17 8.77-10.74 11.75-5.77 3.77-12.43 2.09-15.08-4.36-3.24-7.87-5.33-15.58-3.46-24.8 3.89-19.19 7.49-38.54 8-58.24.13-4.53-.2-9-.39-13.68-3.16.81-3.08 2.78-3.29 4.46-.89 7.07-1.57 14.17-2.55 21.23-4 29-9.88 57.66-16.48 86.14-5.55 24-11.63 47.87-19.27 71.23-6.29 19.25-13.38 38.34-23.17 56.34-11.77 21.6-22.59 43.71-33.68 65.68a201.81 201.81 0 0 1 -20.42 32.57c-6.76 8.76-13.63 17.35-21 25.59-5.75 6.39-11.69 12.48-18.63 17.61a74.8 74.8 0 0 0 -7 6.55c-5.14 4.94-10.31 9.85-15.38 14.86-4.3 4.26-8.67 8.48-12.69 13-7.58 8.54-14.85 17.36-22.42 25.91a127 127 0 0 1 -9.17 9c-2.09 1.94-4.66 3.44-6.48 5.59-9.49 11.17-22 18.24-34.68 24.69-16.9 8.61-34.58 15.29-54.14 14.63-4.63-.16-9.28.26-13.92.31-2.49 0-5.1.29-7.47-.3-20.82-5.23-42.34-5.94-63.38-9.77a128.34 128.34 0 0 1 -49.32-19.64c-9.47-6.37-18.75-13-27.86-19.92a62.22 62.22 0 0 1 -11.7-10.91c-10.78-13.77-20.94-27.95-29.33-43.42-9.53-17.55-19.82-34.7-29.89-52a59.31 59.31 0 0 0 -5.74-7.71c-5-6-10.39-11.8-15.08-18.08a178.52 178.52 0 0 1 -11.58-17.93c-4.61-8-8.85-16.31-13.1-24.56-2.12-4.11-3.8-8.45-5.87-12.59-3.34-6.69-6.75-13.36-10.31-19.93-2.38-4.39-5.12-8.59-7.63-12.9a84.61 84.61 0 0 1 -10-25.85c-3-14.69-5.86-29.39-9-44-2.49-11.51-4.86-23.08-8.16-34.36a310.41 310.41 0 0 1 -9.66-44.91c-3.34-24.38-8.15-48.51-13.13-72.6-2.39-11.61-2.67-23.37-2.8-35.16 0-4.09.43-8.38-1.65-12.26-3.16.45-2.57 2.64-2.61 4.08-.41 17.86 0 35.65 3.63 53.29 2.65 12.85 4.56 25.86 6.74 38.44-1.95 2.26-3.94 1.85-4.92.4-2-2.89-4.29-6-4.81-9.3-2.16-13.64-8-25.84-13.76-38.13-1.51-3.23-2.71-6.6-4.17-9.86-9-19.89-9.88-40.61-6.76-61.84 2.46-16.71 1.58-33.47.07-50.21a244.5 244.5 0 0 0 -5.3-33.77 38.88 38.88 0 0 1 -.55-17 29.6 29.6 0 0 1 1.22-5.18c2.49-5.95 9.05-8 14.07-4a27.8 27.8 0 0 1 6.47 8.33c4.54 8.19 6.8 17.21 8.79 26.29.59 2.69 1.47 5.31 2.28 8.19 1.25-.83 2.09-1.09 2.33-1.62a5.85 5.85 0 0 0 .68-3c-1.61-13.17.58-26.33 0-39.48-.33-7.13-.51-14.28-1.31-21.35-1.37-12.18.39-24.21 1-36.3.52-10.33 1.24-20.7.79-31-.57-13 2.26-25.52 3.47-38.27.16-1.77.67-3.53.69-5.29.07-9.33 3.47-17.46 9.09-24.66a117.89 117.89 0 0 0 19.33-36.79c4.12-12.81 11.77-22.76 21.87-31 9.5-7.77 17.22-17 24.09-27.07 6.42-9.43 13.24-18.59 19.8-27.93 3.68-5.25 8.33-8.64 14.92-9.21 9.46-.83 17.89-4.4 25.7-9.77 3.81-2.61 8.08-4.53 12.1-6.86a42.37 42.37 0 0 1 16.13-5.24 96.62 96.62 0 0 0 15.53-3.79c8.54-2.57 17.23-4.84 25.42-8.29 16.5-6.95 33.55-12 50.74-16.81a70.31 70.31 0 0 1 19.94-2.9c7.49.11 15 .09 22.49 0 10.15-.11 20-1.74 28.44-7.8 8.23-5.88 17.24-6.55 26.57-4 11.58 3.11 23.09 4.08 34.92 1.47 11.38-2.51 22 .07 31.73 6.25 5.53 3.52 11.58 5.08 17.83 6.79a143.5 143.5 0 0 0 37 4.92 33.37 33.37 0 0 1 15.37 4.07 191 191 0 0 0 28.32 12.54 56.88 56.88 0 0 1 18.44 10.69c3.29 2.74 6.66 5.39 10 8.1a64 64 0 0 0 22.38 12.24c11.77 3.48 21.77 10 32 16.76 24.61 16.21 40.82 39.55 56.56 63.35a77.47 77.47 0 0 1 13 37 86.75 86.75 0 0 0 5.65 23.86c7.75 20.18 11.21 41.26 14.71 62.39 1.63 9.85 3.3 19.69 5.12 29.5a23.82 23.82 0 0 1 -.19 10.56c-2.7 10.49-2.69 21.17-2.33 31.9.13 4.24.17 8.72-1 12.73-3.86 13.53-4.18 27.44-5.41 41.27-.61 6.73-1.56 13.43-2.19 20.15a61 61 0 0 0 .17 6.89zm-226.66-129.21c6-1.49 10.42-3 14.93-3.62a275.7 275.7 0 0 1 43.74-2.78c38.86.9 71.44 14.93 96.21 45.55a9.39 9.39 0 0 0 2.15 2.32 4 4 0 0 0 2.91.54c.84-.29 2-1.45 2-2.18-.18-4.24-.23-8.57-1.15-12.69-1.64-7.3-4-14.44-5.85-21.69a59.51 59.51 0 0 0 -13-24.33c-4.22-4.84-8.38-9.81-13.16-14-9.64-8.53-19.74-16.61-32.65-19.69-9.36-2.22-18.78-4.33-28.28-5.72s-19.13-2.16-28.73-2.63c-10.67-.52-21.37-.43-32-.52a16.91 16.91 0 0 0 -4.21.69c-6.55 1.58-8.45 3.89-8 10.47q1.4 20.81 3.12 41.6c.18 2.66 1.17 5.31 1.97 8.68zm-245.63-4.7c3.49-4.93 3.57-5.06 4.67-11.73 1.81-10.89 3-21.93 5.52-32.64 3.17-13.32-.48-14.77-11.57-17.52a18.91 18.91 0 0 0 -4.24-.51c-9.94-.17-19.74-3.06-29.77-1.4a12.33 12.33 0 0 1 -3.2-.12c-17.15-1.49-34.15-.14-51 3a62.11 62.11 0 0 0 -15.23 4.76c-15 7.15-28.2 17.08-38.44 30-11.44 14.49-16.89 31.94-20.61 49.85-.52 2.47 1.05 3.95 4.25 3.95 1-.94 2.34-2.06 3.53-3.33 10.62-11.38 23.37-19.72 37.5-26 22.08-9.84 45.27-12.11 69-9.34 16.94 2.01 33.77 4.58 49.59 11.03zm-68.55 162.26c5-.56 9.89-1.09 14.83-1.68 7.42-.87 14.85-2.54 22.26-2.49 8.69.06 17-1.52 25.31-3.4a186.71 186.71 0 0 0 19.39-5.93c10-3.44 12-12.38 3-19.21-12.16-9.19-25.58-15.38-39.81-20.22-15.59-5.3-31.73-8.18-48-10s-32 .23-45.61 10.69c-2.53 1.94-5.49 3.31-8.19 5-9.66 6.22-10.33 15.66-1.14 22.56 3.9 2.93 8.72 4.67 13.17 6.85 4.77 2.34 10.28 3.72 14.24 7a44.8 44.8 0 0 0 30.55 10.83zm363 17c13.9 1.17 28-2.42 42-7a30.13 30.13 0 0 0 18.13-15.5c2.51-4.82 2.45-8.18-1.68-11.33a73.67 73.67 0 0 0 -12.81-7.55c-9.6-4.66-19.35-9-29.06-13.44-13.59-6.19-27.81-8.24-42.69-6.93-15.9 1.41-30.71 6.4-44.62 13.75-9.39 5-18.12 11.24-26.94 17.23-3.91 2.66-4 6.43-1 10.16a18 18 0 0 0 9.81 6.1c4.8 1.3 9.66 2.39 14.54 3.38 8.37 1.7 16.85 2.88 25.12 5 15.75 3.94 31.53 8.42 49.15 6.09zm-90.41 138.59c-.16 9.27 2.13 17.43 5.14 25.42 1.63 4.32 3 8.76 4.27 13.21 2.51 8.7.83 16.88-3.09 24.87a17.49 17.49 0 0 1 -11.84 9.85c-7.9 2.16-15.6 5-23.43 7.43-2.71.83-5.58 1.81-8.32 1.68-11.91-.58-23.33-3.13-33.41-9.93-.73-.49-.94-1.75-1.39-2.68 3.6-2.35 6.38.47 9.22 1.28a61.37 61.37 0 0 0 29.63 1.55 28.19 28.19 0 0 0 13.44-6.25c4.44-3.92 4.6-8.75.38-13-4.79-4.84-11-7.53-17.44-6.83-14.77 1.6-28.68 5.73-39 17.63a104.72 104.72 0 0 1 -10.57 10.6c-2.07 1.8-4.78 3.71-7.35 3.93-12.93 1.11-25.77.27-37.56-5.76-7.63-3.9-14.91-8.66-20.56-15.22-6.38-7.39-14.57-11.4-23.69-13.71a46.24 46.24 0 0 0 -25.34.39 6.89 6.89 0 0 0 -5.25 6.15 7.57 7.57 0 0 0 3.87 7.18 24.3 24.3 0 0 0 13.14 4c5.34-.07 10.7-.19 16-.59 3.45-.27 6.84-.89 10.34.11-.41 1.1-.49 2.12-.91 2.29-5.59 2.31-11.19 4.61-16.87 6.67a17.77 17.77 0 0 1 -6.28 1.11 55.19 55.19 0 0 1 -30.19-9.5 19 19 0 0 1 -7.45-10.18c-2.88-8.72-3.45-17.77-.21-26.27a224 224 0 0 1 13.22-28c4.8-8.73 10.66-16.88 15.93-25.37a50.72 50.72 0 0 0 3.76-7.65c.44-1.07.18-2.42.28-4.43-1.74 1.1-2.9 1.44-3.41 2.21-11.51 17.58-24.51 34.19-32.92 53.74a57.08 57.08 0 0 0 -4.64 27.1c.94 13.11 6.58 23.2 19.39 28.27 1.66.66 3.22 1.56 4.89 2.17 12 4.4 23.89 6.6 36.17.13 6.21-3.27 13.2-5 19.68-7.44 5.16 3.38 10 6.35 14.66 9.66a39 39 0 0 0 15.64 6.66c6.29 1.2 12.67 2 19 2.76 9 1.05 17-.78 23.23-8a13.89 13.89 0 0 1 2.82-1.92c3.07 1.73 6.13 3.48 9.21 5.2a64.09 64.09 0 0 0 28.64 7.79 30.53 30.53 0 0 0 9.55-.74c9.61-2.65 19.1-5.75 28.67-8.6a19.3 19.3 0 0 0 11.39-9.11c6.58-11 9-22.63 4.72-34.87-3.63-10.43-8.06-20.58-12.26-30.79-.59-1.57-1.91-2.82-2.9-4.2zm-261.92 198.49-1.65 1.61a37 37 0 0 0 3.73 4.66c10.12 9.31 23.08 14 34.58 21.1 1.48.91 3.39 1.08 5.08 1.63 20 6.49 40.53 8.22 61.32 7.67a112.61 112.61 0 0 0 21.12-2.88 64.74 64.74 0 0 1 27.54-.61c15.77 3.24 31.67 5.41 47.66.86 2.72-.77 5.66-.73 8.47-1.23 16.18-2.92 32.13-6.71 47.43-12.89 6.94-2.81 14-5.44 20.82-8.44 10.77-4.73 21.46-9.67 32.14-14.61 2.2-1 4.7-2 4.34-6-1.6 0-3.4-.45-4.83.08-5 1.85-9.88 4.09-14.84 6.1q-24.78 10-49.59 20c-1 .4-2 .71-3 1-18.5 5.61-37.53 8.66-56.55 11.76a22.79 22.79 0 0 1 -6.39.06c-8.51-1-17.12-1.64-25.45-3.5a54.73 54.73 0 0 0 -27.51.68c-11.17 3.21-22.5 3.65-33.95 3.15-7.13-.31-14.38-.18-21.35-1.48-10.84-2-21.49-5.06-32.22-7.68-10.44-6.83-22.72-10.47-32.38-18.67-1.3-1.06-3.02-1.59-4.52-2.37zm11.35 44.31c.51 2.84.34 4.11.9 4.67a57.34 57.34 0 0 0 7.92 7.12c8.53 5.82 17.32 11.27 25.92 17 13.48 9 28.58 14.46 43.67 19.9a44.11 44.11 0 0 0 8.35 1.76q11.1 1.66 22.22 3.13c4.59.61 9.2 1.21 13.81 1.47 24.42 1.37 48.34-2 72.11-7.34 11.21-2.51 22-5.6 32-11.53 13.15-7.8 27.32-14 38.26-25.15a8.84 8.84 0 0 1 1.76-1.21c14.42-9 25.71-21.4 36.78-34 .79-.9 2.18-2.12.18-4-3.56 1.54-5.61 5-8.41 7.55-8.19 7.41-15.79 15.57-24.51 22.27-13.22 10.16-26.07 21.15-42.33 26.55-12.08 8.21-25.73 12-39.94 14.33-3.17.51-6.31 1.19-9.46 1.82-26.1 5.22-52.26 6.94-78.55 1.3a43.42 43.42 0 0 0 -7.41-1.08c-15-.58-28.65-6.1-41.49-13-14.74-7.89-28.62-17.37-42.88-26.16zm260.4-61.57c-3.23-3.19-7.17-3.15-11-3.58-17-1.94-34.08-3.36-51-5.94a86.24 86.24 0 0 0 -34.91 1.87c-8.64 2.2-17.38 4-26 6.13a47.81 47.81 0 0 1 -28.39-1.83c-6.7-2.42-13.57-4.43-20.15-7.16-6.79-2.82-13.76-3.43-20.94-3.31-21.46.36-42.61 3.52-63.73 6.94-.42.06-.71.88-1.32 1.69.89.46 1.7 1.25 2.51 1.26 3.91 0 7.89.23 11.72-.39 15.53-2.51 31.22-3 46.86-4.15a50.92 50.92 0 0 1 23.09 3.24c6.61 2.67 13.4 4.88 20.09 7.36 10.3 3.81 20.74 4.85 31.51 2.12 9-2.27 18.06-4.21 27.07-6.4 10.14-2.47 20.23-3.43 30.7-1.55 10.86 1.95 21.89 3.08 32.89 4.16a138.36 138.36 0 0 0 31-.46zm141.62-388.73c-8.18-4.23-16.11-9.08-24.61-12.51-9.85-4-20-8-30.68-8.76-13.85-.94-27.69-.42-41.4 2.7-9.78 2.23-19.35 4.72-28 9.93-.93.56-1.41 1.85-3.31 4.45 4.61-1.2 7.45-1.47 9.85-2.64 10.38-5.06 21.52-7.4 32.75-9.27 12.7-2.1 25.63-2.84 38.19.09 12.8 3 25.33 7.17 36.85 13.85 2.98 1.73 5.93 3.78 10.36 2.16zm-359.47-12.91 1.17-1.93c-9.19-4.64-18.36-9.31-27.58-13.9-13.71-6.84-28.64-9-43.56-9.28-12-.24-24.11 1.85-36.14 3.23-7.88.91-15.08 4.14-21.92 8-1.28.74-2.13 2.24-4.07 4.35 2.44-.15 3.55.09 4.33-.32 9.29-4.84 19.23-7.28 29.51-8.94 28.53-4.61 56.06-3.08 81.88 11.62 5.14 2.97 10.9 4.82 16.38 7.17zm254.34 94c1.7 2.19 2 2.91 2.57 3.27a23.3 23.3 0 0 0 3.76 2c28.27 11.46 56.93 10.78 85.79 2.67 1.18-.34 3.14-.81 3.1-2.78-10.79 1.4-21.27 3-31.81 4a106.89 106.89 0 0 1 -30.88-1.08c-10.38-2.07-20.56-5.1-32.53-8.13zm-281.81-17.76c-6-2.69-9.45-1.17-12.86-.58-11.21 1.92-22.43 3.83-33.55 6.23-16.5 3.56-32.47 1.66-48.26-3.6-2.25-.75-4.59-1.22-7.48-2 .66 1.48.76 2.36 1.2 2.58 14.71 7.52 30.62 9.35 46.67 8 12.7-1.08 25.25-4 37.83-6.34 4.79-.9 9.45-2.42 16.45-4.29zm316.49 297.87c1.92 2.57 3.49 4.86 5.26 7 7.11 8.54 10.9 18.23 10.59 29.45-.17 6.41-.15 12.82-.16 19.23 0 1.3-.16 2.91 2.22 2.73 4.15-8.54 4.16-17.78 3.83-27-.44-12.89-6.62-23-15.77-31.59-1.3-1.26-2.97-2.06-5.97.18zm-387.55 62.91c.39-1.62 1.09-3.18 1.08-4.74 0-5.33-.23-10.67-.53-16-.63-11.39 1.61-21.92 8.67-31.16a15.52 15.52 0 0 0 2.66-4.57c.63-2-.33-3.35-3-3.21-2.25 2.85-4.76 5.83-7.05 9-3.86 5.28-6.43 11.23-6.45 17.79 0 9.23.54 18.46 1 27.69.01 2.1.58 4.19 3.62 5.2z"/><path d="m1926.8 1385.61c1.55 5.18 2.4 9 3.84 12.64 5.24 13.06 3.19 25.93-.64 38.79a5.47 5.47 0 0 1 -.35 1c-5.93 11.82-4.46 23.49.65 35.11 4.74 10.8 9.12 21.7 11.07 33.44 1.47 8.86 2.16 17.68 1 26.64-.83 6.54-2.8 12.57-7.09 17.62-9.17 10.81-14.87 23.32-19.18 36.72-3.6 11.19-8.35 22-12.07 33.18-6.53 19.61-12.93 39.28-18.92 59.07-6.8 22.51-11.62 45.61-20.37 67.57a135.24 135.24 0 0 1 -17.83 31.56c-8.12 10.78-19.55 15.07-32.37 16.57a14.89 14.89 0 0 1 -6.34-.53q-11.65-3.88-23.14-8.27c-4.84-1.86-8.29-5.39-10.79-10a82.28 82.28 0 0 1 -10.51-39.92 636.6 636.6 0 0 1 3.7-71.6c.89-8.15 1.93-16.28 2.91-24.42 2-16.8 7.31-32.64 13.59-48.28 5.57-13.89 10.52-28 15.58-42.12 3.16-8.79 4-18.07 5.07-27.27.07-.6-.49-1.28-.86-2.17-.9.36-2.36.48-2.63 1.12a29.09 29.09 0 0 0 -2.21 7.12c-1.57 11.07-5.81 21.31-9.76 31.62-5 13-10 26-15.26 38.84-7.76 19.07-11 39.11-12.9 59.41-1.46 15.63-2.27 31.31-3.46 47a18.92 18.92 0 0 1 -1.39 6.14c-10.61 23.78-22.49 47-34.79 69.91-5.91 11-13.34 21.08-23.53 28.81-12.52 9.5-26 12.62-41.29 7.63a36.65 36.65 0 0 1 -14.44-8.85c-13.06-12.78-20.62-28-20.81-46.59-.23-21.9 2.17-43.51 8.28-64.51 2.37-8.14 6.77-15.68 10.31-23.47 6.09-13.4 14.24-25.46 23.39-37a177.49 177.49 0 0 0 24.74-42.37 6.9 6.9 0 0 0 0-3c0-.21-.49-.38-.78-.58-2.73.2-3 2.73-3.93 4.45a240 240 0 0 1 -26.46 40.08 153.71 153.71 0 0 0 -20.84 32.3c-3.19 6.78-6.47 13.52-9.62 20.31a36.53 36.53 0 0 0 -2.7 7c-3.32 14.23-7.22 28.33-7.62 43.12-.28 10.68-2.06 21.34 0 32 1.21 6.28 2.44 12.54 3.88 19.9-5 11.6-13.67 20.57-26.42 26.55-10.67 5-21.33 7.75-33 7.2-8.07-.37-15.57-2.09-20.95-8.9a21.61 21.61 0 0 0 -4-3.53c-14.14-10.76-18.59-25.55-17.43-42.5.72-10.41 3.81-20.26 7.92-29.85 5.9-13.77 11.73-27.57 17.15-41.53 6.53-16.82 8.38-34.58 9.36-52.44a25.83 25.83 0 0 0 -.46-4.17c-2.76.1-2.78 2.25-3.1 3.7-1.76 8-3.66 16-4.86 24.12a116.25 116.25 0 0 1 -7.52 27.8c-5.08 12.17-9.88 24.45-15 36.6-4.73 11.23-8.65 22.69-10 34.86a18.74 18.74 0 0 1 -5 11.56c-12.71 12.77-27.24 21.75-46.18 21.07a20.31 20.31 0 0 1 -13.65-5.22 37.22 37.22 0 0 0 -5.79-4.65c-17-10-23.31-26.28-25.66-44.58-1.61-12.49 0-24.93 2.35-37.26 3.23-16.81 6.93-33.55 9.34-50.49 2.16-15.14 4.08-30.4 3-45.83-1.35-18.47 2.35-36.31 8.16-53.61 3.95-11.8 9.26-23.18 14.43-34.53 4.93-10.82 12.62-19.9 20.35-28.76 8-9.13 16.36-17.94 25-26.44a168.94 168.94 0 0 1 44.53-31.12c10.53-5.18 21-10.83 30.4-17.83 10.8-8.08 20.33-17.85 30.39-26.92 8.81-8 15.6-17.48 22.2-27.31a370.29 370.29 0 0 1 49.1-59.21c20.59-20.06 44.58-34.38 71.4-44.09 16.76-6.06 33.76-11.45 50.62-17.2 7.77-2.64 15.55-5.24 23.2-8.2 13.13-5.07 26.78-7.42 40.73-8.2a69.06 69.06 0 0 1 25.4 2.87 81.46 81.46 0 0 0 12.53 2.7c7.66 1.21 15 .08 21.6-4.13 18-11.38 38.14-16.16 58.88-17.7 23.82-1.76 47.65-4.09 71.61-3.27a112.7 112.7 0 0 1 33.52 6.26c17.32 6 24.68 15 27.35 36.87 1.36 11.18-2.33 21-10.24 29.31-5.43 5.71-10.89 11.22-17.26 15.93-7.74 5.71-15 12.14-22.52 18.09-21.53 16.89-46.49 26.1-72.76 32.35q-13.53 3.23-27 6.54a25 25 0 0 0 -14.94 9.6c-2.29 3.12-5.35 5.68-8.13 8.41-3.85 3.75-7.7 7.43-11.78 11.36z"/><path d="m566.18 1646.68c0 3.53-.35 7.1.05 10.58 2 17.36 3.93 34.71 11.28 51 5.44 12 10.06 24.4 15.24 36.53a101.8 101.8 0 0 1 7.79 29.92c1.28 12.73-2.78 23.94-9.59 34.35-1.32 2-3.4 3.6-5.26 5.26-2.39 2.13-5.23 3.85-7.28 6.26-4.24 5-9.67 6.94-15.91 7.79-13.55 1.82-26-.78-38.17-7.16-12.93-6.79-20-13.38-25.93-27.41a98.27 98.27 0 0 0 5.11-35.47c-.81-18.56-2.67-37-7.63-55a39.06 39.06 0 0 0 -1.64-5.08c-9.53-22-20.08-43.22-35.75-61.82-8.43-10-14.61-21.91-21.74-33-1.67-2.61-2.19-6-5.11-7.67-2.17.69-1.74 2.16-1.22 3.41a200.64 200.64 0 0 0 25.22 43.32 321.18 321.18 0 0 1 20 30.31c4.49 7.66 7.72 16.07 11.46 24.17a23.41 23.41 0 0 1 1.85 5c3 13.94 7 27.64 7.5 42.08.4 11 1.44 22-.2 33.09a58.5 58.5 0 0 1 -26.33 41.22c-14.06 9.3-29.78 8.78-44.49-.45a60.53 60.53 0 0 1 -16-14.07c-5.67-7.36-11-14.9-15.14-23.3-6.15-12.48-12.86-24.69-19.08-37.14-4.61-9.25-8.89-18.67-13.16-28.08a15.72 15.72 0 0 1 -1-5.2c-1.45-18.15-2.61-36.32-4.33-54.43a208.65 208.65 0 0 0 -15.71-62c-4.72-11.17-9.44-22.37-13.45-33.8-3.42-9.73-5.79-19.83-8.71-29.74-.65-2.2-.35-5.25-4.72-5.44a52.8 52.8 0 0 0 0 6 130.34 130.34 0 0 0 7.78 32.16c5.84 14.95 11.25 30.07 17.1 45 6 15.43 8.82 31.61 10.88 47.88 1.88 14.86 3.2 29.82 3.91 44.78.73 15.68.83 31.41.46 47.1-.28 12-4.5 23-10.43 33.39-2.21 3.86-5.09 7-9.19 8.63q-12.42 4.92-25 9.36c-4.26 1.5-8.43-.19-12.62-1-11.45-2.22-20.35-8.16-27.11-17.62a126.26 126.26 0 0 1 -16.3-30 477.24 477.24 0 0 1 -14.95-48c-3.89-15.55-8.77-30.88-13.79-46.11-7.37-22.35-15.22-44.54-22.94-66.78-4.23-12.18-9.19-24-17.88-33.84-8.19-9.31-8.87-20.81-8.32-32.34a106.39 106.39 0 0 1 9-38.36c1.16-2.61 2.32-5.22 3.46-7.84 5.05-11.59 6.08-23.11 1.09-35.22-2.4-5.83-3.21-12.39-4.22-18.7a35.17 35.17 0 0 1 1.85-17.9c1.84-5 3.07-10.19 4.75-15.93-3.52-3.53-7-7-10.49-10.51s-7.32-6.83-10.43-10.69a21.94 21.94 0 0 0 -12.35-7.88c-11.44-2.78-22.88-5.54-34.3-8.4-18.44-4.63-36.28-11-52.42-21.1-9.94-6.21-19-13.85-28.39-20.91-3.14-2.35-6-5.06-9.18-7.36-6.7-4.86-12.37-10.73-17.86-16.88-7.94-8.91-10.47-19.29-9-30.81 1-7.91 4.21-15.09 8.35-21.84 2.74-4.46 7.18-7 11.69-9.07 11.42-5.36 23.41-8.71 36.09-9 16.42-.43 32.82-.48 49.2 1.2 12.06 1.24 24.21 1.57 36.26 2.86a134.2 134.2 0 0 1 34.16 8.58 49.6 49.6 0 0 1 10.51 5.24c11.11 7.77 23.07 9.19 35.69 5a81.14 81.14 0 0 1 32.79-3.45 153.68 153.68 0 0 1 42.54 9.92c13.6 5.29 27.69 9.32 41.59 13.8 21.79 7 43 15.37 63 26.63 13.51 7.6 24.95 17.83 36.09 28.39 20.58 19.51 37.49 42 53.17 65.54a84.09 84.09 0 0 0 11.51 14c11.28 10.87 22.47 22 34.66 31.76a129.78 129.78 0 0 0 27.39 16.62c22.82 10.41 42.13 25.27 59.07 43.48 6.56 7 12.93 14.29 19.22 21.58 11.58 13.42 19.28 29 25.72 45.4 5.64 14.36 10 29 11.66 44.35a118.62 118.62 0 0 1 1 19.18c-1 17.94.73 35.65 3.75 53.27 3.2 18.63 6.65 37.23 10.07 55.82 1.89 10.31 1.61 20.68.32 30.95-1.6 12.73-7.51 23.71-15.6 33.52a26.12 26.12 0 0 1 -4.84 4.15c-3.43 2.55-7.17 4.73-10.38 7.51a20.79 20.79 0 0 1 -14.74 5.32c-12.73-.42-24.72-3.06-34.5-12.08a57.63 57.63 0 0 0 -6-4.42c-5.53-3.9-9.11-9.06-9.78-15.87-1.63-16.65-8.49-31.6-14.9-46.71-6.27-14.77-12.9-29.43-16.33-45.2-1.89-8.72-3.19-17.56-4.92-26.31-.6-3-1.71-5.93-2.59-8.89z"/><path d="m122 1358.34c11.53 2.75 22.26 5.3 33 7.88a21.64 21.64 0 0 1 12.31 8c2.62 3.33 5.92 6.13 9 9.08 2.81 2.69 5.72 5.27 8.8 8.09a86 86 0 0 1 -2.84 9.32c-5.86 13.58-5.4 27.66-.45 40.84 5.25 14 3.57 26.29-2.64 39.11-6.13 12.65-8.94 26.32-10.41 40.24a65.29 65.29 0 0 0 1.78 23.39 43.58 43.58 0 0 0 5.38 11.51c1.86 3 4.58 5.45 6.91 8.16a64.64 64.64 0 0 1 13.7 25.1c3.46 12.35 7.92 24.42 11.92 36.62q3.34 10.17 6.58 20.38c1.51 4.76 2.78 9.6 4.4 14.32a510.79 510.79 0 0 1 15.56 55.62c.54 2.44 1.17 4.86 1.87 7.26 1.29 4.45 3.61 8.85 3.73 13.31s-1.84 9-3.05 13.47c-3 11-5.86 22.08-9.21 33-5.75 18.75-9.75 38-16.9 56.37-4.7 12-11 23.2-16.87 34.62a344.85 344.85 0 0 0 -23.1 58.64c-4.38 14.69-9.53 29.16-13.89 43.86a215.23 215.23 0 0 0 -6.09 26c-2 11.76-5.46 22.72-11.8 33-4.69 7.55-8.5 15.67-12.33 23.72-2.74 5.77-4.87 11.83-7.62 18.6a20.52 20.52 0 0 1 -4.17.75q-39.63.3-79.27.47c-1.76 0-3.53-.31-5.61-.5-4.6-6.81-5.29-14.68-5.27-22.41 0-11 .75-22.09 1.54-33.11.86-12.1 2-24.18 3.26-36.25a573.68 573.68 0 0 0 2.6-83.41c-.34-8.54-1.38-17.06-1.8-25.6-.38-7.84-.33-15.7-.53-23.56q-.69-27.27-1.45-54.55c-1.22-43.71 6.54-85.95 20.78-127.13 6.65-19.24 13-38.59 16.16-58.77 1.7-10.93 3-21.93 4.07-32.93a166.86 166.86 0 0 1 6.77-33.47 324 324 0 0 0 12.18-57.56 100.94 100.94 0 0 1 4.76-19.69c3.66-10.88 6.49-21.85 7.28-33.35 1-14 4.91-27.35 8.56-40.76 2.91-10.66 6.42-21.17 9.74-31.72a61.56 61.56 0 0 1 2.66-5.96z"/><path d="m1071 1200.36a17.34 17.34 0 0 0 3.72.2c6.49-1 12.11-4.21 17.68-7.4 14.89-8.52 30.09-16.39 46.2-22.37 5-1.87 10-3.71 15.12-5.42a62.47 62.47 0 0 0 24.45-14.91c17.27-17.07 34.42-34.24 49.31-53.5 4.62-6 9.9-11.41 16.65-14.9 24.3-12.57 43-31.46 60.58-52 15.66-18.31 29-38 38.06-60.42 4.71-11.61 11.18-22.3 18.34-32.6 6.93-10 13.35-20.28 20.27-30.24a57.13 57.13 0 0 1 9.69-11.3c17-14.34 31.32-31.25 45.65-48.11 8-9.38 11.2-20.58 10.77-32.82a110.61 110.61 0 0 0 -5-29.47c-5-16-9.81-32-15.07-47.95-1.89-5.71-2.26-11 .08-16.59 1.36-3.25 2.08-6.76 3.21-10.6a31.82 31.82 0 0 1 19.81 15.71c6.65 12.19 16.37 20.47 27.94 27.25a42.06 42.06 0 0 1 19.61 25.8c3.35 12.14 10.65 20.34 20.72 27.4 16.76 11.76 29.48 26.77 34.4 47.44a42.3 42.3 0 0 1 -6.14 34.71 21.27 21.27 0 0 1 -4.26 4.72c-4.15 3.38-8.24 6.93-12.78 9.72-9.08 5.57-15.23 13.79-21.52 22.06-21.86 28.73-38.8 60.74-60.18 89.8a340.15 340.15 0 0 0 -18.45 28.86c-9.78 16.58-22.87 30.08-37.86 41.85-9.82 7.71-20 15-29.88 22.62a160.27 160.27 0 0 1 -36.19 20.6 117.6 117.6 0 0 0 -25.17 14c-21.23 15.79-43.89 29.4-66.43 43.17-22.13 13.52-46.46 21.83-71.31 28.6-22 6-44.24 11.36-66.31 17.23-8.81 2.34-17.67 2.33-26.56 1.45-2.67-.27-5.36-1.69-7.75-3.07-7.09-4.12-14-8.62-21-12.73-18.22-10.53-36.69-20.67-54.72-31.52a135.39 135.39 0 0 1 -20.48-15.45c-17.53-15.76-35.66-30.78-53.84-45.77q-43.8-36.1-87.54-72.29c-6.88-5.66-14.06-10.94-21.44-16.66.24-11.94 2.36-23.91 1.21-36-1.11-11.58-1.43-23.23-2.19-36.51a44 44 0 0 1 4.15 3.58c2.53 3 4.77 6.26 7.43 9.13 12 12.93 21.18 27.76 29.65 43.1 6.9 12.5 14 24.89 21.09 37.28 7.66 13.36 16.87 25.65 26.57 37.56a61.8 61.8 0 0 0 11 10.15c10.27 7.7 20.47 15.59 31.3 22.46a131 131 0 0 0 52.78 19.59c9.19 1.26 18.39 2.41 27.59 3.56 3.89.49 7.81.75 11.7 1.29 4.22.58 8.43 1.32 12.63 2.09 3.14.58 6.25 1.88 9.39 1.91 14.25.13 28.58 1.1 42.64-2.17 14.3-3.33 28-8.29 40.68-15.88 3.06-1.83 6.21-3.53 9.25-5.39s6.33-3.48 9-5.81c9.37-8.24 18.82-16.43 27.65-25.23 6.56-6.53 12.28-13.91 18.22-21 6.87-8.24 14.61-15.58 22.34-23 10.28-9.87 21.32-19 31.21-29.17 17.41-18 33.11-37.38 44.91-59.65.47-.9 1.36-1.57 2.9-3.3a27.73 27.73 0 0 1 0 4.42c-3.84 19-4.57 38.25-5.39 57.48-.29 6.88-2.24 12.07-7.1 17-11.55 11.87-24.07 22.36-38.62 30.27a79.13 79.13 0 0 0 -25 21.46c-14.5 18.63-31.06 35.41-48 51.76-6 5.81-13.16 9.64-21 12.47-9.74 3.5-19.46 7.08-29 11.1-18.19 7.73-34.96 17.91-51.37 30.35z"/><path d="m1925.88 1576.68c4.69 14.85 9 28 13 41.17 2.88 9.65 3.09 19.69 3.48 29.67 1 25 2.43 49.91 6.16 74.63 2.6 17.26 6.08 34.39 9.11 51.59a260.4 260.4 0 0 1 4.1 37.18c.58 18.18 1.15 36.37 2.41 54.51.9 12.79 3.05 25.49 4.44 38.25s2.57 25.54 3.76 38.31c1 10.46-.93 20.62-3.48 30.68q-2.89 11.38-6 22.72a44.82 44.82 0 0 1 -2 5c-.82-.65-1.62-1-1.83-1.5-4.37-10.91-9.1-21.71-12.86-32.84-3.7-10.93-3.56-22.54-3.27-33.92a82.24 82.24 0 0 0 -3.8-26.28c-5.2-17.21-13.51-33-22-48.64-7.91-14.52-13.33-29.94-18-45.68-4.72-16.08-9-32.27-13.48-48.43-2.45-8.93-4.66-17.94-7.18-26.85-.83-3-.23-5.56.53-8.35 4.75-17.54 9.4-35.12 14.08-52.68.28-1 .56-2.07.9-3.08 6.08-18.63 12.21-37.25 18.25-55.89 3.52-10.85 6.87-21.76 10.39-32.61a74.42 74.42 0 0 1 3.29-6.96z"/><path d="m623.14 2076a17.18 17.18 0 0 1 -3.66.77q-21.94.11-43.9 0c-1 0-1.93-.7-3.44-1.28-.47-7.67-1-15.45-1.38-23.24-.24-5-.17-10-.32-15-.69-21.74-1.32-43.49-2.17-65.23-.32-8.18-1.1-16.35-1.8-24.51a137.42 137.42 0 0 0 -9.75-41c5.9-5.71 12.93-10.3 19.88-15.27 6.43 3.45 8 9.2 8.75 15.32.86 6.72 1.22 13.51 2.35 20.18a297 297 0 0 1 3.83 53.27c-.25 19.26.55 38.49 2.14 57.71.82 9.94.66 20 1 30 .08 1.93-.53 4.33 2.28 5.25 2.08-.93 1.59-2.91 1.56-4.44-.28-13.55-.78-27.09-1-40.64-.33-17.48-.77-35-.66-52.44a301.42 301.42 0 0 0 -3.75-47.93c-.81-5.29-1.71-10.57-2.35-15.88-1.59-13.12-2.27-14.87-11-25.54 8.69-10.13 9.31-24 14.77-35.66 5.41.45 7.74 3.73 8.86 7.53a138.14 138.14 0 0 1 3.58 16.65c.57 3.5.17 7.15.73 10.65a92.52 92.52 0 0 1 .19 26.59 91.38 91.38 0 0 0 3 37.09c1.1 3.76 1.87 7.64 3.19 11.32 4.38 12.19 5.65 25 7.84 37.64 4.37 25.17 2.91 50.48 2.21 75.77a8.82 8.82 0 0 1 -.98 2.32z"/><path d="m458.36 1920.34a26.51 26.51 0 0 1 1 4.47c.68 18.85 1.2 37.71 1.95 56.55.39 10 1.29 19.89 1.69 29.85.32 7.83.52 15.68.25 23.51-.42 12.1-1.28 24.18-2 36.27-.1 1.73-.41 3.44-.67 5.47-7.86 2.59-15.73 1-23.43 1.28a180.49 180.49 0 0 1 -22.61-.31c-.51-3.09-1.21-5.48-1.25-7.87a456.69 456.69 0 0 1 2.26-52.28c2.06-20.54 3.31-41.19 2-61.92-.74-11.71-1.22-23.5.91-35.18a23.2 23.2 0 0 1 .9-2.89c8.33-1.05 28.64.47 39 3.05z"/><path d="m1826.1 2072.46c-8.93 1.56-26.37 1.68-35.79.28-4.53-15.54-11.27-30.45-14.52-46.68-6-30.09-15-59.44-25.38-88.32-3.75-10.37-7-20.91-10.67-32 10.58-3.44 20.7-7.51 32.2-7.29a40.73 40.73 0 0 1 1.91 3.9c7.55 21.15 14.87 42.39 22.66 63.45a347.71 347.71 0 0 1 13.22 44c2 8.67 5 17.09 7.48 25.65 2.93 10.28 5.8 20.58 8.53 30.91.52 1.97.26 4.11.36 6.1z"/><path d="m504 2076c-8.66 2.28-29.05 2.31-37.62-.08 0-2.21-.06-4.62 0-7 .54-17.43 1.2-34.85 1.61-52.28a131.06 131.06 0 0 0 -.81-13.84 224.4 224.4 0 0 1 -.8-28.77c.45-9.55-.8-19.17-1.32-28.76-.43-7.77-.88-15.53-1.27-22.52a11.18 11.18 0 0 1 1.29-1.62 1.61 1.61 0 0 1 .95-.35c12.38.3 24.76.63 37.56 1 2 8.52 1 17 .91 25.46s1.6 16.92.72 25.56c-.91 8.8-.45 17.77-.06 26.65.37 8.54.84 17-.06 25.57s-.76 17.07-.87 25.61 1.19 16.96-.23 25.37z"/><path d="m337.37 2077.44a314.12 314.12 0 0 1 -31.67.44c-3.23-3.07-2.65-6.46-2.71-9.56-.32-16.48 1.81-32.74 4.9-48.86 2-10.53 3.84-21 3.72-31.78-.06-5.33.79-10.67 1.1-16 .53-8.89 1.25-17.78 1.35-26.68a330.79 330.79 0 0 1 3.3-43.69c.62-4.27 1.35-8.52 6.05-10.92 7.73 1 12.57 7.6 19.91 10.12a47.53 47.53 0 0 1 .58 6.49c-.52 11-1.25 22.07-1.73 33.11-.25 5.69-.7 11.47-.05 17.09a156.07 156.07 0 0 1 -1 44.76c-2.22 12.8-2.14 25.55-1.55 38.39.53 12.14-1.57 24.08-2.2 37.09z"/><path d="m407.87 2076.42c-9.3 1.93-24.86 1.95-33.94.12 0-2.65-.22-5.42.05-8.14.39-3.9 1.76-7.78 1.63-11.63-.84-24.26 2.71-48.45.74-72.75-.69-8.48.21-17.11.63-25.66.74-14.95 1.66-29.9 2.56-44.84a13.84 13.84 0 0 1 .73-2.84c2.09-1.93 4.16-.94 6.15-.5 8.7 1.93 17.4 3.91 26.77 6 .11 1.72.38 3.73.34 5.73-.34 15.69-1.25 31.4-1 47.08.32 18.6-1 37.1-2.84 55.53-1.4 13.91-1.27 27.78-1.44 41.68-.03 3.49-.25 6.96-.38 10.22z"/><path d="m1704.34 1912.71c9.17-2 17.82-3.92 26.49-5.74 1-.2 2.08.17 3.91.36 2.21 6.46 4.57 13.1 6.76 19.81 4.75 14.58 9.88 29 14 43.81 5.85 21 11.2 42 16.21 63.21a129.13 129.13 0 0 0 7 22.4 104.08 104.08 0 0 1 4 11.05c.5 1.6.32 3.42.47 5.46a51.8 51.8 0 0 1 -5.61.71c-8.55.06-17.1 0-26.29 0-1.35-4.24-2.63-8.22-3.88-12.22q-7-22.47-14-44.93a390.78 390.78 0 0 1 -11.43-47.85 135.36 135.36 0 0 0 -8.33-27.6c-3-7.26-5.63-14.66-8.26-22-.62-1.92-.65-4.06-1.04-6.47z"/><path d="m297.9 2077.36c-12.45 1.49-24.38.5-36.63.81-2-6.07-1.51-11.31-.31-16.47 3.89-16.64 7.72-33.3 12-49.85 5.12-20 10.86-39.86 15.83-59.9 1.79-7.21 2.43-14.75 3.08-22.18 1-11.7 1.56-23.45 2.37-35.17q.53-7.45 1.36-14.88a26.42 26.42 0 0 1 1.48-4.62l18.6 13.32c-5.29 17.48-6.2 35.49-6.56 53.61-.17 8.16-1 16.31-1.53 24.47-.71 10.3-1.42 20.61-2.23 30.9-.34 4.25-.72 8.51-1.42 12.7-3.4 20.4-6.22 40.83-5.69 61.59 0 1.69-.25 3.39-.35 5.67z"/><path d="m221.86 2077.4c-8.23 1.12-69.73 1.81-89 1a44.62 44.62 0 0 1 -5-.73c-1.38-4.68.83-8.13 2.61-11.52 5.64-10.71 11.29-21.43 17.37-31.9 3.81-6.56 7-13.21 8-20.76.15-1.06.53-2.08.69-3.13a231 231 0 0 1 11.58-44.36c1.8-5 3-10.24 4.58-15.33.39-1.24 1.33-2.3 2.73-4.65 3.6 15 8.4 28.31 7.66 42.75a107.92 107.92 0 0 0 1.93 25.51c2.68 14.34 8.13 27.25 18 38.08 3.85 4.21 8 8.1 11.82 12.37 3.28 3.61 6.66 7.32 7.03 12.67z"/><path d="m1976.67 2072.32a32.93 32.93 0 0 1 -5 .92c-32.43 0-64.85 0-97 0-1.34-2.19-.14-3.17 1-4 9.79-7.32 18.07-16.19 26-25.41a125.43 125.43 0 0 0 9.48-12.93c5.3-8.05 10.29-16.29 15.54-24.38a54.23 54.23 0 0 0 9.1-26c.29-3.85 1.15-7.65 2-13.36 7.2 11.87 10.49 23.31 14.7 34.34 4.44 11.66 9.1 23.26 13.11 35.08 3.91 11.42 8.7 22.63 11.07 35.74z"/><path d="m1858.45 2072.49c-7.66 1.77-14.72 1.16-21.7.68-1.38-.1-3.14-1.78-3.8-3.17-1.06-2.21-1.28-4.8-2-7.21-3.21-11.68-6.48-23.35-9.66-35-2.43-9-4.64-18-7.17-26.88-2.91-10.28-5.62-20.65-9.21-30.7-7.31-20.5-15.18-40.79-22.75-61.2-1.47-4-2.65-8-3.85-11.66 7.32-7 8.48-7.73 16.81-10.9a20 20 0 0 1 10.24 10c3.56 7.79 7 15.61 10.57 23.4 5.64 12.43 9 25.57 12.09 38.77s6.23 26.39 9.34 39.59a393.41 393.41 0 0 0 14.06 47.12c3.26 8.55 4.83 17.67 7.03 27.16z"/><path d="m253.86 2077.48c-8.58.42-17.13 3.74-24.07-4.26 5.17-19.17 5.48-39.06 12.66-57.49 1.55-4 2.87-8 4.28-12.07 1.29-3.7 2.88-7.33 3.8-11.11 5.84-24.23 13.3-48.1 17-72.8 1.55-10.2 2.35-20.52 3.25-30.81 1-11.35 1.69-22.74 2.58-34.1a19.32 19.32 0 0 1 1.08-3.51c4.95 1.9 6.89 6.24 9.72 9.58s5.36 6.61 8.11 10q-3.37 33.45-6.77 66.87c-1.39 13.56-6.09 26.34-9.41 39.44-6.14 24.17-12.46 48.29-18.5 72.48a126.16 126.16 0 0 0 -3.73 27.78z"/><path d="m1683.6 2073.76a32.34 32.34 0 0 1 -4-12.24c-1.13-8.82-2.25-17.66-3.84-26.41-2.86-15.77-5.65-31.57-9.22-47.19-4.44-19.44-9.67-38.7-14.5-58.05-.94-3.73-1.64-7.53-2.43-11.17 8.46-3.32 19.53-4.69 28-3.44 1.65 7.33 3.37 14.91 5.07 22.5 1.09 4.86 1.71 9.88 3.31 14.55 7.2 21 10.91 42.76 15.37 64.38 3.53 17.08 7.61 34 11.43 51 .38 1.69.58 3.42 1 5.65-10.36 1.32-20.21.9-30.19.42z"/><path d="m1903.41 2031.67c-5.34 8.13-11.53 14-17.72 20.54-3.39-2.92-3.55-6.66-4.69-9.78a60.69 60.69 0 0 1 -2.65-10.33c-1-5.62-1.68-11.29-2.55-16.93a60.55 60.55 0 0 0 -1.35-7.35c-4.7-16.81-9.52-33.6-14.22-50.41-1.63-5.83-2.94-11.75-4.57-17.59-2.67-9.6-5.45-19.17-8.25-28.73-1.1-3.76-2.63-7.41-3.56-11.21-3-12.16-8.57-22.54-19.33-29.58-.24-.16-.29-.62-.61-1.34 7-5.81 11.22-14.31 18.34-20.23 5.21 3.33 7.6 8.22 9.07 13.33 2.87 10 7.4 19.27 11.18 28.87 5.87 14.9 10.51 30.28 15.62 45.47.91 2.7 1.29 5.6 2.35 8.23 11.28 27.96 14.78 57.92 22.94 87.04z"/><path d="m366.58 2077.07c-7.29 1.44-14.31 1-22 .43-.47-2.14-1.34-4.13-1.26-6.08.25-6.41.89-12.8 1.31-19.21.27-4.26 1.21-8.67.47-12.77-2.33-13-.36-25.66 1.46-38.34a201.39 201.39 0 0 0 1.59-30.94q-.29-26.78-.11-53.55c0-4.51 0-9.21 2.07-13.92 8.95-.49 16.66 3.35 25.44 5.49 0 2.81.14 5.23 0 7.64-1.4 21-2.87 42-4.29 63a31.87 31.87 0 0 0 0 5.35c1.95 18.94-.12 37.8-1.06 56.68-.52 10.32.24 20.74-2.23 30.92-.45 1.68-.89 3.36-1.39 5.3z"/><path d="m1802.79 1884.71 15-10.21a18.44 18.44 0 0 1 12.37 8.9c3.15 5.17 6.15 10.36 7.65 16.39 1.79 7.26 4.3 14.34 6.38 21.53 2 6.84 3.82 13.72 5.69 20.59 1.3 4.81 2.44 9.67 3.81 14.46 4.41 15.42 9 30.78 13.29 46.23a146.69 146.69 0 0 1 3.53 16.73c1.65 10.56 2.57 21.23 6.88 31.22 1 2.21.88 4.85 1.33 7.55-4.06 4.53-8.33 8.53-13.72 11-.91-1-1.6-1.49-1.75-2.06-4.59-18-11.48-35.22-16.64-53-4.46-15.39-7.61-31.15-11.38-46.74-4.28-17.66-8.26-35.43-15.77-52.11-3.22-7.15-6.37-14.34-9.93-21.32-1.62-3.05-4.14-5.65-6.74-9.16z"/><path d="m532.2 1916.43 18.73-7c1.32 1.83 3.3 3.56 3.94 5.69a144.7 144.7 0 0 1 3.84 16.6 287.27 287.27 0 0 1 3.6 29.61c1.65 24.52 2 49.07 2.69 73.62.32 12.06 2.06 24.09 3.12 36.13.12 1.37 0 2.77 0 4.67-8.54 2.61-16.89 1.47-25.84 1-.32-2.33-.71-4.33-.86-6.34-2.24-30.23-.77-60.51-1-90.77a235.49 235.49 0 0 0 -2.84-37.23 37.39 37.39 0 0 1 -.82-7.42 32.73 32.73 0 0 0 -4.56-18.56z"/><path d="m536.26 2076.73a111.59 111.59 0 0 1 -25 .12c-.43-2.23-1.15-4.23-1.14-6.22.08-14.61.3-29.23.49-43.85 0-2.85.14-5.7.16-8.56.11-20-1-39.89-.14-59.87.43-10.3-.52-20.67-.75-31-.05-2.06.31-4.13.51-6.61l15.57-2.89c4.46 3.57 5.17 8.09 5.78 12.76 4.58 35.5 3.8 71.16 3.31 106.83-.1 7.1.93 14.2 1.19 21.31.18 5.65.02 11.32.02 17.98z"/><path d="m1539.85 2064.35c-9.41-5.94-14.31-13.46-19.82-20.33-1-1.2-.89-3.4-.87-5.14.1-8.9.19-17.81.58-26.7.48-10.68 1.34-21.34 1.91-32 .8-15 .91-30 2.38-44.87 1.32-13.38-.47-26.33-2.72-39.35-.78-4.56-1.74-9.11-2.35-13.7a220.38 220.38 0 0 0 -6.44-31.41c-2.8-9.89-5.38-19.91-6-30 2.07-1.57 2.89-.25 3.68.82 11 14.92 17.25 31.92 21.88 49.62a9 9 0 0 1 -.28 5.1c-1.77 4.6-1.14 9.08-.13 13.67 4.45 20.29 5.6 40.93 6.64 61.6.3 6 .3 12.2 1.44 18.11 1.91 9.92 2 19.85 1.76 29.85-.2 8.56-.19 17.13-.49 25.69-.19 5.33-1 10.63-1.17 16-.16 7.02-0 14.1-0 23.04z"/><path d="m1535.34 1879.73 16.09 15.52c2 16.91 4.71 33.38 9.6 49.39a133.14 133.14 0 0 1 4.31 21.88c3.16 24.15 1.54 48.38 2.27 72.57.26 8.9.68 17.79 1 26.69.08 2.41 0 4.83 0 7.59-4.09 1.57-8 1.24-11.82.87-7.62-.74-10.8-3.51-11.57-11.31a136.33 136.33 0 0 1 -.64-24.48c1.67-19.93 2.24-40 .64-59.76-1.52-18.8-2.16-37.63-3.67-56.41a256.88 256.88 0 0 0 -5.28-34.8c-.43-1.95-.49-3.99-.93-7.75z"/><path d="m1625.46 1918.26h19c6 16.22 8.32 33.59 12.81 50.37 4.59 17.16 7.63 34.76 10.92 52.24 3.22 17.08 5.91 34.26 8.85 51.52-3.65 2.66-7.28 1.63-10.65 1.79-3.17.15-6.36 0-10 0a42.75 42.75 0 0 1 -5.47-16.18 305.2 305.2 0 0 0 -8.6-45c-2-7.5-2.09-15.5-3.45-23.2-2.66-15.06-5.62-30.08-8.44-45.11-1.59-8.35-3.15-16.69-4.97-26.43z"/><path d="m258.63 1828.59 11.79 15.72c-1.18 11.58-2.29 22.52-3.41 33.46-1.16 11.35-1.83 22.78-3.64 34-2.3 14.42-5.37 28.72-8.41 43q-2.78 13.07-6.47 25.92c-2.34 8.21-5.13 16.29-7.87 24.38-5.5 16.23-10.51 32.57-12.09 49.76-.31 3.46-.4 7-2.09 10-.89 0-1.35.15-1.51 0-4.49-4.52-8.94-9.07-13.64-13.87.54-2.47.94-4.88 1.6-7.21 4.37-15.45 9-30.83 13.16-46.31q11.47-42.32 22.56-84.74c4.35-16.63 6-33.67 6.74-50.8.37-8.55.47-17.12 1-25.66.09-2.24 1.24-4.36 2.28-7.65z"/><path d="m1596.15 2073.21c-7.26 2-14.2 1.35-21.41.52-1.83-4.27-1.91-8.56-2-12.76-.18-10-.07-20-.22-30-.15-9.63-1-19.28-.59-28.87a201 201 0 0 0 -.85-27.77c-1.14-12-2.75-23.89-6.57-35.59-3.74-11.45-5.26-23.61-7.69-35.48-.13-.6.34-1.33.74-2.68 7.58 2.73 14.26 7.35 22.42 9.91 1.25 6.27 2.75 12.46 3.68 18.73 1.09 7.4 1.66 14.87 2.49 22.31.75 6.73 1.62 13.44 2.31 20.17 1.39 13.47 3 26.92 4 40.41 1.45 20.25 2.46 40.5 3.69 61.1z"/><path d="m1907.56 2022.13a8.37 8.37 0 0 1 -1.49-2.4c-3.72-16.33-7.34-32.68-11-49a83.44 83.44 0 0 0 -2.26-8.23c-4-11.81-7.88-23.67-12.17-35.37-5.88-16-12.09-32-18.17-47.95-1.26-3.33-2.92-6.55-3.8-10-2.45-9.41-6-18.22-12.73-25.35l15-21c2.74-.32 4 1.53 4.79 3.41a62.57 62.57 0 0 1 3.59 10c4.24 17.74 11.44 34.5 17 51.79 4.17 12.89 8.26 25.76 11.23 39 2.48 11.11 6 22 9 33 1.32 4.8 2.43 9.67 3.9 14.43 2 6.45 3.92 12.94 6.43 19.2 2.85 7.11 3.53 13.74-1.63 20.09-2.22 2.74-4.3 5.58-6.49 8.34-.06.18-.55.04-1.2.04z"/><path d="m1744 2073.06c-7.85 1.61-15.18 1.1-22.94.41-.88-2.52-1.83-4.79-2.46-7.14-1.3-4.82-2.55-9.65-3.61-14.53-5.66-26.13-10.92-52.35-17-78.38-4.06-17.34-9.32-34.4-14-51.61a68.9 68.9 0 0 1 -1.16-7.18c5.32-2.2 10.32-1.64 15.82-1.74a42.06 42.06 0 0 1 2.69 5.42c3.78 11.14 7.62 22.26 11.06 33.51a200.82 200.82 0 0 1 6.11 23.81c4 22.92 10.75 45.09 17.46 67.29 2.27 7.51 4.51 15 6.63 22.57.64 2.34.87 4.79 1.4 7.57z"/><path d="m248.71 1803.75c3.84 6.44 4.68 12.09 7.09 16.75a135.38 135.38 0 0 0 -5.61 39.23 207.73 207.73 0 0 1 -7.93 58c-3.13 11-5.63 22.07-8.61 33.07-6.05 22.35-12.23 44.65-18.36 67-1.41 5.15-2.75 10.32-4.22 15.46-1 3.65-1.71 7.49-4 11-1.44-.85-2.56-1.15-3.08-1.87-1.86-2.61-3.55-5.33-5.24-8.05-4.58-7.34-5.91-14.9-2.81-23.37 4.16-11.36 7.66-23 11.49-34.45 7.88-23.66 15.7-47.34 23.73-71a233.28 233.28 0 0 0 12-60.59c.84-13.04.84-26.34 5.55-41.18z"/><path d="m1619.32 2073.7c-6.5.76-11.72 1-17.53-.2a185.34 185.34 0 0 1 -2.67-25.58c-.62-18.53-1.16-37.08-2.52-55.56-.83-11.35-3.1-22.59-4.73-33.87q-2.89-20.1-5.77-40.18c-.2-1.36-.2-2.75-.29-4.1 6-.82 6-.82 16.15 2.32 1 4.43 2.14 9.22 3.21 14 1 4.52 2.28 9 2.85 13.58 2.09 16.61 4.32 33.22 5.77 49.9 2 22.37 3.25 44.8 4.81 67.21.27 3.87.45 7.78.72 12.48z"/><path d="m190.92 2005.22a24.78 24.78 0 0 1 -1.17-4.77c-.25-5-.13-10-.43-15-.39-6.38-.68-12.81-1.68-19.11a27.37 27.37 0 0 1 2.22-15.49c4.81-11.48 8.95-23.22 13.36-34.86 1.89-5 3.55-10.07 5.68-15 6.4-14.7 13-29.37 17-44.92s7.12-31.21 10.34-46.89a304.24 304.24 0 0 1 7.76-31.18c3.32 7.77 4.69 14 2 21.2a143.28 143.28 0 0 0 -6.62 24.67 191.86 191.86 0 0 0 -2.47 26.56c-.54 16.93-4.52 33.13-9.61 49.11-8.87 27.81-17.89 55.59-26.85 83.37-2.39 7.4-4.82 14.79-7.23 22.18z"/><path d="m1863.4 1816.93 8.69-30.12c1.58 2.75 3 4.36 3.49 6.2 4.27 15.47 8.05 31.08 12.64 46.46 4.18 14 9 27.79 13.86 41.58 5.52 15.81 11.31 31.53 17 47.27 2.2 6 4.83 11.93 6.73 18 2.11 6.79 4.24 13.68 5.23 20.69a48.92 48.92 0 0 1 -5.11 29.08c-4.7-4.71-5.71-6.23-7.49-12.59-3-10.64-5.86-21.31-8.71-32-3.68-13.78-6.84-27.72-11-41.34-5.45-17.72-11.73-35.18-17.56-52.78-2.58-7.78-4.89-15.65-7.39-23.45-2.08-6.4-4.08-12.93-10.38-17z"/><path d="m1607 1916.47 14.39 1.37c.77 3.54 1.54 6.59 2.09 9.69q5.55 31 11 62.06c.55 3.16.77 6.37 1.28 9.54 1.09 6.66 2.13 13.34 3.46 19.95 1.47 7.33 3.83 14.53 4.77 21.91 1.35 10.6 2.37 21.21 6.17 31.25-7.19 2.55-12.67 2.75-24.7 1-2.38-7.66-2.09-15.89-2.76-23.94-1.88-22.71-2.64-45.56-5.54-68.13-2.35-18.31-3.5-36.91-8.81-54.8-.83-2.68-.83-5.57-1.35-9.9z"/><path d="m1503.06 1814.33c-2.06 6.77-.45 13.45.9 20 2.42 11.86 5.84 23.52 8 35.42 3 16.46 5.24 33 7.65 49.61a44.92 44.92 0 0 1 0 8.52c-1 19.57-2 39.14-3.16 58.71-.57 9.94-1.44 19.87-2.09 29.81-.23 3.55-.18 7.12-.34 10.67-.11 2.37-.38 4.73-.54 6.74-2.51 1-3.32-.51-4.08-1.51-5.95-7.73-9.82-16.56-12.47-25.84-.93-3.28-.59-7-.29-10.55a203.14 203.14 0 0 1 9.36-44.91 106.26 106.26 0 0 0 3.32-52.76c-5.26-28.73-10.26-57.51-17.82-85.77a39 39 0 0 1 -1.1-8.35c0-.69 1.2-1.81 2-2.07a3.17 3.17 0 0 1 2.81.64c2.55 3.47 4.79 7.08 7.85 11.64z"/><path d="m1933.1 1948.9c-2.82-7.21-5.74-14.38-8.43-21.64-6.94-18.72-14-37.41-20.58-56.25-4.35-12.44-8.11-25.08-11.87-37.71-4.09-13.67-7.8-27.45-11.84-41.13-.8-2.69-1.75-5.79-3.67-7.6-4.7-4.42-4.22-9.56-3.16-14.89.66-3.35 1.88-6.6 3.35-11.61 1.5 3.81 2.55 6 3.21 8.24 5.54 19.2 10.84 38.46 16.57 57.6a220.28 220.28 0 0 0 15.71 38.59 388.88 388.88 0 0 1 18.46 39.77c5.83 15.2 6.4 30.51 2.25 46.63z"/><path d="m242 1761.22c1 4.51 1.49 6.54 2.11 9.28-4.35 4.43-5.92 10.6-7.36 16.78-3.65 15.63-7.46 31.23-10.69 46.94a231.77 231.77 0 0 1 -13.46 43.92c-3.6 8.55-7.25 17.07-10.73 25.66-1.46 3.63-2.47 7.43-3.78 11.12-3.22 9.07-6.43 18.14-9.8 27.15-.53 1.43-1.86 2.56-3.13 4.23-3.44-9.85-3.88-19.29-1-28.78 4-13 8.56-25.69 15-37.72 8.06-15.12 16-30.35 21-46.81s9.45-32.91 14.34-49.32c2-6.75 3.13-13.82 7.5-22.45z"/><path d="m1495 2074.38c-1.87-18.19-1.65-35-.54-53.15 3.48 2.9 4.15 6.14 5.89 8.57 1.86 2.6 3.47 5.38 5.35 8s3.89 5.08 6 7.49 4.43 4.62 6.53 7 4 5.05 6.09 7.41a86.73 86.73 0 0 0 6.83 6.73c2.39 2.1 5 4 7.47 5.92-.43.64-.75 1.6-1.13 1.63-13.86.92-27.68.4-42.49.4z"/><path d="m597.42 1844.11a105.65 105.65 0 0 1 13.23-21.11c1.28 1.33 2.65 2.13 3.06 3.27 2 5.67 3.84 11.42 5.64 17.17a6.72 6.72 0 0 1 .15 3.15q-2.65 13-5.47 25.94c-.06.28-.49.47-1.23 1.13-1.69-2.38-.94-5.2-1.62-7.59a89.34 89.34 0 0 0 -2.72-9.16 27 27 0 0 0 -4.23-7.32c-1.78-2.06-4.29-3.5-6.81-5.48z"/><path d="m615.12 1818.57c2.87-4.52 5.23-8.42 7.81-12.17a3 3 0 0 1 2.73-1 6.23 6.23 0 0 1 2.74 2.75 5.05 5.05 0 0 1 -.09 3.09c-1.56 6.48-3.19 12.94-4.74 19.17-2 .93-2.77.23-3.44-1.3-1.54-3.49-3.28-6.92-5.01-10.54z"/></g><path d="m486.8 1249.25c-1.73-1-3.54-1.84-5.19-3-16.4-11-30.21-24.93-43.38-39.53a346.19 346.19 0 0 1 -30.48-39.92c-9.52-14.25-19.61-28-32-40.08a106.4 106.4 0 0 0 -42.81-25.4c-6.79-2.16-13.61-4.24-20.37-6.48a73.75 73.75 0 0 1 -21.73-11.28c-1.64-1.26-3-2.9-5.69-5.55 2.8.23 4.26-.08 5.14.49 11.48 7.54 24.11 12.34 37.35 15.48 29.17 6.91 51.36 24 69.26 47.24 6.73 8.75 13 17.85 19.29 27a414.5 414.5 0 0 0 68.25 76.38 41.35 41.35 0 0 1 3.22 3.51z"/><path d="m1775.05 1093.45a25.3 25.3 0 0 1 -1.66 3.8c-18.07 25.82-32 53.94-44.19 82.79-9.74 23-20.37 45.48-31 68a22 22 0 0 1 -1.62 2.56c-2 .1-2.81-1.06-2.54-2.58.62-3.47 1.09-7.06 2.42-10.28 2.7-6.58 6-12.92 8.93-19.4 3.84-8.41 7.89-16.75 11.37-25.32a577.49 577.49 0 0 1 39.63-79.21c4-6.71 8.77-13 13.29-19.37 1.04-1.5 2.62-2.13 5.37-.99z"/><path d="m1772.89 1224.81c.43-3.41.39-4.82.8-6.09 6.14-19.4 15.17-37.48 25.62-54.87a20.64 20.64 0 0 1 4.22-4.69c.56-.5 1.82-.21 3.44-.32-4.12 7.64-8 14.62-11.69 21.73-3.58 6.94-6.87 14-10.36 21-3.58 7.18-6.19 14.87-12.03 23.24z"/><path d="m251.52 1170.67c2.57-.72 4-1.62 4.91-1.27a20.9 20.9 0 0 1 5.43 3.21c7.57 5.88 15 11.91 22.62 17.79 5.83 4.52 11.76 8.91 17.7 13.4-.69 1.78-2.31 1.14-3.34.59-5.29-2.85-10.75-5.51-15.66-9-6.69-4.67-12.94-10-19.36-15-3.57-2.78-7.12-5.61-12.3-9.72z"/><path d="m1177.92 415.15c-.8-3.37-1.79-6-2-8.73q-1.74-20.79-3.12-41.6c-.44-6.58 1.46-8.89 8-10.47a16.91 16.91 0 0 1 4.21-.69c10.68.09 21.38 0 32 .52 9.6.47 19.22 1.23 28.73 2.63s18.92 3.5 28.28 5.72c12.91 3.08 23 11.16 32.65 19.69 4.78 4.24 8.94 9.21 13.16 14a59.51 59.51 0 0 1 13 24.33c1.9 7.25 4.21 14.39 5.85 21.69.92 4.12 1 8.45 1.15 12.69 0 .73-1.12 1.89-2 2.18a4 4 0 0 1 -2.91-.54 9.39 9.39 0 0 1 -2.15-2.32c-24.77-30.62-57.35-44.65-96.21-45.55a275.7 275.7 0 0 0 -43.74 2.78c-4.48.66-8.82 2.18-14.9 3.67z"/><path d="m932.29 410.45c-15.82-6.47-32.65-9-49.55-11-23.77-2.77-47-.5-69 9.34-14.13 6.29-26.88 14.63-37.5 26-1.19 1.27-2.54 2.39-3.53 3.33-3.2 0-4.77-1.48-4.25-3.95 3.72-17.91 9.17-35.36 20.61-49.85 10.24-13 23.46-22.89 38.44-30a62.11 62.11 0 0 1 15.23-4.76c16.85-3.15 33.85-4.5 51-3a12.33 12.33 0 0 0 3.2.12c10-1.66 19.83 1.23 29.77 1.4a18.91 18.91 0 0 1 4.24.51c11.09 2.75 14.74 4.2 11.57 17.52-2.55 10.71-3.71 21.75-5.52 32.64-1.14 6.64-1.22 6.77-4.71 11.7z"/><path d="m863.74 572.71a44.8 44.8 0 0 1 -30.57-10.8c-4-3.29-9.47-4.67-14.24-7-4.45-2.18-9.27-3.92-13.17-6.85-9.19-6.9-8.52-16.34 1.14-22.56 2.7-1.74 5.66-3.11 8.19-5 13.61-10.5 29.26-12.6 45.61-10.75s32.42 4.73 48 10c14.23 4.84 27.65 11 39.81 20.22 9 6.83 7 15.77-3 19.21a186.71 186.71 0 0 1 -19.39 5.93c-8.29 1.88-16.62 3.46-25.31 3.4-7.41 0-14.84 1.62-22.26 2.49-4.92.62-9.86 1.15-14.81 1.71zm27.65-10.54c17.93 1.33 35-3.59 48-7.28a15.4 15.4 0 0 0 4.88-2 26.93 26.93 0 0 0 3.85-4.2c-11.75-12.4-27.23-20.72-41.69-22.7-4.14 14.79.68 13.01-15.04 36.18zm-55.11-44.81c-5.26-.29-8.62 1.81-11.85 3.9-4.73 3.07-9.32 6.38-13.86 9.73-5.23 3.87-5.42 8.21-.19 12 6.91 5 14.91 7.49 23.68 9.47-1.06-11.93-1.15-23.15 2.22-35.1z"/><path d="m1226.69 589.67c-17.62 2.28-33.4-2.15-49.29-6.13-8.27-2.08-16.75-3.26-25.12-5-4.88-1-9.74-2.08-14.54-3.38a18 18 0 0 1 -9.81-6.1c-2.94-3.73-2.86-7.5 1-10.16 8.82-6 17.55-12.27 26.94-17.23 13.91-7.35 28.72-12.34 44.62-13.75 14.88-1.31 29.1.74 42.69 6.93 9.71 4.43 19.46 8.78 29.06 13.44a73.67 73.67 0 0 1 12.81 7.55c4.13 3.15 4.19 6.51 1.68 11.33a30.13 30.13 0 0 1 -18.13 15.5c-13.92 4.58-28.01 8.17-41.91 7zm-43.31-52.32c-5.26-.49-8.94 2-12.84 3.26-14.4 4.75-26.54 13.58-39 21.9-.45.3-.44 1.28-.79 2.4 1.16 1 2.28 2.6 3.78 3.14a86.59 86.59 0 0 0 12.25 3.57c12.55 2.55 25.4 3.6 37.68 7.56.73.24 1.79-.55 3.34-1.07-7.8-12.87-7.46-26.52-4.42-40.76zm71.7 10.25c-1.16 3.62-2 6.64-3.1 9.56a80.16 80.16 0 0 1 -4.06 9.8c-1.48 2.8-3.68 5.21-5.32 7.94s-5.62 4.05-5.76 8.68c13.27-.35 24.94-4.3 36.16-9.63 5-2.39 7.57-7.1 9.1-13.45-8.3-5.63-17.29-9.29-27.02-12.9z"/><path d="m1136.33 728.3c1 1.38 2.31 2.63 2.94 4.16 4.2 10.21 8.63 20.36 12.26 30.79 4.26 12.24 1.86 23.89-4.72 34.87a19.3 19.3 0 0 1 -11.39 9.11c-9.57 2.85-19.06 5.95-28.67 8.6a30.53 30.53 0 0 1 -9.55.74 64.09 64.09 0 0 1 -28.64-7.79c-3.08-1.72-6.14-3.47-9.21-5.2a13.89 13.89 0 0 0 -2.82 1.92c-6.18 7.26-14.24 9.09-23.23 8-6.37-.75-12.75-1.56-19-2.76a39 39 0 0 1 -15.64-6.66c-4.63-3.31-9.5-6.28-14.66-9.66-6.48 2.39-13.47 4.17-19.68 7.44-12.28 6.47-24.14 4.27-36.17-.13-1.67-.61-3.23-1.51-4.89-2.17-12.81-5.07-18.45-15.16-19.39-28.27a57.08 57.08 0 0 1 4.64-27.1c8.41-19.55 21.41-36.16 32.92-53.74.51-.77 1.67-1.11 3.41-2.21-.1 2 .16 3.36-.28 4.43a50.72 50.72 0 0 1 -3.76 7.65c-5.27 8.49-11.13 16.64-15.93 25.37a224 224 0 0 0 -13.22 28c-3.24 8.5-2.67 17.55.21 26.27a19 19 0 0 0 7.47 10.18 55.19 55.19 0 0 0 30.19 9.5 17.77 17.77 0 0 0 6.28-1.11c5.68-2.06 11.28-4.36 16.87-6.67.42-.17.5-1.19.91-2.29-3.5-1-6.89-.38-10.34-.11-5.32.4-10.68.52-16 .59a24.3 24.3 0 0 1 -13.14-4 7.57 7.57 0 0 1 -3.87-7.18 6.89 6.89 0 0 1 5.25-6.15 46.24 46.24 0 0 1 25.34-.39c9.12 2.31 17.31 6.32 23.69 13.71 5.65 6.56 12.93 11.32 20.56 15.22 11.79 6 24.63 6.87 37.56 5.76 2.57-.22 5.28-2.13 7.35-3.93a104.72 104.72 0 0 0 10.57-10.6c10.32-11.9 24.23-16 39-17.63 6.47-.7 12.65 2 17.44 6.83 4.22 4.28 4.06 9.11-.38 13a28.19 28.19 0 0 1 -13.44 6.25 61.37 61.37 0 0 1 -29.63-1.55c-2.84-.81-5.62-3.63-9.22-1.28.45.93.66 2.19 1.39 2.68 10.08 6.8 21.5 9.35 33.41 9.93 2.74.13 5.61-.85 8.32-1.68 7.83-2.41 15.53-5.27 23.43-7.43a17.49 17.49 0 0 0 11.84-9.85c3.92-8 5.6-16.17 3.09-24.87-1.29-4.45-2.64-8.89-4.27-13.21-3.07-7.95-5.36-16.11-5.2-25.38z"/><path d="m874.41 926.79c1.5.78 3.22 1.31 4.48 2.38 9.66 8.2 21.94 11.84 32.38 18.67 10.73 2.62 21.38 5.67 32.22 7.68 7 1.3 14.22 1.17 21.35 1.48 11.45.5 22.78.06 33.95-3.15a54.73 54.73 0 0 1 27.51-.68c8.33 1.86 16.94 2.47 25.45 3.5a22.79 22.79 0 0 0 6.39-.06c19-3.1 38-6.15 56.55-11.76 1-.31 2-.62 3-1q24.81-10 49.59-20c5-2 9.82-4.25 14.84-6.1 1.43-.53 3.23-.08 4.83-.08.36 4-2.14 5-4.34 6-10.68 4.94-21.37 9.88-32.14 14.61-6.86 3-13.88 5.63-20.82 8.44-15.3 6.18-31.25 10-47.43 12.89-2.81.5-5.75.46-8.47 1.23-16 4.55-31.89 2.38-47.66-.86a64.74 64.74 0 0 0 -27.54.61 112.61 112.61 0 0 1 -21.12 2.88c-20.79.55-41.37-1.18-61.32-7.67-1.69-.55-3.6-.72-5.08-1.63-11.5-7.07-24.46-11.79-34.58-21.1a37 37 0 0 1 -3.73-4.66z"/><path d="m885.76 971.1 8.92 5.48c14.26 8.79 28.14 18.27 42.88 26.16 12.84 6.86 26.48 12.38 41.49 13a43.42 43.42 0 0 1 7.41 1.08c26.29 5.64 52.45 3.92 78.55-1.3 3.15-.63 6.29-1.31 9.46-1.82 14.21-2.28 27.86-6.12 39.94-14.33 16.26-5.4 29.11-16.39 42.33-26.55 8.72-6.7 16.32-14.86 24.51-22.27 2.8-2.53 4.85-6 8.41-7.55 2 1.84.61 3.06-.18 4-11.07 12.61-22.36 25-36.78 34a8.84 8.84 0 0 0 -1.76 1.21c-10.94 11.17-25.11 17.35-38.26 25.15-10 5.93-20.81 9-32 11.53-23.77 5.34-47.69 8.71-72.11 7.34-4.61-.26-9.22-.86-13.81-1.47q-11.13-1.46-22.22-3.13a44.11 44.11 0 0 1 -8.35-1.76c-15.09-5.44-30.19-10.89-43.67-19.9-8.6-5.74-17.39-11.19-25.92-17a57.34 57.34 0 0 1 -7.92-7.12c-.58-.64-.41-1.91-.92-4.75z"/><path d="m1146.16 909.53a138.36 138.36 0 0 1 -31 .46c-11-1.08-22-2.21-32.89-4.16-10.47-1.88-20.56-.92-30.7 1.55-9 2.19-18.08 4.13-27.07 6.4-10.77 2.73-21.21 1.69-31.51-2.12-6.69-2.48-13.48-4.69-20.09-7.36a50.92 50.92 0 0 0 -23.09-3.24c-15.64 1.11-31.33 1.64-46.86 4.15-3.83.62-7.81.4-11.72.39-.81 0-1.62-.8-2.51-1.26.61-.81.9-1.63 1.32-1.69 21.12-3.42 42.27-6.58 63.73-6.94 7.18-.12 14.15.49 20.94 3.31 6.58 2.73 13.45 4.74 20.15 7.16a47.81 47.81 0 0 0 28.39 1.83c8.65-2.14 17.39-3.93 26-6.13a86.24 86.24 0 0 1 34.91-1.87c16.91 2.58 34 4 51 5.94 3.84.43 7.77.39 11 3.58z"/><path d="m1287.78 520.8c-4.43 1.62-7.38-.43-10.36-2.16-11.52-6.68-24.05-10.88-36.85-13.85-12.56-2.93-25.49-2.19-38.19-.09-11.23 1.87-22.37 4.21-32.75 9.27-2.4 1.17-5.24 1.44-9.85 2.64 1.9-2.6 2.38-3.89 3.31-4.45 8.65-5.21 18.22-7.7 28-9.93 13.71-3.12 27.55-3.64 41.4-2.7 10.73.73 20.83 4.77 30.68 8.76 8.5 3.43 16.43 8.28 24.61 12.51z"/><path d="m928.31 507.89c-5.48-2.35-11.24-4.2-16.38-7.13-25.82-14.7-53.35-16.23-81.88-11.62-10.28 1.66-20.22 4.1-29.51 8.94-.78.41-1.89.17-4.33.32 1.94-2.11 2.79-3.61 4.07-4.35 6.84-3.9 14-7.13 21.92-8 12-1.38 24.12-3.47 36.14-3.23 14.92.29 29.85 2.44 43.56 9.28 9.22 4.59 18.39 9.26 27.58 13.9z"/><path d="m1182.65 601.84c12 3 22.15 6.06 32.53 8.11a106.89 106.89 0 0 0 30.88 1.08c10.54-1 21-2.64 31.81-4 0 2-1.92 2.44-3.1 2.78-28.86 8.11-57.52 8.79-85.79-2.67a23.3 23.3 0 0 1 -3.76-2c-.55-.39-.87-1.14-2.57-3.3z"/><path d="m900.84 584.13c-7 1.85-11.66 3.39-16.45 4.28-12.58 2.34-25.13 5.26-37.83 6.34-16 1.38-32-.45-46.67-8-.44-.22-.54-1.1-1.2-2.58 2.89.76 5.23 1.23 7.48 2 15.79 5.26 31.76 7.16 48.26 3.6 11.12-2.4 22.34-4.31 33.55-6.23 3.41-.54 6.87-2.1 12.86.59z"/><path d="m1217.33 882c3-2.21 4.69-1.41 6-.21 9.15 8.56 15.33 18.7 15.77 31.59.33 9.24.32 18.48-3.83 27-2.38.18-2.22-1.43-2.22-2.73 0-6.41 0-12.82.16-19.23.31-11.22-3.48-20.91-10.59-29.45-1.8-2.14-3.37-4.43-5.29-6.97z"/><path d="m829.78 944.91c-3-1-3.61-3.1-3.71-5.23-.42-9.23-1-18.46-1-27.69 0-6.56 2.59-12.51 6.45-17.79 2.29-3.13 4.8-6.11 7.05-9 2.72-.14 3.68 1.2 3 3.21a15.52 15.52 0 0 1 -2.57 4.59c-7.06 9.24-9.3 19.77-8.67 31.16.3 5.32.49 10.66.53 16 .01 1.57-.69 3.13-1.08 4.75z"/><path d="m891.39 562.17c15.72-23.15 10.9-21.39 15-36.2 14.46 2 29.94 10.3 41.69 22.7a26.93 26.93 0 0 1 -3.85 4.2 15.4 15.4 0 0 1 -4.88 2c-13.01 3.71-30.03 8.63-47.96 7.3z" fill="#fff"/><path d="m836.28 517.36c-3.37 11.95-3.28 23.17-2.22 35.1-8.77-2-16.77-4.48-23.68-9.47-5.23-3.79-5-8.13.19-12 4.54-3.35 9.13-6.66 13.86-9.73 3.23-2.09 6.57-4.19 11.85-3.9z" fill="#fff"/><path d="m1183.38 537.35c-3 14.24-3.41 27.89 4.47 40.76-1.55.52-2.61 1.31-3.34 1.07-12.28-4-25.13-5-37.68-7.56a86.59 86.59 0 0 1 -12.25-3.57c-1.5-.54-2.62-2.14-3.78-3.14.35-1.12.34-2.1.79-2.4 12.41-8.32 24.55-17.15 39-21.9 3.85-1.28 7.53-3.75 12.79-3.26z" fill="#fff"/><path d="m1255.08 547.6c9.73 3.61 18.72 7.27 27 12.9-1.53 6.35-4.06 11.06-9.1 13.45-11.22 5.33-22.89 9.28-36.16 9.63.14-4.63 4.11-5.92 5.76-8.68s3.84-5.14 5.32-7.94a80.16 80.16 0 0 0 4.06-9.8c1.1-2.92 1.96-5.94 3.12-9.56z" fill="#fff"/></svg>
