<svg xmlns="http://www.w3.org/2000/svg" viewBox="0 0 3000 3000" width="3000" height="3000"><g transform="translate(57.599999999999994 484.79999999999995) rotate(0.0 1459.2 1027.1999999999998) scale(1.2909846943289394 1.2919129669223994)"><svg width="2260.6" height="1590.2" viewBox="0 0 2260.6 1590.2"><path d="m1451.5 747.6 2.7-5.6h8l141.9 117.7-76.3 48.5 108 54.1-4.1 24.5-110.6 231.5-63.8 153.2-52.4 100.5-43.9 116.4-8 .4-9.8-31.5 50.8-120.8 66.7-144.5 73.5-156.2 80.9-164.3-114.9-58 2.5-14.9 74.7-38.9-111.8-92zm-1318 303.6V1032h12.6l2.9 14.6 48.1 231.7 21.5 110 3.4 32.4-5.3 168.4-6.3.2-6.4-19.8 1.7-149.1-4.8-44.5-38.8-181-24-96.8zm621.4 538.2 12.9.3-6.4-39.9L725 1494l-163.7-305.2-49.7-70.7 110.6-122.4-115-80.2L645 786.1l-3.4-13.7-12.1 2-154.7 150 118.7 77.3L486 1119.3z" fill="#fff"/><path d="M1200.2 594.1c3 .6 5.4 1.2 7.8 1.5 30.5 3.3 58.5 13.7 84.1 30.5 17.2 11.3 32.9 24.2 46.3 40 10.9 12.9 22.8 24.9 36.6 34.7 17.3 12.3 35.1 23.3 55.7 29.7 31.9 10 64.2 17.8 97.2 23.5 21.9 3.8 43.3 10.1 64.1 18.1 2.3.9 4.7 1.7 7 2.7 13.4 5.5 27.3 8.5 41.8 9.2 2.1.1 4.3.3 6.4.7 22.7 5.1 45.5 10.1 67.2 19 15.9 6.5 32.1 12.3 48.3 18.1 5.7 2 11.7 3.4 17.7 4.6 26.1 5.3 51.1 14.3 76.3 22.6 5.1 1.7 10.1 3.7 15.2 5.3 15.1 4.6 29.6 10.7 44 17.3 6.5 3 13.4 5.3 20.3 6.9 13.1 3.1 25.2 8.2 35.9 16.5 17.9 13.9 34.7 29 46.3 48.9 2.5 4.3 4.8 8.8 7.2 13.2 5.9 10.7 12.1 21.2 17.6 32.1 4.5 8.9 8.8 18.1 12 27.6 6.1 17.7 12.4 35.2 19.9 52.3 12.1 27.2 21.9 55.3 32.1 83.3 8.6 23.6 16.9 47.3 25.3 70.9 2.6 7.4 4.8 15 7.1 22.5l24.3 79.2c.4 1.4.9 2.7 1.4 4.1 7.5 18.3 13.3 37.1 19.6 55.8 5.9 17.7 13 35 18.9 52.6 10.1 29.6 23.5 57.8 34.8 86.8 2.1 5.3 4.1 10.7 5.7 16.2 4 14.2 8.7 28.1 14.6 41.6.8 1.9 1.1 4 1.5 5.8-1.1.7-1.7 1.4-2.3 1.4-297.5.1-595 .2-892.5.2-1.4 0-2.7-.6-4.9-1.1 1-4.8 1.8-9.3 2.8-13.8 3.9-18.3 9.5-36 15.7-53.7 2.5-7.1 4.8-14.3 6.7-21.6 5-19.2 12.2-37.4 21.6-54.9 13-24.3 26-48.7 38.5-73.3 13.2-25.9 24.6-52.6 34.9-79.8 9.3-24.5 20-48.4 31.5-71.9 2.8-5.8 5.7-11.6 8.1-17.6 4.8-11.7 10.6-22.7 16.8-33.7 5.8-10.3 11.4-20.7 16.5-31.4 14.4-30.1 29.3-60 42.5-90.6 9.4-21.8 21.2-42.3 30.8-64 1.3-3 2.9-5.8 4.1-8.8 1.8-4.8.5-8.4-4-10.8-6.7-3.5-13.5-6.7-20.2-10.1-12.2-6.1-24.2-12.5-36.5-18.4-9-4.4-18.2-8.6-27.4-12.3-8.3-3.4-16.5-6.9-24.1-11.7 1.2-4.2 4.8-5.6 7.8-7.3 14.4-8 29-15.8 43.5-23.7 7.9-4.3 15.8-8.5 23.5-13 2.1-1.2 3.8-8.5 2.6-9.5-19.5-16.4-38.9-32.9-58.7-48.9-15.3-12.4-31.2-24.2-46.9-36.1-8.9-6.7-17.6-13.6-25.2-21.8-1.9-2.1-4.1-4-6.5-5.6-2.3-1.5-4.1-.4-5.1 2.6 4.6 7 10.8 13.1 17.3 18.5 9.9 8.2 20.2 16.1 30.5 23.9 21.7 16.5 43.4 33 63.8 51.2 5.1 4.5 10.5 8.7 15.7 13 2.4 2.1 4.7 4.3 7.3 6.7-6.1 5.6-13.1 8.4-19.8 11.7-15.7 7.9-31.6 15.4-46.3 25.1-3.9 2.6-7.7 5.3-11.2 8.3-4 3.3-3.6 6.5.7 9.5 1.8 1.2 3.6 2.3 5.6 3.2 7.5 3.5 14.8 7.2 22.5 10.3 11.6 4.7 23.1 9.7 33.9 16.3 7.3 4.5 15.3 7.8 23.1 11.6 9.3 4.5 18.7 9 27.7 13.3 1.5 3.8-.9 5.9-2.1 8.3-8.6 16.5-17.7 32.8-25.8 49.6-8 16.4-14.8 33.4-22.6 50-14.7 31.1-28.8 62.6-46.2 92.4-4 6.8-7.2 14-10.6 21.2-9.5 20.5-19.1 40.9-28.3 61.6-5.7 12.8-10.9 25.8-15.9 38.8-14.6 37.8-31.3 74.7-50.3 110.6-7.9 14.9-15.9 29.7-24 44.5-9.2 16.8-15.1 34.8-20.4 53.1-2.4 8.3-4.6 16.6-7.6 24.7-7.3 19.9-12.6 40.4-16.7 61.2-.2 1-.7 1.9-1.3 3.5-2.3.2-4.7.7-7.1.7-14.7.1-29.4 0-44.1 0H768c-4.3-4.5-6.8-9.7-9.4-14.7-7.9-15.3-15.4-30.8-23.4-46-11.7-22.2-23.6-44.3-35.6-66.4-15.5-28.7-31.1-57.4-45.2-86.8-12.7-26.5-25.5-53-40.8-78.2-8.2-13.5-15.5-27.5-23.1-41.3-7.3-13.2-14.4-26.5-22.1-39.4-7.6-12.6-15.8-24.8-23.8-37.1-7.4-11.4-14.8-22.9-22.3-34.3-3.9-6-8.1-11.8-12.2-17.7-2-2.9-4.2-5.8-6.6-9.1 2.3-2.5 4.2-5 6.6-7.1 24.2-22.1 45.4-46.9 67-71.4 6.9-7.8 14.3-15.1 21.4-22.8 4.1-4.5 8-9.2 11.7-14 2.5-3.3 2-5.6-1.2-8.4-1.1-.9-2.3-1.7-3.4-2.6-16.5-12.1-32.8-24.4-49.5-36.2-13.2-9.3-26.8-17.9-40.3-26.8-5.7-3.7-11.4-7.2-16.7-12 2.5-4.4 6.3-6.6 9.5-9.2 16.3-13.6 32.3-27.4 47.1-42.6 8.2-8.5 16.2-17.3 24.8-25.4 11.9-11.4 24.2-22.4 36.4-33.6 7.1-6.6 14.3-13.1 21.4-19.7 1.5-1.4 3-3.2 3.9-5 .5-1-.2-2.5-.5-4.8-2.8 1.8-5.1 2.8-6.9 4.3-9.8 8.4-19.4 17.1-29.2 25.5-20.4 17.6-38.9 37.1-57.8 56.3-13.6 13.8-28.6 26.1-42.9 39.2-4.7 4.3-10.5 7.5-14.1 13.7 1.2 1.8 2.1 3.9 3.6 5.1 5.8 4.7 11.7 9.5 17.9 13.7 13.9 9.6 28.1 18.6 41.9 28.3 14.9 10.8 29.8 22 44.8 33 1.4 1 2.7 2.2 4.6 3.7-1.3 2-2.1 3.9-3.5 5.3-7.9 8.3-16.2 16.3-23.9 24.8-12.8 14.1-25 28.6-37.9 42.6-10 10.8-20.6 21-31 31.4-3 3.1-6.2 6-9.1 9.2-2.7 3-2.9 6.4-.7 9.9 1 1.5 2.1 2.9 3.1 4.4 6.4 9.5 13 18.9 19.3 28.5 11.9 17.9 23.8 35.8 35.6 53.9 3.9 6 7.2 12.4 10.8 18.6 4.4 7.8 8.7 15.7 13.1 23.5 6.7 11.9 13.3 23.8 20.3 35.5 16.5 27.8 31.6 56.3 45.5 85.5 13 27.2 27.1 53.8 41.3 80.4 12 22.4 24.5 44.6 36.4 67.2 11.5 21.9 22.6 44 33.8 66.1.3.5 0 1.3 0 2-.6.4-1.2 1.1-1.8 1.1-177.6.2-355.3.3-532.9.4-1.4 0-3.2-.3-5.3-.6-.3-3.3-.2-6.5-.2-9.6l1.5-79.6c.3-14.3.7-28.7 1.2-43 .9-28.1-2.2-55.9-6.7-83.5-1.5-9.2-3.7-18.2-5.6-27.4-2.8-13.7-5.6-27.4-8.6-41-4.7-21.7-9.6-43.4-14.5-65.1-5.5-24.8-11-49.7-16.7-74.5-3.5-15.4-7-30.8-11.2-46-5.1-18.7-7.8-37.9-11.3-56.9-1-5.6-.8-11.4-1.1-17.2-.1-2.5 0-5.1-.4-7.5-.2-1.2-1.4-2.4-2.5-3.1-1.2-.8-3.1 1.1-3 3.5.2 9.3-.2 18.7 1.2 27.9 3.4 22.7 8.1 45.1 14 67.3 4.4 16.6 7.7 33.5 11.5 50.3 5.7 24.8 11.3 49.7 17.1 74.5 5.9 25.1 11.5 50.3 16.3 75.7.9 4.6 1.7 9.2 2.9 13.7 6.1 23.7 9 47.9 11.2 72.2 1.8 19.7 1.2 39.4.3 59.1-.9 18.6-.9 37.3-1.2 56-.2 15.4-.2 30.9-.4 46.3 0 2.4-.1 5.4-.1 8.2-2.5.3-5.2.2-7.3.2-57.4 1.4-187.5.3-200.2-1.7-3-3.1-2.9-7.2-2.9-11.1-.1-12.2 0-24.4.4-36.6 1-29.1 5.3-57.9 10.4-86.5 3.7-20.8 8.7-41.4 13.4-62 3.7-16.4 7.8-32.8 12-49.1 2-7.6 4.2-15.2 7.1-22.5 7.8-20 11.8-40.5 11.2-62-.5-19.4-.2-38.8-.9-58.1-.8-21.9.1-43.7 2.5-65.5 2.7-24.7 7.5-48.9 14.5-72.7.8-2.7 1.3-5.7 2.6-8.2 9.1-17.9 17.2-36.3 30.4-51.7 4.4-5.2 9-10.2 13.9-15 6.4-6.3 13.5-11.6 21.3-16.3 11.3-6.9 22.1-14.7 33-22.2 15.4-10.6 31.4-20 48.3-28.1 9.4-4.5 18.3-9.9 27.5-14.8 8.3-4.3 16.6-8.4 25-12.5 6.8-3.3 13.5-6.7 20.4-9.7 16.4-7.3 32.9-14.3 49.3-21.5 26-11.4 52.6-21.1 79.8-29.1.3-.1.7-.2 1-.4 20.7-9.1 42.6-14.9 63.8-22.6 28.6-10.4 57.5-20.2 86.3-30.3 10.1-3.6 20.2-7.5 30.3-11.1 7.8-2.8 15.6-5.3 23.4-7.9 1.3-.4 2.6-1.1 3.8-1.7.1-1.3.6-2.5.2-3.4-6.1-15-9.4-30.8-14.1-46.3-6.2-20.6-12.1-41.2-19.6-61.5-4.6-12.4-7.3-25.5-10.6-38.3-3.6-13.5-7.3-27-10.3-40.7-2.7-12.6-4.6-25.4-7.1-39.7-3.9-3-6.7-8.6-7.7-15.2-.8-5.2-1.1-10 2.4-14.3 2-2.5 1.8-5.2 1.6-8.1-1-14.7-1.8-29.3-2.6-44-.4-7.2-.4-14.3-1-21.5-1.8-22.7.9-45.1 3.9-67.5 2.1-15.3 5.1-30.4 8.5-45.4 4.5-19.6 10.6-38.7 19.8-56.7 8.5-16.6 16.8-33.3 26.3-49.4 19.2-32.7 43.4-61.4 68.7-89.4 17.5-19.3 37.5-35.4 57.5-51.7 8.4-6.8 17.8-12 27.2-17.3 16.3-9.2 33.6-16.2 50.8-23.2 15.9-6.5 31.8-13.3 48.7-16.8 27.1-5.7 54.5-9.4 82.2-7.3 19 1.4 37.5 5.5 55.1 13.4 19.9 9 40.7 16.1 59.8 26.9 18.4 10.5 37.4 19.9 53 34.6 19.2 18.1 36.3 37.7 49.1 60.9 7.8 14.1 15.7 28.2 23 42.6 9.3 18 14.9 37.2 18.8 57 5.2 26.4 8.4 53.1 11.6 79.8 2.6 22.2 1.9 44.4 1.6 66.6-.1 9.3-.9 18.6-1.2 27.9-.1 2 .4 4.3 1.5 6 14.2 23.6 16.7 49.3 12.9 75.8-4.6 31.8-17.4 60.5-35.5 86.8-4.3 5.7-4.4 5.7-5 14.5zM699.9 878.9c1.4 1.8 2.7 3.4 4 5.1 5 6.6 9.7 13.4 15.1 19.6 12.2 14.1 24.6 28 37.1 41.9 2.1 2.4 4.7 4.5 7.2 6.4 11.9 8.7 24.1 16.9 35.6 26 9.2 7.3 19.5 10.3 30.9 10.5 8.3.1 16.5.3 24.8 0 10.8-.4 21.4-2.2 31.1-7.4 3.8-2 7.7-3.8 11.6-5.6 14.4-6.9 27-16.4 37.8-28 20.3-21.7 37.2-45.5 47.8-73.5 1.5-4 3.3-7.9 5.2-11.8.8-1.6 1.9-3 3.2-4.2.6-.6 2.2-.7 2.9-.3s1.5 1.9 1.2 2.6c-2.3 6-4.9 11.9-7.2 18-11.2 28.9-29 53.4-50.2 75.7-13.1 13.7-29 23.2-45.9 31.4-13.5 6.7-27.7 9.6-42.6 9.4-5.4-.1-10.8-.2-16.1-.2-1.2 0-2.4.4-3.7.7.3 1 .2 1.5.4 1.7.9.6 1.8 1.3 2.8 1.7 23.6 8.7 47.9 12.1 72.9 10.5 1.8-.1 3.6-.4 5.3-.9 25.3-8.1 50.8-15.5 73.6-29.6 11-6.8 22.4-12.9 33-20.2 17.8-12.1 33.4-27.1 49.8-41 16.8-14.3 29.6-32.2 40.7-51.1 3.8-6.5 7.4-13.1 11.2-19.6.9-1.5 2.2-2.8 4.9-1-.8 2.4-1.6 5.1-2.7 7.6-6.4 14.1-14.6 27.1-23.6 39.7-.9 1.3-2.6 2.7-.4 4.8 1.7-1.2 3.6-2.2 5.1-3.7 14-12.9 28-25.7 41.9-38.7 8.1-7.6 15.3-16.2 21.2-25.7 15.9-25.2 29.8-51.5 40.8-79.3 2.8-7 4.9-14.2 6.8-21.5 2-8.1 2.2-16.1-1.5-24.2-2.2-4.8-3-10.3-4-15.6-2.2-11.6-4.2-23.3-6.1-34.9-2.9-17.3-6.9-34.4-7.5-52.1-.1-1.7-.7-3.3-1.2-5.8-14.1 9.1-24.3 22.3-40.3 28.8-.1-2.4-.7-4.1-.2-5.4.4-1.2 1.9-2 3.1-2.9 7.9-6.2 16.1-12 23.7-18.6 5.9-5.2 11.4-11 16.3-17.1 16.9-21 27-45.6 34.8-71.1 3.7-12 6-24.4 5.5-37.1-.2-7.1-1.1-14.3-2.2-21.4-4.8-30-22.3-50.5-48.8-64-3.7-1.9-7.5-2.4-11.5-1.9-16 1.9-29.5 9.1-40.2 20.7-6.8 7.4-12.5 15.8-16 25.3-.9 2.3-2 4.6-3.3 6.7-.4.6-1.9.6-2.8.5-.4 0-1.1-1-1.1-1.6.1-1.4.3-2.8.7-4.2 3.6-12.3 10.3-23 18.9-32.2 11.6-12.4 26.4-19.5 43.3-21.8 5.1-.7 9.9.3 14.7 2.3 11.1 4.7 20.1 12.4 28.5 20.7 1.2 1.2 2.1 3 4.6 2.1.1-1.3.3-2.7.4-4.1.4-8.9 1.1-17.9 1.2-26.8.2-10.4.7-20.9-.1-31.2-1.2-15.3-3.5-30.6-5.1-45.9-2.1-20.3-5.2-40.5-9.5-60.5-2.6-12.3-5.3-24.5-10.2-36.2-13.2-31.6-29.5-61.5-50.4-88.6-12.7-16.5-27.4-31.4-44.7-43.2-6.2-4.2-13-7.6-19.5-11.4-18.8-11.2-37.7-22.1-58.5-29.3-4.1-1.4-7.9-3.3-11.9-5-19.8-8.8-40.5-14.2-62.3-15-15.4-.6-30.8-.1-46.1 2.1-17.7 2.6-35.3 5.6-52.2 12.2-14 5.5-28.1 10.7-42 16.5-17.3 7.2-33.8 15.7-49.9 25.3-2.2 1.3-4.2 2.8-6.1 4.4-12.2 10-24.5 19.9-36.6 30.1-4.4 3.7-8.5 7.7-12.5 11.9-8.1 8.6-16.1 17.3-24 26.2-14.1 15.8-27.7 32-39.5 49.6-16.5 24.4-30.9 50-43.5 76.7-8.5 17.9-14.8 36.6-18.6 56-3.7 19-7.2 38-9.7 57.2-1.8 13.8-2.4 27.8-2.8 41.8-.3 8.6 1.3 17.2 1.3 25.7 0 15.8.8 31.5 2.7 47.2.3 2.4 1.1 4.7 1.7 7.1 4 .8 7.6 1.2 10.9 2.4 18.4 6.1 36.8 12.1 55 18.6 6 2.1 11.8 5.3 17.3 8.6 9.5 5.6 13.2 14.7 14 25.3.4 5.8-2.4 9.1-8.1 8.9-3.9-.2-7.8-1.1-11.4-2.5-16.1-6.1-32-12.6-48-18.9-7.9-3.1-16-5.8-24.3-7.5-1.9 4-1 7.6-.3 11 2.5 13 5.2 26 8.2 38.9 1.9 8.4 4.4 16.6 6.6 24.9 3.4 12.8 6 25.9 10.5 38.4 7.5 21 13.7 42.3 19.8 63.6 6.2 21.7 12.1 43.5 22 64 2.8 5.8 5.4 11.7 8 17.5-.6 1.6-1 3-1.6 4.3-3.6 7.4-7.4 14.7-11 22.2-9.2 19.4-12.4 39.6-7 60.7 1.8 7.2 5 13.3 11.4 17.6 11.3 7.7 22.5 5.7 33.4-.5 4-2.3 7.4-5.7 10.9-8.7 3.2-3.2 6.4-5.9 11.2-6.8zm226.8 703.9h371.7c2.5 0 5 .1 7.5 0 2.1-.1 4.1-.5 6.7-.8.3-6.2.4-11.9 1-17.5 1-10.7 2.4-21.4 3.2-32.1 1.3-17.9 2.3-35.8 3.4-53.7 1.4-21.1 3.4-42.1 4.1-63.2.7-21.2 1.9-42.2 4.4-63.2 1-8.5 2.2-17.1 2.4-25.7.7-44.5 1.1-88.9 1.7-133.4.2-15.1.9-30.1 1-45.2 0-18.6.4-37.3-.8-55.9-1.6-26.5-2.9-53-2.7-79.5.1-17.6.6-35.2.5-52.7-.3-36.9.9-73.9-1.8-110.8-1.1-15.4-.7-30.8-1-46.3-.1-4.3.2-8.6-.3-12.9-1.8-15.6-3.6-31.3-5.9-46.9-.8-5.9-1.4-12-5.3-17.9-.7 2.9-1.3 4.9-1.8 7-3.4 13.2-6.7 26.4-10.3 39.5-3 11.1-6.5 22-9.6 33.1-6.5 23.2-14.6 45.7-24.9 67.5-8.3 17.5-18.1 34.2-28 50.9-20.3 34.3-43.1 67-67.9 98.1-8.3 10.4-16.9 20.5-25.4 30.6-3.9 4.7-8 9.2-12.2 13.6-7.9 8.4-15.7 16.7-23.8 24.9-9 9.2-18.1 18.4-27.4 27.3-9.8 9.4-20.1 18.4-29.9 27.9-12.5 12-25.9 22.5-40.6 31.7-25.6 16-53.2 28.2-80.2 41.3-2.5 1.2-5.1 2.5-8 3.9-.3 12.7-.9 25.2-.7 37.8.3 18.6 1.7 37.3 1.7 55.9 0 42 1.2 84-.7 125.9-.2 4.6.1 9.3.1 14 0 12.5.3 25.1.1 37.6-.4 22.6-1.3 45.2-1.6 67.8-.1 6.6.8 13.4 1.3 21.4zm-7.7-.4c.2-3.1.5-5.2.4-7.3-.1-8.2-.5-16.5-.4-24.7.2-15.4.8-30.8 1-46.3.2-19.7-.6-39.5.3-59.2 1.8-39.5.3-78.9.8-118.4 0-2.9-.2-5.7-.2-8.6-.6-22.6-1.5-45.2-1.7-67.8-.1-11 .9-22.1 1.3-33.1 15.1-6.3 29.5-12.4 43.6-20.7-1.7-1.5-2.7-2.4-3.8-3.3-10.9-8.1-22.1-15.9-32.8-24.4-13.5-10.7-26.5-22-40-32.7-22.1-17.5-41.1-37.9-57.5-60.7-3.8-5.2-7.9-10.3-12.1-15.1-15.5-18-28.6-37.7-40.5-58.2-4.7-8-10.2-15.6-15.4-23.3-.7-1-2.1-1.4-4.4-2.8.7 5.2 1.1 9.1 1.7 12.9 2.7 17.4 5.7 34.7 8 52.1 2.8 22 5.3 44.1 7.4 66.2 3.1 32.1 6.1 64.2 8.7 96.3 1.3 15.7 1.6 31.5 2.5 47.3.4 6.8.3 13.7 1.3 20.4 3.7 24.5 6.2 49 7.6 73.7.3 5.4.5 10.7.9 16.1 1.1 19 2.8 37.9 3.2 56.9.5 23.7 0 47.4 0 71 0 28.3 0 56.7.1 85 0 2.7.6 5.5.9 8.5 39.8.2 78.8.2 119.1.2zm321.4-960.9c-.5 6.2-.8 10.8-1.3 15.4-3.2 25.6-6.9 51.1-13.9 76.1-5.2 18.6-10 37.4-18.1 55s-17.1 34.7-26.8 51.5c-8 13.7-16.6 26.9-28.2 37.9-15.6 14.8-31.4 29.5-47.7 43.5-7.5 6.4-15 13.6-25.5 15.2-1 .1-1.9 1-2.7 1.7-4.3 3.8-8.6 7.6-13 11.3-3.1 2.6-3.8 5.7-3.2 9.6.7 3.9 1 7.8 1 11.8.1 15.8.2 31.5-.1 47.3-.1 6.4-1.3 12.8-2.5 19.2-.4 2.3-1.9 4.7-3.7 6.3-15 13.9-32.8 21.5-53.1 23.6-22.9 2.4-45.8 3.5-68.7 2.3-10.4-.6-20.7-1.7-31-2.8-2.7-.3-5.3-1.7-8.1-2.6-.9-7.3-.6-14.1-.6-20.8 0-2-.4-4-.6-6-1.7-.2-2.7-.5-3.8-.5-19.3.1-37.7-4.4-55.8-10.5-4.1-1.4-8.2-2.9-11.8-5.1-8.5-5.3-16.9-10.8-25.1-16.6-10.8-7.7-21.3-15.8-32.1-23.6-1.3-.9-2.7-2.6-5.2-.4 2 5.9 5.5 11.1 9.3 16.3 4.4 6.1 9.2 12 12.8 18.6 12.6 22.7 27.2 43.8 44.1 63.5 4.4 5.2 8.2 10.8 12.5 16.1 6.3 7.8 12.8 15.5 19.2 23.2 1.1 1.3 2.2 3 4.7 1.8-.1-2 .1-4.2-.4-6.2-1.1-4.7.8-8.1 3.6-11.7 8.6-11.2 19.4-20 29-30 20.5 4.4 41 5 61.4 5 15.4 0 30.8-1.7 46.1-3 15.2-1.3 29.5-5.9 42.6-13.8 2.1-1.3 4.3-2.5 6.3-3.7 1.3.8 2.3 1.2 3.1 1.9 11.1 10.2 20.6 22 33 30.8 3.3 2.4 4.9 6.1 4.9 10.3 0 3.2 0 6.5.1 9.7s0 6.5 3.1 9.6c2.3-2.1 4.8-4 6.9-6.3 18.2-20.3 38.1-39 55.1-60.4 10.9-13.8 22.1-27.4 32.5-41.5 18.4-24.8 35-50.7 51.1-77.1 22.5-36.7 39.5-75.5 50.6-117 2.7-10 6.1-19.9 8.9-29.9 3.4-12.4 7-24.8 9.7-37.5 2.7-13.2 1.7-25.9-4.2-38.7-12.6-27.4-32.3-47.9-57-64.3-1.3-1.6-3.6-2.6-7.4-4.5z"/><path d="M489.6 436.9c1.8.8 3.4 1 4.2 1.9 7.3 7.4 14.5 14.8 21.7 22.3.7.7 1 1.9 1.2 2.9.1.6 0 1.6-.5 1.9-.8.6-1.9 1.2-2.7 1-1.3-.3-2.7-1-3.7-2-7.1-7.1-14-14.3-21-21.5-.7-.7-1.4-2-1.3-2.8.3-1.2 1.3-2.3 2.1-3.7zm3.2 50.1c-6.4-.7-12.7-1.3-19.1-2.1-1.4-.2-2.9-.5-4-1.1-.8-.5-1.6-1.7-1.5-2.6 0-.9.9-2.1 1.7-2.4 1.6-.6 3.4-.9 5.2-.8 8.9.5 17.7 1.1 26.6 1.7 1.4.1 2.9.3 4.1 1 .8.4 1.8 1.7 1.7 2.4-.2 1.2-1 2.9-2 3.2-2 .6-4.2.6-6.3.6s-4.3-.2-6.4-.3z"/><g fill="#fff"><path d="M699.9 878.9c-4.8.9-8 3.6-11.3 6.4-3.5 3.1-6.9 6.5-10.9 8.7-10.9 6.2-22.1 8.2-33.4.5-6.3-4.3-9.5-10.5-11.4-17.6-5.4-21.1-2.1-41.3 7-60.7 3.5-7.5 7.3-14.8 11-22.2.6-1.3 1-2.6 1.6-4.3-2.7-5.8-5.2-11.7-8-17.5-9.8-20.5-15.8-42.3-22-64-6.1-21.4-12.3-42.7-19.8-63.6-4.5-12.4-7.1-25.6-10.5-38.4-2.2-8.3-4.7-16.6-6.6-24.9-2.9-12.9-5.6-25.9-8.2-38.9-.7-3.4-1.5-7 .3-11 8.4 1.7 16.4 4.4 24.3 7.5 16 6.3 31.9 12.7 48 18.9 3.6 1.4 7.6 2.3 11.4 2.5 5.7.3 8.5-3 8.1-8.9-.8-10.5-4.5-19.6-14-25.3-5.5-3.3-11.3-6.4-17.3-8.6-18.2-6.5-36.6-12.5-55-18.6-3.4-1.1-7-1.5-10.9-2.4-.6-2.3-1.4-4.7-1.7-7.1-1.9-15.7-2.7-31.4-2.7-47.2 0-8.6-1.6-17.2-1.3-25.7.4-13.9 1-28 2.8-41.8 2.6-19.2 6-38.2 9.7-57.2 3.8-19.4 10.1-38.1 18.6-56 12.6-26.6 27-52.2 43.5-76.7 11.9-17.6 25.5-33.8 39.5-49.6 7.9-8.9 15.9-17.6 24-26.2 3.9-4.2 8.1-8.2 12.5-11.9C729.3 87 741.6 77 753.8 67c1.9-1.6 4-3.1 6.1-4.4 16-9.5 32.6-18.1 49.8-25.2 13.9-5.8 28-11 42-16.5 16.9-6.6 34.5-9.6 52.2-12.2C919.2 6.4 934.6 6 950 6.6c21.8.8 42.5 6.3 62.4 14.9 3.9 1.7 7.8 3.6 11.9 5 20.8 7.2 39.7 18.1 58.5 29.3 6.5 3.8 13.3 7.2 19.5 11.4 17.3 11.9 32 26.7 44.7 43.2 20.9 27.2 37.2 57 50.4 88.6 4.9 11.6 7.5 23.9 10.2 36.2 4.3 20 7.4 40.2 9.5 60.5 1.6 15.3 3.9 30.6 5.1 45.9.8 10.3.3 20.8.1 31.2-.2 9-.8 17.9-1.2 26.8-.1 1.4-.3 2.8-.4 4.1-2.5.9-3.4-.9-4.6-2.1-8.4-8.4-17.4-16-28.5-20.7-4.8-2-9.6-3-14.7-2.3-16.9 2.3-31.7 9.4-43.3 21.8-8.6 9.2-15.3 19.9-18.9 32.2-.4 1.4-.7 2.8-.7 4.2 0 .5.7 1.5 1.1 1.6 1 .1 2.5.1 2.8-.5 1.3-2.1 2.5-4.4 3.3-6.7 3.6-9.6 9.3-18 16-25.3 10.7-11.7 24.2-18.8 40.2-20.7 4-.5 7.8 0 11.5 1.9 26.5 13.5 44 34 48.8 64 1.1 7.1 1.9 14.2 2.2 21.4.4 12.7-1.9 25.1-5.5 37.1-7.8 25.5-17.9 50-34.8 71.1-4.9 6.1-10.4 11.9-16.3 17.1-7.5 6.6-15.8 12.4-23.7 18.6-1.1.9-2.6 1.7-3.1 2.9-.5 1.3.1 3 .2 5.4 16.1-6.5 26.3-19.7 40.3-28.8.5 2.5 1.2 4.2 1.2 5.8.6 17.6 4.6 34.8 7.5 52.1 2 11.6 3.9 23.3 6.1 34.9 1 5.3 1.9 10.7 4 15.6 3.6 8 3.5 16.1 1.5 24.2-1.8 7.3-4 14.6-6.8 21.5-11 27.7-24.9 54.1-40.8 79.3-6 9.4-13.1 18-21.2 25.7-13.8 13-27.9 25.9-41.9 38.7-1.6 1.4-3.4 2.5-5.1 3.7-2.2-2.1-.5-3.4.4-4.8 8.9-12.6 17.2-25.6 23.6-39.7 1.1-2.5 1.8-5.2 2.7-7.6-2.7-1.8-4-.5-4.9 1-3.8 6.5-7.4 13.1-11.2 19.6-11.1 19-23.9 36.8-40.7 51.1-16.4 13.9-32 28.8-49.8 41-10.6 7.3-22.1 13.4-33 20.2-22.8 14.1-48.4 21.6-73.6 29.6-1.7.5-3.5.8-5.3.9-25 1.6-49.4-1.8-72.9-10.5-1-.4-1.9-1-2.8-1.7-.2-.1-.2-.6-.4-1.7 1.3-.2 2.5-.7 3.7-.7 5.4 0 10.8.2 16.1.2 14.9.2 29.1-2.8 42.6-9.4 16.9-8.3 32.8-17.7 45.9-31.4 21.2-22.3 39-46.8 50.2-75.7 2.3-6 4.9-11.9 7.2-18 .3-.7-.5-2.2-1.2-2.6s-2.3-.3-2.9.3c-1.3 1.2-2.4 2.6-3.2 4.2-1.9 3.9-3.7 7.8-5.2 11.8-10.7 27.9-27.6 51.8-47.8 73.5-10.9 11.6-23.4 21.1-37.8 28-3.9 1.9-7.8 3.6-11.6 5.6-9.7 5.2-20.3 7-31.1 7.4-8.2.3-16.5.1-24.8 0-11.4-.2-21.6-3.2-30.9-10.5-11.5-9.1-23.8-17.3-35.6-26-2.6-1.9-5.1-4-7.2-6.4-12.5-13.9-24.9-27.8-37.1-41.9-5.4-6.2-10.1-13.1-15.1-19.6-1.2-1.3-2.5-2.9-3.9-4.7zm-63.6-21.8c1 5.4 2 12.8 3.8 20.1 1.2 4.9 4.2 9 8.7 11.9 8.3 5.4 16.6 3.8 24.4-.4 4.3-2.3 8.2-5.8 11.9-9.2 3.5-3.3 7.5-5.6 12-6.8 4.2-1.1 8.4-1.8 12.6-2.6 15.9-2.9 31.8-5.6 48-5.6 1.1 0 2.1-.3 3.2-.5 12.7-2 25.4-4.1 38.2-6.1 15.1-2.3 30.1-2 44.5 3.6 13.5 5.2 27.6 7.6 41.6 10.3 10 1.9 18.3-1.8 25.5-8.5 5.3-4.9 9.1-11 11.9-17.7 3.2-7.7 3.6-15.4.7-23.1-5-13.3-12.1-25.3-24.1-33.6-6.5-4.5-13.1-8.8-19.9-12.8-25.2-14.9-52.3-20.9-81.5-17.9-9.6 1-19.3 1.2-28.9 2.1-10.7 1-21.4 1.9-32 3.6-12 1.8-23.9 4.4-35.9 6.7-6.7 1.3-13.4 2.4-20 3.8-4.7 1-8.7 3.5-11.9 7-3.8 4.3-7.9 8.5-10.6 13.5-5.8 10.7-11.1 21.7-15.9 32.9-3.6 8.6-5.7 17.8-6.3 29.3zm266.9-356.2c-2.2-3.8-5.4-5.2-9.1-5.8-11.3-1.6-22.7-2.8-34-5-8.5-1.7-16.3-.7-24.3 2-15.6 5.4-31.1 10.9-46.8 15.9-13.4 4.2-25.9 10.6-38.4 16.8-1.3.6-2.5 1.4-3.6 2.3-4.8 3.8-5.7 10.9-1.2 15.1 6 5.5 13.1 8.9 21.6 6.5 3.1-.8 6-2.3 9.1-3.4 10.1-3.7 20.1-7.6 30.3-11 21.8-7.2 43.7-14 65.1-22.4 8.3-3.3 17-5.5 25.5-8.2 2-.7 3.8-1.8 5.8-2.8zm-23.3 73.2c-2.2-4.9-7-6.9-11.3-9.4-10.8-6.1-22.6-9.4-34.7-10.5-6.9-.6-14.6.5-20.9 3.2-13.8 6.2-22.2 17.7-26.1 32.3-.2.7-.3 1.6.1 2.1.7 1.1 1.6 2.3 2.8 2.8.6.3 2.3-.5 2.6-1.2 1.4-2.9 2.4-5.9 3.8-8.9 7.9-17.4 22-26.2 41.4-23.3 2.5.4 4.9.9 7.4 1.4 9.9 2.1 19.2 5.8 28 10.7 2 1.3 4.1 3.1 6.9.8zm-37 303.7c-.1-.8-.3-1.6-.4-2.4-1.2-.3-2.5-1-3.6-.8-1.7.3-3.3 1.2-4.9 2-10.4 5.6-20.8 11.1-31.1 16.8-9.7 5.3-19.8 8-30.9 5.4-4.2-1-8.4-1.7-12.6-2.3-5.6-.9-11.3-1.7-16.9-2.5-1.4-.2-2.9 0-2.7 2.3.8.5 1.5 1.3 2.5 1.7 9.9 4.4 20.3 6.9 31 8.2 11.6 1.4 22.7-.5 32.9-6.8 9.1-5.6 18.7-10.5 28-15.9 2.9-1.8 5.8-3.8 8.7-5.7zm-12.1-276.5c.3-5.7-7.4-16.9-13.4-19.5-1-.4-2-.7-3.1-.9-8.2-1.3-15.4 2.6-11.1 12.9 1.5 3.6 3.3 7.1 5.6 10.2 1.9 2.5 4.4 4.8 7.1 6.2 6.1 3.3 14.5-1.9 14.9-8.9zM677 595.1c3.1-2.4 1.5-4.3.3-6-8.4-12.3-21.2-18.9-33.9-25.6-4.1-2.1-8.7-3.3-13.1-4.7-5.6-1.7-11.3-1.6-16.9.1-5.9 1.8-9.9 5.6-12.2 11.3-.8 2-1.1 4.2.6 6 1 1.1 3.5-.1 5-2.5.6-.9 1-1.9 1.6-2.8 2.6-4.4 6.7-6.4 11.7-6.4 3.2 0 6.5.2 9.5 1.1 16.4 5 30.8 13.2 42.9 25.5 1.4 1.6 3.1 2.8 4.5 4zm-34.7 3.1c1.4-7.8-11.9-21.6-19.2-21.7H622c-2.6 0-4.9 1.9-5.3 4.3-1.7 9.2 7.4 23 16.3 24.9 5.2 1.2 9.2-2.2 9.3-7.5zm169.3 24.4c2.1 1.2 3.2 2.2 4.4 2.4 14 2.7 27.6 1.8 40.8-4 1.6-.7 3.1-1.9 4.2-3.2.6-.7.1-2.3.1-4.3-4.5 1.6-8.1 3.2-11.8 4.1-4.1 1.1-8.3 1.8-12.6 2.3-3.9.5-7.8.5-11.7.8-4.1.5-8.4-.7-13.4 1.9zm182.2-149.2c5.6-.5 12.7-1.2 19.8-2 1.3-.2 2.7-.9 3.8-1.6.5-.3 1-1.3.8-1.8-.2-.9-.8-2-1.6-2.5-.8-.6-2-.8-3-.8-8.9.4-17.8.9-26.7 1.4-1.1.1-2.1.2-3.2.5-2.7.5-4.7 2.4-4.2 3.9.9 2.4 3 2.9 5.2 2.9zm3.3-49.6c-1.7.8-3.5 1.2-4.7 2.4-6.8 6.8-13.5 13.7-20.2 20.6-.7.8-1.5 1.7-1.8 2.6s-.3 2.6.2 2.8c1.1.6 2.5.8 3.7.7 1-.1 1.9-1 2.7-1.7 6.8-6.8 13.5-13.7 20.2-20.7.9-.9 1.5-2.4 1.7-3.7 0-.7-1-1.6-1.8-3zM662.6 618c-8.6-.3-15.6-.2-22.6-.7s-13.7-3.5-20.8-3c-.3 3.6 2.2 4.6 4.4 5.4 9.8 3.4 20 5 30.4 3.8 2.1-.2 4.2-.9 6.1-1.7.7-.3 1-1.6 2.5-3.8zm264.1 964.8c-.5-8-1.5-14.8-1.4-21.5.4-22.6 1.2-45.2 1.6-67.8.2-12.5 0-25.1-.1-37.6 0-4.7-.3-9.3-.1-14 1.9-42 .7-83.9.7-125.9 0-18.6-1.4-37.3-1.7-55.9-.2-12.5.4-25 .7-37.8 2.9-1.4 5.5-2.6 8-3.9 27.1-13.2 54.6-25.4 80.2-41.3 14.7-9.2 28.2-19.7 40.6-31.7 9.8-9.4 20.1-18.4 29.9-27.9 9.3-8.9 18.4-18.1 27.4-27.3 8-8.2 15.9-16.5 23.8-24.9 4.2-4.4 8.3-9 12.2-13.6 8.6-10.1 17.1-20.3 25.4-30.6 24.9-31.1 47.6-63.8 67.9-98.1 9.9-16.7 19.7-33.3 28-50.9 10.3-21.8 18.4-44.4 24.9-67.5 3.1-11 6.5-22 9.6-33.1 3.6-13.1 6.9-26.4 10.3-39.5.5-2.1 1.1-4.1 1.8-7 3.9 5.9 4.4 12.1 5.3 17.9 2.2 15.6 4.1 31.2 5.9 46.9.5 4.3.2 8.6.3 12.9.3 15.4-.1 30.9 1 46.3 2.7 36.9 1.5 73.9 1.8 110.8.1 17.6-.4 35.2-.5 52.7-.2 26.5 1.1 53 2.7 79.5 1.1 18.6.8 37.3.8 55.9 0 15.1-.8 30.1-1 45.2-.6 44.5-1 89-1.7 133.4-.1 8.6-1.3 17.1-2.4 25.7-2.5 21-3.7 42.1-4.4 63.2s-2.7 42.2-4.1 63.2c-1.2 17.9-2.1 35.8-3.4 53.7-.8 10.7-2.2 21.4-3.2 32.1-.5 5.6-.6 11.3-1 17.5-2.6.3-4.6.7-6.7.8-2.5.1-5 0-7.5 0H940.9c-4.1.1-8.4.1-14.2.1zm36.2-323.2c.3 1.2.7 4.8 2 8 4.4 10.5 15.6 12.4 23.3 4 6.9-7.5 8.3-21.2 3.1-30.1-5.1-8.6-14.5-10-21.5-2.9-4.9 5.3-7.1 11.6-6.9 21zm28.3 129c-.2-1-.5-3.9-1.5-6.5-3.3-8.1-12.7-13.8-22.8-6.6-7.8 5.5-11 15.9-7.6 24.7 3.9 10 15.1 13.4 23.7 6.9 5.5-4 8.1-9.7 8.2-18.5zm-37.6 143.8c-.3 10.1 6.9 18.1 16.1 17.3 12.7-1.2 20-12.8 17.7-23.5-1.9-8.8-9.7-13.8-18.6-12-8.6 1.7-15 9.3-15.2 18.2z"/><path d="M919 1582.4H800c-.3-3.1-.9-5.8-.9-8.5-.1-28.3-.1-56.7-.1-85 0-23.7.5-47.4 0-71-.4-19-2.1-37.9-3.2-56.9-.3-5.4-.5-10.7-.9-16.1-1.5-24.7-3.9-49.3-7.6-73.7-1-6.7-1-13.6-1.3-20.4-.8-15.8-1.2-31.5-2.5-47.3-2.6-32.1-5.6-64.2-8.7-96.3-2.2-22.1-4.6-44.2-7.4-66.2-2.2-17.4-5.3-34.7-8-52.1-.6-3.8-1-7.7-1.7-12.9 2.3 1.4 3.7 1.9 4.4 2.8 5.3 7.7 10.8 15.2 15.4 23.3 11.9 20.5 25 40.2 40.5 58.2 4.2 4.9 8.3 9.9 12.1 15.1 16.5 22.8 35.4 43.2 57.5 60.7 13.5 10.7 26.5 22 40 32.7 10.7 8.4 21.9 16.3 32.8 24.4 1.1.8 2.1 1.8 3.8 3.3-14.1 8.2-28.5 14.4-43.6 20.7-.5 11-1.5 22-1.3 33.1.3 22.6 1.1 45.2 1.7 67.8.1 2.9.3 5.7.2 8.6-.5 39.4 1 78.9-.8 118.4-.9 19.7-.1 39.4-.3 59.2-.2 15.4-.8 30.8-1 46.3-.1 8.2.3 16.5.4 24.7-.1 1.8-.3 3.9-.5 7.1z"/><path d="M1240.4 621.5c3.8 2 6 2.9 8.1 4.2 24.7 16.4 44.4 37 57 64.3 5.9 12.8 6.9 25.5 4.2 38.7-2.6 12.6-6.2 25-9.7 37.5-2.8 10-6.2 19.9-8.9 29.9-11.1 41.5-28.2 80.4-50.6 117-16.1 26.3-32.7 52.3-51.1 77.1-10.5 14.1-21.6 27.7-32.5 41.5-16.9 21.4-36.9 40.1-55.1 60.4-2.1 2.3-4.6 4.2-6.9 6.3-3.1-3.1-3-6.4-3.1-9.6s-.1-6.5-.1-9.7c0-4.2-1.6-8-4.9-10.3-12.4-8.8-21.9-20.7-33-30.8-.8-.7-1.8-1.1-3.1-1.9-2.1 1.2-4.2 2.4-6.3 3.7-13.1 7.9-27.4 12.5-42.6 13.8-15.4 1.3-30.8 3-46.1 3-20.4 0-40.8-.6-61.4-5-9.7 10.1-20.5 18.9-29 30-2.8 3.7-4.7 7-3.6 11.7.5 2 .3 4.2.4 6.2-2.6 1.2-3.7-.5-4.7-1.8-6.5-7.7-12.9-15.4-19.2-23.2-4.3-5.3-8.1-11-12.5-16.1-16.9-19.7-31.5-40.8-44.1-63.5-3.6-6.5-8.4-12.5-12.8-18.6-3.8-5.2-7.3-10.4-9.3-16.3 2.5-2.3 4-.6 5.2.4 10.7 7.8 21.3 15.9 32.1 23.6 8.2 5.8 16.6 11.3 25.1 16.6 3.6 2.2 7.8 3.7 11.8 5.1 18.1 6.1 36.5 10.6 55.8 10.5 1.1 0 2.1.3 3.8.5.2 1.9.6 4 .6 6 0 6.8-.3 13.6.6 20.8 2.8.9 5.4 2.3 8.1 2.6 10.3 1.1 20.7 2.2 31 2.8 23 1.2 45.9.1 68.7-2.3 20.3-2.1 38.1-9.7 53.1-23.6 1.7-1.6 3.2-4 3.7-6.3 1.2-6.3 2.3-12.7 2.5-19.2.4-15.8.2-31.5.1-47.3 0-3.9-.4-7.9-1-11.8-.7-3.9.1-7 3.2-9.6 4.4-3.7 8.6-7.6 13-11.3.8-.7 1.7-1.6 2.7-1.7 10.6-1.6 18.1-8.7 25.5-15.2 16.3-14 32.1-28.7 47.7-43.5 11.5-10.9 20.2-24.2 28.2-37.9 9.7-16.7 18.7-33.9 26.8-51.5 8.1-17.7 12.9-36.4 18.1-55 7-24.9 10.7-50.4 13.9-76.1-.1-4.3.1-8.9.6-15.1z"/></g><path d="M636.3 857.1c.6-11.5 2.7-20.7 6.4-29.3 4.8-11.2 10.1-22.2 15.9-32.9 2.7-5 6.8-9.2 10.6-13.5 3.1-3.5 7.2-6 11.9-7 6.6-1.4 13.3-2.6 20-3.8 12-2.3 23.9-4.8 35.9-6.7 10.6-1.6 21.3-2.6 32-3.6 9.6-.9 19.3-1.1 28.9-2.1 29.2-3 56.3 3.1 81.5 17.9 6.8 4 13.4 8.4 19.9 12.8 12 8.3 19.1 20.3 24.1 33.6 2.9 7.7 2.4 15.4-.7 23.1-2.8 6.8-6.6 12.8-11.9 17.7-7.1 6.7-15.5 10.4-25.5 8.5-14.1-2.7-28.2-5.1-41.6-10.3-14.4-5.6-29.4-5.9-44.5-3.6-12.7 2-25.5 4.1-38.2 6.1-1.1.2-2.1.5-3.2.5-16.2 0-32.1 2.7-48 5.6-4.2.8-8.5 1.5-12.6 2.6-4.6 1.2-8.5 3.4-12 6.8-3.6 3.4-7.5 6.8-11.9 9.2-7.9 4.2-16.1 5.8-24.4.4-4.5-2.9-7.5-7-8.7-11.9-1.9-7.3-2.9-14.7-3.9-20.1zm266.9-356.2c-2 .9-3.8 2.1-5.7 2.7-8.5 2.8-17.2 5-25.5 8.2-21.4 8.5-43.3 15.2-65.1 22.4-10.2 3.4-20.2 7.3-30.3 11-3 1.1-6 2.5-9.1 3.4-8.5 2.3-15.6-1-21.6-6.5-4.5-4.1-3.6-11.3 1.2-15.1 1.1-.9 2.4-1.6 3.6-2.3 12.5-6.2 25-12.6 38.4-16.8 15.7-5 31.3-10.5 46.8-15.9 8-2.8 15.8-3.7 24.3-2 11.2 2.2 22.6 3.4 34 5 3.6.7 6.7 2.1 9 5.9zm-23.3 73.2c-2.8 2.4-4.9.5-7-.7-8.8-4.9-18.1-8.6-28-10.7-2.5-.5-4.9-1.1-7.4-1.4-19.4-2.9-33.5 5.9-41.4 23.3-1.3 2.9-2.3 6-3.8 8.9-.4.7-2.1 1.5-2.6 1.2-1.1-.5-2-1.7-2.8-2.8-.3-.5-.2-1.4-.1-2.1 3.9-14.7 12.3-26.2 26.1-32.3 6.3-2.8 14-3.9 20.9-3.2 12.1 1.1 24 4.4 34.7 10.5 4.4 2.3 9.2 4.3 11.4 9.3z"/><path d="M842.9 877.8c-2.9 1.9-5.8 3.9-8.9 5.7-9.3 5.3-18.9 10.2-28 15.9-10.3 6.3-21.3 8.2-32.9 6.8-10.7-1.3-21.1-3.8-31-8.2-.9-.4-1.7-1.2-2.5-1.7-.2-2.3 1.3-2.4 2.7-2.3 5.7.7 11.3 1.6 16.9 2.5 4.2.7 8.5 1.4 12.6 2.3 11.1 2.6 21.2 0 30.9-5.4 10.3-5.7 20.7-11.2 31.1-16.8 1.6-.8 3.2-1.7 4.9-2 1.1-.2 2.4.5 3.6.8.4.8.5 1.6.6 2.4zm-12.1-276.5c-.4 7-8.7 12.2-14.9 9-2.7-1.4-5.3-3.7-7.1-6.2-2.3-3.1-4.1-6.6-5.6-10.2-4.3-10.3 2.9-14.2 11.1-12.9 1 .2 2.1.5 3.1.9 6 2.5 13.7 13.7 13.4 19.4zM677 595.1c-1.4-1.2-3.1-2.4-4.5-3.8-12-12.3-26.5-20.6-42.9-25.5-3-.9-6.3-1.1-9.5-1.1-5 0-9 2-11.7 6.4-.6.9-1 1.9-1.6 2.8-1.6 2.4-4 3.6-5 2.5-1.7-1.8-1.4-4-.6-6 2.3-5.6 6.3-9.5 12.2-11.3 5.6-1.7 11.3-1.8 16.9-.1 4.4 1.4 9.1 2.5 13.1 4.7 12.7 6.7 25.5 13.3 33.9 25.6 1.2 1.5 2.9 3.3-.3 5.8z"/><path d="M642.3 598.2c-.1 5.3-4.2 8.6-9.2 7.6-9-1.9-18-15.7-16.3-24.9.4-2.5 2.8-4.4 5.3-4.3h1.1c7.3.1 20.5 13.9 19.1 21.6zm169.3 24.4c5-2.6 9.3-1.4 13.3-1.8 3.9-.3 7.8-.3 11.7-.8 4.2-.5 8.5-1.2 12.6-2.3 3.7-1 7.3-2.5 11.8-4.1 0 2 .5 3.5-.1 4.3-1 1.3-2.6 2.5-4.2 3.2-13.1 5.8-26.8 6.7-40.8 4-1.1-.3-2.1-1.2-4.3-2.5zm182.2-149.2h-9c-2.2 0-4.3-.5-5.2-2.9-.5-1.5 1.5-3.3 4.2-3.9 1-.2 2.1-.4 3.2-.5 8.9-.5 17.8-1 26.7-1.4 1 0 2.2.2 3 .8.8.5 1.3 1.6 1.6 2.5.1.5-.3 1.5-.8 1.8-1.2.7-2.5 1.4-3.8 1.6-7.2.8-14.3 1.4-19.9 2zm3.3-49.6c.8 1.4 1.8 2.3 1.7 3-.2 1.3-.8 2.8-1.7 3.7-6.6 7-13.4 13.8-20.2 20.7-.7.7-1.7 1.6-2.7 1.7-1.2.2-2.7-.1-3.7-.7-.5-.3-.4-1.9-.2-2.8.3-1 1-1.9 1.8-2.6 6.7-6.9 13.4-13.9 20.2-20.6 1.3-1.2 3.1-1.6 4.8-2.4zM662.6 618c-1.5 2.2-1.8 3.5-2.6 3.8-1.9.8-4 1.5-6.1 1.7-10.4 1.2-20.5-.4-30.4-3.8-2.2-.8-4.8-1.8-4.4-5.4 7.2-.5 13.9 2.5 20.8 3 7.1.5 14.1.5 22.7.7zm300.3 641.6c-.2-9.4 2-15.8 7-20.8 7-7.1 16.4-5.8 21.5 2.9 5.2 8.9 3.8 22.5-3.1 30.1-7.7 8.4-18.9 6.5-23.3-4-1.4-3.4-1.8-7-2.1-8.2zm28.3 129c-.1 8.7-2.7 14.4-8.2 18.6-8.6 6.5-19.8 3.1-23.7-6.9-3.4-8.9-.2-19.2 7.6-24.7 10.1-7.2 19.5-1.5 22.8 6.6 1 2.5 1.3 5.4 1.5 6.4zm-37.6 143.8c.3-9 6.6-16.5 15.3-18.2 8.8-1.8 16.7 3.2 18.6 12 2.3 10.7-5 22.3-17.7 23.5-9.3.8-16.5-7.2-16.2-17.3z"/></svg></g></svg>
