<svg enable-background="new 0 0 2219.3 1988.6" height="1989" viewBox="0 0 2219.3 1988.6" width="2220" xmlns="http://www.w3.org/2000/svg"><path d="m1500.6 1043.8 1.8 10.9 132.9 139.9.2 15.3 25.9 105.5 349.5 157.2 10.5 33.5 4.8 71.7-160.7 318.4-63.3 27s-12.8 17.1-17.8 19.6c-5 2.6-284.3-53.6-306.9-56.1-22.6-2.4-61 15.4-61 15.4l-72.7 51.2s-43.8 31.5-76.1 28.7-64.5.2-64.5.2-33.5 1.2-34.3-14 5.1-20.5 5.1-20.5l-14.7-5.6-8-8.8 2.1-30.6 15.4-11.8-6.4-11.1-3.6-18 4.9-19.6-244.9-70.8-287 80.4-12.8.4-30.7-.1-34.8.6-21.5 1.1 19.1-320.1 30.9-208.9-55.3-208.7 16.1-16 240.5 56.4 98.7 23.5 21.5 26.1 14.7 31.3-5.7 42.1-18.7 38.7-15.8 31.6-13.3 35.2s-6.8 15.8-1.8 24.4 16.1 19 34.1 18.7 73.9-15.4 73.9-15.4l42-13.6 20.6 42-73 170.9 316.1 62.2-13.6-437.3 41.2-91.3 114.5-95.8 45-14.8z" fill="#fff"/><path d="m1549.1 1544.9c-4.7-.6-6.5-3.6-8.7-5.7-5.7-5.3-12-9.3-18.9-12.7-10.3-5.1-20.1-3.6-29.4 2-11.8 7.1-21.7 16.2-27.9 28.7-.4.8-.8 1.6-1.2 2.4-1.4 3.1-3.9 4.2-7.2 3.7-5.8-.9-11.6-1.7-17.5-2.5-2.3-.3-4.7-.7-7-.7-13.8-.1-27.6-.3-41.5 0-4.9.1-9.9 1.4-14.7 2.4-3.6.7-5.7 3.3-6 6.8-.6 8.7.3 17 7 23.6 5.4 5.3 11.7 8.9 18.9 10.9 15.7 4.4 30.3 11.2 43.9 20.1 9.1 6 15.2 14.6 19.6 24.4 1.2 2.7 2.2 5.4 3.2 8.2 2.4 7.1 5.6 13.6 11.3 18.6 1.8 1.6 3.2 3.4 3.4 6 .1 1.7-1.3 3.6-3 3.8-3.1.3-5.8-.8-8.2-2.6-5.1-3.8-8.7-8.7-11-14.6-1.9-4.6-3.5-9.4-5.4-14-4.4-10.4-11.2-18.6-21.3-23.8-.8-.4-1.6-.6-2.5-.9-.3-.1-.6 0-1.4 0-12.5 11.1-24.7 22.8-32.1 38.7-9.3 20-17.8 40.4-23.7 61.7-4.6 16.5-12.3 31.8-19.9 47-1.8 3.6-5 6.5-7.5 9.7-.9 1.1-1.7 2.2-2.4 3.1.9 2.3 2.5 2 3.9 2.1 8 .3 15.8-1.3 23.6-2.5 4.9-.8 9.9-1.1 14.9-1.2 3.8 0 6.7 2.4 6.4 4.7-.4 3.2-3 4.3-5.7 4.8-18.2 3.4-36.3 7.5-55.1 3.9-13-2.5-26-4.6-39.1-6.4-6.4-.9-12.9-1.2-19.3-1.2-6.5-.1-11.6 3.8-16.5 7.5-1.2 1-2 2.9-2.4 4.5-.5 2-.3 4.1-.5 6.1-.4 4.9 1.7 8.5 5.8 11.1 11.2 7.2 23.2 12.9 36.6 14.4 9.1 1 17.9 3.2 26.7 5.5 14 3.6 28 6.6 42.5 7.7 4.8.4 9.2 1.6 12.8 6-1.5 1.3-2.6 3-4 3.3-3.1.7-6.4 1.1-9.5 1-13.3-.5-26.3-3-39.1-6.4-6.2-1.7-12.5-3.4-18.8-4.9-6.6-1.6-13.3-2.6-20.1-2.6-13.8 0-27.7.1-41.5-.4-9.4-.4-18.7-1.8-28.1-2.6-8.2-.7-16.4-1.5-24.6-1.6-7.8-.1-13.3 4.1-16.9 10.9-.3.5-.6 1-.8 1.5-1.6 3.8-3.4 7.5-4.7 11.4-2.1 6.2-.2 10.9 5.7 14 2.6 1.4 5.4 2.3 8.2 3.2 8.1 2.5 16.3 5.2 24.5 7.3 5.1 1.3 10.4 2 15.6 2.6 10.2 1.3 20.5 2.2 30.7 3.5 14.7 1.9 29.4 1.4 44.1 1.4 6.5 0 12.9.1 19.4.2 3.9.1 7.6.8 10.9 3.1.8.6 1.5 1.8 1.6 2.9.2 1.8-1.4 2.5-2.8 2.8-1.7.3-3.5.4-5.3.4-18.5 0-37.1.2-55.6 0-6.7-.1-13.5-1.1-20.2-1.8-10.8-1.1-21.6-2.4-32.4-3.6-1.2-.1-2.4-.2-3.5-.6-10.2-3.8-20.8-3.3-31.4-3.6-9.5-.3-13.5 2.3-16.6 11.2-1.6 4.7-3 9.7-3.3 14.6-.6 7.3 2.2 14.2 10.9 17.2 6.3 2.2 13 4 19.6 5.1 9.3 1.5 18.7 2.1 28 3 1.5.1 2.9.1 4.4 0 13.8-.4 27.6-.9 41.4-1.1 3.5-.1 7 .7 10.4 1.3 1.8.3 3.2 1.8 3.1 3.8-.1 1.9-1.5 3.3-3.3 3.7-2.6.6-5.2.9-7.8.9-10.9 0-21.8-.1-32.6-.2-4.1 0-8.2.1-12.4 0-6.2-.3-12.3-.9-18.4-1.2-5.3-.3-10.6-.9-15.8-.6-10.4.5-10.2 7.2-7.7 13.4 1.6 4 5 6.6 9.2 7.7 3.9 1.1 8 2.1 12.1 2.2 16.5.4 32.9 1 49.4.4 21.8-.7 43.3-4.1 64-11.5 13.7-4.9 25.9-12.6 37.6-21 16.2-11.7 32.3-23.6 48.4-35.4 4.8-3.5 9.6-6.9 14.5-10.1 14-9.1 29.1-15.1 45.9-16.8s33.4-2.5 50 .5c3.2.6 5.8-.5 8-2.7 5.7-5.5 11.6-10.8 16.8-16.8 14.7-17.2 29.2-34.7 41.7-53.6 7-10.5 13.9-21.2 19.8-32.3 6.7-12.7 12.2-26.1 18.3-39.2 12-25.8 11.4-51.7 1.8-78.1-8.8-24.2-25.2-41.4-47.1-53.9-4.9-2.8-10.2-4.5-15.9-4.6-1 0-2.6.7-2.9 1.5-.4 1.2-.3 2.9.4 4 .7 1.2 2.1 2.1 3.3 2.8 2 1.2 4.3 2 6.3 3.1 16 8.8 30 19.8 39.2 35.8 8.8 15.3 13.3 32 13.8 49.6.2 5.3-.6 10.6-2.2 15.5-1.7 1.9-3.8 1.8-5.8 1.2-2.5-.7-5.1-1.5-7.5-2.5-25-10.1-46.5-25.2-62.9-46.8-3.9-5.1-7-10.9-9.9-16.7-3-6-5.3-12.4-8.1-18.6-7.3-16.1-14.7-32.1-22-48.1-2.7-6.1-6.7-10.9-12.4-14.5-1.9-1.2-3.6-2.8-5.6-4.4 2.5-7.2 6.5-12.9 11.7-17.7 4.1-3.8 8.7-7 13.3-10.2 6.3-4.4 13-5 20-1.3 5.2 2.7 10.2 5.8 14.6 9.8 6.5 5.9 13.2 11.7 20 17.3 15.1 12.4 32.9 17.7 52 19.5 24.2 2.2 48.2.5 72-3.8 12-2.2 23.8-3 35.9-.6 8.3 1.7 16.9 2.4 25.3 3.4 2.3.3 4.7.2 7 .3 5.8.1 11-1.5 15.8-4.7 4.4-2.9 8.8-5.9 13.3-8.6 6-3.7 12.1-7.2 18.2-10.7 11.3-6.6 23.7-8.4 36.5-8.7 14.2-.3 28.2 1.5 42.1 3.9 14.6 2.5 28.1-.1 40.4-8.4 3.1-2.1 6.1-4.7 8.4-7.7 10.5-13.5 24.3-19 41-17.9 11.1.8 22.2 1.9 33.4 3 6.5.7 12.9 1.2 18.9-2.2 1.6-.9 3-2 2.9-4.1-.1-1.8-2-3.7-4.1-4.1-.9-.2-1.8-.3-2.6-.3-12.7.8-25.1-2.4-37.8-2.9-7.6-.3-15.2-1-22.9 0-14.8 1.8-26.9 8.3-36.1 19.8-9.6 12-22.1 15.9-36.8 14.4-6.1-.6-12.2-1.6-18.3-2.5-16.1-2.5-32.2-2.4-48.3.3-5.5.9-10.8 2.7-15.9 5.1-13.1 6.1-25.4 13.5-37 22.2-3.8 2.8-7.7 4.1-12.3 3.5-10.8-1.4-21.6-2.4-32.3-4.3-10-1.7-19.9-1.8-29.8 0-16.5 3.1-33.1 5.6-49.9 5.7-14.9.2-30.1-.1-44.5-4.7-6.4-2.1-12.6-4.9-18.6-7.9-3.1-1.5-5.6-4.1-8.2-6-.7-7.5 1.4-14 2.5-20.7 1.2-7 2.9-13.8 4.4-20.7 2.1-9.8 3.4-19.7 4-29.7.7-12.3 1.9-24.6 2.8-37 .5-7 .9-14.1 1.1-21.1.5-14.1 1.3-28.2 3.2-42.2 1.6-12.5 2.4-25.2 4.2-37.7 3.1-21.2 6-42.5 12.5-63.1.5-1.7 1.2-3.4 1.4-5.1 2.1-13.1 8.3-24.4 15.2-35.4 6.1-9.7 12.2-19.5 20.2-27.8 1.4-1.5 2.9-2.8 4.7-4.6 1.6 1 3.1 1.8 4.4 2.8 5.1 3.9 10.2 8 15.3 11.9 8 6.1 14.7 13.5 20.4 21.8 3.2 4.6 6.2 9.3 9.6 13.8 2.5 3.3 5 6.6 8 9.4 2.1 2 4.7 3.8 7.4 4.5 8.5 2.3 17.1 4.3 25.8 5.8 10.1 1.7 20.4 2.8 30.6 4 6.8.8 12.2 4.1 16.8 8.9 5.3 5.5 10.6 11 15.6 16.8 6.2 7.3 13.5 13.1 22.2 17 16.4 7.3 31.8 16.6 47.3 25.6 16.1 9.3 32.7 17.3 50.1 23.9 13.5 5.1 26.4 11.5 39 18.6 23 13.1 46.3 25.6 69.6 38.3 24.3 13.3 48.8 26 72.8 39.7 31.9 18.2 60.1 41.3 85.2 68 11 11.8 19 25.3 23.9 40.7 5.1 16 10.8 31.8 13.2 48.5 1.5 10.5 2.7 21 3.4 31.5 1.2 18.2 1.5 36.5 3.1 54.6 1.4 16.4-2.9 30.8-12.3 44-13.3 18.5-28 35.6-46.6 49-7.7 5.6-14.1 12.4-20.8 19.1-4.8 4.8-9.6 9.5-14.7 14-12 10.4-26.4 16.4-41 22.1-8.2 3.2-16.5 6.3-24.7 9.4-4.5 1.7-8.4 4.3-12 7.3-8.3 7-17.3 13.2-27.2 17.8-4.5 2.1-8.8 4.7-13.2 7.2-11.1 6.3-22.8 10.9-35.4 13-5.5.9-10.9 2.6-16.2 4.1-14.5 4.1-29.3 6.2-44.4 6.3-9.4 0-18.8.4-28.2.3s-18.8-.7-28.2-1.2c-12.9-.8-25.8-1.7-38.7-2.6-4.4-.3-8.8-.1-13.2-2.5-1-6.1-.7-12.2 1.2-18 3.1-9.3 7.2-18.1 14.2-25.1 13.9-13.9 21.6-31.4 28.1-49.5 3.5-9.7 6.3-19.6 9-29.5 3.1-11.4 3.9-23.2 4.1-35 .1-6.4-.7-12.9-1-19.3-.2-3.2-.6-6.4-.7-9.7-.4-20.1-5.7-38.9-14.4-56.8-4.4-9-8.8-18-13.1-27-5.3-11-12.4-20.7-20.2-29.9-2.4-2.9-5.6-5.2-8.7-7.4-.9-.6-2.9-.4-4.1.2-1.8.9-2.1 2.9-1.4 4.6.8 1.8 2 3.6 3.3 5.2 12.9 15.1 22.7 32.2 30.9 50.1 3.9 8.5 8.3 16.9 11.1 25.9 3.3 10.8 5.5 21.6 5.7 32.9 0 2.1 0 4.2.4 6.2 2.5 12.6 1.8 25.2 1.1 37.8-.3 5.8-.9 11.8-2.5 17.4-4.4 15.6-8.4 31.2-15.1 46.1-4.9 10.8-10.9 20.7-19 29.5-13.1 14.1-20.5 30.7-20.5 50.2 0 3.8-.5 7.6-.6 11.5-.1 4.3-2 7.4-5.7 9.3-3.4 1.8-6.7 3.7-10.4 4.7-14.9 4-30 5.7-45.4 4.4-17.3-1.5-34.6-2.5-51.9-3.6-13.2-.8-26.4-1.3-39.6-2-11.4-.6-22.9-1.8-34.3-1.9-15.4-.1-30.4-2.3-45-7.3-4.8-1.7-9.9-1.8-14.8-.4-16.3 4.7-30.7-.5-44.5-8.7-1-.6-1.9-1.4-2.9-2-16.2-10.6-16.2-10.6-25.4-27.1-1.1-2-2.4-4-3.6-5.9-8.1-1-15.6.8-23 2.5-11.6 2.7-22.2 7.9-31.8 14.8-19.9 14.2-39.5 28.6-59.4 42.8-15.1 10.8-31.1 20-49.3 25.1-14.5 4-29 7.1-44 8.7-23.2 2.5-46.4 1.8-69.6-.1-6-.5-11.5-2.1-16.4-5.7-7.9-5.8-10.5-15-6.7-24.2.5-1.3 1.1-2.7 1.6-3.8-1.6-2.9-4.5-3.1-6.8-4.2-12.3-5.6-17.8-15.1-15.5-28.4 1.4-8.4 3-16.9 9.3-23.4 2.6-2.7 5.6-5 8.9-7.9-1.1-1-2.2-2.2-3.4-3.3-6.9-6.8-9.7-14.5-5.3-24 1.4-3.1 3.3-6.2 3.3-10-2.7-2.2-5.7-1.4-8.5-1.4-22.9.1-45.9.3-68.8.4-106.5.5-212.9 1-319.4 1.6-39.7.2-79.4.4-119.1.6-3.4 0-7 .6-10.9-1.1.5-1.6.7-3.1 1.4-4.2 8.2-12.2 16.6-24.2 26.6-35.1 10.6-11.5 21-23 33.3-32.8 5.3-4.2 10.7-8.3 16.4-11.8 18.6-11.4 37.4-22.3 55.9-33.6 11.6-7.1 24.1-12.3 36.4-17.9 1.3-.6 2.7-1.1 4.2-1.4 15.7-4.1 31.4-7.6 47.5-9.7 13.1-1.8 26.3-3 39.6-2 14.9 1.2 29.9 2.1 44.6 4.9 13 2.4 26.2 4 39.2 6 6.4 1 12.7 2.3 19.1 3.5 13.8 2.7 27.7 5.4 41.5 8.4 21.6 4.7 42.6 11.1 63.4 18.5 20.5 7.3 41.3 13.5 62 20.4 6.7 2.2 13 5.4 19.5 8.2 1.9.8 3.7 2 5.6 2.6 14.8 4.5 27.9 12.4 41.5 19.3 2.1 1.1 4.2 2 6.5 2.6 2 .6 4.2-.9 5.1-2.7 1-2.2.3-5.1-1.7-6.2-4.9-2.6-9.9-5.1-14.9-7.7-6-3.1-12.1-6.1-18.1-9.1-1.8-.9-3.7-2-5.6-2.5-8.6-2.4-16.2-6.9-24.4-10.1s-16.7-5.6-25-8.5c-20.8-7.2-41.5-14.8-62.4-21.8-18.7-6.2-37.7-11.5-57.1-15-11-2-21.9-4.5-32.8-6.6-10.1-1.9-20.2-3.7-30.4-5.4-15.1-2.4-30.2-4.9-45.3-6.9-9.3-1.3-18.7-2-28.1-2.7-13.8-1-27.6.3-41.3 2.1-14.9 2-29.5 5.3-44.1 8.8-4.8 1.1-9.6 2.9-14.2 4.7-20.9 8.3-40.1 19.7-59.1 31.4-10 6.1-20 12.4-30.1 18.3-12.8 7.5-24 16.9-34.5 27.3-6.3 6.2-12.3 12.6-18.4 19.1-11.3 12-20.7 25.5-29.8 39.3-1.8 2.7-3 5.7-4.6 8.7-6.4 1.5-12.7 1.5-19.6.1.6-2.3.8-4.4 1.6-6.1 6.2-12 12.5-24 18.8-36 3.5-6.8 7.3-13.5 10.4-20.4 8-18 19.8-33.2 32.7-47.8 4.9-5.5 9.6-11.2 14.2-16.8 10.9-13.2 22.4-25.8 35.7-36.5 6.8-5.5 14.5-10 21.8-14.9 4.9-3.3 9.9-6.3 14.6-9.9 12.5-9.4 24.1-19.8 34.4-31.5 7.2-8.1 14.4-16.3 21.3-24.7 7.9-9.6 16.8-18.1 26.7-25.6 7.4-5.6 15.5-9.6 24.6-11.4 10-2 18.9-6.3 27.5-11.6 5.5-3.5 10.4-7.7 14.1-13.1 3.6-5.4 7.1-10.8 10.7-16.2 2.6-3.9 5-8 7.8-11.8 4.2-5.9 9.9-9.9 16.7-12.4 4.7-1.7 9.4-3.4 13.9-5.6 7.8-3.8 14.5-8.8 18.7-16.8 4.4-8.3 9.3-16.4 13.7-24.7 8.6-16.1 17-32.2 25.5-48.4.5-1 .8-2.1 1.4-4-2 .1-3.4-.1-4.6.4-6.4 2.3-12.7 4.7-19 7.1-14 5.4-28.2 10.1-43.2 12.2-6.1.8-12.1 2.4-18.1 3.7-11.3 2.5-22.8 2.1-34.3 1.4-6.8-.4-13.2-2.6-19.3-5.8-6.9-3.6-10.4-9.4-10.7-17-.2-4.4 0-8.8.7-13.2 1.6-10.5 5.2-20.5 9.5-30.2 4.1-9.4 8.3-18.8 12.5-28.2 1.8-4 3.7-8 5.9-11.8 7.4-12.8 12.8-26.5 18.1-40.2 3.1-8 4.8-16.3 5-25 .1-5.2 1.6-10.4 2.5-15.6.3-1.4.7-2.9 1-4.3 1.2-4.8.3-8.8-3.1-13-8.3-10.3-15.6-21.4-21-33.6-.3-.8-1-1.4-1.5-2-2.8.6-1.9 2.7-2 4.2-1.2 21.8-4.4 43.3-11.1 64.1-6.8 21.3-14.7 42.1-24.9 62.2-9.2 18.2-19.5 35.5-31.8 51.7-6.2 8.2-11.3 17.2-16.5 26.1-4.1 7-5.4 15-5.2 23 .2 10.9.9 21.7 1.3 32.6.4 10.3 1.7 20.5 2.9 30.7 1 8.7 1 17.6 1.1 26.4.2 11.2-.1 22.3.1 33.5.2 8.2 1 16.4 1.4 24.6.3 6.2.2 12.3.4 18.5.1 3.7-.9 6.8-3.3 9.7-12.9 15.7-25.9 31.2-41 44.9-4.3 4-9 7.6-13.6 11.2-1.1.9-2.5 1.3-4.4 2.3 0-1.9-.2-3.1 0-4.1 2.4-8.5 5-16.9 7.2-25.5 2.4-9.7 4.5-19.5 6.6-29.2 2.5-11.8 3.9-23.8 3.5-35.9-.3-9.4.3-18.8 1.7-28.2.8-5.5.6-11.2.3-16.7-1.2-19.7-2.8-39.3-4.1-59-1-15.9-2-31.6-6-47.1-4.3-16.5-7.1-33.3-11.3-49.9-3.9-15.4-8.1-30.7-13.2-45.8-3.1-9.2-5.2-18.7-7.8-28-1.2-4.3-2.3-8.5-3.5-12.8-1.4-5.1-2.5-10.3-4.4-15.2-5.1-13.8-8.4-28.3-16.4-40.8-2.3-3.6-2.8-6.8-.9-10.7 1.9-3.7 3.5-7.4 4.9-11.3 2.5-6.9-1.2-12.5-8.6-13-3.3-.3-6.5.2-9.3 2.1-1.2.8-2.3 1.8-3.6 2.5-4.3 2.1-8.3 2.1-12.1-1.5-13-12-27.3-22.4-41.8-32.4-11.4-7.8-23.5-14.5-35.4-21.5-5.6-3.3-11.4-6.1-17-9.4-8.6-5.1-17.7-9.2-26.9-13.2-13.2-5.8-26-12.4-39-18.5-5.6-2.6-11.1-5.4-16.9-7.6-8-3-15.8-6.4-23.2-10.7-2.6-1.5-4.7-3.3-6.3-6-6.2-10.7-6.4-22.4-6-34.3.1-3 2.2-4.8 4.8-5.8 2.7-1.1 5.6-1.9 8.4-2.6 10-2.5 19.9-5.2 30-7.3 10.9-2.3 22-4.1 33-5.7 18-2.7 36.1-4.9 54.2-7.5 9-1.3 18-3 27-3.9 14.3-1.4 28.7-2.4 43.1-3.4 16.7-1.2 33.4-2.2 50.2-3.2 14.1-.8 28.2-1.5 42.3-2.3 11.4-.7 22.9-1.4 34.3-2.2 1.2-.1 2.3-.2 3.5-.5 2.3-.6 3.7-2 3.6-4.4-.2-2.9-.5-5.9-1.3-8.7-2-7.5-2.5-15-2.4-22.7.1-23.2 0-46.5 0-69.7 0-15.9 1-31.7 3.5-47.5.8-5.2 1.2-10.5 1.5-15.8 1-16.1 3-32.2 2.4-48.4-.2-5.6-.6-11.1-3.4-16.2-.8-1.5-1.3-3.4-1.2-5 .6-8.5-2.3-16.3-5.3-23.9-4.5-11.2-9.4-22.2-14.1-33.3-2.1-4.9-3.9-9.9-6-14.7-1.4-3.2-3-6.2-4.5-9.2-6.3-.7-11.8.4-17.2 1.4-3.2.6-6.3 1.5-9.5 2.1-2.1.4-4.2-.7-5.2-2.5-.9-1.7-.3-4 1.3-5.6 2.4-2.4 5.5-3.3 8.7-4 5.1-1.1 10.3-2 16.1-3.1-.1-1.9.2-3.7-.3-5.1-2.8-8.1-5.4-16.2-8.6-24.1-3.8-9.3-7.5-18.5-10-28.2-4.7-17.6-10.3-35-13-53.1-1.6-10.5-3-21-4-31.5-1.4-14.3-2.9-28.7-2.3-43.1.2-4.7.7-9.3 1.9-13.9 1.3-5.1 2.2-10.3 3.2-15.5 4-19.9 8-39.8 15.7-58.7 3.8-9.2 8.4-18.2 13.3-26.8 7.1-12.5 14.7-24.8 22.3-37.1 3.1-5 6.7-9.7 10.2-14.4 4.4-5.9 8.9-11.7 13.6-17.3 4.5-5.4 8.9-11 13.9-16 10.6-10.6 20.7-21.7 32.6-30.9 3.7-2.9 7.3-5.9 11.1-8.7 9.8-7 18.9-14.9 27.8-23.1 5.4-5 11.2-9.4 17.7-13.1 5.4-3.1 10.6-6.4 15.9-9.5 3.8-2.2 7.7-4 12.2-4.7 2.5-.4 4.8-2 7-3.3 4.8-2.8 9.4-5.9 14.3-8.7 6.4-3.7 12.9-7.1 19.2-10.8 10.4-6.1 20.8-12.3 31.1-18.4 2.2-1.3 4.4-2.8 6.9-4.4-.3-1.9-.6-3.5-.8-5.2-.3-3.5-.8-7-.9-10.5-.1-4.4.5-8.8.3-13.2-.7-14.5 6.8-23.8 18.8-30.3.3-.1.5-.3.8-.4 5.7-1.1 8.1-4.9 9.3-10.3 1.4-6.2 5-11.2 10.5-14.7 1.2-.8 2.2-1.8 3.5-2.9-.2-1.8-.4-3.5-.6-5.3-.5-5-.2-10.1 1.6-14.8 2.3-6 4.6-12.1 7.5-17.9 2.9-5.9 8.1-9.2 14.4-10.7 5.8-1.3 11.7-1.4 17.5 0 8.9 2.1 15.3 7.4 18.2 16.3 1.5 4.5 2.4 9.1 3.6 13.6.4 1.7.8 3.4 1.1 4.7.9.6 1.3 1.1 1.9 1.2 9.4 1.6 15.9 7.5 20.8 15.1 3.2 5.1 7.4 8 13.2 9.3 9.5 2.1 15.2 8.4 17.6 17.8.6 2.2 1.2 4.5 1.8 6.9 2 .3 3.8.7 5.5.7 23.2.7 46.4 1.3 69.7 1.9 19.1.5 38.2.8 57.3 1.6 9.4.4 18.8 1.2 28.1 2.3 13.7 1.6 27.4 3.6 40.8 7.2 8 2.1 15.9 4.3 23.8 6.7 9.3 2.8 18.7 5.4 27.8 8.6 11.9 4.2 23.6 8.9 35.4 13.6 8.5 3.3 16.4 7.8 24.4 12.3 11.5 6.5 23.4 12.3 35.2 18.3 10 5.1 19.9 10.1 30.1 14.8 14.2 6.5 28.5 12.5 44.1 14.9 6.3 1 12.5 3 19.1 4.6 1-1.5 2-2.6 2.5-3.8 2.3-5 6.2-7.7 11.3-8.9 4.9-1.2 9.8-1.7 14.9-1 2.9.4 5.9.6 8.7 1.5 4.9 1.7 8.3.2 11.8-3.2 9.2-9 20.4-12.6 33.1-10.5 9.6 1.6 17.5 6.5 23.8 14 1.7 2 3.2 4.1 5.2 6.5 1.8-1.1 3.5-1.7 4.6-2.9 4.4-4.5 9.6-7.7 15.1-10.6 3.6-1.9 7.1-4.1 10.5-6.5 13.3-9.6 28.1-16 43.5-21 19.1-6.2 39-8.4 59-10.3 7.9-.7 15.7-1.6 23.7-.9 13.4 1.1 26 4.6 38.3 9.8 22.9 9.7 44.2 21.9 63.3 38.1 4.9 4.2 9.7 8.6 13.5 13.8 12.3 16.5 24.8 32.9 36.8 49.6 9.1 12.7 16.8 26.3 23.8 40.2 9.9 19.7 19.6 39.5 29.5 59.2 5.4 10.8 9.7 22.1 13.5 33.5 7 20.9 12.4 42.3 17.6 63.8 6.4 26.3 10.6 53 14.5 79.8 2.1 14.2 2.5 28.7 4.2 43 2.4 21.1 1.7 42.3 1.5 63.5-.1 15 .6 30 .7 45 .1 10.9 0 21.8 0 32.6 0 14.1-.2 28.2.2 42.3.4 12.7-.1 25.3-2.1 37.8-1.7 10.5-1.3 21.2 0 31.7 1.3 10.8 3.1 21.5 5.2 32.2 4 20.3 6.1 40.7 6.3 61.4.2 22.1.6 44.1.2 66.2-.3 20.6-3 41.1-8.9 60.9-4.8 16-9.1 32.2-15.4 47.9-8.2 20.5-16.8 40.7-28.3 59.7-12.5 20.6-24.5 41.5-38.3 61.4-8.9 12.8-17.8 25.6-26.7 38.4-2.2 3.1-4.5 6.2-6.9 9.1-1.1 1.3-2.5 2.5-4 3.4-3.1 1.9-6.7.3-7.5-3.4-.4-1.7-.4-3.5-.2-5.2.7-4.4 1.6-8.7 2.4-13 4.1-20.8 8.6-41.5 12.3-62.3 4.2-23.7 7.8-47.6 11.5-71.4.5-3.4.8-6.9-.2-10.8-1 .6-2.1.8-2.3 1.4-6.7 17.1-17.5 32-26.1 48-11.4 21.4-26.5 40.2-42.2 58.6-2.5 2.9-5.2 5.7-8.3 7.9-4.6 3.3-9.2 1.6-11.2-3.7-1-2.6-1-5.2-.1-7.8 1.7-5 3.5-10 5.1-15 4.2-12.8 8.8-25.6 12.5-38.6 2.2-7.6 3-15.6 4.3-23.4.9-5.2 1.6-10.5 2.2-15.7.2-1.9-.1-3.8-.2-6.7-3.7 2.2-5.5 4.9-7.4 7.3-4.6 5.7-9.1 11.6-13.8 17.2-3 3.6-6.5 6.9-11.2 8.3-1.7.5-3.4 1-5.1 1.1-2.9.2-5.3-1.1-6.3-3.9-.9-2.4-1.3-5.1-1.4-7.7-.3-10.2 2.8-19.8 6.4-29.1 5.2-13.5 9.9-27.1 12.7-41.3 3.3-16.4 6.6-32.9 9.5-49.3 1.1-6.1 1.6-12.3 1.8-18.4.8-18.2 3.4-36.4 2.4-54.6-1.1-19.4-1.5-38.8-5.4-57.9-.9-4.6-2.2-9.1-3.2-13.7-2.8-12-5.7-24-8.6-36-.2-1-.8-2-1.2-2.9-3 .6-3.1 3-3.9 4.8-2.7 6.2-5.2 12.5-8.1 18.6-1.5 3.2-3.4 6.3-5.6 8.9-4.2 5.1-10.1 5.2-14.4.3-2.3-2.6-4.2-5.8-5.4-9-2.2-5.8-3.8-11.7-5.4-17.7-1.5-5.7-2.8-11.4-4.2-17.1-.3-1.3-1.1-2.6-1.7-3.8-2.8.7-2.4 2.8-2.5 4.3-.8 8.2-1.4 16.4-2.2 24.6-.3 2.6-.5 5.3-1.3 7.8-1.5 4.1-6.6 4.7-9.2 1.3-.9-1.1-1.5-2.5-2.2-3.8-4.6-7.5-8.9-15.2-14-22.4-5.3-7.5-9.7-15.4-12.9-24-9.3-25.5-16.9-51.4-21.9-78.1-2.1-11.3-3.1-22.7-4.3-34.1-1.4-13.8-2.3-27.5-2-41.4.2-7.4.8-14.7 2.3-21.9 1.9-9.5 3.1-19.1 3.7-28.8.8-13.5 4.1-26.7 7.3-39.9 2.6-11.2 5.1-22.4 7.6-33.5 2.5-10.9 4.7-21.9 7.5-32.7 3.2-12.1 4.1-24.3 4.9-36.7.9-14.1 1.9-28.2 2.9-42.3 1.1-15.3.8-30.6-1.9-45.7-.8-4.3-1.9-8.6-3.5-12.7-8.2-21.8-18.8-42.5-30.9-62.4-4.2-6.8-9.3-12.8-15.4-18-7-6.1-14.6-10.7-23.8-12.8-6.3-1.5-12.3-4-18.5-5.7-4.5-1.2-8.9-3.3-14.2-1.9-.4 1.5-1 3.1-1.3 4.8-1.5 9.1-5.4 16.7-13.2 22-1.7 1.2-3.3 2.4-4.9 3.8-5.8 5-9.6 11-10.2 18.9-.3 3.5-.7 7-1.1 10.5-1.4 11.1-8.1 17.2-19.3 17.7-.8 0-1.7.2-2.8.4-.4 1-1.1 2.1-1.2 3.2-1 12.4-.5 24.7 2.3 36.8 4 17.5 7.9 35 11.6 52.5 1.9 8.9 3.2 17.9 4.7 26.9 4.2 25.1 12 49.1 20.7 72.9 3.6 10 6.3 20.1 8.6 30.5 4.3 19.3 6.5 38.9 8 58.5 1.7 21.7 2.1 43.5-1.6 65.1-1.9 11.3-3.4 22.7-4.8 34.1-1.3 10.9-4.6 21.2-8.1 31.5-2.4 6.9-4.9 13.9-7.2 20.8-3.2 9.8-6.2 19.6-9.4 29.4-1.4 4.2-3 8.4-5 12.2-10.5 20.1-19.9 40.7-32.6 59.6-9.1 13.5-19 26.1-31.1 37-11.8 10.6-24 20.8-36.4 30.7-9.4 7.5-18.5 15.4-27.5 23.5-8.8 7.9-18.1 14.9-28.7 20.4-9.6 5.1-19 10.6-27.1 18.1-4.4 4.1-10 6.2-15.4 8.4-3.8 1.5-7.8 2.7-11.1 6.3.7 1.1 1.3 2.3 2.1 3.3 7.4 9.2 11.2 19.9 13.1 31.3 1 5.7-.5 7.9-5.7 10.6-.3.1-.5.3-.8.4-20.7 7.5-38.5 20.2-56.8 31.9-9.1 5.9-18.3 11.8-27.5 17.6-13.8 8.6-26.4 18.7-38.5 29.4-6 5.2-12.1 10.3-18.3 15.2-7.2 5.6-13.9 11.7-20.2 18.4-7.7 8.1-15.5 16.1-23.4 24-6.1 6-11.4 12.7-15.5 20.3-3 5.7-6.1 11.4-9 17.2-1.7 3.4-3.2 7-4.6 10.5-.6 1.6-1.3 3.4.2 4.9 1 1.1 3.2.5 5.3-1.8 2.9-3.3 5.7-6.7 8.1-10.4 3.7-5.6 6.8-11.7 10.6-17.3 3.3-4.8 6.9-9.5 10.9-13.8 9.5-10.1 19.2-19.9 28.9-29.7 3.1-3.1 6.3-6.1 9.7-9 9.9-8.4 19.9-16.6 29.8-24.9 13.5-11.4 28-21.4 42.9-30.9 14.4-9.1 28.7-18.5 43-27.7 7.2-4.6 14.6-8.7 22.6-11.9 1.3-.5 2.7-.9 4.4-1.5 1.8 1.6 3.6 3.1 5.3 4.7 4.3 4.4 8.7 8.8 12.9 13.3 12.5 13.5 26.9 24.5 41.8 35.1 5.7 4.1 11.5 8.3 16.7 13 15.9 14.4 32 28.7 46.5 44.5 3 3.3 5.8 6.6 8.4 10.2 1.7 2.3 3.1 5 4.1 7.7 1.5 4.2.8 7.9-2.7 11.2-5.5 5.3-10.6 11-15.9 16.5-9.5 9.9-15.6 22.1-22.8 33.5-5.1 8-8.5 16.8-10.6 26-1.3 5.7-3 11.4-4.5 17-6.6 24.8-9.9 50.2-12.9 75.6-1 8.5-2.2 16.9-2.8 25.4-1 12.6-2.1 25.2-2.3 37.9-.3 17.7-2.5 35.2-3.5 52.8-.5 8.5-.6 17-2.4 25.4-3.9 13.7-6.5 26.9-9.4 40.7zm-79.5-542.2c-2.3-.2-3.6-.3-5-.3-3.2-.2-6.5-.2-9.7-.6-10.4-1.4-19.5-6.3-28.5-11.2-4.3-2.3-7-6.2-8.9-10.6-3.8-8.9-7.7-17.8-11.3-26.8-1-2.4-1.5-5.1-1.8-7.7-.2-2 1.7-4.1 3.6-4.4 2.1-.4 3.1 1.1 3.9 2.8 4.8 10.4 9.8 20.7 14.5 31.2 1.7 3.7 4.2 6.3 7.8 8 4 1.9 8.1 3.6 12 5.5 8.4 4.1 17 4.1 25.8 1.9 5.1-1.3 10.3-2.5 15.3-4.2 10.1-3.3 20-6.9 27.9-14.5 2.7-2.6 6-4.8 9.2-6.7 6.3-3.8 12.7-7.5 19-11.1 10.6-6 19.9-13.2 26.7-23.7 7.8-12.1 16.4-23.6 24.6-35.5 13.5-19.7 24.4-40.9 33.2-63.1 7.4-18.5 12-37.5 10.6-57.6-.6-9.2-2.4-17.9-7.6-25.9-5.1-7.8-11.8-13.8-19-19.4-7.8-6.1-16.6-8.6-26.5-7.1-3.5.5-7 1.2-10.5 1.4-8.9.6-17.3 3.1-25.5 6.4-3.3 1.3-6.5 2.8-9.8 4-7.3 2.7-13.7 6.6-19.6 11.6-4 3.4-8 7-12.2 10.1-15.8 11.6-28.9 25.8-39.4 42.4-2.7 4.2-5.5 8.4-8.1 12.6-3.9 6.6-8.8 12.6-14.5 17.7-6.2 5.5-12.5 10.8-18.9 15.9-6.3 5-13.6 8.2-21.2 10.6-5.6 1.7-11.2 1.5-16.4-.9-7.3-3.3-14-8.1-17.9-15.2-6.7-12.3-10.5-25.6-8.4-39.9 2.2-14.9 6-29.3 11.8-43.3 4.4-10.6 8.2-21.4 12.1-32.2 1.9-5.3 3-10.7 1.9-16.4-2.5-13.3-9-23.5-21.8-29-11.6-5-23.1-10.2-34.7-15.2-10.5-4.5-19.1-11.4-26.6-19.9-10.1-11.6-18.4-24.4-24.8-38.4-4.1-9-6.5-18.2-6.5-28.1 0-11.2-.3-22.3-.5-33.5-.4-25.8-12.7-46-30.4-63.5-2.1-2-4.6-3.6-7.2-5.1-9.2-5.4-18.9-9.4-29.1-12.4-7.9-2.3-15.5-2.5-23.4-.3-9.4 2.5-18.8 4.7-28.3 6.8-8.1 1.8-15.9 4.3-23.1 8.4-13.1 7.4-26 14.9-38.9 22.6-6.6 3.9-13 8.1-19.5 12-6.6 4-13.6 6.7-21.2 8.3-7.2 1.5-14.3 3.5-21.1 6.1-11.9 4.5-24.1 7.5-36.4 10.4-7.5 1.8-15.1 2.4-22.8 2.3-7.6-.1-15.4-.6-22.9.3-14 1.7-27.5 0-41.1-2.8-8.9-1.9-17.9-3.4-26.9-4.9-11.1-1.8-21.9-4.6-32.5-8.1-14.6-4.9-26.8-13.1-35.9-25.8-4-5.5-8.7-10.3-13-15.5-21.1-25.3-36-53.6-42.3-86.1-1.5-7.5-2.6-15.1-4-22.6-.2-1.2-1.2-2.3-2-3.7-1.2 1-2 1.5-2.4 2.2-4.7 8.9-9.3 17.8-12 27.4-6 20.9-11.4 42-14.3 63.6-.4 3.2-.6 6.5-.5 9.7.2 7.3 1 14.7-.9 21.9-.4 1.4-.1 2.9 0 4.4.8 9.4 1.5 18.8 2.5 28.1 2.9 28.3 11.1 55.3 19 82.4.5 1.7 1.2 3.3 1.8 5 4.2 11 8.6 21.9 12.5 33 4.8 13.5 2.6 11.2 15.9 14.7 13.6 3.6 26 9.3 37.6 16.9 5.4 3.5 10.4 7.7 15.4 11.7 1.3 1 2.2 2.7 2.9 4.3.9 2.2-1.6 5.1-3.9 4.5-1.7-.5-3.2-1.4-4.7-2.2-8.6-5.1-17.2-10.2-25.7-15.4-6.6-4.1-13.7-6.6-21.3-8.2-1.3-.3-2.8 0-4.9 0 .3 4.1 1.8 7.3 3.1 10.4 5.9 14.1 11.9 28.2 17.9 42.2.5 1.3 1.5 2.3 2.5 3.8 1.6-1 2.9-1.6 4-2.5 8.9-7.1 18.7-7.2 28.2-2.5 19.9 9.9 36.2 24 47.6 43.3 2.2 3.7 4 8 5 12.2 2.7 11.4-3.9 20.6-15.5 22-6.4.8-12.9.5-19.3-.6-6.1-1.1-11-4.3-14.6-9.2-3.7-5-6.4-10.5-7.8-16.7-2.3-10.4-1-20.5 2.9-30.3 1-2.4 2.9-4.5 1.9-7.8-.7-.5-1.6-1.3-2.6-1.9-1.6-.8-3.2-1.6-4.8-2.1-6.8-2.1-11.9-.5-16.5 5-3.6 4.3-5.3 9.1-3.9 14.7 1.7 7.2 1.5 14.6 1.8 21.9.7 18.6-1.5 37-2.5 55.5-.1 2-.5 4.1-.8 6.1-2.4 15.1-3.6 30.4-3.9 45.6-.6 25.3-.2 50.6-.2 75.9 0 2.4-.1 4.7.2 7 1.8 12.5 3.7 24.9 5.6 37.4.7 4.6 1.2 9.4 2.6 13.8 5.6 17.7 12.2 35 21 51.4 2.6 4.9 5.6 9.7 8.3 14.5 7.6 13.6 15.5 27 26 38.7 1.8 2 3.2 4.2 4.8 6.3 12.9 16.2 21.2 35.2 32.7 52.3 1.1 1.7 2 3.6 2.8 5.5 6.5 15 15.5 28.4 26 40.8 2.5 2.9 4.7 6 7 9 7.8 10 15.4 20.1 23.4 29.8 13.8 16.7 29.8 30.8 49.4 40.5 6.9 3.4 13.7 7.1 21.4 8 10.2 1.2 20.3 3.4 30.7 2 2.6-.3 5.3-.2 7.9 0 7.8.6 15.2-1.1 22.5-3.6 8-2.8 16-5.9 24.2-8.4 7.1-2.2 13.7-5.3 20-9.2 9.3-5.7 17.7-12.6 25.4-20.4 22.4-23 43.5-47 63-72.6 14.8-19.4 30.6-38 47.6-55.6 8.2-8.4 16.9-16.4 24.7-25.2 15.1-16.8 32.9-30.4 52.1-41.8 21.9-13.1 44.5-25.1 66.9-37.6 6.7-3.7 13.4-7.4 20-11.1 11.3-6.3 22.6-12.6 33.9-18.9 2-1.1 4.2-2.1 6.1-3.5.9-.7 1.2-2.3 2-4.2zm136.9-797.5c-12-2.7-22.9-5.1-33.7-7.7-6-1.4-12.1-2.8-17.8-5.1-13.3-5.5-26.6-11.2-39.5-17.4-12.5-6-24.6-12.6-36.8-19.1-8-4.3-15.7-9.3-24-13.1-19-8.6-38.2-17-58.6-21.8-1.4-.3-2.8-.8-4.2-1.3-20.5-7.3-41.6-12.6-63.2-15.6-14-1.9-27.9-4.4-42.1-4-6.8.2-13.5 0-20.3-.2-14.4-.5-28.8-1.3-43.2-1.8-13.8-.5-27.6-.8-41.4-1.4-17.8-.7-35.2 1.1-52.3 6.1-9.9 2.9-19.9 5.3-29.9 7.5-17.5 3.9-34.6 9.3-51.3 16.1-26.8 10.9-52.4 24-77.1 39-7.3 4.4-14.8 8.4-22.4 12.3-6.3 3.2-12.4 6.6-18.2 10.7-4.8 3.4-10 6.2-15.1 9-11.9 6.4-23.9 12.7-33.8 22.1-10.2 9.8-21.2 18.6-32.6 26.9-4.3 3.1-8.6 6.3-12.3 10-15.7 15.5-32.3 30.1-44.5 48.8-.5.7-1 1.5-1.6 2.1-10.7 10.8-17.4 24.4-25.5 36.9-3.2 5-4.4 10.2-3.4 15.9 1.3 7.8 2.4 15.7 3.9 23.5 5.1 26.9 14.8 51.9 30.6 74.5 9.5 13.5 20.6 25.7 31.1 38.4 4.3 5.2 10 9.1 16.2 11.9 13.2 6.1 27.2 9.3 41.4 11.8 9.8 1.7 19.7 3.4 29.5 5.4 7.5 1.5 15.1 2.6 22.7 2.6 8.5-.1 17.1-.6 25.6-.4 21.6.6 41.9-4.9 62.1-11.5 7.5-2.4 15-5.3 22.7-6.9 9.7-2 18.3-6 26.7-11.1 14.5-9 29.1-17.8 43.8-26.4 11.2-6.6 23-11.8 35.8-14.5 9.5-2 18.9-4.4 28.3-6.9 7.2-2 14.5-2.7 21.8-1.2 15.4 3.2 29.7 9.3 42.8 18.1 3.1 2.1 6 4.8 8.6 7.6 3.4 3.6 6.6 7.5 9.7 11.5 9.1 11.8 15.9 24.8 18.3 39.6 1.3 8.1 1.9 16.4 2.2 24.6.4 8.5.2 17.1.1 25.6-.1 7.5 1.6 14.6 4.7 21.4 5.2 11.3 11.4 21.9 19.1 31.6 9.1 11.6 20.1 20.5 33.9 25.8 9.9 3.8 19.6 8.1 29.1 12.6 18.6 8.8 27.6 23.9 27.7 44.4 0 5.7-1.1 11.1-3.1 16.4-3.8 10.2-7.9 20.3-11.6 30.5-3.2 8.9-6.3 17.8-8.6 26.8-3.2 12.3-4.5 24.7 0 37.3 2.6 7.3 6.4 13 12.6 17.5 4.6 3.4 9.6 4.8 14.9 2.6 5.4-2.2 11-4.5 15.7-7.9 6.9-4.9 13.4-10.6 19.6-16.5 4.2-4 7.8-8.8 11.3-13.5 6.1-8.3 11.6-17 17.9-25.1 7.4-9.5 15-18.9 24.4-26.6 8-6.5 15.9-13.1 23.9-19.5 3-2.4 6.1-4.7 9.6-6.2 10.5-4.5 21-9.2 31.9-12.7s22.5-4.2 34-4.9c6-.4 11.7 1.3 17 4 12 6.2 21.9 14.8 29.4 26 3.4 5.1 6.8 10.4 8.1 16.5 3.5 16.7 3.4 33.4-.4 49.9-6 26-17.3 50-30.6 73-4.8 8.4-10.4 16.4-15.6 24.6-.5.9-.6 2-1.4 4.5 2.7-1.9 4.2-2.7 5.4-3.8 10.5-9 21.1-17.9 31.2-27.3 8.5-7.8 15.3-17 21.8-26.6 13.5-19.8 23.6-41.3 34.4-62.6 1.5-2.9 2.7-5.9 3.7-9 3.8-11.7 7.5-23.5 11.3-35.3 1.4-4.5 3-8.9 4.6-13.3 3.7-10.2 7.4-20.5 8.6-31.4.5-4.7 1.5-9.3 2.1-14 1.6-11.7 3.7-23.3 4.5-35 1.9-26.5.4-52.9-3-79.2-1.2-9.6-3.5-19.1-5.1-28.6-1.6-9.6-4.8-18.8-8.1-27.9-8-21.8-15.2-43.9-19.2-66.9-2.4-13.9-4.9-27.8-7.7-41.6-2.8-14.1-6.1-28.2-9-42.3-3.2-15.7-4.2-31.4-1.4-47.3.1-.8-.1-1.7-.2-2.9-1.6-1.5-3.4-3-4.9-4.7-3-3.2-6.1-6.4-8.6-10-7.6-10.8-15.1-21.8-22.4-32.8-5.4-8.1-11-16.1-15.5-24.6-6.3-11.3-13.2-22.8-15.1-36.5zm113.5-6.2c2.5 5.8 4.6 11 7 16 2.4 5.3 3.4 11.2 6.6 16.4 13.8-.1 26.1 5.3 38.8 8.8.6.2 1.1.4 1.7.5 7.7 1.5 14.1 5.6 20.4 10.1 9 6.5 16.2 14.5 22 23.9 12.9 21.1 24.2 43.1 32.9 66.3 1 2.7 1.9 5.6 2.5 8.5 3.7 17.7 4.2 35.6 3 53.6-1 15.3-2.1 30.5-3.1 45.8-.7 10.6-1.6 21.1-4.2 31.4-2.9 11.7-5.5 23.5-8.2 35.2-2.5 10.9-4.7 21.8-7.4 32.7-3.1 12.6-6.4 25.1-7.2 38.1-.8 13.3-3 26.3-5.3 39.3-.5 2.6-.6 5.3-.7 7.9-.8 18.6 1 37 2.9 55.5 1.1 10.5 2.5 21.1 5 31.3 3.9 16.6 8.5 33 13.3 49.4 4.8 16.1 11 31.7 21.9 44.9.9 1.1 1.6 2.5 3.6 2 .3-.7.8-1.5.8-2.3 1-15.8 5.8-30.6 11.2-45.2.4-1.1.8-2.2 1.4-3.2 1.2-1.8 2.9-3 5.2-2.5 2.2.4 3.8 1.9 4.2 4.1.4 2.6.4 5.3.5 7.9.4 6.2.1 12.4 1.3 18.4 2.6 13 5.9 25.8 9 38.6.5 2 1.3 3.9 2.2 5.8.6 1.1 1.7 2 2.9 3.5 1.2-1.8 2.3-2.8 2.9-4.1 3.1-6.7 6.1-13.4 9-20.1 2.6-6.2 4.9-12.6 7.5-18.8 1-2.4 2.3-4.8 3.6-7.1 1.2-2.2 3-3.7 5.8-3.2 2.7.5 4 2.5 4.5 4.9.6 2.6.8 5.2 1 7.9 1 9.6 1.5 19.4 3.9 28.8 2 8 4.2 15.9 6.1 23.9 1.4 5.7 2.9 11.4 4 17.2 4.2 23.5 5.1 47.4 5.3 71.2.1 9.1-1 18.2-1.6 27.3-1.1 15.2-2 30.5-4.9 45.6-1.8 8.9-4 17.8-5.6 26.7-3.1 17.4-7.8 34.4-14.4 50.8-2.4 6-4.2 12.2-6 18.4-.8 3-1.8 6.2.4 9.8 1.5-.8 2.9-1.2 3.8-2.1 2.6-2.8 5-5.7 7.4-8.7 11.3-13.9 23.5-27.2 30.3-44.2.5-1.3 1.6-2.5 2.6-3.5 2.6-2.6 6.7-1.7 7.7 1.9.5 1.6.6 3.5.3 5.2-.5 3.5-1.4 6.9-2.1 10.4-2.4 12.4-5.1 24.8-7.2 37.2-2 11.9-3 23.9-6.9 35.4-3.9 11.4-7.6 22.9-11.4 34.3-.5 1.5-2 3.1.5 4.9 1-.9 2.3-1.6 3.1-2.7 8.6-11.2 17.5-22.2 25.4-33.8 7.4-10.9 13.4-22.8 20.4-34 10-16.1 17.7-33.2 22.6-51.5.8-3.1 1.8-6.2 2.9-9.3.6-1.6 1.6-3.2 2.7-4.4 1.8-2.1 5.7-1.8 6.8.7 1.2 2.6 2.2 5.6 2.2 8.4.1 10.9.3 21.8-.5 32.6-1.8 25.5-7 50.6-11.5 75.8-3.2 18.2-7.3 36.3-10.9 54.5-.4 1.8-1.6 3.9.7 6 .8-.8 1.7-1.4 2.3-2.3 7.6-10.8 15.5-21.5 22.7-32.5 7.6-11.5 14.8-23.3 22-35.1 6.9-11.3 13.6-22.7 20.2-34.2 2.5-4.3 4.5-8.9 6.7-13.4 12-25.7 20.8-52.4 28.5-79.6 5.3-18.8 7.8-38 8.1-57.4.3-21.5 0-42.9-.1-64.4-.1-18-1.8-35.8-4.9-53.5-2.4-13.9-4.8-27.8-6.8-41.7-1.6-10.8-1.8-21.7 0-32.5 2.1-12.8 3.1-25.7 2.2-38.7-.9-13.8-.5-27.6 0-41.5.4-11.5.5-23-.1-34.4-1.1-18.8-.8-37.6-.6-56.5.1-13.8.4-27.7-.8-41.4-1.9-22.5-3.3-45.2-7.4-67.5-3.7-19.9-7-40-11.3-59.8-5.8-26.4-13-52.5-22.4-77.9-1.3-3.6-2.8-7.1-4.4-10.6-9.2-18.8-18.8-37.3-27.6-56.2-16.9-36.3-41-67.9-65.3-99.3-7.3-9.4-17-16.2-26.5-23.1-18-13-37.8-22.8-58.8-29.7-12.9-4.3-26.3-6-40-4-7.8 1.2-15.7 1.9-23.6 2.8-12.6 1.4-25 3.7-37.1 7.6-12.3 4-24.3 9-35.2 16.2-6.9 4.5-13.7 9.1-20.8 13.2-5.3 2.7-9.9 6.8-13.6 12.4zm-666.6 1128.4c-1-.6-1.4-1.1-1.9-1.1-8.8-.7-17.5-1.3-26.3-2.2-3.2-.3-6.4-1.2-9.5-2-13-3.4-24.6-9.9-35.5-17.3-12.6-8.6-24-18.9-33.8-30.7-5.8-7-11.4-14.2-17.2-21.2-1.8-2.2-3.1-5-6.9-6.4-1.1 4.5-2.4 8.6-2.5 13-.3 11.6-3 22.7-7.4 33.4-3.8 9.2-8 18.3-12.2 27.3-7.4 15.7-15 31.2-22.3 47-2.4 5-4.3 10.3-6.1 15.6-2.5 7.3-4.1 14.7-4.1 22.4 0 5.8 2.2 10.3 8.1 12.2 3.1 1 6.1 2.2 9.2 2.8 8.4 1.5 16.9 2 25.4.6 9.8-1.7 19.6-3.9 29.5-5.3 10.8-1.6 21.2-4.5 31.5-8.1 11.4-4 22.8-7.8 34.1-12 13.9-5.2 11.2-4.1 16.8-15.1 9-17.5 18.1-34.9 30.2-50.6.3-.6.4-1.2.9-2.3zm41.2-1289.9c-1-6.9-2.8-12.7-5.3-18.3-1.9-4.3-5.5-6.9-10.1-7.6-2.9-.5-5.8-.4-8.7-.4-5.5 0-9.6 2.6-12.1 7.4-3.4 6.5-6.3 13.2-7.5 20.5-.2 1.3.2 2.7.3 4.4 5.3.6 9.5-1.8 14.1-2.3 4.9-.6 9.9-1.3 14.8-1.9 4.4-.7 9.2.1 14.5-1.8zm593.6 214.7c-.6-2.4-1-5-2-7.5-5.7-15.1-13.2-29.3-22.4-42.6-.7-.9-1.4-1.9-2.3-2.6-1.5-1.2-3.4-1.4-4.8-.1-.9.9-1.8 2.6-1.6 3.7.4 2.2 1.5 4.4 2.6 6.4 4.7 9.1 9.5 18.1 14.2 27.2 2.5 4.9 4.8 10 7.4 14.9.9 1.8 2.4 3.3 3.7 4.8.9 1 3.2.5 3.8-.8.6-.9.9-2 1.4-3.4zm-595.7-185.8c-14.6 1.4-29.1 3.4-43.2 7.9-1.9.6-3.8 1.6-5.6 2.5-1 .5-2.1 1.2-2.8 2.1-.6.9-1 2.3-.7 3.2.3.8 1.8 1.6 2.7 1.5 2.3-.2 4.6-.8 6.9-1.3 9.5-1.8 19-3.8 28.6-5.4 4-.7 8.2-.7 12.2-1.4 3.1-.6 6.2-1.7 9.1-2.9.7-.3 1.2-2.1 1-3.1-.2-.9-1.2-2.2-2.1-2.4-1.9-.5-4-.5-6.1-.7z"/><path d="m526.8 1116.1c13.4 5.4 26.5 10.6 38.6 17.9 10.9 6.5 22.1 12.3 33 18.7 20.1 11.8 38.5 25.9 56.4 40.8 1.1.9 2.2 1.9 3.3 2.9 4.2 3.9 9.1 5.1 14.7 4.1 2.8-.5 5.7-.9 8-1.3 2 1.8 1.3 3.2.8 4.6-.7 1.9-1.6 3.8-2.4 5.7-1 2.6-.9 5.2.6 7.6 1.5 2.5 3.1 5 4.5 7.6 1.6 2.8 3.3 5.6 4.4 8.6 4 11.4 8.7 22.5 11.5 34.2 1.2 5.1 3.4 10.1 4.5 15.2 4.9 23.7 14 46.1 19.8 69.5 4.5 18.3 8.8 36.6 13.1 54.9 1.5 6.3 3.3 12.6 4 19 1.4 12.8 2.3 25.8 3.2 38.7 1.2 15.8 2.2 31.7 3.3 47.5.6 8.8.7 17.5-.5 26.4-1.2 8.7-.9 17.6-1 26.4 0 6.5-.2 12.9-1.4 19.3-2.8 15.3-4.9 30.8-10.1 45.6-2.5 7.2-4.3 14.7-6.3 22.1-.7 2.5-.8 5.2-.9 7.9-.1 4.2-1.8 7.3-5.4 9.4-1.3.8-2.4 1.7-3.6 2.5-18.1 11-32.2 26.4-45.8 42.3-11.3 13.2-22.3 26.6-33.2 40.1-3.5 4.3-6.6 9-9.3 13.9-6.8 12.4-13.2 24.9-19.8 37.4-5.6 10.7-11.2 21.3-16.6 32.1-2.3 4.7-4 9.7-5.9 14.5-6.5 1.7-25.4 2-34.8.6.5-1.3.6-2.9 1.4-3.8 2.2-2.4 4.5-4.6 7-6.7 11.5-9.4 21.3-20.3 28.3-33.5 1.1-2.1 2.1-4.2 3.1-6.3 4.3-9.7 8.2-19.6 13-29 4.5-8.9 6.1-18.3 6.9-28 .4-4.4.5-8.8.8-13.2.7-14.5 3.9-28.5 9.2-42 5.1-13 5.7-26.3 1.9-39.8-1.5-5.4-2.1-10.9-3.3-16.4-2.5-11.2-4.7-22.4-7.8-33.4-1.3-4.8-2.2-8.8.6-13.4 4.5-7.4 4.8-15.5 3.6-23.9-1.7-11.6-3.1-23.3-4.7-34.9-.4-3 .2-5.9 1.5-8.5 1.2-2.4 2.7-4.6 3.7-7 2.2-5.1 4.6-10.2 6.2-15.5 4-13.2 7.1-26.7 11.4-39.8 4.8-14.9 8-30.1 11.8-45.2 3.1-12.3 6.1-24.5 9.1-36.8.8-3.4 1.8-6.8 2.5-10.3.3-1.4.5-2.9.6-4.3 0-1.9-.7-3.5-2.6-4.2-2-.7-3.6.3-4.4 2-1.4 2.9-2.8 5.8-3.8 8.9-6.4 19.3-11.2 39-15.9 58.7-3.5 14.6-8.1 28.9-12.1 43.3-1.9 6.8-4.1 13.5-5.7 20.4-1.7 7.2-4.3 14.1-8.3 20.3-4.9 7.6-6.2 15.4-4.6 24.4 2.1 11.3 3 22.7 4.4 34.1.6 5.2-.5 10.1-3.2 14.4-4.1 6.7-3.6 13.1-1.1 20.2 4 11.4 6.2 23.3 8 35.2.7 4.9 1.8 9.8 3.2 14.6 3.3 11.5 2.8 22.6-1.6 33.7-6.3 16-9.6 32.7-9.7 49.9-.2 15-4.1 29-10.9 42.3-3.2 6.3-5.8 12.9-8.7 19.3-3.2 7.3-7.3 14.1-12.7 20-5.5 6.1-11.1 12.1-17.5 17.4-5.2 4.3-9.7 9.4-14.3 14.3-1.9 2-3.9 3.3-6.7 3.7-2.9.4-5.7 1.4-8.4 2.4-10.8 3.9-21.4 8.2-32.4 11.7-6.7 2.1-13.7 3.1-20.6 4.5-2.9.6-5.8.7-8.7 1.3-5 .9-9.8 1.4-14.7-.8-1.7-.8-4-.6-6-.4-12.3.9-24.6 2.3-36.9 2.7-7.6.3-15.4-.2-22.8-1.7-10.5-2-21-2.4-31.6-2.9-2.5-.1-4.6.5-6.6 2-13.7 10-29.5 12.4-46 12.7-10.6.2-21.1.9-31.7 1.3-2.6.1-5.3.4-7.9.1-19.3-2.4-38.5-5.1-57.1-10.7-3-.9-6.3-1.5-9.5-1.6-9.7-.2-19.4 0-29-1.3-4.9-.7-10-.5-15-.7-2.4-.1-4.7 0-7.1-.1-7.9-.6-10.3-3-8.9-10.6 1.6-8.9 4.1-17.7 6.3-26.6.4-1.7 1-3.3 1.7-5.5-2.5-.9-4.5-1.9-6.7-2.5-10.2-2.7-20.5-5.2-30.7-8-7.2-2-13.7-5.4-18.5-11.4-3.4-4.2-5.6-8.8-6.4-14.3-2.3-14.9.7-28.5 8.5-41.4 4.8-8 8.7-16.7 12.9-25.1 2.7-5.5 3.4-11.2 1.1-17.1-1.3-3.3-2.1-6.7-3.3-10.1-1.6-4.8-4.3-8.9-7.9-12.6-4.9-5-9.3-10.7-14.3-15.6-8-7.7-16.3-15.2-24.8-22.5-9.6-8.2-19.4-16.3-29.3-24.1-15.2-12-20.2-28.3-20-46.8 0-4.3 1.6-8.1 4.6-11.1 4.4-4.5 9.4-8.2 15.2-10.3 3.5-1.3 7.5-2 11.2-1.7 7.6.6 15.1 2.2 22.3 5 20.9 8 41.2 17.3 61.2 27.3 8.1 4.1 16.5 7.7 25.1 10.9 14.7 5.4 28.7 12.2 42.1 20.1 4 2.4 8.3 4.5 12.6 6.3 5.2 2.2 10.5 3.6 16 2.7.7-.5 1.3-.8 1.5-1.3 5.2-10.2 13.1-17.2 24-20.7 3-.9 5.1-2.8 6.2-5.7 2.8-7.6 8.2-12.7 15.1-16.6 4.6-2.6 8.9-5.8 13.3-8.7 2.5-1.7 3.9-3.9 4.8-7 2.3-8.5 5-16.9 8-25.2 1.1-3 3.1-5.6 5.1-8.2 11.5-14.7 20.4-30.9 27.1-48.3 6.1-15.6 11.1-31.6 15-48 3.4-14.1 4.3-28.5 6-42.8 2.6-21.4 6.3-42.5 15-62.4 12.5-28.7 27.4-55.9 46.7-80.7 6.5-8.4 12.4-17.2 19.2-25.3 8.2-10 17.1-19.4 25.6-29.1 7.8-8.8 16-17.2 24.9-25 5.5-4.8 10.7-10.1 15.6-15.5 12.9-14.2 27-27 41.2-39.8.8-.3 1.3-.5 2.4-1.1zm-130.3 602.1c-.9 2-1.7 3-1.9 4.1-1.4 10.5-2.9 21-3.8 31.5-1 11.4-1.7 22.9-4 34.1-.4 2-.9 4.1-2 5.8-.6 1.1-2.2 1.9-3.6 2.1-1.9.4-3.6-.9-4.1-2.6-.6-2.2-.7-4.6-.5-6.9.8-7.3 1.8-14.6 2.7-21.9 1.6-14 2.8-28.1 4.8-42.1 4-28.8 9.8-57.4 12.6-86.4 1.2-12.9.9-25.8-1.1-38.7-.3-1.7-1-3.5-2.1-4.8-.8-.9-2.6-1.4-3.9-1.4-1.5 0-2.5 1.2-2.9 2.9-1.4 7.2-2.8 14.4-4.4 21.6-2.1 9.5-4.5 18.9-6.8 28.3-2.2 9.2-4.1 18.4-6.5 27.5-5.9 21.9-12.2 43.6-18.1 65.5-3.4 12.9-8.7 25-14.8 36.7-.8 1.5-1.8 3.1-3 4.3-.7.6-2.3.9-3.2.6s-1.9-1.6-2-2.6c-.3-1.4-.1-3 .4-4.3 1.2-3.3 2.8-6.5 4.1-9.8 2.6-6.5 5.8-12.9 7.7-19.7 7.3-26.4 14.4-52.8 21-79.3 5.3-21.1 9.8-42.4 14.7-63.6.3-1.4.8-2.9.8-4.3.1-6.4-1.9-13.5-10.1-15.6-4.2-1.1-8.6-1.8-13-2.2-6.3-.6-11.1 2-15.3 7-9.2 11-15.7 23.5-20.3 36.9-7.3 21.4-14.2 43-21.4 64.5-1.1 3.3-2.3 6.7-3.7 9.9-5.3 12.4-10.7 24.8-16.1 37.3-4.5 10.5-8.8 21.2-13.6 31.6-3 6.7-6.6 13.1-10.3 19.5-1.3 2.1-3.7 3.6-5.6 5.3-.3.3-1.3.2-1.6 0-.6-.5-1.3-1.5-1.1-2.1 1.3-4.2 2.6-8.4 4.3-12.5 9.8-23.3 19.7-46.6 29.4-69.9 3.6-8.7 7.1-17.5 10.1-26.4 5.8-17.3 11.4-34.6 16.9-52 1.7-5.3 3.3-10.7 4.1-16.2 1.9-11.7-.3-15.8-10.5-21.6-10.9-6.2-20.7-5.1-29.8 3.5-7.8 7.4-13.8 16-18 25.9-4.9 11.3-10.3 22.5-15.2 33.8-4.5 10.2-8.7 20.6-12.9 30.9-2.7 6.5-4.9 13.3-7.8 19.7-7 15.6-14.2 31-21.5 46.4-2.5 5.3-5.2 10.6-8 15.7-1 1.8-2.4 3.4-3.9 4.7-.7.6-2.4.7-3.2.2s-1.1-1.9-1.2-3c-.1-.8.4-1.7.8-2.5 7.3-16.4 14.7-32.7 21.8-49.2 4.3-10 8.9-19.9 12.4-30.2 5.5-15.9 12-31.3 19.5-46.3 2.8-5.5 5-11.3 7.4-17 .5-1.3 1.2-2.7-.3-4.3-3.4-.6-6.1 1.4-8.4 3.5-3.4 3.2-6.7 6.6-9.5 10.4-3.7 4.9-8.1 7.2-14.4 6.4-8-1-15.6-2.7-22.8-6.4-4.4-2.3-8.9-4.6-13.2-7.1-9.4-5.5-19.4-9.8-29.6-13.8-9.6-3.7-19.2-7.4-28.5-11.9-19.8-9.6-39.5-19.6-60.4-26.9-5-1.8-10.1-3.1-15.2-4.5-8.7-2.3-15.5.4-22 5.8-3.5 2.9-5.2 6.4-4.7 10.8 1.6 12.9 5.3 24.7 16.1 33.2 9 7.1 17.8 14.5 26.6 21.8 10.7 8.7 21.4 17.5 30.5 27.9 4.3 4.8 8.6 9.6 13.1 14.3 4 4.1 7 8.7 9 14 1 2.8 1.9 5.6 3 8.3.5 1.2 1.3 2.3 2.4 4.4 1.8-2.7 3.2-4.4 4.3-6.4 3.6-6.7 7.1-13.6 10.6-20.4 4.3-8.3 11.3-12.9 20.1-16.1 14.6-5.3 35.7 9.3 35.1 25.3-.3 8-1.2 15.8-3.4 23.5-4.1 14.4-8 28.9-12.2 43.3-.8 2.8-2.2 5.4-3.6 8-.6 1.1-2.1 1.7-3.3 2.5-3.6-2.9-3.5-6.4-3.1-9.9.9-8.5 2.4-16.8 5.1-25 3-9.2 5.8-18.5 8.1-28 1.1-4.8 1.5-9.9 1.2-14.8-.6-9.3-11.5-16.7-20.5-14.3-6.2 1.7-11 5.1-14.1 11-6.5 12.5-13.2 24.9-20 37.3-6.7 12.1-13.5 24.1-20.5 36-4.8 8.1-7.3 16.6-7.3 26 0 12.7 5.1 19.8 17.3 23.4 10.4 3 21 5.8 31.6 8.2 7.1 1.6 13.3 4.6 18 10.3 4.5 5.4 9.1 10.8 13.5 16.3 3.5 4.4 7.6 8.2 12.4 11.1 9.4 5.6 19.3 10.1 29.8 13.1 13.9 3.9 28 6.5 42.4 8.1 6.8.7 13.5.8 20.2.4 7-.4 14.1-.9 21.1-1.2 5-.2 10 .2 15-.4 15.5-1.7 29.1-7 37.9-20.9 2.9-4.5 6.4-8.4 11.3-10.9 4.4-2.2 7.3-5.8 8.9-10.5 1-2.8 1.8-5.6 2.9-8.3.8-2.2 1.7-4.4 2.7-6.5.7-1.4 2-2.1 4-.9.2 2 .6 4.3.7 6.6.4 12.3-2.9 22.7-14.3 29.1-1.8 1-3.3 2.5-4.7 4-.9 1-1.3 2.4-2.2 4.4 2.6.4 4.6.8 6.5 1 5.6.4 11.3.1 16.7 1.2 18.2 3.7 36.3 2.5 54.3-.6 13.5-2.3 15-4 17.5-17 2.2-11.1 1.9-22.2.2-33.3-2.2-13.7-5.6-27.1-11.5-39.7-6.1-13.2-14-25.2-23-36.5-5.3-6.9-11.9-12.3-20.1-17.1zm66.5 112.9c4.7-6.2 5.3-12.9 5.7-19.5.9-13.6-1.2-26.9-4.1-40.2-.9-4.3-2.4-8.5-4.2-12.5-6.4-14-14.6-26.8-27.3-36.1-2.4-1.7-4.4-3.8-6.7-5.7-6.6-5.6-14.4-8.9-22.3-12.2-.6-.3-2.1.2-2.3.6-.4.9-.7 2.6-.2 3.1 1.8 1.9 3.9 3.5 6.1 5 8.8 6.1 16.2 13.4 22.6 22 12.5 17 22.2 35.2 27.4 55.7 2.8 10.9 5 21.7 4.6 33 .1 2.3.5 4.5.7 6.8zm-316.9 5.2c-.5 9.4-3.6 17.1-3.3 25.4 1.5.5 2.6 1.1 3.7 1.1 7.6.3 15.2.6 22.9.8.4 0 .8-.7 1.6-1.5-2.7-2.6-5.5-5.1-8-7.8-2.6-2.8-4.9-5.9-7.4-8.8-2.3-2.9-4.2-6.3-9.5-9.2z"/><g fill="#fff"><path d="m1469.6 1002.7c-.9 1.9-1.1 3.5-2 4.2-1.8 1.4-4 2.4-6.1 3.5-11.3 6.3-22.6 12.6-33.9 18.9-6.7 3.7-13.4 7.4-20 11.1-22.3 12.5-44.9 24.5-66.9 37.6-19.2 11.5-37 25-52.1 41.8-7.8 8.8-16.5 16.7-24.7 25.2-17 17.6-32.8 36.2-47.6 55.6-19.4 25.5-40.6 49.6-63 72.6-7.6 7.8-16 14.7-25.4 20.4-6.3 3.8-12.9 7-20 9.2-8.1 2.5-16.1 5.6-24.2 8.4-7.3 2.6-14.7 4.2-22.5 3.6-2.6-.2-5.3-.3-7.9 0-10.4 1.4-20.5-.8-30.7-2-7.6-.9-14.5-4.6-21.4-8-19.6-9.7-35.6-23.8-49.4-40.5-8-9.8-15.6-19.9-23.4-29.8-2.4-3-4.6-6.1-7-9-10.5-12.4-19.5-25.8-26-40.8-.8-1.9-1.7-3.8-2.8-5.5-11.5-17-19.8-36.1-32.7-52.3-1.6-2.1-3-4.4-4.8-6.3-10.5-11.7-18.4-25.1-26-38.7-2.7-4.9-5.7-9.6-8.3-14.5-8.8-16.4-15.4-33.7-21-51.4-1.4-4.4-1.8-9.2-2.6-13.8-1.9-12.5-3.8-24.9-5.6-37.4-.3-2.3-.2-4.7-.2-7 0-25.3-.4-50.6.2-75.9.3-15.2 1.5-30.5 3.9-45.6.3-2 .7-4.1.8-6.1 1-18.5 3.2-36.9 2.5-55.5-.3-7.3 0-14.7-1.8-21.9-1.3-5.6.3-10.4 3.9-14.7 4.6-5.5 9.7-7.1 16.5-5 1.7.5 3.3 1.3 4.8 2.1 1 .5 1.9 1.3 2.6 1.9 1 3.3-1 5.4-1.9 7.8-3.9 9.8-5.2 19.8-2.9 30.3 1.3 6.2 4.1 11.7 7.8 16.7 3.6 4.9 8.5 8.1 14.6 9.2 6.4 1.2 12.9 1.4 19.3.6 11.6-1.4 18.1-10.6 15.5-22-1-4.2-2.8-8.4-5-12.2-11.4-19.3-27.7-33.5-47.6-43.3-9.5-4.7-19.4-4.6-28.2 2.5-1.1.9-2.4 1.5-4 2.5-1-1.5-2-2.6-2.5-3.8-6-14-12-28.1-17.9-42.2-1.3-3.2-2.8-6.3-3.1-10.4 2.1 0 3.5-.2 4.9 0 7.5 1.5 14.7 4.1 21.3 8.2 8.5 5.3 17.1 10.3 25.7 15.4 1.5.9 3.1 1.8 4.7 2.2 2.2.7 4.8-2.3 3.9-4.5-.7-1.6-1.6-3.3-2.9-4.3-5-4.1-10-8.2-15.4-11.7-11.6-7.6-24-13.3-37.6-16.9-13.3-3.5-11.1-1.1-15.9-14.7-3.9-11.1-8.3-22-12.5-33-.6-1.6-1.4-3.3-1.8-5-7.9-27.1-16.1-54.2-19-82.4-1-9.4-1.7-18.7-2.5-28.1-.1-1.5-.3-3 0-4.4 1.9-7.3 1.1-14.6.9-21.9-.1-3.2.1-6.5.5-9.7 3-21.6 8.3-42.7 14.3-63.6 2.8-9.6 7.4-18.6 12-27.4.4-.7 1.2-1.1 2.4-2.2.8 1.4 1.7 2.5 2 3.7 1.4 7.5 2.6 15.1 4 22.6 6.3 32.5 21.2 60.9 42.3 86.1 4.3 5.2 9.1 10.1 13 15.5 9.2 12.6 21.3 20.9 35.9 25.8 10.6 3.5 21.4 6.3 32.5 8.1 9 1.4 18 3 26.9 4.9 13.6 2.9 27.2 4.5 41.1 2.8 7.5-.9 15.3-.4 22.9-.3 7.7.1 15.3-.6 22.8-2.3 12.3-2.9 24.6-5.8 36.4-10.4 6.8-2.6 14-4.7 21.1-6.1 7.6-1.5 14.7-4.3 21.2-8.3s12.9-8.2 19.5-12c12.9-7.6 25.8-15.2 38.9-22.6 7.2-4.1 15.1-6.6 23.1-8.4 9.5-2.1 18.9-4.3 28.3-6.8 7.9-2.1 15.5-2 23.4.3 10.2 3 19.9 7.1 29.1 12.4 2.5 1.5 5.1 3 7.2 5.1 17.7 17.5 30.1 37.6 30.4 63.5.2 11.2.5 22.3.5 33.5 0 9.9 2.4 19.1 6.5 28.1 6.4 14 14.7 26.8 24.8 38.4 7.5 8.5 16.1 15.4 26.6 19.9 11.6 5 23.1 10.2 34.7 15.2 12.8 5.5 19.2 15.7 21.8 29 1.1 5.8-.1 11.2-1.9 16.4-3.8 10.8-7.7 21.6-12.1 32.2-5.8 14-9.6 28.4-11.8 43.3-2.1 14.3 1.6 27.5 8.4 39.9 3.9 7.1 10.6 11.9 17.9 15.2 5.2 2.4 10.8 2.6 16.4.9 7.6-2.4 14.9-5.6 21.2-10.6 6.4-5.1 12.8-10.4 18.9-15.9 5.7-5.1 10.6-11 14.5-17.7 2.6-4.3 5.4-8.4 8.1-12.6 10.5-16.6 23.5-30.8 39.4-42.4 4.3-3.1 8.2-6.7 12.2-10.1 5.9-5 12.3-9 19.6-11.6 3.3-1.2 6.5-2.7 9.8-4 8.2-3.3 16.6-5.9 25.5-6.4 3.5-.2 7-.9 10.5-1.4 9.9-1.5 18.7 1 26.5 7.1 7.2 5.6 13.9 11.6 19 19.4 5.2 8 6.9 16.6 7.6 25.9 1.4 20.1-3.2 39.1-10.6 57.6-8.9 22.2-19.7 43.4-33.2 63.1-8.1 11.9-16.8 23.4-24.6 35.5-6.7 10.5-16.1 17.7-26.7 23.7-6.4 3.7-12.8 7.3-19 11.1-3.2 2-6.5 4.1-9.2 6.7-8 7.5-17.9 11.2-27.9 14.5-5 1.6-10.2 2.9-15.3 4.2-8.8 2.2-17.4 2.2-25.8-1.9-4-1.9-8-3.7-12-5.5-3.6-1.7-6.1-4.4-7.8-8-4.8-10.4-9.7-20.8-14.5-31.2-.8-1.7-1.8-3.2-3.9-2.8-1.9.3-3.9 2.5-3.6 4.4.3 2.6.8 5.3 1.8 7.7 3.7 9 7.5 17.9 11.3 26.8 1.9 4.4 4.6 8.3 8.9 10.6 9 4.9 18.1 9.9 28.5 11.2 3.2.4 6.4.4 9.7.6 1.4.1 2.8.2 5 .3zm-559 51.5c0-.1 0-.2 0-.3-2.4 0-4.7-.2-7 0-5.9.6-9.5 4.6-9.5 10.7 0 2 .4 4.1.8 6.1 1.7 9.6 3.4 19.1 5.1 28.6 1.7 8.9 3.5 17.9 5.2 26.8 1.4 7.1 5.8 11.6 12.4 13.8 10.3 3.4 20.8 6.2 31.3 9.2 1.1.3 2.3.3 3.5.5 7 1.1 14 1.9 20.9 3.4 9 1.9 17.9 3.2 27.1 2.9 3.5-.1 7 .3 10.6.5 8.9.6 17.6-.3 26.1-3.3 4.7-1.6 6.5-4.8 5.7-9.6-.5-2.9-1.4-5.7-2.6-8.4-3.3-7.9-8.5-14.7-13.9-21.3-14.5-17.9-32.4-32.4-49.3-47.9-7.3-6.7-16-9.5-25.7-9.8-13.8-.5-27.2-1.3-40.7-1.9zm145.3-298.9c0 4 .1 7.1 0 10.3-.4 11.1 2 21.6 6.6 31.6 1.2 2.6 2.6 5.3 4.6 7.4 11.1 11.3 24.6 12.7 39.1 8.8 2.7-.7 5.5-2.4 7.6-4.3 8.1-7.4 15.4-15.4 18.4-26.4.5-1.8 1.4-3.5 2.4-5.9 1.7 1.4 3 2.2 3.8 3.2 2.4 3 4.5 6.1 6.9 9.1 1.3 1.6 2.7 3.1 4.3 4.3 2 1.6 4.9.1 5.3-2.4.4-2.7-.3-5.2-1.6-7.6-6.4-11.6-15-21-27.1-26.8-2.6-1.3-5.3-2.4-8-3.7-23.3-10.8-47.7-11.7-72.4-7.5-4.6.8-8.9 2.9-13.3 4.6-2.7 1.1-5 3.1-6.1 6-1.1 2.7 1.1 5.8 3.9 5.3 2-.4 3.9-1.3 5.7-2.1 6-2.4 12.1-4.2 19.9-3.9zm44.8-87.9c-7.2.1-14.1 1.4-20.9 3.3-3.7 1.1-7.4 2.1-11.2 2.5-14.3 1.3-27.2 7.2-40.4 12.1-1.9.7-3.6 2-5 3.4-1.3 1.3-1.9 3.3-.6 4.8.8 1 2.5 1.9 3.7 1.8 2.9-.3 5.7-1.1 8.5-2 9.6-2.8 19-6.5 28.7-8.3 8.7-1.6 17.3-3.3 25.9-5.2 14.3-3 28-.4 41.3 5 12.2 8.6 27.2 12.9 37.6 24.2 2 2.1 4.8 3.3 7.9 3.4 2.4 0 4.7-2.4 4-4.7-.6-1.9-1.5-3.9-2.9-5.3-5.6-5.6-11.5-10.9-18.7-14.5-6-3.1-12-6.3-17.7-9.9-12.2-7.7-26.1-9.5-40.2-10.6z"/><path d="m1606.5 205.2c1.9 13.7 8.8 25.2 14.9 36.9 4.5 8.6 10.1 16.5 15.5 24.6 7.3 11 14.8 22 22.4 32.8 2.5 3.6 5.7 6.7 8.6 10 1.6 1.7 3.4 3.2 4.9 4.7.1 1.2.4 2.1.2 2.9-2.8 15.9-1.8 31.6 1.4 47.3 2.9 14.1 6.2 28.1 9 42.3 2.8 13.8 5.3 27.7 7.7 41.6 4 23 11.2 45.1 19.2 66.9 3.3 9.1 6.5 18.3 8.1 27.9s3.9 19 5.1 28.6c3.3 26.3 4.8 52.7 3 79.2-.8 11.7-2.9 23.3-4.5 35-.6 4.7-1.6 9.3-2.1 14-1.2 10.9-4.9 21.2-8.6 31.4-1.6 4.4-3.2 8.8-4.6 13.3-3.8 11.8-7.4 23.6-11.3 35.3-1 3.1-2.2 6.1-3.7 9-10.7 21.3-20.9 42.8-34.4 62.6-6.5 9.5-13.3 18.8-21.8 26.6-10.2 9.3-20.8 18.2-31.2 27.3-1.3 1.1-2.7 1.9-5.4 3.8.8-2.5.9-3.7 1.4-4.5 5.2-8.2 10.7-16.2 15.6-24.6 13.3-23 24.6-47 30.6-73 3.8-16.5 3.9-33.3.4-49.9-1.3-6.2-4.7-11.4-8.1-16.5-7.6-11.2-17.4-19.8-29.4-26-5.3-2.7-11-4.4-17-4-11.5.7-23 1.4-34 4.9-10.9 3.5-21.4 8.2-31.9 12.7-3.5 1.5-6.6 3.9-9.6 6.2-8.1 6.4-16 13-23.9 19.5-9.4 7.7-17 17.1-24.4 26.6-6.3 8.1-11.8 16.8-17.9 25.1-3.5 4.7-7 9.5-11.3 13.5-6.2 5.9-12.6 11.5-19.6 16.5-4.7 3.4-10.3 5.6-15.7 7.9-5.3 2.2-10.3.8-14.9-2.6-6.2-4.5-10-10.3-12.6-17.5-4.5-12.6-3.2-25 0-37.3 2.3-9.1 5.5-18 8.6-26.8 3.7-10.2 7.8-20.3 11.6-30.5 2-5.3 3.2-10.7 3.1-16.4-.1-20.5-9.1-35.5-27.7-44.4-9.6-4.5-19.3-8.8-29.1-12.6-13.9-5.4-24.8-14.2-33.9-25.8-7.7-9.8-13.9-20.4-19.1-31.6-3.1-6.7-4.8-13.8-4.7-21.4.1-8.5.3-17.1-.1-25.6-.4-8.2-.9-16.5-2.2-24.6-2.4-14.9-9.2-27.8-18.3-39.6-3.1-4-6.2-7.8-9.7-11.5-2.6-2.8-5.4-5.5-8.6-7.6-13.1-8.8-27.4-14.9-42.8-18.1-7.3-1.5-14.6-.8-21.8 1.2-9.4 2.5-18.8 5-28.3 6.9-12.9 2.6-24.6 7.9-35.8 14.5-14.7 8.7-29.3 17.5-43.8 26.4-8.3 5.1-17 9.1-26.7 11.1-7.7 1.6-15.2 4.5-22.7 6.9-20.2 6.5-40.6 12.1-62.1 11.5-8.5-.2-17 .3-25.6.4-7.7 0-15.2-1.1-22.7-2.6-9.8-2-19.6-3.7-29.5-5.4-14.2-2.5-28.2-5.8-41.4-11.8-6.3-2.9-11.9-6.7-16.2-11.9-10.5-12.7-21.6-24.8-31.1-38.4-15.8-22.6-25.5-47.6-30.6-74.5-1.5-7.8-2.6-15.7-3.9-23.5-1-5.8.2-11 3.4-15.9 8.2-12.6 14.9-26.1 25.5-36.9.6-.6 1.1-1.4 1.6-2.1 12.2-18.6 28.8-33.3 44.5-48.8 3.7-3.7 8.1-6.9 12.3-10 11.4-8.3 22.4-17.1 32.6-26.9 9.9-9.5 21.9-15.8 33.8-22.1 5.2-2.8 10.4-5.6 15.1-9 5.8-4.1 11.9-7.5 18.2-10.7 7.6-3.9 15.1-7.9 22.4-12.3 24.7-15 50.3-28.1 77.1-39 16.7-6.8 33.7-12.1 51.3-16.1 10-2.3 20.1-4.6 29.9-7.5 17.1-5 34.5-6.8 52.3-6.1 13.8.5 27.6.8 41.4 1.4 14.4.5 28.8 1.3 43.2 1.8 6.8.2 13.5.4 20.3.2 14.2-.4 28.1 2.1 42.1 4 21.6 3 42.7 8.3 63.2 15.6 1.4.5 2.8 1 4.2 1.3 20.5 4.8 39.6 13.1 58.6 21.8 8.3 3.8 16 8.8 24 13.1 12.2 6.5 24.3 13.1 36.8 19.1 13 6.2 26.2 12 39.5 17.4 5.7 2.3 11.8 3.6 17.8 5.1 11 2.2 21.9 4.6 33.9 7.3z"/><path d="m1720 199c3.7-5.7 8.3-9.7 13.7-12.7 7.2-4.1 14-8.7 20.8-13.2 10.8-7.2 22.8-12.2 35.2-16.2 12.1-3.9 24.5-6.2 37.1-7.6 7.9-.9 15.8-1.6 23.6-2.8 13.7-2.1 27.1-.3 40 4 21 7 40.8 16.7 58.8 29.7 9.5 6.9 19.3 13.6 26.5 23.1 24.3 31.4 48.4 62.9 65.3 99.3 8.8 18.9 18.4 37.5 27.6 56.2 1.7 3.4 3.1 7 4.4 10.6 9.5 25.4 16.7 51.5 22.4 77.9 4.3 19.8 7.6 39.8 11.3 59.8 4.1 22.3 5.6 44.9 7.4 67.5 1.1 13.7.9 27.6.8 41.4-.2 18.8-.4 37.6.6 56.5.7 11.4.5 22.9.1 34.4-.4 13.8-.9 27.6 0 41.5.9 13-.1 25.8-2.2 38.7-1.8 10.8-1.5 21.7 0 32.5 2 14 4.4 27.9 6.8 41.7 3.1 17.7 4.7 35.5 4.9 53.5.2 21.5.5 43 .1 64.4-.3 19.4-2.8 38.7-8.1 57.4-7.7 27.2-16.6 54-28.5 79.6-2.1 4.5-4.2 9.1-6.7 13.4-6.6 11.5-13.3 22.9-20.2 34.2-7.2 11.8-14.4 23.6-22 35.1-7.3 11-15.1 21.7-22.7 32.5-.6.9-1.5 1.5-2.3 2.3-2.3-2.1-1.1-4.1-.7-6 3.6-18.2 7.7-36.2 10.9-54.5 4.5-25.2 9.7-50.2 11.5-75.8.8-10.8.6-21.8.5-32.6 0-2.8-1.1-5.8-2.2-8.4-1.1-2.5-5-2.8-6.8-.7-1.1 1.3-2.1 2.8-2.7 4.4-1.1 3-2.1 6.1-2.9 9.3-4.9 18.3-12.6 35.4-22.6 51.5-7 11.2-13 23.1-20.4 34-7.9 11.7-16.8 22.6-25.4 33.8-.8 1.1-2.1 1.9-3.1 2.7-2.4-1.8-.9-3.4-.5-4.9 3.8-11.5 7.5-22.9 11.4-34.3 3.9-11.5 4.9-23.6 6.9-35.4 2.1-12.5 4.7-24.8 7.2-37.2.7-3.5 1.6-6.9 2.1-10.4.2-1.7.2-3.5-.3-5.2-1-3.6-5.1-4.5-7.7-1.9-1 1-2.1 2.2-2.6 3.5-6.8 17-19 30.3-30.3 44.2-2.4 3-4.8 5.9-7.4 8.7-.9.9-2.3 1.3-3.8 2.1-2.2-3.7-1.2-6.9-.4-9.8 1.7-6.2 3.6-12.5 6-18.4 6.6-16.5 11.3-33.4 14.4-50.8 1.6-9 3.8-17.8 5.6-26.7 3-15 3.8-30.3 4.9-45.6.7-9.1 1.7-18.2 1.6-27.3-.2-23.8-1.1-47.6-5.3-71.2-1-5.8-2.5-11.5-4-17.2-2-8-4.1-15.9-6.1-23.9-2.4-9.5-2.9-19.2-3.9-28.8-.3-2.6-.5-5.3-1-7.9-.5-2.4-1.9-4.4-4.5-4.9-2.7-.5-4.5 1-5.8 3.2-1.3 2.3-2.6 4.6-3.6 7.1-2.6 6.2-4.9 12.6-7.5 18.8-2.9 6.8-5.9 13.5-9 20.1-.6 1.3-1.6 2.3-2.9 4.1-1.3-1.5-2.3-2.3-2.9-3.5-.9-1.8-1.7-3.8-2.2-5.8-3.1-12.9-6.4-25.7-9-38.6-1.2-6-.9-12.3-1.3-18.4-.2-2.6-.1-5.3-.5-7.9-.4-2.2-2-3.6-4.2-4.1-2.3-.4-4 .7-5.2 2.5-.6 1-1 2.1-1.4 3.2-5.4 14.7-10.2 29.5-11.2 45.2-.1.8-.6 1.6-.8 2.3-2 .6-2.7-.9-3.6-2-10.9-13.2-17.2-28.7-21.9-44.9-4.8-16.4-9.4-32.8-13.3-49.4-2.4-10.3-3.9-20.8-5-31.3-1.9-18.4-3.7-36.9-2.9-55.5.1-2.6.2-5.3.7-7.9 2.3-13 4.5-26 5.3-39.3.8-12.9 4.1-25.5 7.2-38.1 2.7-10.8 4.9-21.8 7.4-32.7 2.7-11.8 5.2-23.5 8.2-35.2 2.6-10.3 3.5-20.8 4.2-31.4 1-15.3 2.1-30.5 3.1-45.8 1.2-18 .6-35.9-3-53.6-.6-2.9-1.4-5.7-2.5-8.5-8.7-23.2-19.9-45.2-32.9-66.3-5.7-9.4-13-17.4-22-23.9-6.2-4.5-12.6-8.6-20.4-10.1-.6-.1-1.1-.4-1.7-.5-12.7-3.5-25-8.8-38.8-8.8-3.2-5.2-4.2-11.1-6.6-16.4-2.5-4.7-4.6-9.9-7.1-15.7zm320.8 817c.6-.1 1.2-.2 1.8-.2 0-1.9.3-3.9 0-5.7-.4-2.9-1.2-5.7-1.7-8.6-2.2-11.8-4.3-23.7-6.6-35.5-2.3-11.2-4.9-22.4-5.8-33.9-1.4-19.3-2.8-38.7-3.9-58-.5-8.2-.8-16.5-.7-24.7.2-13.5.7-27 1.1-40.6.1-3.2.2-6.5.3-9.7.3-7 .7-14.1 1.1-21.1.5-10 1-19.9 1.5-29.9.6-11.7 1.8-23.5 1.9-35.2.1-22.4-1.5-44.6-5.7-66.7-2.2-11.5-4.9-23-7.6-34.4-.7-3.1-2.3-6-3.9-8.8-1.3-2.2-4.9-1.5-5.7.9-1.1 3.1-1.5 6.1 1.2 9 1.3 1.4 2.2 3.5 2.6 5.4 1.7 8.6 3.5 17.3 4.7 26 1.9 14.3 3.7 28.6 4.7 42.9 1 14.4 1.2 28.8-.4 43.2-1 9.6-2 19.3-2.4 29-.8 16.7-1.2 33.5-1.8 50.2-.5 11.5-1.2 22.9-1.6 34.3-.2 6.5 0 12.9.3 19.4.7 13.8 1.8 27.6 2.6 41.4 1.1 17.9 1.5 35.9 6.2 53.3 4.8 18.2 10.6 36.1 16 54.1.4 1.4 1.2 2.6 1.8 3.9zm-102.7-512.3h.5c0-4.7-.1-9.4 0-14.1.4-24-3.9-47.4-9.7-70.5-.5-2.2-1.7-4.3-2.9-6.3-.5-.8-2.3-1.4-3-1.1-1.1.6-2.1 1.9-2.6 3.1-.4 1 .1 2.3.2 3.4 1.2 7.2 2.5 14.5 3.7 21.7 2.1 12.8 4.1 25.5 4.2 38.5.1 12.6-.2 25.3 0 37.9.2 13-1.1 25.8-3.7 38.5-2.1 10.4-3.9 20.8-5.1 31.3-2.3 20.2-5.8 40.1-11 59.7-2.5 9.4-4.5 18.8-6.6 28.3-.6 2.5-.8 5.2-.6 7.8.1 1.2 1 2.8 2.1 3.5 1.7 1.1 3.6.2 4.6-1.3 1.5-2.1 2.8-4.5 3.6-6.9 1.4-4.5 2.3-9.1 3.4-13.7 5-19.9 10.4-39.9 12.9-60.3 2.5-20.7 5.8-41.3 9.5-61.8.4-2 .5-4.1.5-6.1.1-10.5-0-21.1-0-31.6z"/><path d="m1053.4 1327.4c-.5 1.1-.6 1.7-.9 2.1-12.1 15.7-21.2 33.1-30.2 50.6-5.6 11-2.9 9.8-16.8 15.1-11.3 4.2-22.7 8-34.1 12-10.3 3.6-20.7 6.5-31.5 8.1-9.9 1.5-19.6 3.6-29.5 5.3-8.5 1.5-17 .9-25.4-.6-3.1-.6-6.2-1.7-9.2-2.8-5.9-1.9-8.1-6.4-8.1-12.2 0-7.7 1.6-15.2 4.1-22.4 1.8-5.3 3.7-10.5 6.1-15.6 7.3-15.7 14.9-31.3 22.3-47 4.2-9 8.4-18.1 12.2-27.3 4.4-10.7 7.1-21.8 7.4-33.4.1-4.4 1.4-8.4 2.5-13 3.8 1.4 5.1 4.2 6.9 6.4 5.8 7 11.4 14.2 17.2 21.2 9.8 11.8 21.2 22.2 33.8 30.7 10.8 7.4 22.5 13.9 35.5 17.3 3.1.8 6.3 1.7 9.5 2 8.7.9 17.5 1.5 26.3 2.2.4.2.9.7 1.9 1.3z"/><path d="m1094.6 37.5c-5.3 1.9-10 1.1-14.6 1.7-4.9.6-9.9 1.3-14.8 1.9-4.5.6-8.8 2.9-14.1 2.3-.1-1.6-.5-3.1-.3-4.4 1.2-7.3 4.1-14 7.5-20.5 2.5-4.7 6.6-7.4 12.1-7.4 2.9 0 5.9 0 8.7.4 4.6.8 8.2 3.3 10.1 7.6 2.6 5.7 4.3 11.6 5.4 18.4z"/><path d="m1688.2 252.2c-.5 1.4-.8 2.5-1.3 3.5-.6 1.3-2.8 1.8-3.8.8-1.4-1.5-2.8-3-3.7-4.8-2.6-4.9-4.8-10-7.4-14.9-4.7-9.1-9.5-18.1-14.2-27.2-1.1-2.1-2.1-4.2-2.6-6.4-.2-1.1.6-2.9 1.6-3.7 1.4-1.3 3.3-1.1 4.8.1.9.7 1.7 1.6 2.3 2.6 9.2 13.3 16.7 27.5 22.4 42.6.9 2.4 1.3 5 1.9 7.4z"/><path d="m1092.5 66.4c2.1.2 4.2.1 6.2.7.9.2 1.9 1.5 2.1 2.4.2 1-.3 2.8-1 3.1-2.9 1.2-6 2.3-9.1 2.9-4 .8-8.2.7-12.2 1.4-9.5 1.7-19 3.6-28.6 5.4-2.3.4-4.6 1.1-6.9 1.3-.9.1-2.4-.8-2.7-1.5-.3-.9.1-2.3.7-3.2s1.7-1.6 2.8-2.1c1.8-.9 3.7-1.9 5.6-2.5 14-4.5 28.5-6.5 43.1-7.9z"/><path d="m396.5 1718.2c8.3 4.8 14.8 10.2 20.1 16.9 9 11.3 17 23.3 23 36.5 5.8 12.6 9.3 26 11.5 39.7 1.8 11.1 2 22.2-.2 33.3-2.5 13-4.1 14.6-17.5 17-18 3.1-36.1 4.3-54.3.6-5.4-1.1-11.1-.8-16.7-1.2-1.9-.1-3.9-.6-6.5-1 .9-1.9 1.3-3.4 2.2-4.4 1.4-1.5 2.9-3 4.7-4 11.5-6.4 14.8-16.9 14.3-29.1-.1-2.3-.5-4.6-.7-6.6-2.1-1.2-3.3-.5-4 .9-1.1 2.1-1.9 4.3-2.7 6.5-1 2.8-1.9 5.6-2.9 8.3-1.6 4.6-4.5 8.3-8.9 10.5-4.9 2.5-8.4 6.4-11.3 10.9-8.8 14-22.4 19.3-37.9 20.9-4.9.5-10 .1-15 .4-7 .3-14.1.8-21.1 1.2-6.7.4-13.4.4-20.2-.4-14.4-1.6-28.5-4.2-42.4-8.1-10.5-2.9-20.4-7.5-29.8-13.1-4.8-2.9-8.9-6.7-12.4-11.1-4.4-5.5-9-10.9-13.5-16.3-4.7-5.6-10.9-8.6-18-10.3-10.6-2.4-21.1-5.2-31.6-8.2-12.2-3.5-17.3-10.7-17.3-23.4 0-9.3 2.6-17.9 7.3-26 7-11.9 13.8-23.9 20.5-36 6.8-12.4 13.5-24.8 20-37.3 3.1-5.9 7.9-9.4 14.1-11 9-2.4 19.9 5 20.5 14.3.3 4.9 0 10.1-1.2 14.8-2.3 9.4-5.1 18.7-8.1 28-2.6 8.2-4.2 16.5-5.1 25-.4 3.5-.5 7 3.1 9.9 1.2-.9 2.7-1.4 3.3-2.5 1.5-2.5 2.8-5.2 3.6-8 4.2-14.4 8.1-28.9 12.2-43.3 2.2-7.7 3.1-15.5 3.4-23.5.6-16-20.5-30.6-35.1-25.3-8.7 3.2-15.7 7.8-20.1 16.1-3.5 6.8-7 13.6-10.6 20.4-1.1 2-2.5 3.8-4.3 6.4-1.2-2-2-3.1-2.4-4.4-1.1-2.7-2-5.5-3-8.3-1.9-5.3-5-9.9-9-14-4.5-4.6-8.9-9.4-13.1-14.3-9.2-10.4-19.8-19.2-30.5-27.9-8.9-7.3-17.6-14.7-26.6-21.8-10.8-8.5-14.5-20.3-16.1-33.2-.5-4.4 1.2-8 4.7-10.8 6.5-5.3 13.3-8.1 22-5.8 5.1 1.4 10.2 2.7 15.2 4.5 20.9 7.3 40.5 17.3 60.4 26.9 9.2 4.5 18.9 8.2 28.5 11.9 10.2 3.9 20.1 8.3 29.6 13.8 4.3 2.5 8.8 4.8 13.2 7.1 7.2 3.7 14.8 5.4 22.8 6.4 6.3.8 10.7-1.5 14.4-6.4 2.8-3.7 6-7.2 9.5-10.4 2.3-2.1 5-4 8.4-3.5 1.5 1.6.8 3 .3 4.3-2.4 5.7-4.6 11.5-7.4 17-7.6 15-14 30.4-19.5 46.3-3.5 10.3-8.1 20.2-12.4 30.2-7.2 16.4-14.5 32.8-21.8 49.2-.4.8-.9 1.7-.8 2.5.1 1.1.4 2.5 1.2 3 .7.5 2.5.4 3.2-.2 1.5-1.3 2.9-2.9 3.9-4.7 2.8-5.2 5.5-10.4 8-15.7 7.2-15.4 14.5-30.9 21.5-46.4 2.9-6.4 5.1-13.2 7.8-19.7 4.2-10.3 8.4-20.7 12.9-30.9 4.9-11.3 10.4-22.4 15.2-33.8 4.3-9.9 10.2-18.5 18-25.9 9.1-8.6 18.9-9.7 29.8-3.5 10.2 5.8 12.4 9.9 10.5 21.6-.9 5.5-2.4 10.9-4.1 16.2-5.5 17.4-11 34.7-16.9 52-3 8.9-6.5 17.7-10.1 26.4-9.7 23.4-19.6 46.6-29.4 69.9-1.7 4.1-3 8.3-4.3 12.5-.2.5.6 1.5 1.1 2.1.3.3 1.3.3 1.6 0 2-1.7 4.4-3.2 5.6-5.3 3.7-6.3 7.3-12.8 10.3-19.5 4.8-10.4 9-21.1 13.6-31.6 5.3-12.4 10.8-24.8 16.1-37.3 1.4-3.2 2.6-6.6 3.7-9.9 7.1-21.5 14-43 21.4-64.5 4.6-13.4 11.2-25.8 20.3-36.9 4.2-5 9-7.5 15.3-7 4.4.4 8.7 1.1 13 2.2 8.2 2.1 10.2 9.2 10.1 15.6 0 1.4-.5 2.9-.8 4.3-4.9 21.2-9.4 42.5-14.7 63.6-6.6 26.5-13.7 52.9-21 79.3-1.9 6.8-5.1 13.2-7.7 19.7-1.3 3.3-2.9 6.4-4.1 9.8-.5 1.3-.6 2.9-.4 4.3.2 1 1.1 2.2 2 2.6.9.3 2.5 0 3.2-.6 1.2-1.2 2.2-2.7 3-4.3 6.2-11.7 11.4-23.8 14.8-36.7 5.8-21.9 12.2-43.6 18.1-65.5 2.5-9.1 4.3-18.3 6.5-27.5 2.2-9.4 4.6-18.9 6.8-28.3 1.6-7.2 3-14.4 4.4-21.6.3-1.6 1.3-2.8 2.9-2.9 1.3 0 3.1.4 3.9 1.4 1.1 1.3 1.8 3.1 2.1 4.8 2 12.8 2.3 25.7 1.1 38.7-2.8 29-8.6 57.6-12.6 86.4-1.9 14-3.2 28-4.8 42.1-.8 7.3-1.9 14.6-2.7 21.9-.2 2.3-.1 4.7.5 6.9.4 1.7 2.1 3 4.1 2.6 1.3-.3 2.9-1.1 3.6-2.1 1-1.7 1.5-3.8 2-5.8 2.3-11.3 3.1-22.7 4-34.1.9-10.5 2.5-21 3.8-31.5.2-.9.9-1.9 1.9-3.9z"/><path d="m463 1831.1c-.2-2.3-.6-4.5-.5-6.8.4-11.3-1.9-22.1-4.6-33-5.2-20.6-14.9-38.7-27.4-55.7-6.4-8.6-13.8-15.9-22.6-22-2.2-1.5-4.2-3.1-6.1-5-.5-.5-.2-2.2.2-3.1.2-.5 1.7-.9 2.3-.6 7.9 3.3 15.7 6.6 22.3 12.2 2.2 1.9 4.3 4 6.7 5.7 12.7 9.4 20.9 22.1 27.3 36.1 1.8 4 3.3 8.2 4.2 12.5 2.8 13.2 5 26.6 4.1 40.2-.6 6.7-1.2 13.4-5.9 19.5z"/><path d="m146.1 1836.3c5.2 2.9 7.1 6.3 9.5 9.2 2.5 2.9 4.8 6 7.4 8.8 2.5 2.7 5.3 5.2 8 7.8-.9.8-1.3 1.5-1.6 1.5-7.6-.2-15.3-.4-22.9-.8-1.1 0-2.2-.6-3.7-1.1-.2-8.4 2.9-16 3.3-25.4z"/></g><path d="m910.6 1054.2c13.5.6 27 1.4 40.5 1.8 9.8.3 18.4 3.2 25.7 9.8 16.9 15.5 34.8 29.9 49.3 47.9 5.4 6.7 10.6 13.4 13.9 21.3 1.1 2.7 2.1 5.5 2.6 8.4.8 4.8-1.1 8-5.7 9.6-8.4 3-17.2 3.9-26.1 3.3-3.5-.2-7-.7-10.6-.5-9.2.3-18.1-1-27.1-2.9-6.9-1.4-13.9-2.3-20.9-3.4-1.2-.2-2.4-.2-3.5-.5-10.4-3-21-5.9-31.3-9.2-6.5-2.1-11-6.7-12.4-13.8-1.7-8.9-3.5-17.9-5.2-26.8-1.8-9.5-3.5-19.1-5.1-28.6-.4-2-.8-4.1-.8-6.1 0-6.1 3.6-10 9.5-10.7 2.3-.2 4.7 0 7 0 .2.2.2.3.2.4zm94.9 90.9c.3-4.2-1.7-6.6-2.8-9.2-2-4.9-5.4-6.9-11-6.7-8.8.4-17.6.2-26.4-.3-10-.6-19.5-3.8-29.2-6.3-1.3-.3-2.7-.2-4.8-.3v6.5c0 3.1 1.8 4.9 4.6 5.6 6.2 1.7 12.3 4.1 18.7 4.9 10.8 1.4 21.4 3.7 32 5.7 6.1 1.2 12.2 1 18.9.1z"/><path d="m1055.9 755.3c-7.8-.3-13.9 1.5-19.9 4.1-1.9.8-3.8 1.7-5.7 2.1-2.8.5-5-2.6-3.9-5.3 1.2-2.9 3.4-4.9 6.1-6 4.3-1.8 8.7-3.9 13.3-4.6 24.8-4.1 49.2-3.2 72.4 7.5 2.7 1.2 5.4 2.4 8 3.7 12.1 5.8 20.7 15.2 27.1 26.8 1.3 2.4 2 4.8 1.6 7.6-.4 2.5-3.2 4-5.3 2.4-1.6-1.2-3.1-2.7-4.3-4.3-2.4-3-4.6-6.1-6.9-9.1-.9-1.1-2.1-1.8-3.8-3.2-1 2.4-1.9 4.1-2.4 5.9-3 11-10.3 19-18.4 26.4-2.1 1.9-4.9 3.5-7.6 4.3-14.5 3.9-28 2.5-39.1-8.8-2-2-3.4-4.8-4.6-7.4-4.6-10-7-20.5-6.6-31.6.1-3.4 0-6.6 0-10.5z"/><path d="m1100.7 667.4c14.1 1.1 27.9 2.9 40.3 10.7 5.7 3.6 11.7 6.8 17.7 9.9 7.2 3.7 13.1 8.9 18.7 14.5 1.4 1.4 2.3 3.4 2.9 5.3.7 2.3-1.5 4.7-4 4.7-3.1 0-5.9-1.2-7.9-3.4-10.5-11.3-25.5-15.6-37.6-24.2-13.3-5.4-27-8.1-41.3-5-8.6 1.8-17.2 3.6-25.9 5.2-9.8 1.8-19.2 5.5-28.7 8.3-2.8.8-5.6 1.6-8.5 2-1.2.1-2.8-.8-3.7-1.8-1.3-1.5-.7-3.5.6-4.8 1.4-1.4 3.2-2.7 5-3.4 13.2-4.9 26-10.9 40.4-12.1 3.8-.3 7.5-1.4 11.2-2.5 6.8-2 13.7-3.3 20.8-3.4z"/><path d="m2040.8 1016c-.6-1.3-1.5-2.5-1.9-3.8-5.4-18-11.2-35.9-16-54.1-4.6-17.4-5.1-35.4-6.2-53.3-.8-13.8-1.8-27.6-2.6-41.4-.3-6.5-.5-12.9-.3-19.4.4-11.5 1.1-22.9 1.6-34.3.7-16.7 1-33.5 1.8-50.2.5-9.7 1.4-19.4 2.4-29 1.6-14.4 1.4-28.8.4-43.2s-2.8-28.7-4.7-42.9c-1.1-8.7-2.9-17.4-4.7-26-.4-1.9-1.3-4-2.6-5.4-2.7-2.9-2.2-5.9-1.2-9 .8-2.4 4.5-3.1 5.7-.9 1.6 2.8 3.1 5.7 3.9 8.8 2.7 11.4 5.4 22.9 7.6 34.4 4.1 22 5.8 44.3 5.7 66.7-.1 11.7-1.2 23.5-1.9 35.2-.5 10-1 19.9-1.5 29.9-.4 7-.7 14.1-1.1 21.1-.2 3.2-.2 6.5-.3 9.7-.4 13.5-.9 27-1.1 40.6-.1 8.2.2 16.5.7 24.7 1.2 19.4 2.6 38.7 3.9 58 .8 11.5 3.5 22.6 5.8 33.9 2.4 11.8 4.4 23.7 6.6 35.5.5 2.9 1.3 5.7 1.7 8.6.3 1.9 0 3.8 0 5.7-.5-.1-1.1-0-1.7.1z"/><path d="m1938.1 503.7v31.7c0 2-.2 4.1-.5 6.1-3.7 20.5-6.9 41.1-9.5 61.8-2.5 20.5-7.9 40.4-12.9 60.3-1.1 4.6-2.1 9.2-3.4 13.7-.8 2.5-2.1 4.8-3.6 6.9-1 1.5-3 2.4-4.6 1.3-1-.7-2-2.3-2.1-3.5-.1-2.6.1-5.3.6-7.8 2.1-9.5 4.1-19 6.6-28.3 5.2-19.6 8.7-39.6 11-59.7 1.2-10.5 3-21 5.1-31.3 2.6-12.7 3.9-25.5 3.7-38.5-.2-12.6.1-25.3 0-37.9-.1-13-2.1-25.8-4.2-38.5-1.2-7.2-2.5-14.5-3.7-21.7-.2-1.1-.6-2.5-.2-3.4.5-1.2 1.5-2.5 2.6-3.1.7-.3 2.5.3 3 1.1 1.2 1.9 2.4 4.1 2.9 6.3 5.7 23.2 10.1 46.5 9.7 70.5-.1 4.7 0 9.4 0 14.1-.1-.1-.3-.1-.5-.1z"/><path d="m1005.5 1145.1c-6.7.9-12.8 1-18.9-.1-10.7-2-21.2-4.3-32-5.7-6.3-.8-12.5-3.2-18.7-4.9-2.8-.8-4.6-2.5-4.6-5.6 0-2 0-4 0-6.5 2 .1 3.5 0 4.8.3 9.6 2.6 19.2 5.8 29.2 6.3 8.8.5 17.6.7 26.4.3 5.6-.3 9 1.8 11 6.7 1.1 2.6 3.1 5 2.8 9.2z" fill="#fff"/></svg>
