<svg xmlns="http://www.w3.org/2000/svg" viewBox="0 0 3000 3000" width="3000" height="3000"><g transform="translate(336.0 80.39999999999999) rotate(0.0 1162.8 1422.0) scale(1.1996644901167992 1.1999468377983253)"><svg width="1938.542" height="2370.105" viewBox="0 0 1938.542 2370.105"><path d="M372.666 1901.542c-1.052 2.173-1.96 3.5-2.364 4.965-8.965 32.567-15.006 65.707-19.1 99.207-2.16 17.68-4.006 35.398-5.899 53.109-.405 3.787-.544 7.618-.554 11.429-.048 19.743.013 39.486-.031 59.229-.01 4.453-.046 8.93-.481 13.356-2.185 22.247-1.276 44.556-.943 66.814.376 25.117 1.907 50.218 3.101 75.319.317 6.664 1.354 13.29 1.855 19.949.453 6.023.791 12.066.885 18.104.179 11.459.197 22.923.151 34.383-.007 1.825-.694 3.648-1.173 5.989-3.292.424-6.401.996-9.534 1.191a378.75 378.75 0 0 1-17.179.698c-44.257.738-88.516 1.331-132.77 2.163-41.071.773-82.135 1.85-123.206 2.636-7.305.14-14.624-.514-21.937-.75-4.1-.133-6.599-2.325-7.457-6.136-3.275-14.558-8.261-28.74-8.763-43.904-.359-10.836-3.246-21.353-5.413-31.941-2.295-11.215-4.458-22.459-6.949-33.631-2.867-12.861-2.358-25.955-3.17-38.961-.396-6.344-.966-12.679-1.596-19.005-1.101-11.075-2.297-22.14-3.477-33.207-.506-4.742-.875-9.51-1.647-14.21-2.179-13.255-1.849-26.652-2.553-39.993-.318-6.029-1.147-12.029-1.647-18.05-.369-4.439-.831-8.892-.817-13.337.043-14.007.06-28.021.568-42.015.218-6.005 1.651-11.962 2.477-17.948.956-6.928 1.974-13.85 2.746-20.799 1.42-12.777 6.253-24.615 9.801-36.815 7.55-25.963 15.115-51.925 22.276-77.997 3.375-12.287 4.927-24.966 5.685-37.699 1.248-20.956 1.898-41.963 3.784-62.86 1.436-15.916.676-31.816 1.409-47.698.967-20.959 1.847-41.945 5.061-62.738 1.019-6.592 2.172-13.226 2.364-19.867.279-9.632 2.242-18.937 4.241-28.252 3.069-14.306 6.157-28.615 9.674-42.814 2.215-8.939 4.923-17.787 7.94-26.492 10.759-31.042 19.275-62.602 23.582-95.249 2.371-17.971 5.161-35.873 6.496-53.979 1.991-26.983 5.676-53.77 10.219-80.44.64-3.759 1.002-7.566 1.467-11.354 1.397-11.392 3.484-22.617 6.976-33.597 1.729-5.436 2.534-11.161 3.847-16.734 9.627-40.884 19.353-81.752 32.745-121.609 3.945-11.74 9.018-23.1 13.544-34.647 1.626-4.147 3.542-8.23 4.67-12.514 3.605-13.705 9.924-26.169 17.214-38.154 10.249-16.847 20.156-33.94 33.022-49.041 5.403-6.342 11.376-12.019 18.339-16.618 1.59-1.05 3.151-2.181 4.852-3.019 4.843-2.386 9.925-4.334 14.601-7.001 14.974-8.54 30.78-15.291 46.56-22.103 16.365-7.065 32.642-14.294 48.68-22.106 13.721-6.683 27.866-12.471 42.531-16.962 16.726-5.122 33.173-11.109 50.206-15.299 6.418-1.579 12.462-4.731 18.622-7.296 5.286-2.2 10.382-4.902 15.761-6.823 11.719-4.184 23.055-9.161 34.136-14.816 6.506-3.32 13.409-5.851 19.997-9.02 7.73-3.718 15.334-7.703 22.956-11.642 27.833-14.385 53.256-32.423 77.973-51.524 7.069-5.463 14.367-10.5 22.542-14.252 3.995-1.833 7.671-4.361 12.047-6.896-1.316-1.771-2.047-3.136-3.119-4.134-7.681-7.158-15.416-14.257-23.165-21.342-4.523-4.136-8.11-8.961-10.807-14.447-3.369-6.852-6.741-13.704-10.03-20.595-6.304-13.208-12.765-26.346-18.774-39.688-11.634-25.834-22.606-51.947-31.18-78.99-1.921-6.059-3.69-12.197-5.014-18.408-4.243-19.903-9.222-39.67-11.585-59.937-.295-2.529-.786-5.076-.706-7.6.275-8.688-1.451-17.115-3.136-25.536-4.255-21.257-6.588-42.721-7.654-64.363-.563-11.435-1.552-22.859-2.683-34.255-1.547-15.586-1.236-31.079.231-46.683 2.062-21.928 6.619-43.39 10.726-64.948 1.973-10.355 5.371-20.271 9.562-29.956 7.244-16.741 16.375-32.373 27.254-46.973 3.414-4.582 7.407-8.732 11.142-13.075 1.637-1.903 3.289-3.793 5.486-6.325-1.859-.875-3.095-1.918-4.379-1.982-5.07-.252-10.156-.159-15.234-.271-2.524-.056-5.116.041-7.548-.507-3.02-.681-3.789-4.85-1.428-6.875a15.061 15.061 0 0 1 3.166-2.081c6.363-3.106 11.869-7.431 17.107-12.095 10.405-9.264 22.042-16.166 35.771-19.215.611-.136 1.203-.418 1.756-.72.254-.139.391-.491.931-1.22-1.308-.695-2.48-1.701-3.795-1.952-6.542-1.25-13.121-2.312-19.691-3.415-1.867-.314-3.826-.301-5.606-.866-3.014-.956-3.818-4.851-1.546-6.99a15.25 15.25 0 0 1 3.07-2.235c6.688-3.68 13.198-7.779 20.161-10.846 16.323-7.189 33.148-13.078 50.397-17.688 12.523-3.347 25.288-2.276 38.009-1.978 2.164.051 4.33.007 6.288.007 1.097-1.867-.01-2.739-.992-3.407-4.204-2.864-8.306-5.941-12.76-8.359-8.109-4.402-16.391-8.497-24.698-12.522-7.751-3.756-15.784-6.757-24.265-8.537-4.999-1.049-7.178-2.957-6.662-5.376.838-3.924 4.185-4.544 7.363-4.849 8.861-.851 17.737-1.992 26.618-2.096 18.464-.217 36.946-.182 55.402.378 25.325.768 49.841 6.066 73.676 14.605 3.195 1.145 6.207 3.138 10.633 2.922-.806-1.684-1.13-2.862-1.829-3.744-13.685-17.284-28.53-33.417-46.696-46.155-3.374-2.366-7.079-4.259-10.624-6.383-3.152-1.888-4.433-3.951-3.705-5.918.868-2.345 3.748-3.304 7.477-2.175 4.26 1.289 8.418 2.911 12.668 4.234 23.461 7.301 46.152 16.466 67.975 27.78 18.752 9.721 36.055 21.535 51.896 35.501 1.172 1.033 2.407 1.995 3.615 2.993 1.78-1.834.564-3.259-.249-4.425-4.001-5.739-8.182-11.352-12.2-17.079-1.634-2.329-3.277-4.716-4.44-7.292-1.327-2.94.543-5.869 3.71-6.363 3.548-.554 6.996-.189 10.224 1.475 5.088 2.624 10.417 4.888 15.182 8.009 18.631 12.204 37.438 24.159 54.253 38.942 7.402 6.507 15.367 12.387 23.216 18.369 6.875 5.24 12.962 11.221 18.627 17.743 6.046 6.961 12.221 13.854 18.837 20.263 8.282 8.023 15.883 16.541 21.882 26.385 12.928 21.215 25.381 42.695 34.769 65.782 6.843 16.828 12.563 33.963 15.747 51.95 3.272 18.488 6.72 36.918 8.326 55.661.732 8.544 2.558 16.99 3.41 25.528.852 8.537 1.308 17.127 1.582 25.704.487 15.264.697 30.536 1.057 45.804.028 1.186.327 2.366.463 3.299 2.418 1.173 3.248-.629 4.431-1.48 3.615-2.598 7.063-5.451 10.812-7.833 6.355-4.037 12.927-4.545 19.942-1.168 8.449 4.066 14.589 9.916 17.686 18.962 4.093 11.953 5.542 24.141 4.115 36.671-2.404 21.11-10.297 40.117-23.58 56.521-17.829 22.018-28.245 47.391-35.774 74.258-.515 1.839-.904 3.721-1.523 5.523-5.203 15.14-7.627 30.773-9.135 46.672-.787 8.301-1.413 16.499-.101 24.721.647 4.057 1.686 8.091 2.958 12.001 1.841 5.658 5.37 10.026 10.86 12.698 12.016 5.85 23.993 11.781 35.997 17.656 6.003 2.938 11.955 5.997 18.064 8.698 11.099 4.908 22.719 8.199 34.572 10.758 5.28 1.14 10.586 2.365 15.678 4.133 11.456 3.977 23.098 7.089 35.035 9.245 7.188 1.298 14.27 3.172 21.407 4.757 3.415.758 6.815 1.817 10.274 2.1 15.897 1.3 31.387 5.065 47.098 7.466 8.166 1.248 16.397 2.064 24.603 3.043 1.578.188 3.205.066 4.758.358 24.653 4.638 49.36 8.869 73.32 16.75 16.001 5.263 32.396 9.385 48.735 13.545 13.895 3.538 27.546 7.555 40.938 12.817 28.742 11.294 57.301 22.979 85.495 35.585 10.163 4.544 20.566 8.579 30.985 12.513 9.287 3.507 18.212 7.65 26.294 13.418 9.319 6.652 18.622 13.34 27.695 20.319 7.614 5.857 13.846 13.1 19.461 20.903 11.777 16.363 21.336 33.963 29.14 52.498 5.927 14.076 11.392 28.346 17.059 42.531 1.062 2.659 1.96 5.395 3.18 7.978 10.754 22.766 19.113 46.499 28.375 69.869 3.517 8.875 7.436 17.591 11.196 26.37 8.772 20.479 17.767 40.865 26.267 61.456 5.711 13.836 10.025 28.186 13.505 42.752 2.66 11.133 5.342 22.279 7.39 33.533a97.847 97.847 0 0 1 1.538 19.932c-.451 17.273 1.775 34.27 4.104 51.3 3.232 23.64 6.124 47.276 6.293 71.245.112 15.868 2.21 31.722 3.418 47.582.289 3.804.784 7.605.823 11.412.2 19.45 2.23 38.741 4.613 58.019 2.81 22.726 5.326 45.487 8.103 68.217 1.042 8.521 2.567 16.982 3.676 25.496 1.067 8.192 2.382 16.398 2.697 24.632.527 13.733 2.949 27.188 4.796 40.741 2.832 20.787 5.179 41.642 8.154 62.408 2.796 19.517 6.317 38.93 9.171 58.439 1.61 11.002 2.581 22.101 3.724 33.168.882 8.539 1.489 17.106 2.389 25.643 1.3 12.334 2.797 24.634 2.755 37.083-.07 21.026-.672 41.999-3.24 62.905-.851 6.926-.769 13.987-.825 20.988-.199 25.238-3.663 50.125-7.766 74.954-1.555 9.41-3.38 18.798-4.39 28.27-2.043 19.174-7.27 37.448-14.594 55.181-3.402 8.237-7.108 16.348-10.622 24.54-3.415 7.961-7.999 15.188-13.461 21.888-2.815 3.454-5.545 6.977-8.366 10.426-6.875 8.404-14.2 16.251-23.589 22.064-8.652 5.358-16.967 11.267-25.363 17.032-9.621 6.606-20.173 10.435-31.708 12.426-12.008 2.072-23.863 3.773-35.981 1.277-2.161-.445-4.44-.306-6.662-.47-8.641-.637-17.004-2.348-24.816-6.295-5.113-2.584-10.237-5.156-15.433-7.565-8.698-4.033-16.854-8.788-24.291-14.978-4.335-3.608-9.529-6.384-14.697-8.747-9.317-4.26-18.101-9.312-26.374-15.322-3.606-2.619-7.318-5.092-10.998-7.609-5.273-3.607-10.836-6.596-16.869-8.824-9.538-3.522-18.947-7.394-29.104-11.391-.609 2.204-1.536 3.892-1.454 5.528.592 11.757 1.378 23.505 2.133 35.254.122 1.905.486 3.795.578 5.7.717 14.932 1.378 29.866 2.102 44.797.139 2.855.174 5.768.779 8.54 2.934 13.45 3.447 27.116 4.171 40.789.266 5.033 1.061 10.153 2.461 14.989 3.145 10.863 3.011 22.004 3.592 33.098.029.554-.463 1.135-.75 1.79-2.401 2.06-5.361 1.343-8.158 1.344-38.853.018-77.706-.003-116.558.006-164.329.034-328.657.09-492.986.071-7.949 0-15.897-.65-23.848-.957-2.538-.098-5.084-.168-7.62-.072-8.265.313-16.525.991-24.789 1.024-31.846.13-63.693.093-95.54.053-7.64-.01-15.281-.418-22.921-.388-17.824.07-35.648.443-53.471.432-102.865-.062-205.729-.198-308.593-.318-7.642-.009-15.284-.08-22.925-.119-.637-.003-1.277.066-1.91.017-4.908-.378-7.475-2.973-7.527-7.999-.102-9.859-.232-19.724-.026-29.579.447-21.357-1.226-42.613-2.592-63.892-.856-13.331-1.352-26.686-2.206-40.017-.508-7.934-1.45-15.839-2.097-23.765-.466-5.702-1.071-11.417-1.092-17.128-.108-29.93.223-59.863-.132-89.789-.302-25.482-2.595-50.834-7.74-75.846-6.217-30.222-12.486-60.435-18.949-90.605-1.595-7.443-3.979-14.721-6.124-22.039-.42-1.431-1.409-2.696-2.535-4.774zm-32.32 453.952c.345-11.773.562-22.872-.102-33.954-1.274-21.274-2.854-42.529-4.166-63.801-.372-6.03-.259-12.091-.366-18.138-.062-3.501.117-7.026-.219-10.5-2.461-25.424-1.982-50.913-.893-76.342a1236.18 1236.18 0 0 0 1.122-50.565c.014-7.324-.092-14.649.025-21.971.152-9.538.291-19.052 1.784-28.546 2.074-13.195 3.887-26.449 5.217-39.737 2.284-22.815 5.346-45.495 10.94-67.746 4.11-16.347 8.603-32.603 13.217-48.816 1.119-3.934.908-7.253-.597-11.021-4.13-10.337-8.18-20.73-11.654-31.3-5.867-17.849-11.859-35.615-20.125-52.547-2.787-5.709-5.031-11.691-7.374-17.607-9.734-24.578-17.885-49.707-25.81-74.908-4.388-13.953-9.317-27.8-12.606-42.018-4.169-18.026-9.359-35.683-15.258-53.183-5.587-16.576-11.561-33.09-13.74-50.565-1.941-15.571-6.239-30.495-11.243-45.282-3.473-10.263-6.212-20.74-7.91-31.44-1.442-9.089-2.534-18.236-3.631-27.375-.221-1.843.051-3.807.461-5.634.161-.716 1.277-1.593 2.045-1.688.732-.09 2.082.58 2.282 1.2.676 2.089 1.066 4.29 1.379 6.475 2.936 20.495 6.708 40.753 14.173 60.224 4.211 10.983 7.355 22.35 9.074 34.073.922 6.285 1.978 12.612 3.733 18.702 4.226 14.666 8.729 29.258 13.442 43.776 4.521 13.929 9.165 27.801 12.24 42.152 2.869 13.392 6.437 26.596 11.399 39.394 1.149 2.963 2.037 6.027 3.035 9.048 5.887 17.828 11.439 35.776 17.765 53.448 4.82 13.466 10.285 26.729 16.072 39.813 6.575 14.866 12.525 29.956 17.364 45.445a415.583 415.583 0 0 0 15.648 41.998c5.603 12.87 10.417 25.973 13.243 39.77 5.555 27.116 11.403 54.173 16.762 81.327 2.765 14.01 5.877 27.951 6.981 42.296 1.32 17.136 2.806 34.247 2.84 51.443.055 27.385-.01 54.77.048 82.155.008 3.805.373 7.614.667 11.414.662 8.555 1.537 17.097 2.044 25.661.751 12.696 1.258 25.406 1.873 38.11.031.636.104 1.27.156 1.904.991 12.032 2.511 24.049 2.847 36.099.487 17.475 1.123 34.988-.594 52.454-.32 3.255.405 6.29 2.24 9.851 3.125.168 6.566.521 10.005.506 10.508-.044 21.015-.338 31.523-.342 121.64-.041 243.28-.049 364.92-.059 48.388-.004 96.775-.007 145.163.014 176.109.074 352.218.164 528.327.234 26.432.01 52.864-.026 79.296-.122 2.751-.01 5.77.857 8.5-1.799 1.144-7.056.052-14.341-2.016-21.304-3.034-10.22-3.441-20.649-4.108-31.129-.525-8.241-1.585-16.449-2.432-24.669-.522-5.063-1.339-10.11-1.595-15.186-.896-17.8-1.117-35.648-2.557-53.401-.955-11.774-1.15-23.512-1.306-35.284-.025-1.874-.37-3.743-.634-6.252-4.909-1.996-9.795-4.296-14.887-5.978-7.393-2.442-13.806-6.319-19.709-11.341-9.451-8.041-18.913-16.095-28.763-23.631-4.853-3.713-9.229-7.711-13.198-12.316-4.774-5.538-9.837-10.828-14.803-16.2-4.752-5.139-9.708-10.1-14.273-15.399-7.268-8.438-14.211-17.154-21.427-25.637-7.837-9.212-15.864-18.262-23.744-27.439-8.914-10.381-17.336-21.222-26.741-31.132-10.305-10.859-20.341-21.853-29.75-33.534-22.815-28.325-43.63-57.976-62.135-89.273-4.868-8.232-10.35-15.989-16.917-23.034-10.208-10.949-19.69-22.524-28.031-34.993-9.743-14.565-20.094-28.664-31.598-41.911-4.378-5.041-8.396-10.401-12.485-15.688-6.227-8.051-12.16-16.34-18.628-24.19-4.288-5.205-8.275-10.547-10.985-16.688-5.136-11.639-10.474-23.224-14.849-35.154-3.975-10.839-5.839-22.275-2.959-33.773 5.07-20.24 8.551-41.078 21.354-58.899-3.065-1.949-5.63-3.837-8.417-5.305-10.575-5.571-19.276-13.326-27.302-22.102-7.463-8.16-13.275-17.032-15.702-27.946-.62-2.789-1.711-5.471-2.434-8.241-4.451-17.047-6.4-34.32-4.883-51.946.679-7.889 1.126-15.813-.325-23.948-5.979-4.3-11.633-9.047-17.906-12.744-15.621-9.205-31.495-17.983-47.323-26.833-12.273-6.862-24.257-14.026-32.468-25.967-.885-1.286-2.171-2.318-3.357-3.373-6.105-5.433-10.227-12.097-12.669-19.878-3.713-11.833-7.519-23.623-9.681-35.89-2.053-11.646-7.97-29.609-12.026-37.556-7.116-1.436-14.553-3.095-22.053-4.385-4.057-.698-8.245-.603-12.336-1.148-9.768-1.301-19.495-2.915-29.271-4.139-18.938-2.372-37.892-4.613-56.851-6.813-19.562-2.269-38.804-6.534-58.494-8.298-17.776-1.592-35.464-3.246-53.32-2.808-7.32.18-14.648.075-21.972 0-8.887-.091-16.904-2.614-23.704-8.587-5.254-4.614-10.592-9.133-15.958-13.617-1.942-1.623-3.863-3.591-6.15-4.427-11.031-4.036-21.501-9.546-33.202-11.863-9.349-1.851-18.54-4.531-27.759-6.999-2.106-.564-4.257-1.471-6.008-2.743-3.76-2.732-4.175-6.518-.746-9.712 6.05-5.635 12.178-11.258 18.787-16.2 5.115-3.826 11.302-5.878 17.779-6.369 4.117-.312 8.282-.503 12.395-.252 14.286.872 28.581 1.914 42.627 4.772 4.439.903 7.356-.43 10.023-3.598 2.253-2.676 4.644-5.235 6.932-7.881 6.576-7.606 14.726-11.981 24.909-12.268.947-.027 1.884-.318 2.832-.416 5.891-.611 9.979-3.402 12.251-9.107 2.586-6.494 5.867-12.713 8.416-19.219 2.696-6.881 7.641-10.78 14.605-12.418 2.782-.655 5.604-1.417 8.434-1.538 7.569-.323 12.208-4.923 15.998-10.651 2.275-3.439 3.997-7.241 6.04-10.839 2.199-3.873 4.205-7.895 6.784-11.503 6.436-9.005 14.844-15.799 25.236-19.601 8.954-3.276 16.232-8.445 22.238-15.78 9.065-11.071 18.373-21.942 27.504-32.958.465-.561.238-1.697.401-3.177-3.132 0-5.964.108-8.785-.024-5.073-.236-10.3.076-15.181-1.056-18.9-4.385-37.898-8.336-56.516-13.976-18.643-5.647-36.731-12.511-54.209-21.069-5.999-2.937-12.007-5.899-18.189-8.41-9.782-3.972-19.027-8.878-27.735-14.809-12.119-8.255-24.752-15.569-37.841-22.221-9.333-4.744-18.116-10.603-26.983-16.22-5.688-3.603-10.344-8.467-14.488-13.752-7.07-9.017-14.113-18.058-21.017-27.203-7.379-9.775-12.905-20.447-14.603-32.759-.515-3.737-.644-7.528-1.006-11.987-1.908.812-3.391 1.22-4.634 2.006-23.677 14.963-47.393 29.815-73.691 39.989-5.909 2.286-11.345 5.768-17.112 8.457-7.783 3.629-15.645 7.094-23.531 10.495-7.296 3.147-14.645 6.172-22.013 9.148-5.891 2.379-11.702 5.116-17.797 6.798-15.642 4.319-31.116 9.117-46.574 14.054a383.185 383.185 0 0 0-55.628 22.674c-4.266 2.143-8.508 4.364-12.898 6.223-26.955 11.415-53.977 22.64-79.708 36.75-15.363 8.425-28.682 18.856-37.952 33.965-2.329 3.797-4.637 7.617-7.167 11.279-17.845 25.824-31.252 53.942-42.408 83.137-9.662 25.286-17.175 51.294-23.84 77.513-8.229 32.371-16.049 64.847-23.971 97.296-.978 4.004-1.612 8.103-2.207 12.187-1.329 9.125-2.1 18.353-3.869 27.389-4.596 23.465-7.111 47.202-8.821 70.976-1.808 25.13-5.835 49.925-9.707 74.737-3.735 23.936-10.713 47.122-18.631 70.013-3.429 9.912-7.029 19.758-9.205 30.093-3.866 18.362-8.205 36.623-12.242 54.95-.888 4.029-1.52 8.135-1.957 12.239-.808 7.59-1.038 15.255-2.117 22.801-4.197 29.355-5.452 58.867-5.454 88.478 0 7.625-.684 15.254-1.151 22.875-1.13 18.422-2.476 36.832-3.438 55.262-.932 17.848-2.875 35.605-7.727 52.768-8.394 29.692-17.686 59.13-26.496 88.707-1.447 4.859-2.642 9.834-3.447 14.836-1.618 10.05-2.881 20.157-4.304 30.238-.577 4.09-1.735 8.181-1.693 12.262.213 20.658-1.788 41.378 1.557 61.962.355 2.183.291 4.447.286 6.673-.034 14.664.919 29.253 2.682 43.819 1.833 15.152 2.884 30.404 4.916 45.526 1.233 9.177 2.043 18.305 2.105 27.554.042 6.355.429 12.737 1.134 19.054 2.083 18.689 6.674 36.919 10.43 55.302 1.08 5.289 1.922 10.634 2.652 15.984 1.116 8.183 1.782 16.434 3.123 24.576 1.136 6.897 2.92 13.69 4.501 20.51.415 1.791 1.139 3.511 1.669 5.104 1.406.367 2.318.826 3.221.81a470025.14 470025.14 0 0 0 288.45-5.415c1.232-.024 2.458-.404 4.95-.838zm1192.422-870.579c-7.661-.671-8.513-1.111-8.954-7.058-.751-10.152-1.217-20.33-1.615-30.504-.374-9.542-.436-19.096-.765-28.641-.263-7.633-.956-15.256-1.052-22.888-.383-30.563-.608-61.127-.892-91.691-.258-27.703-.227-55.413-.87-83.107-.507-21.86 2.729-43.107 8.219-64.152 1.441-5.524 2.481-11.189 3.217-16.853 2.174-16.719 3.86-33.505 6.194-50.2 2.696-19.29 7.487-38.074 15.011-56.11 2.941-7.05 6.107-14.057 8.354-21.336 5.204-16.861 13.181-32.4 21.656-47.743 3.721-6.735 8.348-12.708 13.926-18.075 12.875-12.389 26.441-23.748 41.456-33.614 11.95-7.852 24.251-13.815 38.361-16.017.832-.13 1.584-.78 3.024-1.524-1.641-1.213-2.724-2.316-4.036-2.931-4.899-2.293-9.825-4.542-14.828-6.595-10.893-4.471-21.967-8.524-32.74-13.263-25.935-11.409-52.067-22.302-78.372-32.845-17.524-7.024-35.444-12.242-53.64-16.917-11.085-2.848-21.995-6.381-32.987-9.593-14.351-4.193-28.588-8.85-43.096-12.405-11.4-2.793-23.128-4.256-34.727-6.215-2.183-.369-4.448-.224-6.664-.436-7.273-.695-14.582-1.17-21.802-2.235-11.948-1.762-23.809-4.121-35.761-5.85-11.652-1.685-23.305-3.213-34.622-6.651-3.025-.919-6.204-1.346-9.327-1.92-10.65-1.957-21.35-3.849-31.508-7.66-9.889-3.71-20.151-5.823-30.374-8.171-1.097-.252-2.303-.034-4.1-.034 1.032 2.694 1.847 4.722 2.588 6.777 2.199 6.103 3.06 12.391 1.915 18.797-2.923 16.355-7.057 32.337-15.192 47.018-5.555 10.024-11.123 20.041-16.616 30.099-.863 1.58-1.354 3.363-2.266 5.687 3.205 1.081 5.876 1.922 8.505 2.88 6.871 2.505 13.745 5.004 20.575 7.619 3.567 1.366 5.854 4.065 5.998 7.902.141 3.771-.187 7.575-.531 11.344-.461 5.057-1.32 10.082-1.672 15.144-.441 6.337.035 12.784-.891 19.034-3.498 23.61-3.539 47.588-7.763 71.112-.391 2.177-.26 4.443-.437 6.663a5788.95 5788.95 0 0 1-2.17 26.631c-.614 7.29-1.702 14.571-1.794 21.865-.08 6.396-.696 12.658-1.556 18.973-.934 6.86-1.555 13.814-.075 20.866 2.851 1.274 5.464 2.411 8.051 3.603 13.585 6.26 27.393 12.091 40.677 18.938 11.576 5.966 22.578 13.053 33.796 19.707 3.828 2.27 7.698 4.518 11.282 7.141a5923.16 5923.16 0 0 1 49.149 36.326c13.974 10.448 25.241 23.273 33.066 38.951 1.265 2.534 2.548 5.271 2.863 8.025.94 8.206 1.701 16.457 1.976 24.709.328 9.862.106 19.742.065 29.614-.012 2.862-.114 5.732-.36 8.582-.954 11.09-2.141 22.162-2.946 33.262-1.177 16.221-3.185 32.264-7.646 47.978-3.309 11.658-5.088 23.643-5.461 35.762-.094 3.064.485 6.482 1.857 9.177 1.836 3.607 4.54 6.847 7.24 9.922 5.031 5.73 10.537 11.049 15.47 16.858 9.283 10.933 18.794 21.608 29.632 31.06 6.233 5.435 12.499 10.88 18.26 16.798 15.323 15.737 30.399 31.716 45.538 47.631 10.314 10.842 20.964 21.397 30.765 32.687 18.416 21.21 38.792 40.404 59.332 59.464 10.035 9.312 20.119 18.574 29.987 28.06 10.797 10.378 21.663 20.654 34.201 28.95 25.751 17.039 51.38 34.27 77.36 50.952 22.781 14.629 45.459 29.361 66.884 45.954 8.806 6.82 18.003 13.144 26.684 20.115 4.16 3.341 7.64 7.569 11.192 11.602.939 1.066 1.321 2.976-1.086 3.92-.695-.32-1.606-.589-2.349-1.102-14.934-10.302-29.886-20.58-44.752-30.979-7.302-5.108-14.3-10.655-21.677-15.647-13.708-9.275-27.62-18.249-41.399-27.421-23.052-15.345-45.926-30.962-69.154-46.035-11.549-7.494-22.273-15.876-32.243-25.313-9.019-8.537-18.18-16.923-27.172-25.488-18.672-17.785-37.499-35.416-55.813-53.563-9.935-9.844-18.852-20.709-28.402-30.952-13.462-14.44-27.001-28.81-40.663-43.061-13.878-14.475-27.408-29.286-42.607-42.467-9.144-7.93-17.165-17.002-24.628-26.587-3.892-4.999-8.556-9.406-12.982-13.973-.726-.749-2.029-.94-3.949-1.772 1.334 9.794 1.219 18.622.027 27.475-1.697 12.602-3.147 25.239-4.52 37.881-2.285 21.05-9.217 40.895-15.658 60.861-1.164 3.607-2.96 7.051-4.785 10.395-5.489 10.058-11.033 20.09-16.747 30.023-9.853 17.128-20.7 33.539-33.713 48.526-11.751 13.534-26.586 22.566-42.187 30.63-1.538.795-3.812 1.051-5.46.574-4.067-1.177-7.549-3.515-9.398-7.544-3.312-7.214-6.65-14.422-9.7-21.748-5.87-14.104-11.576-28.277-17.288-42.446-2.024-5.02-4.667-9.637-8.011-14.233-3.218 2.139-3.972 5.295-5.22 8.087-6.806 15.224-10.101 31.484-13.623 47.636-.922 4.231-.585 8.937.119 13.272.914 5.621 2.354 11.243 4.324 16.586 3.081 8.353 6.625 16.549 10.293 24.667 3.547 7.851 8.065 15.078 13.764 21.681 6.225 7.213 11.731 15.045 17.547 22.61 2.521 3.278 4.93 6.649 7.567 9.83 12.6 15.2 24.993 30.534 35.851 47.08 8.039 12.251 17.109 23.746 27.234 34.394 7.265 7.639 13.443 16.099 18.749 25.245 4.95 8.533 10.282 16.847 15.54 25.197 16.997 26.99 36.719 51.985 56.542 76.898 2.969 3.732 6.102 7.386 9.532 10.688 11.036 10.622 20.911 22.231 30.598 34.08 14.703 17.984 29.806 35.648 45.025 53.199 7.914 9.127 16.458 17.707 24.682 26.567 2.598 2.799 5.212 5.599 7.592 8.579 4.988 6.243 10.301 12.022 17.288 16.205 3.514 2.104 6.486 5.122 9.671 7.766 6.123 5.083 12.273 10.135 18.314 15.314 4.424 3.794 9.469 6.297 14.88 8.376 6.816 2.619 13.388 5.868 20.175 8.573 9.739 3.881 19.454 7.889 29.415 11.116 6.114 1.981 12.01 4.151 17.359 7.681 6.112 4.032 12.245 8.042 18.211 12.282 7.812 5.552 15.956 10.437 24.756 14.302 7.3 3.207 13.745 7.773 20.148 12.615 13.275 10.039 28.512 16.598 44.05 22.376 1.775.66 3.688 1.064 5.573 1.289 7.259.867 14.528 1.661 21.803 2.393 10.642 1.072 20.857-1.555 31.154-3.609 5.699-1.137 11.051-2.962 15.906-6.175 9.287-6.146 18.373-12.63 27.922-18.34 10.039-6.004 18.125-13.913 25.268-22.982 1.575-2 3.175-3.984 4.838-5.912 7.34-8.505 13.273-17.85 17.467-28.316 3.078-7.682 6.476-15.235 9.677-22.868 4.568-10.895 8.206-22.091 10.193-33.752 1.549-9.09 2.771-18.236 4.154-27.355 2.575-16.981 5.229-33.951 7.719-50.945 1.799-12.279 3.211-24.587 2.769-37.059-.203-5.713.159-11.458.498-17.174 1.093-18.43 2.421-36.846 3.393-55.282.402-7.622.553-15.306.076-22.916-1.174-18.73-3.406-37.372-4.728-56.106-1.138-16.13-4.316-32.121-6.702-48.156s-5.437-31.99-7.236-48.088c-2.12-18.964-4.271-37.892-7.481-56.717-1.974-11.574-2.922-23.326-4.253-35.007-1.44-12.63-2.591-25.297-4.238-37.899-1.482-11.34-3.797-22.575-5.156-33.927-2.794-23.36-5.077-46.781-7.808-70.149-1.295-11.082-1.81-22.18-2.134-33.316-.213-7.313-.935-14.612-1.494-21.912-.898-11.728-2.358-23.439-2.66-35.181-.458-17.818-.986-35.597-3.5-53.274-1.388-9.757-2.18-19.607-3.802-29.322-2.525-15.115-4.117-30.288-3.814-45.604.261-13.154-1.354-26.014-4.811-38.686-1.173-4.298-1.956-8.704-3.171-12.988-4.255-14.994-8.082-30.127-14.286-44.501-10.721-24.838-21.435-49.679-32.059-74.558-3.248-7.607-6.238-15.326-9.266-23.025-4.891-12.436-9.609-24.942-14.599-37.339-5.107-12.687-10.709-25.177-15.642-37.929-10.463-27.053-21.66-53.679-37.574-78.154-11.381-17.504-26.502-30.636-43.519-41.229-5.698 1.095-10.75 1.806-15.662 3.065-9.906 2.537-19.531 5.804-27.784 12.199-2.765 2.142-5.617 4.219-8.627 5.988-14.169 8.323-25.453 20.09-37.272 31.192-2.976 2.796-5.561 6.198-7.64 9.726-7.435 12.623-14.435 25.488-19.66 39.232-5.089 13.387-10.258 26.743-15.295 40.15-1.677 4.465-3.226 8.994-4.537 13.578-6.237 21.809-9.688 44.134-11.504 66.687-1.104 13.709-3.375 27.173-7.013 40.374-3.917 14.211-6.227 28.593-6.27 43.32-.042 14.329-.015 28.659.11 42.988.341 38.848.581 77.698 1.186 116.542.466 29.922 1.387 59.836 2.199 89.752.138 5.083.792 10.15 1.124 15.23.266 4.059 1.405 8.156-.123 12.181zm-608.284-473.633c6.276-4.838 11.694-9.214 17.339-13.277 2.56-1.843 5.582-3.039 8.37-4.573 5.783-3.181 9.838-7.806 12.531-13.902 3.959-8.962 5.476-18.203 4.608-27.924-.309-3.467-.74-7.02-.318-10.436 1.04-8.418 5.647-11.765 13.861-10.31 3.747.664 7.373 1.986 11.103 2.775 22.365 4.73 44.383 11.021 67.532 11.863 11.876.432 23.494-.256 35.094-2.117 17.113-2.745 31.066-10.615 40.802-25.506 8.355-12.778 17.144-25.277 25.92-37.774 11.926-16.982 21.71-35.209 31.409-53.484 6.786-12.786 10.687-26.594 12.775-40.816 1.733-11.799-1.328-22.142-11.97-29.082-2.662-1.736-5.287-3.598-8.141-4.958-8.038-3.83-16.062-7.743-24.323-11.042-10.974-4.383-21.426-9.743-31.772-15.384-3.476-1.895-6.022-4.556-8.204-7.784-6.297-9.314-8.584-19.756-8.817-30.767-.29-13.74 1.989-27.279 3.99-40.778 1.298-8.76 4.219-17.279 6.42-25.904 4.42-17.321 10.849-33.924 17.851-50.335 5.315-12.458 13.541-23.036 21.725-33.581 8.119-10.462 13.943-21.96 18.137-34.447 3.725-11.092 4.484-22.465 3.575-33.958-.554-7.008-2.448-13.841-5.784-20.083-5.744-10.749-17.539-13.525-27.398-6.68-5.031 3.493-9.064 7.958-12.744 12.801-1.337 1.76-2.756 3.51-4.399 4.971-1.891 1.681-5.48.58-6.37-1.848a12.278 12.278 0 0 1-.719-3.714c-.523-14.295-1.759-28.616-1.302-42.882.769-24.009-2.514-47.63-5.239-71.318-2.035-17.693-5.321-35.197-8.431-52.74-3.254-18.361-9.168-35.747-16.207-52.8-9.255-22.421-21.405-43.367-34.352-63.832-5.466-8.64-12.023-16.397-19.804-23.143-4.315-3.741-8.571-7.714-12.084-12.187-9.118-11.612-19.49-21.809-31.587-30.267-1.562-1.092-2.987-2.38-4.511-3.529-13.214-9.96-25.094-21.61-39.085-30.596-10.443-6.707-20.687-13.723-31.088-20.497-1.459-.951-3.011-2.57-5.612-.971 1.134 1.773 2.125 3.636 3.405 5.273 7.21 9.219 11.494 19.744 13.975 31.071.401 1.831.715 3.777.508 5.606-.112.986-1.271 2.347-2.216 2.608-.962.266-2.614-.272-3.314-1.045-2.76-3.053-5.015-6.585-7.907-9.491-13.321-13.389-28.295-24.754-44.506-34.341-19.209-11.36-39.402-20.784-60.377-28.464-1.191-.436-2.593-.293-5.463-.571 2.375 2.202 3.537 3.236 4.651 4.32 13.951 13.576 26.919 27.982 37.385 44.485.848 1.337 1.721 2.693 2.31 4.15.993 2.458-.786 5.551-3.438 5.631-2.492.075-5.112-.12-7.482-.837-5.173-1.565-10.284-3.38-15.311-5.369-27.596-10.916-56.356-15.528-85.884-15.895-14.011-.175-28.026-.058-42.039-.046-1.434.001-2.867.189-5.208.355 1.279 1.457 1.713 2.333 2.412 2.688 7.378 3.745 14.763 7.479 22.215 11.075 11.305 5.456 21.062 13.064 30.347 21.378 1.802 1.614 2.958 3.358 2.289 5.816-.67 2.46-2.719 3.421-4.926 3.991-1.531.395-3.133.72-4.703.716-5.087-.014-10.204.121-15.254-.373-13.444-1.318-26.727-.792-39.756 2.92-6.419 1.829-12.798 3.86-19.052 6.184-9.541 3.546-18.965 7.408-28.419 11.184-1.441.576-3.007 1.215-2.818 3.31 7.537 2.365 15.17 4.515 22.607 7.209 3.199 1.159 6.226 3.15 8.897 5.302 2.519 2.029 1.855 5.444-.774 7.302-2.764 1.952-5.938 2.088-9.11 2.383-10.89 1.012-21.471 3.269-30.791 9.274-5.332 3.436-10.268 7.494-15.305 11.372-.877.675-1.368 1.85-2.508 3.457 2.344.429 3.818.732 5.304.964 2.2.343 4.451.46 6.604.984 6.834 1.661 8.262 5.595 4.091 10.994-.386.499-.938.868-1.338 1.358-5.027 6.16-10.397 12.078-14.986 18.55-11.433 16.125-21.957 32.848-29.156 51.361-2.989 7.686-5.639 15.599-7.447 23.633-6.013 26.717-10.617 53.694-12.871 81.012-.468 5.675-.249 11.45.145 17.145a2802.71 2802.71 0 0 0 3.797 48.533c1.291 14.89 2.436 29.81 4.357 44.624 2.083 16.064 5.295 31.928 6.692 48.152 2.078 24.116 7.685 47.755 13.947 71.104 8.016 29.891 20.166 58.333 32.772 86.524 7.92 17.712 16.556 35.106 24.971 52.595a114.528 114.528 0 0 0 6.472 11.679c1.688 2.661 3.679 5.233 5.96 7.395 8.315 7.88 16.795 15.588 25.244 23.326 3.295 3.018 6.55 6.024 7.215 10.487-1.698 3.657-4.244 5.56-7.508 7.349-12.518 6.861-25.452 13.025-36.533 22.359-7.749 6.527-16.166 12.261-24.068 18.186.912 3.891 1.982 7.199 2.429 10.589 1.63 12.344 6.594 23.143 14.34 32.817 7.162 8.945 14.111 18.06 21.199 27.064 4.566 5.8 9.857 10.893 16.168 14.724 7.884 4.786 15.83 9.508 24.002 13.771 11.017 5.747 22.003 11.493 32.222 18.618 10.739 7.489 22.113 13.839 34.294 18.718 3.835 1.536 7.625 3.224 11.307 5.096 21.934 11.145 44.829 19.754 68.622 25.941 11.695 3.041 23.544 5.495 35.22 8.601 7.142 1.9 14.298 2.962 21.667 3.03 6.055.056 12.063.658 17.645 2.907zm320.583 669.861c9.83-5.86 19.193-10.023 27.037-16.475 12.615-10.375 23.338-22.631 32.037-36.449 8.811-13.996 16.819-28.497 25.55-42.546 11.267-18.128 17.193-38.23 22.279-58.637 3.851-15.45 5.736-31.264 7.682-47.045 1.049-8.504 2.248-17.006 2.829-25.547.696-10.214.248-20.26-5.858-29.3-2.928-4.335-3.119-9.579-2.531-14.765 1.575-13.9 3.102-27.794 7.412-41.218 1.161-3.615 1.707-7.439 2.396-11.193 4.087-22.271 4.964-44.898 6.664-67.385 1.363-18.03 1.309-36.262-1.035-54.35-.422-3.255-1.502-6.073-2.903-8.969-7.251-14.994-18.408-26.751-31.321-36.763-22.875-17.737-45.58-35.703-70.911-50.062-13.301-7.54-26.503-15.156-40.565-21.194-11.693-5.022-23.488-9.823-35.03-15.17-17.06-7.903-34.6-14.582-52.18-21.169-4.747-1.779-9.67-3.278-14.642-4.229-18.466-3.532-37.153-4.81-55.939-5.121-10.926-.181-21.591 1.433-32.126 3.943-7.732 1.843-15.742 3.732-22.098 8.617-10.885 8.367-18.856 18.965-20.691 33.129-1.471 11.354-2.907 22.717-4.066 34.106-.611 6.006-1.14 12.11-.761 18.11.963 15.234 2.379 30.443 3.797 45.644.382 4.097 1.259 8.17 2.199 12.186 1.302 5.567 2.9 11.064 4.33 16.601 3.415 13.228 6.015 26.633 11.213 39.42 6.473 15.924 11.264 32.415 14.16 49.44 1.707 10.033 3.569 20.156 8.113 29.373 9.134 18.528 22.739 32.773 41.318 42.185 8.512 4.312 16.818 9.04 25.151 13.697 16.13 9.014 31.918 18.553 46.43 30.084 2.972 2.361 6.365 4.206 9.621 6.193 12.839 7.837 24.575 17.036 34.806 28.093 1.893 2.046 4.049 3.999 4.34 6.826-1.788 2.39-3.871 1.649-5.306.649-3.899-2.717-7.758-5.566-11.249-8.779-7.992-7.357-16.326-14.228-25.804-19.588-1.531-.866-3.404-1.128-5.63-1.83-.267 6.371-.525 12.07-.74 17.771-.75 19.892 1.669 39.339 7.937 58.295 2.229 6.742 5.226 12.986 9.869 18.376 8.553 9.932 17.605 19.275 29.474 25.387 2.818 1.451 5.66 3.047 8.051 5.091 3.115 2.664 6.348 5.483 8.533 8.877 3.776 5.863 7.268 12.011 10.024 18.408 8.435 19.577 16.462 39.33 24.65 59.013.951 2.285 1.92 4.562 3.482 8.269zM977.65 939.449c-2.65 3.757-1.696 7.304-1.129 10.635 1.428 8.389-.022 16.395-2.179 24.476-3.761 14.094-11.766 24.243-25.196 30.496-5.364 2.498-10.188 6.506-14.646 10.507-4.946 4.439-9.346 9.523-13.714 14.561-7.91 9.124-15.668 18.381-23.398 27.66-7.436 8.926-15.752 16.351-27.107 20.306-11.156 3.886-19.74 11.419-25.402 21.965-2.408 4.485-4.625 9.071-6.982 13.584-4.519 8.653-11.427 14.328-20.972 16.672-3.4.835-6.763 1.941-10.213 2.423-4.272.597-6.742 2.763-8.406 6.7-3.218 7.611-6.9 15.024-10.247 22.581-2.993 6.757-8.328 10.194-15.379 11.365-2.826.469-5.652.995-8.5 1.264-6.363.603-11.471 3.451-15.66 8.195-3.16 3.577-6.419 7.068-9.659 10.574-3.423 3.705-7.711 6.295-12.69 5.211-8.431-1.836-16.945-2.626-25.48-3.474-7.59-.754-15.164-1.714-22.767-2.277-5.451-.404-10.793.671-15.912 2.579-7.909 2.948-13.602 8.593-19.003 15.172 1.424.806 2.18 1.467 3.048 1.689 8.62 2.202 17.212 4.545 25.903 6.429 11.296 2.449 21.62 7.484 32.198 11.793 3.416 1.391 6.263 4.283 9.218 6.677 5.437 4.404 10.726 8.99 16.143 13.419 3.548 2.901 7.659 4.512 12.272 4.641 6.678.185 13.376.697 20.034.387 19.779-.92 39.372.827 58.948 3.304 7.568.958 15.204 1.396 22.761 2.424 5.663.77 11.212 2.388 16.877 3.134 17.637 2.323 35.295 4.5 52.964 6.569 26.205 3.069 52.431 5.954 78.336 11.132 1.338.268 2.817-.175 4.631-.318-.541-2.228-.888-3.758-1.285-5.276-1.932-7.38-4.094-14.707-5.769-22.144-3.002-13.32-5.729-26.703-8.533-40.067-.522-2.487-1.072-4.996-1.262-7.52-.862-11.421-1.981-22.842-2.297-34.282-.555-20.128 1.72-40.03 6.055-59.698 1.247-5.655 2.835-11.24 6.681-15.641a219.519 219.519 0 0 1 15.219-15.785c2.488-2.329 5.659-4.171 8.83-5.488 16.03-6.659 32.817-9.799 50.147-10.41 10.531-.371 20.932.79 31.391 1.66 15.229 1.266 30.545 1.663 44.758 8.295 1.144.534 2.441.73 3.627 1.189 13.914 5.387 28.422 9.389 41.113 17.65.932.607 2.311.526 4.103.892.247-4.929.114-9.353.745-13.666 3.369-23.012 3.805-46.252 5.675-69.38 1.228-15.19 2.897-30.344 4.263-45.524 1.368-15.203 2.994-30.4 3.741-45.637.404-8.25-.308-16.538 2.031-24.623.261-.902.299-1.891.303-2.84.011-2.397-.804-4.333-3.156-5.39-9.23-4.153-18.666-7.701-28.791-10.324-2.175 3.137-4.133 6-6.13 8.836-9.892 14.048-19.743 28.125-29.738 42.1-2.021 2.825-4.291 5.637-6.977 7.793-11.424 9.169-24.675 14.241-39.03 16.664-19.402 3.275-38.78 1.987-57.924-1.428-16.255-2.899-32.255-7.218-48.377-10.872-2.716-.616-5.473-1.046-8.1-1.541z"/><g fill="#fff"><path d="M340.346 2355.494c-2.492.434-3.718.814-4.95.838-96.15 1.834-192.3 3.641-288.45 5.415-.903.017-1.815-.442-3.221-.81-.529-1.594-1.254-3.313-1.669-5.104-1.581-6.82-3.365-13.613-4.501-20.51-1.341-8.143-2.007-16.394-3.123-24.576-.73-5.35-1.571-10.695-2.652-15.984-3.755-18.383-8.347-36.613-10.43-55.302a183.554 183.554 0 0 1-1.134-19.054c-.061-9.25-.871-18.378-2.105-27.554-2.032-15.122-3.083-30.374-4.916-45.526-1.762-14.567-2.716-29.155-2.682-43.819.005-2.226.069-4.49-.286-6.673-3.345-20.584-1.344-41.304-1.557-61.962-.042-4.081 1.116-8.171 1.693-12.262 1.423-10.081 2.685-20.188 4.304-30.238.805-5.003 2-9.977 3.447-14.836 8.809-29.576 18.102-59.014 26.496-88.707 4.852-17.163 6.795-34.92 7.727-52.768.962-18.43 2.308-36.84 3.438-55.262.468-7.621 1.151-15.25 1.151-22.875.002-29.611 1.257-59.123 5.454-88.478 1.079-7.546 1.309-15.211 2.117-22.801.437-4.104 1.069-8.21 1.957-12.239 4.037-18.326 8.376-36.588 12.242-54.95 2.176-10.335 5.777-20.181 9.205-30.093 7.919-22.891 14.896-46.077 18.631-70.013 3.872-24.812 7.9-49.607 9.707-74.737 1.71-23.774 4.224-47.511 8.821-70.976 1.77-9.035 2.541-18.263 3.869-27.389.595-4.084 1.229-8.183 2.207-12.187 7.922-32.449 15.742-64.925 23.971-97.296 6.665-26.219 14.178-52.227 23.84-77.513 11.156-29.196 24.563-57.313 42.408-83.137 2.531-3.662 4.838-7.482 7.167-11.279 9.269-15.109 22.589-25.541 37.952-33.965 25.731-14.11 52.753-25.335 79.708-36.75 4.391-1.859 8.633-4.08 12.898-6.223a383.185 383.185 0 0 1 55.628-22.674c15.459-4.936 30.932-9.735 46.574-14.054 6.094-1.683 11.906-4.419 17.797-6.798 7.368-2.976 14.717-6.001 22.013-9.148 7.886-3.401 15.748-6.867 23.531-10.495 5.767-2.689 11.203-6.171 17.112-8.457 26.298-10.174 50.014-25.026 73.691-39.989 1.243-.786 2.726-1.194 4.634-2.006.362 4.46.491 8.25 1.006 11.987 1.698 12.312 7.224 22.984 14.603 32.759 6.903 9.145 13.947 18.186 21.017 27.203 4.144 5.285 8.8 10.149 14.488 13.752 8.867 5.617 17.65 11.477 26.983 16.22 13.09 6.653 25.723 13.966 37.841 22.221 8.708 5.932 17.953 10.837 27.735 14.809 6.182 2.511 12.19 5.473 18.189 8.41 17.478 8.557 35.565 15.422 54.209 21.069 18.618 5.639 37.616 9.591 56.516 13.976 4.881 1.132 10.108.82 15.181 1.056 2.821.131 5.653.024 8.785.024-.163 1.481.065 2.616-.401 3.177-9.131 11.017-18.439 21.888-27.504 32.958-6.006 7.335-13.284 12.504-22.238 15.78-10.392 3.802-18.8 10.596-25.236 19.601-2.579 3.608-4.585 7.631-6.784 11.503-2.043 3.598-3.765 7.4-6.04 10.839-3.79 5.728-8.429 10.328-15.998 10.651-2.829.121-5.652.883-8.434 1.538-6.964 1.639-11.909 5.537-14.605 12.418-2.549 6.507-5.83 12.725-8.416 19.219-2.272 5.705-6.36 8.496-12.251 9.107-.949.098-1.885.39-2.832.416-10.183.287-18.333 4.662-24.909 12.268-2.288 2.647-4.679 5.206-6.932 7.881-2.667 3.168-5.584 4.501-10.023 3.598-14.046-2.858-28.341-3.9-42.627-4.772-4.113-.251-8.279-.06-12.395.252-6.477.491-12.663 2.543-17.779 6.369-6.608 4.943-12.737 10.565-18.787 16.2-3.429 3.194-3.014 6.98.746 9.712 1.751 1.272 3.902 2.18 6.008 2.743 9.219 2.468 18.409 5.148 27.759 6.999 11.701 2.317 22.171 7.827 33.202 11.863 2.287.837 4.208 2.804 6.15 4.427 5.365 4.484 10.704 9.003 15.958 13.617 6.8 5.973 14.817 8.495 23.704 8.587 7.324.075 14.652.18 21.972 0 17.856-.438 35.545 1.216 53.32 2.808 19.69 1.763 38.931 6.028 58.494 8.298 18.959 2.199 37.913 4.441 56.851 6.813 9.776 1.224 19.504 2.838 29.271 4.139 4.091.545 8.279.45 12.336 1.148 7.5 1.29 14.936 2.949 22.053 4.385 4.055 7.947 9.972 25.909 12.026 37.556 2.163 12.268 5.969 24.057 9.681 35.89 2.441 7.78 6.564 14.445 12.669 19.878 1.185 1.055 2.472 2.086 3.357 3.373 8.211 11.941 20.196 19.105 32.468 25.967 15.828 8.85 31.702 17.628 47.323 26.833 6.273 3.697 11.927 8.444 17.906 12.744 1.451 8.136 1.004 16.059.325 23.948-1.517 17.626.432 34.899 4.883 51.946.724 2.77 1.814 5.452 2.434 8.241 2.427 10.914 8.239 19.785 15.702 27.946 8.026 8.776 16.728 16.531 27.302 22.102 2.787 1.468 5.352 3.357 8.417 5.305-12.802 17.821-16.284 38.659-21.354 58.899-2.88 11.498-1.016 22.934 2.959 33.773 4.375 11.93 9.713 23.515 14.849 35.154 2.71 6.141 6.697 11.483 10.985 16.688 6.468 7.85 12.401 16.139 18.628 24.19 4.089 5.287 8.107 10.646 12.485 15.688 11.504 13.247 21.855 27.346 31.598 41.911 8.341 12.468 17.823 24.044 28.031 34.993 6.568 7.045 12.05 14.801 16.917 23.034 18.505 31.296 39.32 60.948 62.135 89.273 9.409 11.682 19.445 22.675 29.75 33.534 9.405 9.911 17.827 20.752 26.741 31.132 7.88 9.176 15.907 18.226 23.744 27.439 7.216 8.483 14.159 17.199 21.427 25.637 4.564 5.299 9.521 10.26 14.273 15.399 4.966 5.371 10.029 10.662 14.803 16.2 3.969 4.605 8.345 8.603 13.198 12.316 9.849 7.537 19.311 15.591 28.763 23.631 5.903 5.022 12.317 8.899 19.709 11.341 5.091 1.682 9.978 3.982 14.887 5.978.264 2.509.609 4.378.634 6.252.155 11.772.35 23.51 1.306 35.284 1.44 17.752 1.662 35.601 2.557 53.401.255 5.076 1.073 10.122 1.595 15.186.847 8.22 1.907 16.428 2.432 24.669.667 10.48 1.074 20.909 4.108 31.129 2.068 6.964 3.16 14.248 2.016 21.304-2.73 2.656-5.749 1.79-8.5 1.799-26.432.096-52.864.132-79.296.122-176.109-.07-352.218-.16-528.327-.234-48.388-.021-96.775-.018-145.163-.014-121.64.01-243.28.018-364.92.059-10.508.004-21.015.298-31.523.342-3.439.014-6.879-.338-10.005-.506-1.834-3.562-2.56-6.596-2.24-9.851 1.717-17.466 1.081-34.979.594-52.454-.336-12.05-1.856-24.067-2.847-36.099-.052-.635-.125-1.268-.156-1.904-.615-12.704-1.122-25.414-1.873-38.11-.507-8.564-1.382-17.105-2.044-25.661-.294-3.8-.659-7.608-.667-11.414-.058-27.385.007-54.77-.048-82.155-.034-17.196-1.52-34.307-2.84-51.443-1.105-14.345-4.217-28.286-6.981-42.296-5.358-27.154-11.207-54.211-16.762-81.327-2.827-13.798-7.64-26.9-13.243-39.77a415.673 415.673 0 0 1-15.648-41.998c-4.839-15.489-10.789-30.579-17.364-45.445-5.787-13.084-11.252-26.347-16.072-39.813-6.325-17.671-11.877-35.62-17.765-53.448-.998-3.021-1.886-6.085-3.035-9.048-4.962-12.798-8.53-26.002-11.399-39.394-3.075-14.351-7.719-28.223-12.24-42.152-4.712-14.518-9.216-29.11-13.442-43.776-1.755-6.09-2.812-12.417-3.733-18.702-1.719-11.723-4.863-23.09-9.074-34.073-7.465-19.472-11.237-39.729-14.173-60.224-.313-2.185-.703-4.386-1.379-6.475-.2-.62-1.55-1.29-2.282-1.2-.768.095-1.885.972-2.045 1.688-.41 1.826-.682 3.79-.461 5.634 1.097 9.139 2.189 18.286 3.631 27.375 1.698 10.7 4.437 21.177 7.91 31.44 5.003 14.787 9.302 29.71 11.243 45.282 2.179 17.476 8.153 33.989 13.74 50.565 5.898 17.5 11.088 35.157 15.258 53.183 3.289 14.218 8.218 28.065 12.606 42.018 7.925 25.201 16.076 50.33 25.81 74.908 2.343 5.916 4.587 11.898 7.374 17.607 8.267 16.932 14.258 34.698 20.125 52.547 3.475 10.57 7.525 20.963 11.654 31.3 1.505 3.767 1.716 7.087.597 11.021-4.613 16.214-9.107 32.469-13.217 48.816-5.594 22.251-8.656 44.93-10.94 67.746-1.33 13.288-3.143 26.543-5.217 39.737-1.492 9.493-1.632 19.008-1.784 28.546-.117 7.322-.011 14.647-.025 21.971a1236.18 1236.18 0 0 1-1.122 50.565c-1.089 25.43-1.568 50.918.893 76.342.336 3.475.157 6.999.219 10.5.107 6.047-.006 12.108.366 18.138 1.312 21.272 2.892 42.527 4.166 63.801.664 11.082.446 22.181.102 33.954z"/><path d="M1532.768 1484.915c1.528-4.026.389-8.122.123-12.181-.333-5.08-.986-10.147-1.124-15.23-.812-29.915-1.733-59.83-2.199-89.752-.605-38.844-.846-77.694-1.186-116.542a3644.92 3644.92 0 0 1-.11-42.988c.044-14.727 2.353-29.109 6.27-43.32 3.638-13.201 5.91-26.665 7.013-40.374 1.815-22.553 5.267-44.878 11.504-66.687 1.311-4.584 2.86-9.113 4.537-13.578 5.037-13.406 10.206-26.763 15.295-40.15 5.224-13.744 12.224-26.609 19.66-39.232 2.078-3.528 4.663-6.93 7.64-9.726 11.819-11.102 23.103-22.869 37.272-31.192 3.011-1.769 5.863-3.846 8.627-5.988 8.253-6.395 17.878-9.662 27.784-12.199 4.912-1.258 9.965-1.97 15.662-3.065 17.017 10.593 32.138 23.726 43.519 41.229 15.914 24.475 27.11 51.101 37.574 78.154 4.932 12.752 10.535 25.243 15.642 37.929 4.99 12.396 9.707 24.902 14.599 37.339 3.028 7.699 6.018 15.418 9.266 23.025 10.624 24.879 21.338 49.72 32.059 74.558 6.204 14.374 10.031 29.507 14.286 44.501 1.216 4.284 1.999 8.69 3.171 12.988 3.457 12.671 5.071 25.531 4.811 38.686-.303 15.316 1.289 30.489 3.814 45.604 1.622 9.715 2.414 19.565 3.802 29.322 2.514 17.677 3.042 35.456 3.5 53.274.302 11.742 1.762 23.452 2.66 35.181.559 7.3 1.281 14.6 1.494 21.912.324 11.136.839 22.234 2.134 33.316 2.731 23.368 5.014 46.789 7.808 70.149 1.358 11.352 3.674 22.587 5.156 33.927 1.647 12.602 2.798 25.269 4.238 37.899 1.332 11.681 2.28 23.432 4.253 35.007 3.21 18.825 5.361 37.753 7.481 56.717 1.799 16.098 4.85 32.053 7.236 48.088 2.386 16.036 5.564 32.026 6.702 48.156 1.322 18.734 3.553 37.376 4.728 56.106.477 7.609.326 15.294-.076 22.916-.972 18.436-2.3 36.852-3.393 55.282-.339 5.717-.701 11.462-.498 17.174.442 12.473-.97 24.78-2.769 37.059-2.49 16.994-5.144 33.963-7.719 50.945-1.383 9.119-2.605 18.264-4.154 27.355-1.987 11.66-5.624 22.857-10.193 33.752-3.201 7.633-6.599 15.187-9.677 22.868-4.194 10.465-10.127 19.81-17.467 28.316-1.663 1.927-3.262 3.911-4.838 5.912-7.143 9.069-15.229 16.978-25.268 22.982-9.549 5.71-18.635 12.193-27.922 18.34-4.855 3.213-10.207 5.038-15.906 6.175-10.297 2.054-20.512 4.681-31.154 3.609a1190.322 1190.322 0 0 1-21.803-2.393c-1.885-.225-3.798-.63-5.573-1.289-15.537-5.778-30.774-12.337-44.05-22.376-6.403-4.842-12.848-9.408-20.148-12.615-8.8-3.865-16.944-8.75-24.756-14.302-5.966-4.241-12.1-8.25-18.211-12.282-5.349-3.529-11.245-5.7-17.359-7.681-9.961-3.227-19.676-7.235-29.415-11.116-6.786-2.705-13.358-5.954-20.175-8.573-5.41-2.079-10.456-4.582-14.88-8.376-6.04-5.18-12.191-10.231-18.314-15.314-3.185-2.644-6.156-5.662-9.671-7.766-6.987-4.183-12.3-9.962-17.288-16.205-2.381-2.98-4.995-5.78-7.592-8.579-8.224-8.86-16.768-17.44-24.682-26.567-15.219-17.552-30.322-35.216-45.025-53.199-9.687-11.849-19.563-23.458-30.598-34.08-3.431-3.302-6.563-6.956-9.532-10.688-19.824-24.913-39.545-49.908-56.542-76.898-5.258-8.35-10.59-16.664-15.54-25.197-5.306-9.147-11.484-17.606-18.749-25.245-10.125-10.647-19.195-22.143-27.234-34.394-10.858-16.546-23.251-31.88-35.851-47.08-2.637-3.181-5.047-6.552-7.567-9.83-5.816-7.565-11.323-15.397-17.547-22.61-5.699-6.603-10.217-13.831-13.764-21.681-3.667-8.118-7.212-16.314-10.293-24.667-1.97-5.343-3.41-10.965-4.324-16.586-.705-4.334-1.042-9.041-.119-13.272 3.522-16.152 6.817-32.412 13.623-47.636 1.248-2.792 2.002-5.948 5.22-8.087 3.344 4.596 5.987 9.212 8.011 14.233 5.712 14.169 11.417 28.342 17.288 42.446 3.049 7.326 6.388 14.534 9.7 21.748 1.85 4.029 5.331 6.367 9.398 7.544 1.648.477 3.922.221 5.46-.574 15.601-8.064 30.437-17.096 42.187-30.63 13.012-14.987 23.86-31.398 33.713-48.526 5.713-9.932 11.257-19.964 16.747-30.023 1.825-3.344 3.621-6.788 4.785-10.395 6.441-19.966 13.373-39.811 15.658-60.861 1.372-12.642 2.823-25.279 4.52-37.881 1.192-8.852 1.306-17.68-.027-27.475 1.92.832 3.223 1.022 3.949 1.772 4.426 4.567 9.089 8.974 12.982 13.973 7.463 9.585 15.484 18.657 24.628 26.587 15.199 13.182 28.729 27.992 42.607 42.467 13.662 14.25 27.201 28.621 40.663 43.061 9.55 10.243 18.466 21.107 28.402 30.952 18.315 18.147 37.142 35.778 55.813 53.563 8.992 8.565 18.153 16.952 27.172 25.488 9.97 9.437 20.693 17.819 32.243 25.313 23.228 15.072 46.102 30.69 69.154 46.035 13.778 9.172 27.691 18.145 41.399 27.421 7.377 4.992 14.376 10.539 21.677 15.647 14.866 10.4 29.818 20.677 44.752 30.979.743.512 1.654.782 2.349 1.102 2.407-.944 2.025-2.854 1.086-3.92-3.553-4.033-7.032-8.262-11.192-11.602-8.681-6.971-17.878-13.295-26.684-20.115-21.425-16.593-44.102-31.325-66.884-45.954-25.981-16.683-51.609-33.914-77.36-50.952-12.538-8.296-23.405-18.572-34.201-28.95-9.868-9.486-19.952-18.748-29.987-28.06-20.54-19.06-40.917-38.254-59.332-59.464-9.802-11.289-20.452-21.844-30.765-32.687-15.139-15.916-30.215-31.894-45.538-47.631-5.762-5.917-12.028-11.362-18.26-16.798-10.839-9.451-20.349-20.127-29.632-31.06-4.933-5.809-10.439-11.128-15.47-16.858-2.7-3.075-5.404-6.315-7.24-9.922-1.372-2.694-1.951-6.112-1.857-9.177.373-12.119 2.152-24.105 5.461-35.762 4.461-15.714 6.469-31.757 7.646-47.978.805-11.1 1.992-22.172 2.946-33.262.245-2.85.348-5.721.36-8.582.041-9.872.263-19.753-.065-29.614-.274-8.252-1.036-16.503-1.976-24.709-.315-2.753-1.599-5.491-2.863-8.025-7.825-15.678-19.093-28.502-33.066-38.951a5945.907 5945.907 0 0 0-49.149-36.326c-3.584-2.623-7.454-4.87-11.282-7.141-11.218-6.654-22.22-13.741-33.796-19.707-13.284-6.846-27.091-12.677-40.677-18.938-2.587-1.192-5.2-2.329-8.051-3.603-1.48-7.051-.859-14.005.075-20.866.86-6.315 1.476-12.577 1.556-18.973.092-7.295 1.179-14.575 1.794-21.865a5788.95 5788.95 0 0 0 2.17-26.631c.177-2.22.046-4.486.437-6.663 4.224-23.524 4.265-47.502 7.763-71.112.926-6.25.45-12.697.891-19.034.352-5.062 1.211-10.087 1.672-15.144.344-3.769.673-7.573.531-11.344-.144-3.838-2.432-6.537-5.998-7.902-6.829-2.615-13.703-5.114-20.575-7.619-2.629-.958-5.3-1.799-8.505-2.88.912-2.324 1.403-4.107 2.266-5.687 5.492-10.058 11.061-20.075 16.616-30.099 8.135-14.681 12.268-30.663 15.192-47.018 1.145-6.406.283-12.693-1.915-18.797-.74-2.055-1.556-4.082-2.588-6.777 1.797 0 3.003-.218 4.1.034 10.222 2.349 20.485 4.461 30.374 8.171 10.158 3.811 20.858 5.703 31.508 7.66 3.123.574 6.303 1.002 9.327 1.92 11.316 3.438 22.969 4.965 34.622 6.651 11.952 1.729 23.813 4.088 35.761 5.85 7.22 1.065 14.529 1.54 21.802 2.235 2.216.212 4.481.067 6.664.436 11.599 1.96 23.327 3.422 34.727 6.215 14.507 3.555 28.745 8.212 43.096 12.405 10.992 3.212 21.902 6.744 32.987 9.593 18.195 4.675 36.116 9.894 53.64 16.917 26.304 10.543 52.437 21.436 78.372 32.845 10.773 4.739 21.847 8.792 32.74 13.263 5.003 2.053 9.93 4.302 14.828 6.595 1.312.614 2.395 1.717 4.036 2.931-1.441.745-2.192 1.394-3.024 1.524-14.11 2.202-26.41 8.166-38.361 16.017-15.015 9.866-28.581 21.225-41.456 33.614-5.578 5.367-10.205 11.34-13.926 18.075-8.476 15.343-16.452 30.882-21.656 47.743-2.247 7.279-5.412 14.286-8.354 21.336-7.525 18.036-12.315 36.82-15.011 56.11-2.334 16.696-4.02 33.481-6.194 50.2-.736 5.664-1.776 11.329-3.217 16.853-5.49 21.044-8.726 42.291-8.219 64.152.643 27.694.612 55.404.87 83.107.285 30.564.509 61.128.892 91.691.096 7.632.789 15.255 1.052 22.888.329 9.544.391 19.098.765 28.641.398 10.174.864 20.351 1.615 30.504.44 5.947 1.293 6.387 8.954 7.058z"/><path d="M924.484 1011.282c-5.582-2.249-11.589-2.851-17.645-2.907-7.369-.068-14.526-1.13-21.667-3.03-11.676-3.107-23.525-5.56-35.22-8.601-23.793-6.187-46.688-14.796-68.622-25.941a139.29 139.29 0 0 0-11.307-5.096c-12.181-4.879-23.555-11.229-34.294-18.718-10.218-7.126-21.204-12.871-32.222-18.618-8.173-4.263-16.118-8.985-24.002-13.771-6.311-3.831-11.602-8.924-16.168-14.724-7.089-9.004-14.038-18.119-21.199-27.064-7.745-9.674-12.71-20.473-14.34-32.817-.448-3.39-1.517-6.698-2.429-10.589 7.901-5.925 16.319-11.659 24.068-18.186 11.081-9.334 24.015-15.498 36.533-22.359 3.264-1.789 5.81-3.692 7.508-7.349-.664-4.463-3.92-7.469-7.215-10.487-8.449-7.738-16.929-15.446-25.244-23.326-2.282-2.162-4.272-4.735-5.96-7.395a114.634 114.634 0 0 1-6.472-11.679c-8.414-17.489-17.051-34.883-24.971-52.595-12.605-28.19-24.756-56.633-32.772-86.524-6.262-23.349-11.869-46.988-13.947-71.104-1.398-16.224-4.609-32.088-6.692-48.152-1.921-14.814-3.066-29.734-4.357-44.624a2802.71 2802.71 0 0 1-3.797-48.533c-.394-5.695-.613-11.47-.145-17.145 2.254-27.318 6.858-54.295 12.871-81.012 1.808-8.034 4.458-15.947 7.447-23.633 7.199-18.513 17.722-35.236 29.156-51.361 4.589-6.472 9.959-12.39 14.986-18.55.4-.49.952-.859 1.338-1.358 4.171-5.399 2.743-9.333-4.091-10.994-2.154-.523-4.404-.64-6.604-.984-1.485-.232-2.959-.534-5.304-.964 1.14-1.607 1.631-2.782 2.508-3.457 5.037-3.878 9.973-7.936 15.305-11.372 9.319-6.004 19.901-8.261 30.791-9.274 3.171-.295 6.346-.43 9.11-2.383 2.629-1.858 3.293-5.273.774-7.302-2.671-2.152-5.698-4.144-8.897-5.302-7.436-2.693-15.069-4.843-22.607-7.209-.188-2.095 1.377-2.735 2.818-3.31 9.454-3.776 18.878-7.638 28.419-11.184 6.254-2.325 12.634-4.356 19.052-6.184 13.029-3.712 26.312-4.237 39.756-2.92 5.05.495 10.167.359 15.254.373 1.57.004 3.172-.321 4.703-.716 2.207-.569 4.256-1.531 4.926-3.991.67-2.458-.486-4.202-2.289-5.816-9.284-8.314-19.042-15.922-30.347-21.378-7.451-3.596-14.837-7.33-22.215-11.075-.699-.355-1.133-1.231-2.412-2.688 2.34-.166 3.774-.354 5.208-.355 14.013-.012 28.028-.128 42.039.046 29.528.368 58.288 4.979 85.884 15.895 5.027 1.989 10.139 3.804 15.311 5.369 2.37.717 4.991.912 7.482.837 2.652-.08 4.431-3.173 3.438-5.631-.589-1.457-1.462-2.813-2.31-4.15-10.466-16.503-23.434-30.909-37.385-44.485-1.114-1.084-2.276-2.118-4.651-4.32 2.869.278 4.272.135 5.463.571 20.975 7.68 41.168 17.104 60.377 28.464 16.212 9.587 31.185 20.952 44.506 34.341 2.892 2.907 5.147 6.439 7.907 9.491.7.774 2.352 1.311 3.314 1.045.944-.261 2.104-1.622 2.216-2.608.207-1.829-.107-3.775-.508-5.606-2.481-11.327-6.765-21.851-13.975-31.071-1.28-1.637-2.271-3.5-3.405-5.273 2.601-1.599 4.152.02 5.612.971 10.4 6.774 20.645 13.79 31.088 20.497 13.991 8.986 25.871 20.636 39.085 30.596 1.525 1.149 2.949 2.437 4.511 3.529 12.097 8.458 22.469 18.655 31.587 30.267 3.513 4.473 7.768 8.446 12.084 12.187 7.781 6.746 14.338 14.504 19.804 23.143 12.947 20.465 25.097 41.411 34.352 63.832 7.039 17.054 12.953 34.439 16.207 52.8 3.109 17.543 6.396 35.046 8.431 52.74 2.725 23.689 6.008 47.31 5.239 71.318-.457 14.266.779 28.587 1.302 42.882.046 1.249.289 2.543.719 3.714.89 2.428 4.479 3.528 6.37 1.848 1.643-1.461 3.062-3.211 4.399-4.971 3.679-4.843 7.713-9.308 12.744-12.801 9.859-6.845 21.655-4.069 27.398 6.68 3.336 6.242 5.229 13.075 5.784 20.083.909 11.493.15 22.866-3.575 33.958-4.194 12.488-10.017 23.985-18.137 34.447-8.184 10.545-16.409 21.123-21.725 33.581-7.002 16.411-13.431 33.014-17.851 50.335-2.201 8.625-5.122 17.145-6.42 25.904-2.001 13.498-4.28 27.037-3.99 40.778.233 11.011 2.52 21.453 8.817 30.767 2.182 3.228 4.728 5.889 8.204 7.784 10.346 5.641 20.798 11.001 31.772 15.384 8.261 3.299 16.285 7.212 24.323 11.042 2.854 1.36 5.478 3.222 8.141 4.958 10.642 6.94 13.703 17.282 11.97 29.082-2.089 14.221-5.989 28.03-12.775 40.816-9.7 18.275-19.483 36.502-31.409 53.484-8.776 12.497-17.565 24.995-25.92 37.774-9.736 14.891-23.689 22.761-40.802 25.506-11.601 1.861-23.219 2.549-35.094 2.117-23.148-.842-45.167-7.133-67.532-11.863-3.731-.789-7.356-2.111-11.103-2.775-8.214-1.455-12.821 1.892-13.861 10.31-.422 3.415.009 6.969.318 10.436.867 9.721-.649 18.963-4.608 27.924-2.693 6.096-6.748 10.722-12.531 13.902-2.788 1.534-5.809 2.73-8.37 4.573-5.644 4.063-11.063 8.439-17.339 13.277zm-74.067-380.838c3.652.18 6.205-.007 8.623.477 11.212 2.245 22.339 4.932 33.587 6.961 9.279 1.674 17.591 5.388 25.376 10.448 3.727 2.422 7.221 5.206 10.781 7.88 8.131 6.11 16.235 12.258 24.36 18.376.756.569 1.545 1.343 2.401 1.47 1.131.168 2.685.185 3.426-.458.765-.664 1.196-2.272 1.013-3.335-.26-1.505-1.12-2.945-1.897-4.314-2.669-4.701-5.528-9.298-8.107-14.046-6.546-12.052-14.589-23.097-22.805-34.017-1.274-1.693-3.184-3.158-5.113-4.062-6.609-3.1-13.322-5.989-20.06-8.803-14.706-6.143-29.623-11.638-45.697-12.874-2.774-.213-5.687.103-8.399.749-2.707.645-4.215 2.752-4.055 5.705.555 10.198 2.787 20.003 6.566 29.845zM719.256 344.102c-9.524-.646-17.338.748-25.115 2.554-4.333 1.006-8.696 1.894-13.063 2.749-12.483 2.447-25.016 4.615-37.254 8.231-5.359 1.583-10.144 3.85-13.656 8.233-6.958 8.685-13.808 17.457-20.668 26.22-.577.737-1.216 1.663-1.258 2.528-.072 1.478-.092 3.202.588 4.418 1.057 1.889 3.175 2.045 5.07 1.329 1.769-.668 3.523-1.533 5.061-2.625 4.925-3.496 9.924-6.926 14.559-10.784 4.571-3.805 9.614-6.041 15.461-6.858 4.4-.614 8.741-1.632 13.122-2.394 5.948-1.035 11.887-2.168 17.87-2.945 5.993-.778 12.052-1.041 18.054-1.764 7.289-.878 14.525-1.74 21.808.159 3.196.833 5.709-.612 7.016-3.564 2.059-4.65 4.033-9.352 5.703-14.15.596-1.714.399-3.791.221-5.67-.306-3.236-2.265-5.345-5.469-5.612-3.16-.263-6.359-.057-8.053-.057zm-20.772 344.283.442.087c-.042.315-.085.629-.125.944-.293 2.361.117 4.49 2.353 5.757 1.527.866 3.727-.385 5.305-2.927.668-1.076 1.131-2.279 1.795-3.359 7.693-12.506 16.237-24.205 28.793-32.466 10.305-6.779 19.631-15.176 31.945-18.498 2.766-.746 3.845-2.939 4.361-5.659 1.594-8.407 3.345-16.784 5.015-25.177.309-1.555.647-3.121.754-4.696.301-4.415-2.554-6.576-6.677-4.603-9.141 4.374-18.5 8.48-27.066 13.822-12.125 7.562-23.285 16.484-32.923 27.234-3.757 4.19-6.511 8.351-6.844 14.156-.197 3.43-1.579 6.778-2.261 10.196-1.674 8.386-3.251 16.791-4.867 25.188zm301.389-323.378c1.68 0 1.998.004 2.315 0 3.151-.042 4.972-.978 5.387-2.884.548-2.517-.699-4.292-2.615-5.67a77.775 77.775 0 0 0-4.769-3.14c-4.601-2.82-9.392-5.364-13.81-8.444-13.355-9.314-28.18-10.476-43.677-8.378-7.209.976-14.412 2.671-21.633 2.755-15.708.181-30.739 4.45-46.107 6.619-1.226.173-2.44.671-3.576 1.197-1.862.862-3.06 2.387-3.015 4.462.099 4.521 1.188 8.882 3.833 12.543.968 1.34 3.106 2.435 4.782 2.545 4.088.268 8.224-.016 12.33-.25 2.839-.162 5.655-.732 8.494-.914 15.222-.977 30.327-2.745 45.129-6.573 3.41-.882 6.747-1.011 10.31-.806 11.45.66 22.674 2.501 33.846 4.965 4.636 1.022 9.399 1.466 12.775 1.973zM878.621 664.605c-1.391 0-2.361.179-3.24-.028-8.316-1.953-16.386-1.259-24.328 1.87-5.023 1.979-10.209 3.547-15.206 5.583-5.728 2.335-10.797 2.207-16.148-1.535-12.583-8.798-26.425-11.509-41.721-8.542-11.257 2.183-19.834 8.026-27.185 16.251-.988 1.105-1.492 2.789-1.802 4.291-.151.73.462 1.914 1.102 2.427.636.51 2.002.88 2.591.534 1.889-1.108 3.662-2.468 5.309-3.925 5.563-4.919 11.751-9.064 18.933-10.693 9.344-2.121 18.894-2.806 27.908 1.956 3.645 1.926 7.449 3.58 10.96 5.721 4.537 2.768 9.337 4.108 14.555 3.351 2.798-.406 5.554-1.295 8.243-2.216 6.014-2.061 11.868-4.67 17.984-6.328 6.741-1.827 13.687-2.564 20.505.803.584 2.637 1.119 5.1 1.676 7.557 2.628 11.599 10.24 19.472 19.604 25.961 1.894 1.313 4.092 1.806 6.042-.854-.326-3.068-1.979-5.71-4.01-8.179-2.424-2.946-4.887-5.86-7.275-8.835-4.833-6.02-7-12.764-5.373-20.485.721-3.421 1.595-6.815 2.165-10.261.249-1.502.15-3.16-.219-4.641-.533-2.14-3.961-3.032-5.475-1.451-1.068 1.114-2.017 2.451-2.643 3.856-1.139 2.557-1.998 5.238-2.953 7.811zM666.515 423.423c.935 2.898 1.408 4.739 2.115 6.486 2.402 5.939 6.923 8.637 13.268 9.075 12.443.859 21.659-3.6 26.791-15.353.381-.872.769-1.756 1.281-2.553.973-1.515 2.037-2.971 3.168-4.601 3.953 1.64 7.413 3.216 10.976 4.508 2.66.965 5.413 1.797 8.197 2.258 2.849.472 5.038-.995 5.074-3 .04-2.252-1.387-3.296-3.403-3.919-3.334-1.031-6.631-2.185-9.927-3.334-6.288-2.193-12.516-4.572-18.87-6.551-2.341-.729-5.033-1.029-7.452-.698-19.482 2.661-37.17 10.392-54.287 19.639-1.105.597-2.328 1.275-3.016 2.253-.62.881-1.102 2.496-.69 3.294.45.871 2.056 1.724 3.054 1.616 2.169-.234 4.351-.891 6.387-1.718 5.52-2.243 10.966-4.666 17.336-7.401zm295.051-18.301c3.779.412 7.513.959 11.268 1.189 4.092.251 8.208.354 12.298.174.851-.038 1.909-1.488 2.329-2.51.202-.492-.695-1.943-1.381-2.201-2.943-1.109-5.935-2.394-9.014-2.782-10.696-1.348-21.592-1.576-32.116-3.697-10.731-2.163-20.827-.441-30.996 2.05-4.898 1.2-9.687 2.981-14.367 4.886-3.357 1.367-4.493 3.44-4.053 5.669.398 2.012 2.912 2.658 6.503 1.605 1.521-.446 2.996-1.048 4.51-1.523 3.266-1.022 6.545-1.993 10.441-2.201.209 2.295.35 4.131.547 5.961.753 6.99 4.196 11.195 10.997 12.395 10.891 1.921 20.774-.864 27.572-10.675 1.788-2.58 3.445-5.251 5.462-8.34zm283.501 1276.021c-1.562-3.707-2.531-5.984-3.482-8.269-8.189-19.683-16.216-39.436-24.65-59.013-2.756-6.397-6.249-12.545-10.024-18.408-2.186-3.394-5.418-6.213-8.533-8.877-2.391-2.044-5.233-3.64-8.051-5.091-11.869-6.112-20.921-15.455-29.474-25.387-4.643-5.391-7.639-11.635-9.869-18.376-6.268-18.956-8.686-38.403-7.937-58.295.215-5.701.473-11.4.74-17.771 2.226.702 4.099.964 5.63 1.83 9.479 5.36 17.812 12.232 25.804 19.588 3.491 3.213 7.35 6.063 11.249 8.779 1.436 1 3.519 1.742 5.306-.649-.291-2.827-2.447-4.78-4.34-6.826-10.231-11.057-21.967-20.256-34.806-28.093-3.257-1.988-6.649-3.832-9.621-6.193-14.512-11.531-30.3-21.071-46.43-30.084-8.334-4.657-16.639-9.384-25.151-13.697-18.58-9.412-32.184-23.657-41.318-42.185-4.544-9.217-6.406-19.34-8.113-29.373-2.896-17.026-7.688-33.516-14.16-49.44-5.198-12.787-7.798-26.192-11.213-39.42-1.43-5.537-3.028-11.034-4.33-16.601-.939-4.016-1.817-8.09-2.199-12.186-1.418-15.202-2.834-30.41-3.797-45.644-.38-6 .15-12.104.761-18.11 1.159-11.389 2.595-22.752 4.066-34.106 1.835-14.164 9.805-24.762 20.691-33.129 6.355-4.885 14.365-6.774 22.098-8.617 10.535-2.51 21.2-4.124 32.126-3.943 18.786.312 37.473 1.589 55.939 5.121 4.972.951 9.896 2.45 14.642 4.229 17.58 6.587 35.12 13.266 52.18 21.169 11.542 5.347 23.338 10.149 35.03 15.17 14.062 6.039 27.264 13.654 40.565 21.194 25.331 14.36 48.036 32.326 70.911 50.062 12.914 10.013 24.07 21.769 31.321 36.763 1.4 2.896 2.481 5.714 2.903 8.969 2.344 18.088 2.398 36.32 1.035 54.35-1.7 22.487-2.577 45.115-6.664 67.385-.689 3.754-1.235 7.577-2.396 11.193-4.31 13.423-5.836 27.317-7.412 41.218-.588 5.187-.398 10.43 2.531 14.765 6.106 9.04 6.554 19.085 5.858 29.3-.581 8.541-1.78 17.043-2.829 25.547-1.946 15.781-3.831 31.596-7.682 47.045-5.087 20.408-11.013 40.51-22.279 58.637-8.731 14.049-16.739 28.549-25.55 42.546-8.699 13.818-19.422 26.073-32.037 36.449-7.844 6.451-17.207 10.615-27.037 16.475z"/><path d="M977.65 939.449c2.626.495 5.384.925 8.1 1.541 16.121 3.654 32.122 7.973 48.377 10.872 19.144 3.414 38.523 4.703 57.924 1.428 14.355-2.423 27.606-7.496 39.03-16.664 2.686-2.156 4.956-4.968 6.977-7.793 9.995-13.975 19.845-28.052 29.738-42.1 1.997-2.836 3.956-5.699 6.13-8.836 10.125 2.623 19.561 6.171 28.791 10.324 2.351 1.058 3.167 2.993 3.156 5.39-.004.949-.042 1.938-.303 2.84-2.339 8.085-1.627 16.373-2.031 24.623-.746 15.237-2.373 30.433-3.741 45.637-1.365 15.18-3.035 30.334-4.263 45.524-1.869 23.127-2.305 46.368-5.675 69.38-.631 4.313-.498 8.737-.745 13.666-1.792-.366-3.171-.285-4.103-.892-12.691-8.262-27.199-12.263-41.113-17.65-1.185-.459-2.482-.655-3.627-1.189-14.213-6.631-29.529-7.029-44.758-8.295-10.459-.87-20.86-2.032-31.391-1.66-17.329.611-34.116 3.751-50.147 10.41-3.171 1.317-6.342 3.158-8.83 5.488a219.735 219.735 0 0 0-15.219 15.785c-3.846 4.401-5.435 9.986-6.681 15.641-4.336 19.668-6.61 39.57-6.055 59.698.316 11.44 1.435 22.86 2.297 34.282.191 2.525.74 5.033 1.262 7.52 2.805 13.364 5.532 26.747 8.533 40.067 1.676 7.437 3.838 14.764 5.769 22.144.397 1.517.744 3.048 1.285 5.276-1.813.143-3.293.586-4.631.318-25.906-5.178-52.132-8.063-78.336-11.132a3708.714 3708.714 0 0 1-52.964-6.569c-5.665-.746-11.214-2.364-16.877-3.134-7.557-1.028-15.193-1.466-22.761-2.424-19.576-2.477-39.17-4.224-58.948-3.304-6.658.31-13.355-.202-20.034-.387-4.613-.128-8.724-1.74-12.272-4.641-5.417-4.429-10.706-9.015-16.143-13.419-2.955-2.394-5.802-5.286-9.218-6.677-10.579-4.309-20.902-9.344-32.198-11.793-8.691-1.884-17.283-4.227-25.903-6.429-.868-.222-1.624-.883-3.048-1.689 5.402-6.58 11.095-12.224 19.003-15.172 5.118-1.908 10.461-2.983 15.912-2.579 7.603.564 15.177 1.523 22.767 2.277 8.535.848 17.049 1.638 25.48 3.474 4.979 1.084 9.267-1.506 12.69-5.211 3.24-3.506 6.499-6.997 9.659-10.574 4.189-4.743 9.297-7.592 15.66-8.195 2.848-.27 5.674-.795 8.5-1.264 7.052-1.171 12.386-4.608 15.379-11.365 3.348-7.558 7.03-14.971 10.247-22.581 1.664-3.937 4.135-6.103 8.406-6.7 3.45-.482 6.813-1.588 10.213-2.423 9.545-2.344 16.453-8.019 20.972-16.672 2.357-4.513 4.574-9.099 6.982-13.584 5.661-10.545 14.246-18.079 25.402-21.965 11.355-3.955 19.671-11.38 27.107-20.306 7.73-9.278 15.488-18.535 23.398-27.66 4.367-5.038 8.768-10.122 13.714-14.561 4.459-4.001 9.282-8.01 14.646-10.507 13.43-6.253 21.435-16.402 25.196-30.496 2.157-8.081 3.607-16.087 2.179-24.476-.567-3.33-1.521-6.878 1.129-10.635z"/></g><path d="M850.417 630.444c-3.779-9.842-6.011-19.646-6.566-29.845-.161-2.953 1.347-5.06 4.055-5.705 2.712-.646 5.626-.962 8.399-.749 16.074 1.236 30.991 6.731 45.697 12.874 6.738 2.815 13.451 5.703 20.06 8.803 1.928.904 3.839 2.369 5.113 4.062 8.216 10.92 16.259 21.965 22.805 34.017 2.579 4.749 5.438 9.345 8.107 14.046.777 1.369 1.637 2.809 1.897 4.314.184 1.063-.248 2.671-1.013 3.335-.742.644-2.295.627-3.426.458-.856-.127-1.645-.901-2.401-1.47-8.126-6.118-16.229-12.266-24.36-18.376-3.559-2.674-7.054-5.458-10.781-7.88-7.785-5.06-16.097-8.774-25.376-10.448-11.248-2.029-22.376-4.716-33.587-6.961-2.418-.484-4.971-.298-8.623-.477zM719.256 344.102c1.694 0 4.893-.206 8.053.057 3.204.267 5.163 2.375 5.469 5.612.177 1.879.375 3.955-.221 5.67-1.67 4.798-3.644 9.5-5.703 14.15-1.307 2.951-3.82 4.397-7.016 3.564-7.284-1.899-14.519-1.036-21.808-.159-6.002.723-12.061.986-18.054 1.764-5.983.777-11.922 1.91-17.87 2.945-4.381.762-8.722 1.78-13.122 2.394-5.847.817-10.89 3.053-15.461 6.858-4.635 3.858-9.634 7.287-14.559 10.784-1.538 1.092-3.292 1.957-5.061 2.625-1.896.716-4.013.559-5.07-1.329-.681-1.216-.66-2.939-.588-4.418.042-.866.681-1.791 1.258-2.528 6.86-8.763 13.71-17.535 20.668-26.22 3.512-4.383 8.296-6.65 13.656-8.233 12.238-3.616 24.771-5.784 37.254-8.231 4.366-.856 8.729-1.743 13.063-2.749 7.778-1.806 15.591-3.2 25.115-2.554zm-20.772 344.283c1.616-8.397 3.193-16.802 4.867-25.188.682-3.418 2.064-6.767 2.261-10.196.333-5.804 3.087-9.965 6.844-14.156 9.638-10.75 20.799-19.673 32.923-27.234 8.567-5.343 17.925-9.448 27.066-13.822 4.123-1.973 6.978.189 6.677 4.603-.107 1.576-.445 3.141-.754 4.696-1.669 8.393-3.421 16.77-5.015 25.177-.516 2.72-1.595 4.913-4.361 5.659-12.313 3.322-21.64 11.719-31.945 18.498-12.557 8.261-21.1 19.96-28.793 32.466-.664 1.079-1.127 2.282-1.795 3.359-1.578 2.542-3.778 3.792-5.305 2.927-2.236-1.267-2.646-3.396-2.353-5.757.039-.315.083-.63.125-.944l-.442-.087zm301.389-323.378c-3.375-.507-8.139-.951-12.775-1.973-11.172-2.464-22.396-4.305-33.846-4.965-3.563-.205-6.9-.076-10.31.806-14.802 3.828-29.907 5.596-45.129 6.573-2.839.182-5.655.752-8.494.914-4.107.235-8.242.518-12.33.25-1.676-.11-3.814-1.205-4.782-2.545-2.644-3.661-3.734-8.023-3.833-12.543-.045-2.075 1.153-3.6 3.015-4.462 1.136-.526 2.35-1.024 3.576-1.197 15.368-2.169 30.399-6.438 46.107-6.619 7.221-.083 14.424-1.778 21.633-2.755 15.497-2.098 30.321-.936 43.677 8.378 4.417 3.081 9.208 5.624 13.81 8.444a77.775 77.775 0 0 1 4.769 3.14c1.916 1.378 3.163 3.153 2.615 5.67-.415 1.906-2.236 2.842-5.387 2.884-.317.004-.635 0-2.315 0zM878.621 664.605c.955-2.572 1.814-5.254 2.953-7.811.626-1.405 1.575-2.741 2.643-3.856 1.514-1.581 4.941-.689 5.475 1.451.369 1.481.468 3.14.219 4.641-.57 3.445-1.444 6.84-2.165 10.261-1.627 7.72.539 14.464 5.373 20.485 2.388 2.975 4.852 5.889 7.275 8.835 2.031 2.47 3.684 5.111 4.01 8.179-1.95 2.66-4.148 2.167-6.042.854-9.364-6.49-16.976-14.362-19.604-25.961-.557-2.458-1.092-4.92-1.676-7.557-6.818-3.367-13.764-2.631-20.505-.803-6.116 1.658-11.97 4.267-17.984 6.328-2.689.921-5.445 1.81-8.243 2.216-5.218.757-10.018-.583-14.555-3.351-3.51-2.141-7.315-3.795-10.96-5.721-9.015-4.763-18.564-4.077-27.908-1.956-7.182 1.63-13.37 5.774-18.933 10.693-1.647 1.456-3.42 2.817-5.309 3.925-.59.346-1.955-.025-2.591-.534-.64-.513-1.253-1.697-1.102-2.427.31-1.502.814-3.186 1.802-4.291 7.351-8.225 15.928-14.068 27.185-16.251 15.295-2.966 29.138-.256 41.721 8.542 5.351 3.742 10.42 3.87 16.148 1.535 4.997-2.037 10.184-3.604 15.206-5.583 7.942-3.129 16.012-3.823 24.328-1.87.88.207 1.85.028 3.24.028zM666.515 423.423c-6.37 2.735-11.817 5.158-17.336 7.401-2.037.828-4.218 1.485-6.387 1.718-.998.108-2.604-.745-3.054-1.616-.412-.798.07-2.413.69-3.294.688-.978 1.911-1.657 3.016-2.253 17.118-9.247 34.806-16.978 54.287-19.639 2.419-.33 5.111-.03 7.452.698 6.354 1.978 12.582 4.358 18.87 6.551 3.296 1.149 6.593 2.303 9.927 3.334 2.016.623 3.443 1.668 3.403 3.919-.035 2.005-2.225 3.471-5.074 3-2.783-.461-5.537-1.293-8.197-2.258-3.563-1.292-7.023-2.868-10.976-4.508-1.13 1.63-2.195 3.086-3.168 4.601-.512.797-.9 1.681-1.281 2.553-5.132 11.753-14.349 16.213-26.791 15.353-6.345-.438-10.865-3.135-13.268-9.075-.706-1.747-1.18-3.587-2.115-6.486zm295.051-18.301c-2.017 3.089-3.674 5.76-5.462 8.34-6.798 9.811-16.681 12.596-27.572 10.675-6.801-1.199-10.244-5.405-10.997-12.395-.197-1.83-.338-3.666-.547-5.961-3.895.208-7.175 1.179-10.441 2.201-1.514.474-2.989 1.076-4.51 1.523-3.591 1.054-6.105.407-6.503-1.605-.44-2.229.696-4.302 4.053-5.669 4.68-1.905 9.469-3.686 14.367-4.886 10.169-2.491 20.264-4.213 30.996-2.05 10.524 2.121 21.42 2.349 32.116 3.697 3.079.388 6.071 1.674 9.014 2.782.685.258 1.582 1.709 1.381 2.201-.419 1.022-1.478 2.472-2.329 2.51-4.09.181-8.207.077-12.298-.174-3.754-.23-7.489-.778-11.268-1.189z"/></svg></g></svg>
