<svg xmlns="http://www.w3.org/2000/svg" viewBox="0 0 3000 3000" width="3000" height="3000"><g transform="translate(240.0 68.39999999999999) rotate(0.0 1257.0 1434.6) scale(1.2808246187330534 1.2805349933456094)"><svg width="1962.798" height="2240.626" viewBox="0 0 1962.798 2240.626"><path d="M493.558 1102.957c8.953-24.89 12.945-49.656 16.077-74.591.303-2.411-.376-5.319-1.546-7.485-21.928-40.567-32.437-84.631-40.623-129.543-7.453-40.895-13.315-81.936-13.205-123.559.035-13.221.007-26.102-2.37-39.294-2.331-12.935-6.091-24.864-13.115-35.694-13.271-20.463-19.949-43.098-23.368-66.954-1.001-6.985-1.971-14.03-3.759-20.837-4.305-16.388-3.02-32.171 2.736-48.057 6.71-18.518 9.216-37.721 6.097-57.361-1.798-11.323-4.51-22.527-5.812-33.898-2.409-21.045-4.201-42.163-6.038-63.27-2.451-28.16 2.467-55.55 10.142-82.393 7.523-26.312 16.132-52.274 29.987-76.215 14.857-25.672 33.622-47.497 58.753-63.615 44.3-28.412 89.166-56.06 139.734-71.847 31.543-9.848 60.206-24.741 88.58-41.07 52.805-30.39 109.041-52.116 169.149-62.949 30.621-5.519 61.597-4.853 92.519-2.942 74.221 4.586 147.411 16.098 219.625 33.674 31.167 7.586 60.006 20.906 86.571 38.849 34.158 23.073 71.242 40.583 108.379 58.049 21.161 9.952 42.457 19.655 63.271 30.294 8.131 4.156 16.087 9.61 22.449 16.112 34.59 35.352 70.126 69.926 99.373 110.062 6.685 9.174 12.663 19.294 16.772 29.834 12.682 32.532 23.723 65.546 25.154 101.028 1.875 46.499-1.675 92.571-7.18 138.741-7.753 65.019-21.296 128.812-35.484 192.61-5.729 25.762-7.766 52.368-11.069 78.642-6.674 53.099-8.985 106.431-8.666 159.942.319 53.513-13.83 104.264-35.377 152.407-17.213 38.462-42.207 72.474-74.917 100.002-18.223 15.336-36.551 30.547-54.75 45.912-2.639 2.229-5.307 4.694-7.131 7.576-15.589 24.623-30.995 49.362-46.406 74.098-.655 1.052-.815 2.413-1.631 4.956 4.559 1.597 8.974 3.19 13.421 4.692 30.925 10.446 62.443 19.431 92.619 31.716 29.354 11.95 57.34 27.263 85.918 41.119 42.229 20.475 81.889 45.133 119.816 72.747 11.028 8.029 23.484 14.065 34.877 21.629 47.462 31.512 95.794 61.967 139.385 98.746 20.456 17.259 37.984 38.077 56.187 57.882 11.21 12.197 15.126 27.493 15.478 43.996a1240.64 1240.64 0 0 0 2.599 58.133c.791 11.572 4.89 22.254 10.937 32.315 13.664 22.734 20.852 47.669 23.124 73.954 2.889 33.423 6.317 66.848 7.658 100.346 2.226 55.595 3.166 111.246 4.23 166.882.329 17.201-.552 34.434-1.168 51.642-.33 9.217-2.397 10.66-14.143 10.656-58.33-.02-116.66-.158-174.991-.153-565.188.041-1130.376.106-1695.563.136-18.558 0-37.118-.253-55.675-.504-4.72-.064-9.433-.572-13.279-.819 0-29.072.164-56.8-.027-84.526a526952.72 526952.72 0 0 0-3.236-442.744c-.34-43.74-.979-87.477-1.485-131.215-.832-71.797-.495-143.6-1.073-215.399-.431-53.465-.314-106.933-.442-160.4-.003-1.326.347-2.77-.057-3.959-5.998-17.659 6.089-24.781 18.203-32.545 16.374-10.494 33.768-11.643 52.088-7.656 4.315.939 8.654 1.786 12.932 2.872 20.083 5.095 38.799 5.057 55.934-9.66 15.227-13.079 34.107-11.277 51.864-7.165 17.944 4.156 35.446 10.419 52.855 16.571 5.778 2.042 11.142 3.844 16.322.412 21.956-14.551 45.748-11.592 69.178-6.479 10.714 2.338 18.133-.651 25.033-7.393 4.719-4.611 8.827-9.871 13.004-15.007 8.963-11.02 20.117-18.575 34.15-21.221 10.396-1.961 20.874-3.623 31.384-4.819 19.283-2.194 38.616-3.945 59.026-5.991zm23.702-67.865c-.904 2.19-1.7 3.364-1.861 4.619-3.567 27.687-10.817 54.467-18.924 81.122-2.218 7.291-2.192 15.733-1.278 23.419 2.683 22.56 10.615 43.756 20.102 64.174 18.091 38.934 33.184 78.85 43.002 120.693 1.713 7.3 3.264 14.658 5.415 21.832 8.996 30.002 18.479 59.861 27.239 89.931 9.624 33.037 20.455 65.869 27.498 99.475 9.735 46.448 26.893 90.47 40.774 135.528 11.26 36.551 25.537 72.208 39.3 107.944 11.441 29.708 22.097 59.619 29.137 90.683 9.748 43.017 25.855 84.39 31.883 128.406 8.568 62.566 17.686 125.036 20.115 188.254.537 13.971 1.997 27.906 3.081 42.53h118.908c.98-3.5 1.449-7 2.897-10.033 6.262-13.125 12.837-26.099 19.248-39.154 15.564-31.695 31.639-63.155 46.461-95.195 10.176-21.997 18.745-44.747 27.769-67.266 15.599-38.927 31.055-77.913 46.459-116.918 19.609-49.653 39.08-99.36 58.685-149.015 2.717-6.881 5.863-13.592 9.264-21.425-4.88.287-8.354.38-11.805.714-11.815 1.141-23.601 2.645-35.434 3.504-27.015 1.962-53.72-1.814-80.482-4.68-26.226-2.808-51.327-9.085-73.865-23.299-25.494-16.078-48.785-34.956-70.573-55.795-44.049-42.128-78.413-92.051-113.941-141.028-7.77-10.711-14.611-22.11-21.623-33.352-2.297-3.684-5.925-7.405-3.008-13.788 1.773 2.191 2.932 3.397 3.836 4.772 32.558 49.516 67.772 97.1 105.902 142.428 28.282 33.621 60.813 62.82 97.601 87.068 17.926 11.816 37.307 20.038 58.688 23.006 17.033 2.364 34.084 4.612 51.16 6.642 4.524.538 9.166.081 16.218.081-12.592-6.789-22.662-13.039-33.393-17.798-13.686-6.07-22.805-16.372-30.137-28.751-25.425-42.928-50.807-85.881-76.096-128.889-1.289-2.193-1.553-4.989-2.295-7.504l2.807-1.287c9.6 15.75 19.215 31.491 28.796 47.253 18.349 30.186 36.442 60.532 55.199 90.462 4.111 6.559 9.596 13.322 16.123 17.088 14.855 8.572 30.425 16.158 46.356 22.51 8.311 3.314 18.108 4.825 27.053 4.265 26.713-1.674 53.988-1.521 78.205-16.023 3.321-1.989 7.83-1.98 11.181-3.937 9.446-5.518 19.808-10.281 27.589-17.677 20.369-19.362 35.871-42.616 46.852-68.46 10.173-23.944 18.687-48.588 28.561-72.665 12.383-30.194 23.776-60.952 38.492-90 31.548-62.272 67.89-121.871 105.895-180.431 24.392-37.585 45.98-76.417 53.698-121.401 3.571-20.809 10.435-41.194 7.684-62.784-3.513-27.576-6.335-55.257-10.592-82.716-4.601-29.68-1.062-57.997 10.321-85.617 7.034-17.067 13.641-34.309 19.529-49.172l-13.714-20.178c-.783-.144-1.71-.603-2.479-.414-30.396 7.448-60.638 15.16-89.339 28.254-12.725 5.805-26.53 9.47-40.116 13.09-10.384 2.766-14.058-.13-17.133-10.975-1.081-3.814-1.735-7.752-2.522-11.646-4.503-22.259-2.057-27.268 18.973-34.654 27.845-9.779 55.732-19.5 83.917-28.226 14.261-4.415 29.215-6.591 43.858-9.771 6.147-1.335 11.055 1.021 15.882 4.679 7.062 5.352 9.345 12.343 9.027 20.844-.299 7.987-.064 15.995-.064 23.993 5.414-27.471 7.121-55.046 1.435-82.495-2.467-11.911-3.036-23.572-1.489-35.5.851-6.561 1.726-13.127 2.275-19.717 2.346-28.146 4.582-56.302 6.845-84.455 2.384-29.654.81-59.271-3.553-88.536-6.955-46.652-21.199-91.06-45.245-132.017-2.125-3.619-3.873-8.289-3.62-12.335 1.239-19.794 2.646-39.613 5.094-59.285 2.373-19.065 3.8-38.146-3.286-56.214-7.235-18.449-16.411-36.138-24.773-54.143-7.418-15.971-14.84-31.94-22.395-47.847-.777-1.636-2.475-2.835-3.745-4.237-1.226 5.443-1.061 10.33.619 14.624 3.849 9.838 8.286 19.458 12.759 29.038 9.331 19.983 18.879 39.864 28.264 59.822 7.016 14.922 7.329 30.891 5.976 46.764-1.608 18.876-4.385 37.653-6.749 56.461-.049.391-1.245.638-1.986.991-35.104-51.179-62.143-106.725-87.744-163.011-8.213-18.057-16.213-36.298-18.921-56.305-.418-3.091-2.537-5.952-4.437-10.185-1.441 2.689-2.645 3.869-2.447 4.727 3.35 14.556 5.356 29.661 10.701 43.467 9.069 23.425 19.492 46.416 30.767 68.876 14.647 29.177 30.369 57.832 46.221 86.383 13.274 23.907 28.243 46.898 40.967 71.08 24.41 46.393 36.603 96.267 39.813 148.524 2.664 43.379-3.41 86.285-6.171 129.373-.032.494-1.294.909-2.089 1.431-2.47-13.361-3.889-26.969-7.596-39.922-9.397-32.831-14.107-66.462-18.308-100.163-4.462-35.794-17.21-67.519-43.689-92.578-31.724-30.023-67.449-54.731-108.173-70.454-63.031-24.335-128.05-40.399-196.461-36.197-27.736 1.704-55.691 2.89-83.029 7.43-70.152 11.648-136.473 35.91-200.394 66.507-72.057 34.492-138.068 78.784-200.091 128.852-29.869 24.112-58.044 50.337-86.691 75.935-5.425 4.847-9.464 11.244-14.464 17.316 42.437 15.203 91.557 56.811 93.519 80.016-3.448-2.828-6.335-4.641-8.51-7.087-5.576-6.271-11.081-12.635-16.176-19.298-13.511-17.668-31.584-29.478-50.947-39.382-15.072-7.71-30.595-7.665-45.765.513-10.436 5.626-19.14 16.351-21.028 25.831 4.596-3.207 9.122-6.781 14.033-9.709 11.311-6.746 23.375-7.865 35.597-2.96 26.103 10.478 46.507 27.49 56.844 54.176 6.998 18.066 12.321 36.79 18.084 55.316 1.183 3.803.99 8.033 1.431 12.067l-3.069.663c-1.691-4.798-3.453-9.573-5.061-14.399-5.436-16.322-10.277-32.867-16.342-48.951-9.61-25.486-28.636-41.917-53.24-52.386-11.422-4.86-22.482-3.972-32.742 3.105-19.903 13.729-29.307 33.779-31.931 56.923-1.332 11.751-.227 23.835.375 35.738 1.922 38.005 8.137 75.507 15.443 112.728 6.632 33.784 15.217 67.331 31.166 98.144 5.989 11.571 14.131 22.52 23.213 31.89 16.338 16.857 43.734 16.588 61.337.971 2.105-1.868 4.249-3.693 8.703-7.56-1.992 11.749-7.898 17.156-15.279 19.665-11.216 3.812-12.6 11.301-12.144 21.583.703 15.864.214 31.79-.082 47.683-.102 5.448-.302 11.235-6.113 15.432v-78.046c-23.455-.628-27.942-2.525-51.465-22zm784.144 436.07c6.622 14.374 12.484 27.206 18.435 39.996 20.855 44.817 41.731 89.624 62.621 134.425 8.768 18.804 18.56 37.2 26.176 56.458 14.113 35.685 27.295 71.75 40.262 107.874 14.928 41.59 26.612 84.147 34.692 127.597 6.612 35.559 12.473 71.26 18.464 106.932 1.56 9.286 2.36 18.7 3.527 28.193l-96.92-10.718c1.264-12.713-5.686-18.904-14.57-24.057-12.286-7.127-18.121-17.822-16.158-32.135.956-6.968 2.5-13.856 3.762-20.783 2.369-13.005 5.078-25.961 6.954-39.037 1.108-7.729-.542-14.858-10.685-18.459-2.488 4.811-5.382 9.151-7.08 13.917-5.876 16.49-6.935 33.638-5.947 50.974.503 8.822 1.288 17.632 1.587 26.459.459 13.598-2.386 26.436-10.734 37.453-1.868 2.466-5.4 5.315-8.089 5.24-14.541-.407-29.048-1.939-43.588-2.551-8.65-.364-12.669-5.594-14.909-12.72-5.222-16.61-7.593-33.527-4.567-50.939 5.074-29.192 16.717-55.578 32.845-80.32 5.206-7.985 8.612-17.21 12.231-26.115.909-2.237-.54-5.433-.979-8.742-9.123 5.884-8.645 6.122-14.329 17.538-7.848 15.764-16.28 31.252-24.939 46.588-2.831 5.014-7.135 9.533-14.052 7.242-6.683-2.213-9.371-7.783-10.271-14.209-1.272-9.086.576-17.748 5.693-25.305 4.942-7.3 10.148-14.525 16.047-21.051 13.523-14.96 18.277-31.835 13.209-51.458-2.208-8.552-.654-16.773 3.706-24.272 4.207-7.236 11.223-8.522 17.937-3.508 6.232 4.653 10.568 10.545 11.069 18.742.225 3.675 1.007 7.316 1.912 13.565 3.459-3.952 5.669-5.496 6.447-7.575 1.537-4.107 2.488-8.472 3.316-12.8 3.068-16.041 12.526-24.771 28.935-25.851 2.193-.144 4.349-.956 6.537-1.035 18.322-.66 30.493-12.782 43.407-23.38 3.842-3.153 3.516-3.549.141-10.934-13.806 17.602-31.277 25.252-53.58 21.234-6.983-1.258-13.464.607-19.475 5.867-18.194 15.919-42.616 14.824-59.458-2.507-6.798-6.995-14.287-11.206-23.912-12.781-19.362-3.17-26.32-12.747-24.192-32.347.905-8.333 2.681-16.6 3.132-24.947.45-8.338-.918-16.481-7.897-22.872-8.257 4.461-9.442 11.248-8.563 18.462 1.173 9.63 3.554 19.129 4.428 28.774.543 5.989.309 12.466-1.431 18.156-3.344 10.934-10.192 14.581-21.486 12.152-22.381-4.813-32.407-19.853-30.397-45.247.546-6.894 1.81-13.731 2.784-20.883-15.682 6.285-30.041 12.963-45.006 17.747-12.158 3.887-19.228 11.338-23.692 22.787-10.1 25.903-20.744 51.593-30.872 77.485-1.174 3.001-1.167 6.857-.552 10.097a1935.799 1935.799 0 0 0 10.047 49.268c4.398 20.269 2.666 39.372-9.001 57.174-5.496 8.385-12.889 13.231-22.603 14.409-4.614.559-9.351.096-14.67.096.548 3.613 1.659 7.054 1.464 10.418-.481 8.278-.09 17.013-2.658 24.692-11.199 33.482-33.544 59.766-56.949 85.269-4.058 4.421-8.078 9.172-10.83 14.442-7.961 15.246-15.273 30.831-22.827 46.289-6.49 13.281-12.961 26.571-19.441 39.856 24.704-20.909 48.017-42.479 70.067-65.271 15.273-15.787 32.423-27.248 54.059-31.168 29.513-5.347 59.001-11.051 88.71-15.028 24.009-3.214 48.337-5.684 72.509-5.558 22.835.119 45.62 4.449 68.482 6.209 29.472 2.268 58.988 4.007 88.506 5.601 13.641.736 27.386-.106 40.986.988 27.256 2.192 54.441 5.268 81.667 7.86 3.803.362 7.669.05 12.304.05 0-3.939.35-6.528-.056-8.992-2.8-16.972-5.795-33.911-8.658-50.873-4.7-27.836-9.287-55.691-14.055-83.516-1.324-7.723-1.83-15.02 5.515-20.29 14.377-10.317 22.387-25.893 32.67-39.588 3.18-4.235 6.066-8.689 9.208-12.954 7.112-9.652 16.749-15.815 28.235-18.521 27.112-6.387 44.587 4.63 48.458 31.828.558 3.92 1.084 7.985.666 11.88-1.876 17.511-3.816 35.023-6.256 52.462-4.525 32.341-8.446 64.877-24.329 94.322-.865 1.604-.831 3.694-1.349 6.207 20.893-17.237 41.068-33.687 60.96-50.471 3.551-2.996 7.215-6.961 8.603-11.205 3.648-11.158 11.021-19.702 19.957-25.791 17.763-12.104 41.682-13.256 46.142 15.373 2.964 19.026 10.192 35.334 22.255 49.964 3.072 3.726 5.448 8.042 8.001 12.175 11.42 18.487 9.656 31.462-7.692 44.881-8.882 6.87-14.489 15.079-17.744 25.511-4.601 14.744-9.052 29.561-14.377 44.048-10.197 27.74-28.488 47.382-57.774 55.45-3.231.89-6.274 2.457-11.064 4.374 12.35 6.524 20.07 14.987 19.932 27.64 19.898 3.261 285.532 2.162 294.178-.794 0-4.963-.122-9.747.022-14.523.465-15.435 1.766-30.884 1.42-46.297-1.151-51.227-3.058-102.437-4.332-153.661-.99-39.778-4.091-79.311-9.805-118.726-3.041-20.976-10.626-39.849-19.962-58.513-4.674-9.344-9.203-19.392-10.666-29.571-2.687-18.706-3.111-37.741-4.366-56.647-.488-7.353-.674-14.726-1.049-23.251-23.651 3.553-40.265-7.303-55.888-21.322-9.309-8.353-19.58-15.636-31.946-25.394 2.257 5.282 3.363 7.541 4.206 9.895 6.24 17.425 13.696 34.545 18.255 52.403 4.11 16.099 6.606 32.953-4.825 48.293-13.137 17.63-19.228 19.21-38.301 7.836-3.694-2.203-7.285-4.578-10.924-6.873.701 3.787 2.537 5.668 4.327 7.592 5.7 6.133 11.995 11.834 16.912 18.544 5.66 7.722 3.267 13.148-6.04 15.403-7.417 1.797-14.515 1.045-21.965-1.755-20.492-7.702-37.766-20.631-55.719-32.517-16.633-11.013-23.74-26.409-21.191-46.225.373-2.897.728-5.795 1.085-8.639-10.903-1.798-13.769-4.167-14.273-12.883-.275-4.76.798-9.621 1.464-14.408 1.579-11.346 3.799-22.628 4.806-34.021 1.474-16.666 1.996-33.415 3.151-50.112.754-10.898 1.912-21.768 2.889-32.65-6.711 9.663-11.233 19.634-15.48 29.721-3.207 7.618-8.205 13.508-15.326 17.685-12.538 7.355-24.425 15.978-38.946 19.405-1.404.331-2.496 1.983-4.971 4.062l22.639 5.246c-1.779 3.119-2.671 5.523-4.252 7.32-10.197 11.589-23.13 18.872-37.629 23.76-10.143 3.419-18.66 1.308-27.189-5.15-6.16-4.663-13.392-8.409-20.71-10.915-8.707-2.982-17.937-4.788-27.086-6.051-15.927-2.199-24.587-14.648-35.379-24.06-1.7-1.483-2.418-4.766-2.541-7.268-.582-11.794 2.619-21.873 13.971-27.741 2.743-1.418 5.622-2.621 8.216-4.271 6.972-4.437 7.638-7.905 5.03-15.482-3.718-10.803-7.444-21.686-9.898-32.815-2.073-9.401-.309-18.416 8.262-24.86 12.686-9.539 25.469-18.974 37.745-29.023 7.9-6.467 16.303-9.82 26.585-9.909 21.537-.185 41.93 5.042 62.13 11.669 2.398.787 4.978 1.015 7.474 1.502l.976-3.253c-93.005-64.259-193.407-113.171-303.523-143.969l-50.552 91.282zM294.5 1884.887c-4.198-11.116-2.717-20.439-2.093-29.502 3.12-45.34 6.196-90.692 10.137-135.965 2.984-34.287 7.282-68.392 16.128-101.869 6.415-24.279 10.901-49.069 16.202-73.641 2.788-12.926 3.845-26.507 8.575-38.669 8.083-20.782 12.458-42.07 15.973-63.963 9.805-61.057 16.862-122.394 22.538-183.952 3.879-42.075 14.773-81.63 45.876-113.022 7.889-7.962 14.068-17.618 22.612-28.51-9.648.614-16.594 1.016-23.534 1.505-25.057 1.763-46.056 10.575-60.506 32.596-3.686 5.618-10.061 10.017-16.095 13.363-4.238 2.351-10.08 3.006-15.05 2.583-9.203-.783-18.538-2.075-27.369-4.678-12.468-3.674-23.519-.408-34.582 4.473-2.82 1.244-5.478 2.855-8.21 4.297-7.589 4.006-14.843 3.869-22.686-.147-22.341-11.439-46.569-16.255-71.321-18.409-5.034-.438-10.822.536-15.326 2.758-9.372 4.622-18.118 10.515-27.318 16.003 13.467 11.594 30.349 16.72 39.861 31.554 11.314-2.319 18.803 2.749 24.484 11.806 6.51 10.379-4.056 14.461-8.15 20.851 1.598 1.201 2.531 2.225 3.689 2.707 2.843 1.182 5.728 2.36 8.705 3.108 21.258 5.346 35.387 18.894 44.427 38.351q9.423 20.28 30.595 13.164c6.788-2.272 14.426-5.006 20.237.276 7.578 6.887 14.953 5.657 23.209 2.866 3.748-1.267 7.677-2.229 11.6-2.697 9.597-1.144 16.299 5.039 16.022 14.634-.089 3.069-.767 6.122-1.197 9.179-1.385 9.855-3.205 11.361-13.046 13.497-11.469 2.49-22.812 5.56-33.744 8.263-1.585 9.003 4.208 12.086 8.822 16.123 12.002 10.503 16.422 29.867 10.527 44.923-5.27 13.46-18.097 21.759-34.83 21.355-7.381-.178-14.925-1.52-22.036-3.575-22.938-6.628-45.59-13.975-70.136-9.32-4.824.915-10.321-1.466-15.459-2.557-2.587-.549-5.065-1.616-7.592-2.449l-1.768 2.326c8.755 10.913 16.835 22.463 26.405 32.608 20.572 21.809 34.443 47.009 39.742 76.401 3.292 18.262 4.883 36.951-2.261 54.913-5.888 14.804-17.765 19.082-32.029 12.276-4.842-2.31-9.955-4.05-14.944-6.051 7.202 13.138 21.803 12.15 32.253 19.467.831 6.987-3.482 11.781-7.125 16.514-12.907 16.769-37.692 22.273-52.89 10.824-16.852-12.695-30.606-28.393-34.756-49.917-1.99-10.323-1.993-21.07-2.407-31.645-.373-9.519-.079-19.064-.079-28.597-3.903 1.299-5.128 3.429-6.802 5.114-8.406 8.457-17.287 6.339-20.975-4.948-.682-2.088-1.334-4.241-1.569-6.411-1.85-17.092-3.362-34.224-5.453-51.285-1.5-12.242-3.106-24.538-5.834-36.544-2.253-9.915-5.736-19.663-12.948-30.493-.626 20.44-.353 38.059 7.541 54.323 5.712 11.767 3.3 21.151-5.514 29.942-2.218 2.212-3.605 5.257-5.894 8.702 3.654 1.292 5.665 1.999 7.673 2.714 11.716 4.175 16.205 11.531 13.405 23.438-1.193 5.074-3.499 9.991-5.926 14.652-9.885 18.981-25.84 30.921-45.501 38.384-5.3 2.012-10.629 3.949-16.281 6.045 0 3.854-.018 6.921.003 9.987.627 94.107 1.267 188.214 1.88 282.321.173 26.51.164 53.021.508 79.528.055 4.214.494 9.036 2.566 12.492 5.436 9.066 11.631 17.712 17.964 26.196 9.947 13.326 34.224 18.257 45.12 8.315 11.119-10.146 20.44-22.176 24.649-37.069 5.85-20.699-2.287-41.793-20.681-55.783-17.364-13.207-34.441-27.723-43.056-47.742-10.845-25.199-10.192-52.599-5.052-79.359 1.973-10.27 6.584-20.066 10.301-29.963 11.82-31.475 44.357-45.343 74.031-31.554 3.565 1.657 6.838 3.996 10.111 6.219 16.068 10.918 28.164 25.436 37.234 42.422 7.139 13.37 15.903 25.368 26.539 36.161 18.998 19.279 32.529 41.875 38.411 68.422 4.957 22.374 10.55 45.167 3.669 67.928-5.861 19.385-13.881 38.114-20.813 57.181-2.554 7.024-5.613 14.028-6.912 21.313-4.246 23.817-17.939 38.69-40.886 45.404-7.62 2.23-15.406 3.936-22.926 6.451-6.364 2.129-12.485 5.055-10.62 14.843 4.793.363 9.549.828 14.317 1.063 8.723.431 16.083 3.668 22.783 9.36 9.717 8.255 14.641 18.561 15.306 31.114 1.05 19.829 1.746 39.685 3.242 59.48 1.592 21.062 3.941 42.066 6.046 63.986h579.306c0-3.076.242-5.663-.037-8.192-3.292-29.791-6.863-59.552-9.953-89.363-3.015-29.083-8.298-57.623-17.958-85.301-2.467-7.068-3.929-14.481-6.071-21.67-12.48-41.895-26.399-83.304-44.271-123.232-4.457-9.958-10.589-19.383-17.251-28.055-3.823-4.978-9.75-9.16-15.604-11.615-25.111-10.528-51.588-14.28-78.564-14.314-.435 1.202-1.078 2.054-.936 2.744.619 3.009 1.405 5.988 2.24 8.947 7.566 26.813 12.834 53.873 14.59 81.884 1.399 22.324-.005 45.142 7.023 66.967.573 1.78-.21 3.998-.536 8.278-18.452-10.791-26.516-30.239-41.822-40.391 9.328 34.527 19.149 68.836 27.75 103.448 5.564 22.387 6.051 44.994 2.566 68.252-2.423 16.169-19.565 31.119-38.063 29.318-13.606-1.325-26.917-3.934-38.895-11.753-8.726-5.696-18.537-9.638-30.678-8.714.616 14.608 11.953 20.749 19.707 28.997 7.967 8.475 16.736 16.196 26.807 25.827-6.361 2-10.35 4.103-14.471 4.406-19.337 1.425-38.736 3.574-58.063 3.158-25.192-.541-46.884-18.447-55.039-42.472-5.127-15.104-5.309-30.525-2.054-45.803 5.604-26.304 11.841-52.479 18.167-78.623 4.225-17.458 9.064-34.768 14.187-54.269-4.638 3.911-7.431 6.678-10.618 8.873-8.337 5.742-16.616 11.641-25.416 16.594-2.899 1.631-7.932 1.746-10.813.265-1.683-.865-1.757-6.349-1.335-9.596 6.42-49.426 11.682-98.892 7.001-150.263-33.693 2.696-67.003 7.395-100.633 16.889zm164.179-254.288c-.481-8.763 4.986-12.074 10.682-14.348 4.842-1.933 10.312-3.589 15.407-3.346 14.951.715 29.937 1.84 44.757 3.901 23.579 3.278 46.976 7.875 70.566 11.051 11.923 1.605 24.101 1.317 36.171 1.885-.05-7.263-3.983-7.487-9.021-7.132-20.058 1.411-38.124-4.796-51.97-18.838-20.174-20.46-46.491-35.295-58.603-64.336-4.804 5.497-8.388 10.497-12.853 14.517-8.847 7.966-16.731 6.474-22.705-3.937-1.74-3.031-3.331-6.379-3.961-9.773-2.085-11.247-3.726-22.577-5.487-33.883-1.453-9.334 1.04-17.834 7.276-24.605 10.953-11.893 15.444-26.364 19.101-41.57 1.609-6.691 4.705-13.304 8.39-19.157 7.203-11.44 18.166-19.122 29.289-26.423 5.471-3.591 10.849-2.764 16.084.694 10.006 6.611 12.945 16.301 11.919 27.621-1.247 13.762-8.002 25.012-16.379 35.537-4.945 6.213-10.242 12.258-14.321 19.017-4.174 6.916-6.594 14.64-1.518 24.429 7.577-11.635 13.813-22.268 21.103-32.122 8.029-10.854 20.097-15.05 33.783-16.469-.463-2.922-.557-5.078-1.159-7.081-8.13-27.038-16.398-54.034-24.48-81.086-3.407-11.403-6.953-22.801-9.577-34.395-8.319-36.759-22.636-71.413-36.488-106.251-7.815-19.654-16.044-39.177-22.899-59.167-4.741-13.827-6.732-28.321-2.265-43 1.066-3.503.546-7.489.751-11.171-15.894-1.681-28.348 2.69-37.659 14.17-13.07 16.113-26.614 31.946-38.387 48.982-16.824 24.343-22.054 53.025-24.387 81.646-5.634 69.139-15.005 137.768-25.778 206.226-1.968 12.505-6.799 24.552-10.202 36.84-3.289 11.877-6.953 23.681-9.54 35.714-4.726 21.984-8.772 44.115-13.117 66.181-.748 3.797-1.573 7.578-2.363 11.367 3.836-4.555 6.011-9.701 8.511-14.686 10.239-20.418 25.955-34.357 48.428-39.785 5.923-1.431 12.453-2.569 16.377 6.231l-22.253 24.157c10.658-3.796 18.053-10.168 28.204-4.853-4.325 8.734-8.291 16.979-12.462 25.119-10.708 20.898-14.134 42.492-6.972 65.329 4.885 15.576 9.228 31.324 14.199 46.872 4.353 13.617 3.946 27.212-.914 40.271-2.174 5.843-6.433 12.002-11.49 15.483-17.322 11.925-45.643 4.847-57.736-12.435-9.825-14.041-13.006-29.726-14.41-46.113-.887-10.354-1.225-20.755-1.914-32.983-7.772 18.18-19.297 172.572-14.791 190.18 1.223 0 2.548.196 3.797-.029 25.562-4.594 50.975-10.364 76.71-13.537 23.611-2.91 47.728-1.744 71.328-4.715 27.543-3.467 54.678-10.083 82.17-14.097 12.054-1.76 24.576-.944 36.845-.397 10.415.465 20.772 2.225 30.856 3.379 8.151-16.888 13.395-33.02 17.518-49.908 6.228-25.51 18.442-47.777 44.472-59.02 2.342-1.011 4.35-2.796 6.886-4.467-3.803-12.83-8.338-24.838-15.957-38.401-9.197 13.067-17.933 23.66-24.621 35.418-9.327 16.398-22.486 26.869-40.524 31.523-6.835 1.763-13.677 3.606-20.619 4.829-9.467 1.667-17.575 5.528-24.225 12.545-11.023 11.632-25.507 17.16-40.178 22.156-15.953 5.433-31.539 2.603-46.463-3.78-10.506-4.493-18.869-12.074-21.594-23.605-2.828-11.971-4.446-24.231-6.499-36.38-.619-3.664-.921-7.382-1.65-13.401-6.174 8.736-2.923 18.548-10.446 24.975-1.34-2.599-2.736-4.342-3.17-6.298-4.391-19.813-9.656-39.514-12.496-59.556-1.568-11.063.064-22.875 1.994-34.049 1.678-9.715 8.542-15.823 18.593-18.538 10.329-2.79 20.017-2.711 29.447 2.622 11.525 6.518 23.027 13.079 34.633 19.449 1.865 1.023 4.22 1.153 8.263 2.183-8.843-16.93-23.725-20.024-38.01-23.377zm706.594 603.256c5.165-9.298 1.351-18.076.876-26.672-.585-10.582 2.801-18.208 13.253-21.612 15.439-5.028 21.855-17.644 21.277-31.698-.734-17.858-4.085-35.878-8.685-53.197-2.492-9.381-9.849-17.497-15.16-26.092-2.51-4.062-5.914-5.754-11.129-5.022-17.472 2.45-34.973 4.957-52.55 6.303-14.969 1.146-25.987 8.518-34.182 19.928-5.83 8.116-10.85 17.237-14.187 26.635-7.314 20.602 5.432 37.294 27.313 37.139 13.245-.094 16.66 1.169 20.357 13.91 3.274 11.28 4.073 23.319 5.5 35.079.991 8.172 1.196 16.439 1.795 25.3h45.523zm81.648-627.891c5.391-.82 8.313-1.291 11.244-1.707 22.979-3.266 42.089 2.187 53.614 24.182 3.786 7.226 10.039 9.507 17.524 9.635 11.379.195 19.208 4.817 22.89 16.25 1.899 5.897 5.51 10.9 12.681 12.121 7.553 1.286 14.991 3.242 22.348 4.876q-3.301-9.198-10.58-12.663c-3.977-1.908-8.17-3.514-11.82-5.93-27.647-18.299-53.623-52.611-30.774-92.655-5.434-13.139-10.867-26.635-16.59-40.007-5.62-13.131-9.849-26.974-19.067-40.329-19.861 41.564-35.432 82.907-51.47 126.227zm-488.616 461.857c3.201-48.057-49.238-256.573-68.635-279.861-10.271 23.338-4.053 50.917-21.253 71.618 15.996 11.366 25.776 25.9 32.922 42.3 17.105 39.256 31.214 79.615 43.723 120.541 4.607 15.075 8.84 30.264 13.243 45.402zM486.754 680.773c7.266-5.719 5.51-10.636 5.182-15.255-1.123-15.825-3.107-31.65-3.141-47.479-.09-41.031-.618-81.671-10.199-122.201-7.355-31.11-7.755-63.356 11.864-91.894 5.982-8.702 12.432-17.085 18.729-25.568 3.15-4.243 6.835-8.138 9.601-12.609 21.393-34.579 29.359-72.463 26.39-112.674-.709-9.609-3.86-19.039-5.888-28.551l-3.629.374c0 4.906-.598 9.897.092 14.704 7.317 50.951-2.726 97.254-36.196 137.435-3.106 3.729-6.439 7.34-9.035 11.409-11.675 18.296-23.286 36.99-23.407 59.483-.092 17.122 1.533 34.34 3.626 51.363 2.466 20.057 9.627 39.289 9.477 59.946-.204 28.225.816 56.463 1.55 84.689.304 11.671 1.863 23.214 4.983 36.827zM107.327 2038.377c13.379-6.423 25.963-12.454 38.529-18.522.78-.377 1.445-1.014 2.119-1.583 14.893-12.575 25.522-27.348 29.314-47.273 3.194-16.782 9.353-32.98 13.587-49.592 2.478-9.72 4.217-19.691 5.415-29.654.823-6.846-2.477-12.471-9.432-18.121-1.888 4.772-3.849 8.106-4.51 11.681-2.724 14.723-4.923 29.543-7.601 44.276-.934 5.135-1.198 11.498-4.35 14.922-10.801 11.732-14.039 26.043-17.496 40.762-1.313 5.59-4.868 12.007-9.405 15.204-9.633 6.788-20.334 12.239-31.059 17.25-10.748 5.021-12.241 8.978-5.11 20.652zm1265.211-290.694c12.054-1.146 24.243-5.092 33.717-15.592 3.665-4.062 4.988-7.813 2.477-13.011-1.895-3.924-2.346-8.599-4.498-12.329-1.543-2.675-4.563-5.584-7.404-6.21-7.25-1.598-14.748-2.37-22.184-2.759-15.419-.807-28.371 12.298-28.498 28.359-.099 12.515 10.246 21.454 26.39 21.542zm-860.526 312.24 2.482-.577c-.978-8.212-2.037-16.416-2.919-24.639-2.582-24.064-4.61-48.199-7.753-72.188-3.958-30.207-7.106-60.352-3.526-90.832.553-4.708.077-9.536.077-14.229-8.833-1.561-9.959 3.352-9.858 9.246.656 38.287 1.393 76.572 2.016 114.859.196 12.054 2.962 23.411 7.331 34.65 3.007 7.735 4.312 16.124 6.508 24.185 1.78 6.535 3.754 13.018 5.643 19.524zm-375.614-176.128c.116-9.262-6.16-14.719-12.662-20.12-11.238-9.336-23.019-18.47-26.792-33.555-5.18-20.708-6.952-41.654-2.882-62.889 1.203-6.276 1.305-12.764 1.983-19.912-12.084.384-15.041 8.562-16.641 15.745-3.964 17.792-3.542 35.501.755 53.673 6.616 27.979 27.399 45.713 44.188 66.426 2.977 3.673 7.422 4.787 12.051.633zm316.861 259.55c12.731-15.731 17.208-17.248 35.987-11.334 9.238 2.909 18.077 7.075 27.297 10.052 4.484 1.448 9.622 2.661 14.129 1.927 16.753-2.727 32.665-21.197 33.431-38.288.675-15.071-1.676-29.793-6.522-44.166-.515 2.079-.965 4.256-.444 6.17 4.252 15.627.308 30.762-3.448 45.616-3.253 12.866-8.929 16.702-22.155 15.948-8.688-.495-17.342-2.718-25.859-4.793-9.829-2.395-19.519-5.385-29.216-8.294-6.778-2.033-12.337-.429-16.232 5.4-4.159 6.222-6.703 13.082-6.966 21.763zm124.207-414.647-.995-2.493c-2.451.552-5.247.526-7.294 1.753-11.326 6.788-23.093 13.075-33.489 21.111-9.172 7.089-19.51 10.14-30.158 12.594-9.335 2.151-18.291-3.094-23.279-11.33-5.611-9.266-5.648-18.957-4.561-29.373 1.177-11.277 2.921-23.268.392-33.999-5.457-23.156-24.635-30.881-45.683-34.863 4.381 3.42 9.311 6.039 14.31 8.517 22.17 10.991 31.019 31.234 23.928 54.777-.762 2.528-1.387 5.099-2.024 7.664-5.92 23.846 13.723 45.87 37.942 41.961 7.728-1.247 15.802-3.257 22.564-7.001 16.476-9.123 32.275-19.466 48.348-29.317zm-211.721 5.335c.724-6.311 2.089-10.978 1.607-15.446-1.178-10.931-3.034-21.8-4.933-32.638-3.934-22.442-3.667-44.718 1.867-66.885.512-2.053.474-4.243.875-8.164-9.297 13.806-10.259 15.916-13.982 41.282-3.215 21.904-3.883 43.852.713 65.761 1.45 6.909 4.069 12.296 13.853 16.09zm1412.126-37.583c3.404-9.622-.124-17.994-4.061-26.539-14.357-31.158-28.432-62.445-42.712-93.639-.864-1.886-2.588-3.378-4.996-6.424-.701 19.28 4.022 35.17 11.774 50.203 13.054 25.318 26.407 50.481 39.995 76.399zm-436.795 535.671.68 2.607c3.947-.608 8.795.037 11.685-2.041 12.081-8.687 23.957-17.753 35.173-27.523 10.391-9.052 12.346-20.919 7.565-33.709-3.439-9.201-3.324-18.022 1.502-26.678 1.131-2.029 2.17-4.11 4.481-8.507-3.671 2.075-4.859 2.564-5.834 3.325-17.629 13.757-18.513 16.328-10.027 37.014 3.458 8.431 2.43 15.573-3.997 21.654-8.277 7.833-16.755 15.476-25.484 22.799-4.896 4.106-10.474 7.399-15.744 11.058zm-826.093-503.903 1.209 2.581c4.712-1.655 9.685-2.805 14.085-5.069 9.797-5.041 19.486-10.347 28.902-16.066 27.733-16.845 53.405-37.477 85.681-46.085-19.312-1.116-36.609 5.636-52.509 14.933-24.36 14.244-47.827 30.018-71.639 45.196-2.039 1.3-3.825 2.997-5.729 4.51zM50.991 1311.986c3.879 16.277 84.73 147.415 97.362 157.674l-7.472-12.718c-18.089-30.772-36.301-61.472-54.206-92.35-7.071-12.194-13.413-24.808-20.175-37.183-3.325-6.085-6.416-12.487-15.509-15.423zm134.437 173.024c.865 3.323 1.759 6.638 2.587 9.97.849 3.413 1.958 6.801 2.386 10.27 1.371 11.103-2.117 15.822-13.254 16.681-4.66.36-9.488-1.16-14.212-1.983-9.328-1.625-18.903 2.511-22.561 9.862-4.544 9.134-3.639 13.984 3.98 21.322 7.82-17.703 8.775-18.314 28.85-18.516 3.091-.031 6.21.158 9.268-.185 11.106-1.247 16.97-7.826 15.483-18.86-1.408-10.443-4.328-20.636-12.527-28.562zM48.263 1263.617c13.733 12.99 90.505 24.161 127.831 17.702l-127.831-17.702zm1760.221 484.118c-10.251.187-17.555-3.732-24.958-7.676-6.182-3.293-12.456-6.653-19.066-8.854-14.844-4.943-22.825 2.374-20.421 18.114 10.889-10.921 13.801-11.403 27.377-4.19 3.103 1.649 5.916 3.854 9.044 5.447 5.085 2.59 10.161 5.34 15.524 7.208 9.854 3.433 14.76.865 17.947-9.183 1.118-3.524 1.139-7.396 1.66-11.109-2.718.853-3.717 2.179-4.424 3.645-.925 1.917-1.62 3.945-2.684 6.598zm-287.55 274.989c.148-2.167.297-4.333.443-6.5 2.296-34.177 14.005-63.37 42.751-84.383 6.945-5.077 12.499-12.418 17.604-19.502 2.643-3.668 2.902-9.053 4.239-13.663l-2.942-1.403c-9.759 20.229-27.032 33.369-42.91 47.886-4.145 3.789-7.302 8.812-10.344 13.628-12.537 19.846-12.41 41.761-8.841 63.937zm-842.676-273.76c-8.138 11.573-15.596 20.89-21.584 31.07-5.544 9.425-9.716 19.69-14.019 29.787-.923 2.165.184 5.196.51 10.191 10.094-9.447 15.429-18.908 20.653-28.554 5.021-9.272 10.071-18.608 16.092-27.228 3.658-5.237 1.734-8.712-1.652-15.265zm706.195 137.39c19.8-23.875 38.566-46.508 57.338-69.136 3.33-4.013 1.365-7.06-1.522-10.112-18.497 15.242-51.394 61.358-55.817 79.248zm336.278 179.085c-8.426-13.162-11.029-26.328-11.127-40.279-.037-5.211-1.083-10.592-2.739-15.537-.799-2.388-3.81-5.133-6.273-5.683-13.228-2.955-23.035 4.573-25.357 19.92 4.092-3.273 7.424-6.044 10.867-8.672 7.097-5.417 13.419-3.652 16.128 4.934 1.303 4.13 1.58 8.64 1.91 13.009.499 6.598.225 13.273 1.031 19.823 1.069 8.681 4.194 11.177 15.559 12.485zm-23.231 29.159-2.526-1.413c-8.876 8.012-16.052 17.27-20.678 28.485-8.333 20.201-22.231 35.833-39.93 48.322-2.59 1.828-5.024 3.876-7.53 5.823 16.011-1.53 27.371-10.899 35.481-22.895 12.699-18.783 23.549-38.818 35.182-58.322zM83.52 1298.419c13.923 17.462 57.272 30.264 87.395 26.543l-87.395-26.543zm1256.381 472.925.509-2.777c-2.279-1.132-4.457-2.575-6.852-3.346-19.174-6.179-38.581-11.747-54.66-24.85-1.384-1.128-4.484-.15-8.343-.15 6.002 13.893 19.208 15.267 28.814 20.797 12.255 7.055 25.825 12.127 40.533 10.325zM121.458 1345.562c9.762 13.328 57.599 25.06 85.408 21.454l-85.408-21.454zm1380.284 846.405q-11.055-.65-12.764-14.278c-1.002-7.995-4.758-11.127-12.561-8.519-9.689 3.238-18.938 7.793-28.377 11.779l.901 2.524c7.286-.884 14.956-3.578 21.75-2.138 6.634 1.406 12.374 7.033 19.789 11.597l11.263-.964zm141.152-608.758 2.845 2.947c9.018-6.889 18.692-13.098 26.806-20.924 4.773-4.603 7.489-11.585 10.324-17.861 1.731-3.833-.182-6.811-3.851-6.914l-36.125 42.753zm-147.626 540.499c-17.712 4.852-32.775 12.622-46.051 23.986 9.883-3.457 19.572-7.505 28.308-13.052 6.009-3.815 10.624-3.44 15.459.746 2.968 2.569 5.617 5.543 8.185 8.528 4.679 5.439 9.191 11.02 13.773 16.542-3.35-13.706-10.726-24.845-19.675-36.75zm109.816-468.435c-17.208 1.896-31.976-1.755-46.608-6.411-7.022-2.235-14.129-4.335-21.966 3.217 17.721 3.421 33.945 6.845 50.288 9.551 5.87.972 12.366 1.435 18.285-6.358zm-338.682 17.235c10.18 8.497 21.431 4.591 32.394 4.28 11.371-.323 22.753-.289 34.13-.411l-.061-3.683c-21.891-7.813-44.393 4.148-66.463-.186zm14.469-26.682c-5.593-11.217-14.806-14.223-25.271-11.531-9.135 2.35-20.833.698-25.419 13.884 16.675-8.768 33.288-10.471 50.689-2.354zm95.541 205.081 2.187 1.761 52.994-66.344c-24.007 17.003-37.831 42.213-55.181 64.583zm189.265-303.178c-18.089 5.156-18.943 27.125-12.912 50.919 2.279-17.429-.364-36.171 12.912-50.919zM445.806 1898.15c6.068-11.23 10.204-21.309 10.168-33.459-8.15 4.979-10.949 14.32-10.168 33.459zm617.94 19.764q-13.636-3.855-15.441 3.598l15.441-3.598z"/><g fill="#fff"><path d="M517.26 1035.092c23.523 19.475 28.011 21.372 51.465 22v78.046c5.811-4.197 6.012-9.984 6.113-15.432.296-15.894.785-31.819.082-47.683-.456-10.282.929-17.772 12.144-21.583 7.382-2.509 13.287-7.915 15.279-19.665-4.455 3.867-6.598 5.692-8.703 7.56-17.603 15.617-44.999 15.886-61.337-.971-9.082-9.37-17.224-20.319-23.213-31.89-15.949-30.813-24.534-64.36-31.166-98.144-7.306-37.22-13.521-74.723-15.443-112.728-.602-11.903-1.708-23.987-.375-35.738 2.624-23.145 12.029-43.194 31.931-56.923 10.26-7.077 21.319-7.965 32.742-3.105 24.604 10.469 43.63 26.9 53.24 52.386 6.065 16.084 10.906 32.628 16.342 48.951 1.607 4.826 3.369 9.601 5.061 14.399l3.069-.663c-.441-4.033-.249-8.264-1.431-12.067-5.763-18.526-11.086-37.25-18.084-55.316-10.337-26.686-30.741-43.698-56.844-54.176-12.221-4.905-24.285-3.786-35.597 2.96-4.911 2.929-9.437 6.502-14.033 9.709 1.888-9.48 10.592-20.204 21.028-25.831 15.17-8.178 30.693-8.223 45.765-.513 19.363 9.905 37.435 21.714 50.947 39.382 5.095 6.663 10.6 13.027 16.176 19.298 2.175 2.446 5.062 4.259 8.51 7.087-1.962-23.204-51.082-64.813-93.519-80.016 5-6.072 9.039-12.469 14.464-17.316 28.648-25.597 56.822-51.823 86.691-75.935 62.023-50.068 128.034-94.36 200.091-128.852 63.921-30.597 130.242-54.858 200.394-66.507 27.338-4.539 55.293-5.726 83.029-7.43 68.411-4.202 133.43 11.862 196.461 36.197 40.724 15.723 76.45 40.431 108.173 70.454 26.479 25.059 39.227 56.784 43.689 92.578 4.201 33.701 8.911 67.331 18.308 100.163 3.707 12.953 5.126 26.562 7.596 39.922.795-.522 2.057-.937 2.089-1.431 2.761-43.088 8.836-85.995 6.171-129.373-3.21-52.257-15.403-102.131-39.813-148.524-12.724-24.183-27.693-47.173-40.967-71.08-15.852-28.55-31.574-57.205-46.221-86.383-11.275-22.46-21.697-45.45-30.767-68.876-5.345-13.806-7.35-28.91-10.701-43.467-.198-.858 1.006-2.038 2.447-4.727 1.901 4.233 4.019 7.094 4.437 10.185 2.708 20.007 10.708 38.248 18.921 56.305 25.601 56.286 52.64 111.833 87.744 163.011.741-.353 1.937-.6 1.986-.991 2.364-18.808 5.141-37.585 6.749-56.461 1.352-15.873 1.04-31.843-5.976-46.764-9.385-19.958-18.933-39.839-28.264-59.822-4.474-9.58-8.91-19.2-12.759-29.038-1.68-4.294-1.845-9.182-.619-14.624 1.27 1.402 2.968 2.601 3.745 4.237 7.555 15.906 14.978 31.875 22.395 47.847 8.362 18.005 17.537 35.694 24.773 54.143 7.086 18.068 5.659 37.149 3.286 56.214-2.448 19.673-3.856 39.491-5.094 59.285-.253 4.046 1.495 8.716 3.62 12.335 24.047 40.958 38.29 85.365 45.245 132.017 4.363 29.265 5.937 58.882 3.553 88.536-2.263 28.153-4.499 56.309-6.845 84.455-.549 6.59-1.424 13.156-2.275 19.717-1.547 11.928-.978 23.589 1.489 35.5 5.685 27.449 3.979 55.024-1.435 82.495 0-7.999-.235-16.006.064-23.993.318-8.5-1.964-15.492-9.027-20.844-4.827-3.658-9.736-6.013-15.882-4.679-14.642 3.18-29.597 5.356-43.858 9.771-28.185 8.726-56.072 18.446-83.917 28.226-21.029 7.386-23.476 12.394-18.973 34.654.788 3.894 1.441 7.832 2.522 11.646 3.075 10.846 6.749 13.742 17.133 10.975 13.586-3.619 27.391-7.284 40.116-13.09 28.701-13.094 58.943-20.806 89.339-28.254.768-.188 1.695.27 2.479.414l13.714 20.178c-5.888 14.863-12.495 32.106-19.529 49.172-11.384 27.62-14.922 55.937-10.321 85.617 4.257 27.459 7.079 55.14 10.592 82.716 2.751 21.591-4.113 41.975-7.684 62.784-7.718 44.985-29.306 83.816-53.698 121.401-38.005 58.56-74.347 118.158-105.895 180.431-14.716 29.048-26.109 59.806-38.492 90-9.874 24.077-18.387 48.721-28.561 72.665-10.981 25.844-26.483 49.098-46.852 68.46-7.781 7.396-18.143 12.159-27.589 17.677-3.351 1.957-7.86 1.948-11.181 3.937-24.217 14.502-51.491 14.349-78.205 16.023-8.945.56-18.741-.951-27.053-4.265-15.931-6.351-31.501-13.938-46.356-22.51-6.527-3.766-12.012-10.528-16.123-17.088-18.757-29.93-36.851-60.276-55.199-90.462-9.581-15.762-19.196-31.502-28.796-47.253l-2.807 1.287c.741 2.515 1.005 5.311 2.295 7.504 25.289 43.008 50.671 85.961 76.096 128.889 7.332 12.379 16.451 22.681 30.137 28.751 10.731 4.76 20.802 11.01 33.393 17.798-7.052 0-11.694.457-16.218-.081-17.075-2.03-34.127-4.278-51.16-6.642-21.382-2.968-40.762-11.19-58.688-23.006-36.788-24.248-69.319-53.447-97.601-87.068-38.13-45.327-73.343-92.912-105.902-142.428-.904-1.375-2.063-2.582-3.836-4.772-2.917 6.383.711 10.104 3.008 13.788 7.012 11.242 13.852 22.641 21.623 33.352 35.529 48.977 69.893 98.899 113.941 141.028 21.788 20.838 45.079 39.716 70.573 55.795 22.538 14.214 47.638 20.491 73.865 23.299 26.762 2.866 53.467 6.642 80.482 4.68 11.834-.86 23.62-2.363 35.434-3.504 3.451-.333 6.925-.427 11.805-.714-3.401 7.834-6.547 14.545-9.264 21.425-19.605 49.654-39.076 99.362-58.685 149.015-15.404 39.005-30.86 77.991-46.459 116.918-9.024 22.519-17.592 45.269-27.769 67.266-14.822 32.039-30.897 63.499-46.461 95.195-6.41 13.054-12.986 26.029-19.248 39.154-1.447 3.033-1.917 6.533-2.897 10.033H782.736c-1.085-14.624-2.545-28.559-3.081-42.53-2.429-63.219-11.547-125.688-20.115-188.254-6.028-44.016-22.135-85.388-31.883-128.406-7.04-31.064-17.696-60.975-29.137-90.683-13.763-35.736-28.039-71.392-39.3-107.944-13.881-45.058-31.039-89.08-40.774-135.528-7.043-33.605-17.874-66.438-27.498-99.475-8.76-30.07-18.243-59.929-27.239-89.931-2.151-7.174-3.702-14.532-5.415-21.832-9.818-41.843-24.911-81.759-43.002-120.693-9.487-20.418-17.419-41.615-20.102-64.174-.914-7.686-.94-16.128 1.278-23.419 8.107-26.655 15.357-53.435 18.924-81.122.162-1.255.957-2.429 1.861-4.619zm413.752 241.218c1.383.662 2.814 1.979 4.139 1.879 7.452-.562 11.288 3.492 13.801 9.819.799 2.011 2.336 3.727 3.526 5.583 25.938 40.472 51.905 80.925 77.795 121.428 8.85 13.845 18.529 27.049 32.097 36.587 12.482 8.774 22.62 21.185 38.534 24.774 19.735 4.451 39.24 10.112 59.133 13.612 14.529 2.556 29.115-.193 42.356-7.322 13.82-7.44 24.192-17.563 25.647-34.44 1.097-12.72 2.805-25.386 4.019-38.098 2.993-31.339 9.257-61.856 22.833-90.486 1.132-2.388 3.943-4.97 6.429-5.569 18.58-4.472 37.338-6.466 56.335-2.364 2.548.55 5.264.316 10.23.559-9.271-8.724-18.637-10.229-27.599-9.637-18.414 1.216-37.142 2.172-54.992 6.397-26.362 6.239-52.861 5.227-78.967 2.897-34.588-3.088-69.027-9.012-103.171-15.578-32.842-6.316-65.22-15.038-97.82-22.629-11.482-2.674-22.838-1.886-34.326 2.587zm266.113-434.763c-17.525-7.841-32.244-15.96-47.942-21.073-21.148-6.888-40.368-17.328-59.938-27.393-18.863-9.702-38.32-17.313-60.308-17.189-22.433.126-39.261 11.097-55.009 25.099-.969.862-1.753 2.006-2.399 3.145-2.465 4.35-1.308 7.647 3.249 9.539 2.012.836 4.264 1.075 6.371 1.706 18.116 5.426 36.54 10.017 54.259 16.528 26.842 9.862 53.014 21.539 79.821 31.504 13.962 5.19 28.578 8.756 43.085 12.289 7.56 1.841 15.459.375 20.421-6.203 6.299-8.351 11.575-17.474 18.39-27.951zm-54.912 113.352c-7.864-16.98-15.538-32.183-27.584-44.729-18.388-19.153-39.889-27.4-66.957-22.283-27.457 5.19-54.083 12.411-79.491 23.95-5.385 2.446-13.459 3.964-13.026 11.284.424 7.167 8.539 7.941 14.122 9.986 16.623 6.09 33.972 9.005 51.327 12.38 39.522 7.685 79.135 11.942 121.61 9.412zm195.431 178.786-3.46-.297c-.347 4.571-.757 9.139-1.029 13.714-1.346 22.68-6.213 44.707-15.204 65.433-9.951 22.937-35.558 45.802-71.763 31.371-16.857-6.719-34.133-12.726-48.346-24.2-16.708-13.488-35.297-18.395-56.489-18.612-10.618-.109-21.559-4.128-31.667-8.118-9.36-3.694-15.655-11.317-17.027-22.006-2.347-18.284-1.022-35.996 6.495-53.188 4.117-9.416 10.064-16.405 19.437-20.603 3.735-1.672 7.263-3.806 10.816-5.692-.834-1.476-.951-2.004-1.26-2.166-.741-.386-1.665-.988-2.353-.824-13.398 3.194-24.761 9.228-30.982 22.404-8.692 18.407-11.801 37.393-9.35 57.895 2.057 17.21 11.083 27.846 26.296 33.058 11.103 3.804 23.037 6.842 34.661 7.065 16.714.322 30.949 4.762 44.09 14.998 17.252 13.438 37 22.417 57.951 28.342 7.917 2.239 16.547 3.69 24.68 3.105 22.777-1.639 38.17-15.539 48.64-34.391 5.506-9.913 12.133-17.018 22.505-21.005 2.452-.942 4.804-2.267 7.007-3.712 14.477-9.499 19.582-32.701 10.234-47.922-4.907 3.942-2.172 9.078-2.212 13.478-.185 20.12-6.4 28.349-27.159 34.163 3.226-20.928 10.38-41.244 5.491-62.289zm112.226-178.841c-12.709-21.481-28.702-35.598-55.094-34.557-26.269 1.036-48.709 10.636-68.264 27.647-2.803 2.439-4.769 5.84-6.998 8.641 24.093 25.336 103.183 24.377 130.356-1.731zm-201.853 551.327c-11.487 32.736-49.068 54.551-82.142 49.409-14.33-2.228-28.794-3.668-43.054-6.253-33.253-6.026-56.769-25.738-75.192-53.243-8.764-13.084-19.538-24.829-29.568-37.044-.974-1.186-3.124-1.408-4.728-2.078.612 4.042 2.086 6.679 4.071 8.849 11.059 12.091 20.671 25.084 28.399 39.661 3.621 6.831 9.152 13.054 15.003 18.205 8.909 7.842 18.365 15.317 28.504 21.427 8.134 4.902 17.466 8.044 26.573 11.03 7.068 2.317 14.558 3.549 21.952 4.639 33.329 4.916 65.818 6.55 93.701-18.279 11.351-10.108 17.927-21.237 16.48-36.323zM523.415 723.802l-3.416-1.11c-1.777 4.629-3.612 9.237-5.317 13.893-2.722 7.432-5.039 15.029-8.092 22.319-6.63 15.835-14.672 31.16-20.194 47.357-7.039 20.649-7.336 41.657 4.225 61.337 13.171 22.421 26.428 44.794 39.943 67.008 3.544 5.824 7.422 11.767 15.51 15.501-.433-2.988-.206-4.844-.961-6.116-12.594-21.22-24.391-42.991-38.233-63.371-17.139-25.233-23.152-50.998-10.5-79.752 5.496-12.489 10.44-25.228 16.166-37.608 5.881-12.716 8.317-26.067 10.869-39.459zm505.36 390.744c-6.75 7.691-13.334 15.536-20.292 23.034-8.082 8.709-16.548 17.062-24.744 25.668-7.594 7.974-14.897 16.23-22.607 24.089-11.426 11.648-23.256 22.901-34.627 34.602-16.226 16.696-27.108 36.878-36.185 58.018-4.798 11.175-5.955 23.007-2.124 34.903 1.473 4.572 3.369 8.758 10.249 8.311-6.094-14.581-6.564-28.395-.513-41.821 8.896-19.738 19.093-38.748 34.258-54.618 28.612-29.942 57.174-59.932 85.739-89.919 5.735-6.02 11.067-12.298 10.845-22.267zm286.852-242.562c-7.886 7.298-9.452 14.649-11.415 21.56-7.909 27.852-9.622 56.38-7.915 85.112 1.671 28.128 3.919 56.222 5.99 84.325.388 5.266.915 10.542 1.79 15.744.798 4.744 2.156 9.393 3.267 14.084 2.984-3.217 4.206-6.147 3.987-8.966-2.692-34.685-5.766-69.34-8.392-104.03-2.447-32.325.405-64.192 9.492-95.408.937-3.218 1.678-6.494 3.195-12.421zM592.541 978.849c19.882-18.214 19.425-37.918.566-53.526-2.375-1.966-4.749-3.94-7.211-5.794-10.715-8.067-11.495-10.446-6.496-23 1.455-3.654 3.95-6.891 5.426-10.539 4.435-10.962 8.913-21.926 12.743-33.105 1.861-5.432.828-11.066-2.434-16.743-2.548 9.618-4.116 18.595-7.352 26.924-3.476 8.946-8.806 17.154-12.768 25.936-2.325 5.153-3.832 10.73-5.217 16.239-1.789 7.117.292 12.844 6.7 17.069 4.763 3.141 9.26 6.743 13.595 10.465 11.216 9.631 12.084 13.635 7.451 27.597-2.007 6.046-3.356 12.311-5.004 18.476zm526.276-79.925 1.665-2.843c-17.814-17.737-39.421-29.173-64.761-24.488-29.377 5.431-57.992 14.996-86.902 22.894-1.975.539-3.657 2.147-5.476 3.258 3.767 1 7.155.756 10.384-.091 23.038-6.046 45.951-12.592 69.086-18.235 21.014-5.126 41.151-2.964 59.497 9.726 5.247 3.629 10.991 6.539 16.507 9.779zM1325.28 939c5.264-2.639 10.504-5.326 15.797-7.906 11.839-5.769 23.526-11.897 35.611-17.097 10.806-4.65 22.1-5.888 33.27-.543 8.301 3.972 16.556 8.04 24.894 11.93 2.437 1.137 5.09 1.809 9.417 3.308-1.936-3.015-2.406-4.411-3.376-5.158-22.599-17.404-46.581-26.639-74.499-12.451-4.306 2.188-8.885 3.842-13.179 6.05-10.492 5.395-20.645 11.317-27.935 21.866zm54.051 336.481 1.459.348c.809-5.332 2.737-10.774 2.229-15.977-1.921-19.702-4.561-39.336-7.146-58.968-.287-2.184-1.942-4.187-2.963-6.274l-2.696.665 9.117 80.207zm-424.809 254.901-21.878-68.226c-3.729 16.704 8.58 55.633 21.878 68.226zm212.158-373.227 11.045-41.225c-10.313 11.972-13.652 25.805-11.045 41.225z"/><path d="m1301.404 1471.162 50.552-91.282c110.116 30.798 210.519 79.71 303.523 143.969l-.976 3.253c-2.496-.487-5.077-.716-7.474-1.502-20.2-6.627-40.593-11.854-62.13-11.669-10.282.088-18.684 3.441-26.585 9.909-12.276 10.049-25.059 19.485-37.745 29.023-8.57 6.444-10.335 15.459-8.262 24.86 2.454 11.129 6.18 22.012 9.898 32.815 2.608 7.576 1.942 11.045-5.03 15.482-2.594 1.651-5.472 2.853-8.216 4.271-11.352 5.869-14.553 15.948-13.971 27.741.123 2.502.841 5.785 2.541 7.268 10.792 9.412 19.451 21.861 35.379 24.06 9.149 1.263 18.379 3.069 27.086 6.051 7.318 2.506 14.55 6.252 20.71 10.915 8.529 6.457 17.046 8.569 27.189 5.15 14.499-4.887 27.432-12.17 37.629-23.76 1.582-1.797 2.474-4.201 4.252-7.32l-22.639-5.246c2.475-2.079 3.567-3.731 4.971-4.062 14.522-3.427 26.409-12.051 38.946-19.405 7.121-4.177 12.119-10.067 15.326-17.685 4.247-10.087 8.769-20.058 15.48-29.721-.977 10.882-2.135 21.752-2.889 32.65-1.156 16.697-1.677 33.446-3.151 50.112-1.008 11.392-3.227 22.675-4.806 34.021-.666 4.787-1.739 9.648-1.464 14.408.504 8.716 3.37 11.085 14.273 12.883-.357 2.844-.713 5.742-1.085 8.639-2.549 19.816 4.558 35.212 21.191 46.225 17.952 11.886 35.227 24.815 55.719 32.517 7.449 2.8 14.547 3.552 21.965 1.755 9.308-2.255 11.7-7.681 6.04-15.403-4.917-6.709-11.212-12.41-16.912-18.544-1.789-1.925-3.626-3.806-4.327-7.592 3.639 2.295 7.23 4.67 10.924 6.873 19.073 11.374 25.165 9.794 38.301-7.836 11.431-15.341 8.935-32.194 4.825-48.293-4.559-17.858-12.015-34.978-18.255-52.403-.843-2.353-1.949-4.612-4.206-9.895 12.366 9.759 22.637 17.041 31.946 25.394 15.623 14.019 32.237 24.876 55.888 21.322.375 8.525.561 15.898 1.049 23.251 1.255 18.905 1.679 37.941 4.366 56.647 1.462 10.179 5.992 20.228 10.666 29.571 9.336 18.664 16.921 37.537 19.962 58.513 5.714 39.414 8.815 78.948 9.805 118.726 1.274 51.225 3.181 102.434 4.332 153.661.346 15.414-.954 30.862-1.42 46.297-.144 4.776-.022 9.56-.022 14.523-8.646 2.957-274.28 4.055-294.178.794.139-12.653-7.582-21.117-19.932-27.64 4.789-1.917 7.833-3.484 11.064-4.374 29.287-8.068 47.577-27.71 57.774-55.45 5.326-14.488 9.776-29.304 14.377-44.048 3.255-10.432 8.863-18.64 17.744-25.511 17.349-13.419 19.112-26.394 7.692-44.881-2.553-4.133-4.929-8.449-8.001-12.175-12.063-14.63-19.291-30.938-22.255-49.964-4.46-28.629-28.378-27.477-46.142-15.373-8.936 6.089-16.308 14.632-19.957 25.791-1.388 4.244-5.052 8.209-8.603 11.205-19.892 16.785-40.067 33.234-60.96 50.471.519-2.514.484-4.603 1.349-6.207 15.883-29.445 19.804-61.98 24.329-94.322 2.44-17.439 4.38-34.951 6.256-52.462.417-3.895-.108-7.96-.666-11.88-3.871-27.198-21.346-38.215-48.458-31.828-11.486 2.706-21.124 8.868-28.235 18.521-3.142 4.264-6.029 8.719-9.208 12.954-10.283 13.694-18.293 29.271-32.67 39.588-7.344 5.27-6.838 12.566-5.515 20.29 4.768 27.825 9.356 55.68 14.055 83.516 2.864 16.962 5.858 33.901 8.658 50.873.407 2.464.056 5.053.056 8.992-4.635 0-8.502.312-12.304-.05-27.226-2.592-54.411-5.668-81.667-7.86-13.6-1.094-27.345-.252-40.986-.988-29.518-1.594-59.034-3.332-88.506-5.601-22.862-1.76-45.647-6.09-68.482-6.209-24.171-.126-48.5 2.345-72.509 5.558-29.709 3.977-59.197 9.681-88.71 15.028-21.636 3.92-38.786 15.381-54.059 31.168-22.05 22.792-45.363 44.363-70.067 65.271 6.48-13.286 12.951-26.575 19.441-39.856 7.554-15.458 14.866-31.044 22.827-46.289 2.752-5.27 6.772-10.02 10.83-14.442 23.405-25.502 45.749-51.787 56.949-85.269 2.568-7.679 2.177-16.414 2.658-24.692.196-3.365-.916-6.805-1.464-10.418 5.319 0 10.056.463 14.67-.096 9.714-1.178 17.107-6.024 22.603-14.409 11.667-17.801 13.399-36.905 9.001-57.174a1934.91 1934.91 0 0 1-10.047-49.268c-.615-3.24-.622-7.096.552-10.097 10.128-25.892 20.772-51.583 30.872-77.485 4.464-11.449 11.534-18.9 23.692-22.787 14.965-4.784 29.324-11.462 45.006-17.747-.974 7.152-2.238 13.989-2.784 20.883-2.01 25.394 8.016 40.434 30.397 45.247 11.293 2.429 18.141-1.218 21.486-12.152 1.74-5.69 1.974-12.167 1.431-18.156-.875-9.645-3.255-19.144-4.428-28.774-.879-7.214.307-14.001 8.563-18.462 6.978 6.391 8.347 14.534 7.897 22.872-.451 8.347-2.227 16.614-3.132 24.947-2.128 19.6 4.83 29.177 24.192 32.347 9.625 1.576 17.114 5.786 23.912 12.781 16.843 17.331 41.264 18.425 59.458 2.507 6.011-5.26 12.492-7.125 19.475-5.867 22.302 4.018 39.773-3.632 53.58-21.234 3.375 7.384 3.701 7.781-.141 10.934-12.914 10.598-25.085 22.719-43.407 23.38-2.188.079-4.344.891-6.537 1.035-16.409 1.079-25.866 9.81-28.935 25.851-.828 4.328-1.779 8.692-3.316 12.8-.778 2.079-2.988 3.623-6.447 7.575-.905-6.249-1.687-9.889-1.912-13.565-.501-8.197-4.836-14.088-11.069-18.742-6.715-5.014-13.73-3.728-17.937 3.508-4.361 7.5-5.915 15.721-3.706 24.272 5.068 19.623.313 36.498-13.209 51.458-5.899 6.526-11.105 13.752-16.047 21.051-5.117 7.558-6.965 16.22-5.693 25.305.9 6.426 3.589 11.996 10.271 14.209 6.918 2.291 11.221-2.228 14.052-7.242 8.659-15.337 17.091-30.824 24.939-46.588 5.683-11.416 5.206-11.654 14.329-17.538.439 3.309 1.888 6.505.979 8.742-3.619 8.906-7.026 18.13-12.231 26.115-16.129 24.742-27.772 51.128-32.845 80.32-3.026 17.411-.655 34.328 4.567 50.939 2.24 7.126 6.259 12.355 14.909 12.72 14.541.612 29.047 2.144 43.588 2.551 2.689.075 6.221-2.775 8.089-5.24 8.348-11.017 11.193-23.854 10.734-37.453-.298-8.827-1.084-17.638-1.587-26.459-.988-17.336.072-34.483 5.947-50.974 1.698-4.766 4.592-9.106 7.08-13.917 10.143 3.601 11.793 10.73 10.685 18.459-1.875 13.076-4.585 26.032-6.954 39.037-1.261 6.927-2.806 13.814-3.762 20.783-1.962 14.313 3.872 25.008 16.158 32.135 8.884 5.153 15.834 11.343 14.57 24.057l96.92 10.718c-1.166-9.493-1.967-18.907-3.527-28.193-5.991-35.672-11.851-71.372-18.464-106.932-8.08-43.45-19.764-86.007-34.692-127.597-12.966-36.124-26.149-72.189-40.262-107.874-7.616-19.258-17.408-37.653-26.176-56.458-20.89-44.801-41.766-89.608-62.621-134.425-5.952-12.79-11.813-25.622-18.435-39.996zM294.5 1884.887c33.63-9.494 66.94-14.193 100.633-16.889 4.681 51.37-.581 100.836-7.001 150.263-.422 3.248-.347 8.732 1.335 9.596 2.881 1.481 7.914 1.366 10.813-.265 8.8-4.953 17.08-10.852 25.416-16.594 3.187-2.195 5.98-4.963 10.618-8.873-5.122 19.5-9.962 36.81-14.187 54.269-6.326 26.143-12.563 52.318-18.167 78.623-3.255 15.278-3.073 30.699 2.054 45.803 8.155 24.025 29.847 41.931 55.039 42.472 19.327.415 38.726-1.734 58.063-3.158 4.121-.304 8.11-2.406 14.471-4.406-10.07-9.631-18.84-17.352-26.807-25.827-7.753-8.248-19.09-14.389-19.707-28.997 12.141-.924 21.953 3.017 30.678 8.714 11.978 7.819 25.29 10.429 38.895 11.753 18.498 1.801 35.64-13.149 38.063-29.318 3.485-23.257 2.998-45.864-2.566-68.252-8.602-34.612-18.423-68.921-27.75-103.448 15.307 10.152 23.37 29.6 41.822 40.391.325-4.28 1.109-6.498.536-8.278-7.029-21.825-5.624-44.644-7.023-66.967-1.756-28.011-7.023-55.071-14.59-81.884-.835-2.959-1.621-5.938-2.24-8.947-.142-.691.501-1.543.936-2.744 26.976.034 53.453 3.786 78.564 14.314 5.854 2.454 11.78 6.637 15.604 11.615 6.661 8.672 12.793 18.097 17.251 28.055 17.872 39.928 31.791 81.337 44.271 123.232 2.142 7.189 3.604 14.602 6.071 21.67 9.661 27.678 14.943 56.219 17.958 85.301 3.09 29.811 6.661 59.572 9.953 89.363.279 2.529.037 5.116.037 8.192H194.238c-2.104-21.92-4.453-42.924-6.046-63.986-1.496-19.795-2.192-39.651-3.242-59.48-.665-12.553-5.588-22.858-15.306-31.114-6.7-5.692-14.06-8.928-22.783-9.36-4.768-.236-9.524-.7-14.317-1.063-1.865-9.788 4.256-12.715 10.62-14.843 7.52-2.515 15.306-4.221 22.926-6.451 22.948-6.714 36.64-21.587 40.886-45.404 1.299-7.285 4.358-14.289 6.912-21.313 6.932-19.067 14.952-37.796 20.813-57.181 6.881-22.761 1.288-45.554-3.669-67.928-5.882-26.546-19.413-49.143-38.411-68.422-10.636-10.793-19.4-22.791-26.539-36.161-9.07-16.985-21.165-31.504-37.234-42.422-3.272-2.223-6.546-4.562-10.111-6.219-29.673-13.789-62.211.08-74.031 31.554-3.716 9.897-8.328 19.693-10.301 29.963-5.14 26.76-5.793 54.16 5.052 79.359 8.616 20.019 25.692 34.534 43.056 47.742 18.393 13.99 26.53 35.084 20.681 55.783-4.209 14.893-13.53 26.924-24.649 37.069-10.896 9.942-35.173 5.011-45.12-8.315-6.333-8.484-12.528-17.13-17.964-26.196-2.072-3.456-2.511-8.278-2.566-12.492-.344-26.507-.335-53.019-.508-79.528-.613-94.107-1.254-188.214-1.88-282.321-.02-3.067-.003-6.133-.003-9.987 5.652-2.096 10.981-4.034 16.281-6.045 19.661-7.463 35.616-19.402 45.501-38.384 2.428-4.662 4.733-9.578 5.926-14.652 2.8-11.908-1.689-19.263-13.405-23.438-2.008-.715-4.019-1.422-7.673-2.714 2.289-3.444 3.676-6.49 5.894-8.702 8.814-8.792 11.226-18.175 5.514-29.942-7.895-16.263-8.167-33.882-7.541-54.323 7.213 10.83 10.695 20.579 12.948 30.493 2.728 12.006 4.333 24.301 5.834 36.544 2.091 17.061 3.603 34.193 5.453 51.285.235 2.17.887 4.323 1.569 6.411 3.688 11.286 12.569 13.405 20.975 4.948 1.674-1.684 2.9-3.815 6.802-5.114 0 9.534-.294 19.078.079 28.597.414 10.574.416 21.322 2.407 31.645 4.15 21.525 17.904 37.222 34.756 49.917 15.197 11.448 39.983 5.944 52.89-10.824 3.642-4.733 7.956-9.527 7.125-16.514-10.45-7.317-25.051-6.329-32.253-19.467 4.989 2.001 10.103 3.741 14.944 6.051 14.264 6.806 26.14 2.528 32.029-12.276 7.144-17.962 5.554-36.651 2.261-54.913-5.299-29.392-19.17-54.592-39.742-76.401-9.57-10.145-17.65-21.695-26.405-32.608l1.768-2.326c2.527.833 5.004 1.9 7.592 2.449 5.138 1.091 10.635 3.472 15.459 2.557 24.546-4.656 47.199 2.692 70.136 9.32 7.111 2.055 14.655 3.396 22.036 3.575 16.733.404 29.56-7.894 34.83-21.355 5.894-15.056 1.475-34.42-10.527-44.923-4.614-4.037-10.406-7.121-8.822-16.123 10.932-2.703 22.275-5.773 33.744-8.263 9.841-2.136 11.661-3.643 13.046-13.497.43-3.057 1.108-6.11 1.197-9.179.278-9.594-6.425-15.778-16.022-14.634-3.923.468-7.853 1.43-11.6 2.697-8.256 2.791-15.631 4.021-23.209-2.866-5.811-5.282-13.45-2.548-20.237-.276q-21.192 7.094-30.595-13.164c-9.041-19.456-23.169-33.004-44.427-38.351-2.977-.749-5.862-1.926-8.705-3.108-1.158-.482-2.091-1.507-3.689-2.707 4.094-6.39 14.66-10.472 8.15-20.851-5.681-9.056-13.17-14.124-24.484-11.806-9.512-14.834-26.394-19.96-39.861-31.554 9.2-5.488 17.946-11.381 27.318-16.003 4.504-2.222 10.291-3.196 15.326-2.758 24.752 2.154 48.98 6.97 71.321 18.409 7.842 4.015 15.096 4.152 22.686.147 2.732-1.442 5.39-3.053 8.21-4.297 11.063-4.881 22.115-8.147 34.582-4.473 8.831 2.602 18.166 3.895 27.369 4.678 4.97.423 10.812-.232 15.05-2.583 6.034-3.346 12.408-7.745 16.095-13.363 14.45-22.021 35.448-30.833 60.506-32.596 6.94-.488 13.885-.891 23.534-1.505-8.544 10.892-14.723 20.548-22.612 28.51-31.103 31.392-41.997 70.947-45.876 113.022-5.676 61.557-12.733 122.894-22.538 183.952-3.516 21.893-7.89 43.181-15.973 63.963-4.73 12.161-5.787 25.743-8.575 38.669-5.3 24.572-9.787 49.362-16.202 73.641-8.845 33.477-13.143 67.583-16.128 101.869-3.941 45.274-7.017 90.625-10.137 135.965-.624 9.063-2.105 18.385 2.093 29.502z"/><path d="M458.679 1630.599c14.284 3.353 29.166 6.447 38.01 23.377-4.042-1.031-6.398-1.16-8.263-2.183-11.606-6.371-23.108-12.931-34.633-19.449-9.429-5.332-19.117-5.412-29.447-2.622-10.05 2.715-16.915 8.824-18.593 18.538-1.93 11.174-3.562 22.986-1.994 34.049 2.841 20.042 8.105 39.743 12.496 59.556.434 1.956 1.83 3.699 3.17 6.298 7.523-6.427 4.273-16.239 10.446-24.975.729 6.019 1.031 9.737 1.65 13.401 2.052 12.15 3.67 24.409 6.499 36.38 2.725 11.532 11.088 19.112 21.594 23.605 14.924 6.383 30.51 9.213 46.463 3.78 14.67-4.996 29.154-10.525 40.178-22.156 6.65-7.017 14.758-10.877 24.225-12.545 6.942-1.223 13.783-3.066 20.619-4.829 18.038-4.653 31.198-15.125 40.524-31.523 6.688-11.758 15.424-22.352 24.621-35.418 7.618 13.563 12.154 25.571 15.957 38.401-2.536 1.671-4.544 3.456-6.886 4.467-26.03 11.243-38.244 33.511-44.472 59.02-4.123 16.887-9.367 33.019-17.518 49.908-10.084-1.153-20.441-2.913-30.856-3.379-12.269-.548-24.792-1.363-36.845.397-27.492 4.014-54.627 10.63-82.17 14.097-23.6 2.971-47.717 1.804-71.328 4.715-25.735 3.173-51.149 8.943-76.71 13.537-1.249.224-2.574.029-3.797.029-4.506-17.608 7.02-171.999 14.791-190.18.689 12.229 1.027 22.629 1.914 32.983 1.404 16.387 4.585 32.072 14.41 46.113 12.093 17.282 40.414 24.36 57.736 12.435 5.057-3.482 9.315-9.64 11.49-15.483 4.86-13.06 5.268-26.655.914-40.271-4.971-15.548-9.314-31.295-14.199-46.872-7.163-22.837-3.737-44.431 6.972-65.329 4.171-8.14 8.137-16.384 12.462-25.119-10.151-5.315-17.546 1.057-28.204 4.853l22.253-24.157c-3.924-8.8-10.454-7.662-16.377-6.231-22.473 5.427-38.189 19.367-48.428 39.785-2.499 4.985-4.675 10.131-8.511 14.686.79-3.789 1.615-7.57 2.363-11.367 4.345-22.066 8.391-44.197 13.117-66.181 2.587-12.033 6.251-23.837 9.54-35.714 3.403-12.288 8.234-24.336 10.202-36.84 10.773-68.458 20.144-137.087 25.778-206.226 2.332-28.621 7.563-57.303 24.387-81.646 11.774-17.036 25.318-32.869 38.387-48.982 9.312-11.481 21.766-15.852 37.659-14.17-.205 3.683.315 7.668-.751 11.171-4.467 14.678-2.476 29.173 2.265 43 6.854 19.99 15.084 39.513 22.899 59.167 13.852 34.838 28.169 69.492 36.488 106.251 2.624 11.594 6.17 22.992 9.577 34.395 8.082 27.052 16.35 54.048 24.48 81.086.602 2.003.696 4.159 1.159 7.081-13.686 1.42-25.754 5.615-33.783 16.469-7.289 9.854-13.526 20.487-21.103 32.122-5.076-9.789-2.656-17.513 1.518-24.429 4.079-6.76 9.376-12.804 14.321-19.017 8.376-10.525 15.131-21.775 16.379-35.537 1.026-11.321-1.913-21.01-11.919-27.621-5.235-3.459-10.613-4.285-16.084-.694-11.123 7.3-22.086 14.983-29.289 26.423-3.685 5.853-6.781 12.466-8.39 19.157-3.656 15.206-8.148 29.678-19.101 41.57-6.236 6.771-8.729 15.271-7.276 24.605 1.76 11.306 3.402 22.636 5.487 33.883.629 3.394 2.221 6.742 3.961 9.773 5.974 10.411 13.857 11.903 22.705 3.937 4.465-4.02 8.049-9.02 12.853-14.517 12.112 29.041 38.43 43.876 58.603 64.336 13.846 14.042 31.912 20.25 51.97 18.838 5.038-.355 8.97-.131 9.021 7.132-12.07-.568-24.248-.28-36.171-1.885-23.59-3.176-46.987-7.773-70.566-11.051-14.82-2.061-29.806-3.186-44.757-3.901-5.095-.243-10.565 1.413-15.407 3.346-5.697 2.274-11.163 5.585-10.682 14.348zm-48.847-159.879c.82-7.954-5.323-17.232-12.154-18.357-8.561-1.41-20.711 7.461-21.583 15.758-.917 8.732 6.348 18.171 14.752 19.166 8.95 1.06 17.98-6.821 18.984-16.567zm-12.069 40.862c-8.059.27-14.14 6.694-13.817 14.597.308 7.536 6.505 13.439 13.704 13.054 8.68-.464 13.795-5.993 13.528-14.624-.251-8.14-5.555-13.29-13.415-13.027zm767.51 722.273h-45.523c-.599-8.861-.803-17.128-1.795-25.3-1.427-11.76-2.226-23.799-5.5-35.079-3.697-12.74-7.113-14.004-20.357-13.91-21.881.156-34.627-16.537-27.313-37.139 3.337-9.398 8.357-18.519 14.187-26.635 8.196-11.41 19.213-18.782 34.182-19.928 17.577-1.345 35.079-3.853 52.55-6.303 5.215-.732 8.619.96 11.129 5.022 5.31 8.595 12.668 16.711 15.16 26.092 4.6 17.319 7.95 35.34 8.685 53.197.578 14.054-5.839 26.669-21.277 31.698-10.452 3.404-13.838 11.03-13.253 21.612.475 8.596 4.289 17.374-.876 26.672zm81.648-627.891c16.038-43.32 31.608-84.663 51.47-126.227 9.218 13.355 13.447 27.198 19.067 40.329 5.723 13.372 11.156 26.868 16.59 40.007-22.849 40.044 3.126 74.356 30.774 92.655 3.65 2.416 7.843 4.022 11.82 5.93q7.268 3.488 10.58 12.663c-7.357-1.634-14.796-3.591-22.348-4.876-7.171-1.221-10.782-6.224-12.681-12.121-3.682-11.433-11.511-16.055-22.89-16.25-7.485-.128-13.737-2.409-17.524-9.635-11.525-21.995-30.635-27.449-53.614-24.182-2.931.417-5.853.887-11.244 1.707zm-488.616 461.857c-4.403-15.137-8.636-30.327-13.243-45.402-12.509-40.925-26.618-81.285-43.723-120.541-7.146-16.4-16.926-30.934-32.922-42.3 17.199-20.701 10.982-48.281 21.253-71.618 19.397 23.288 71.836 231.804 68.635 279.861zM486.754 680.773c-3.119-13.612-4.679-25.156-4.983-36.827-.735-28.226-1.755-56.464-1.55-84.689.149-20.657-7.011-39.889-9.477-59.946-2.093-17.024-3.718-34.242-3.626-51.363.121-22.493 11.732-41.187 23.407-59.483 2.596-4.069 5.929-7.68 9.035-11.409 33.469-40.181 43.512-86.484 36.196-137.435-.69-4.807-.092-9.798-.092-14.704l3.629-.374c2.028 9.512 5.179 18.941 5.888 28.551 2.969 40.211-4.997 78.095-26.39 112.674-2.766 4.471-6.451 8.366-9.601 12.609-6.297 8.483-12.747 16.866-18.729 25.568-19.619 28.538-19.219 60.784-11.864 91.894 9.581 40.53 10.109 81.17 10.199 122.201.035 15.829 2.019 31.654 3.141 47.479.328 4.619 2.083 9.536-5.182 15.255zM107.327 2038.377c-7.131-11.673-5.638-15.63 5.11-20.652 10.725-5.01 21.426-10.462 31.059-17.25 4.537-3.197 8.092-9.614 9.405-15.204 3.458-14.718 6.695-29.03 17.496-40.762 3.152-3.424 3.417-9.787 4.35-14.922 2.678-14.732 4.877-29.552 7.601-44.276.662-3.575 2.622-6.909 4.51-11.681 6.955 5.65 10.256 11.275 9.432 18.121-1.198 9.963-2.937 19.933-5.415 29.654-4.234 16.613-10.393 32.81-13.587 49.592-3.792 19.926-14.421 34.699-29.314 47.273-.674.569-1.339 1.206-2.119 1.583-12.566 6.068-25.149 12.099-38.529 18.522zm1265.211-290.694c-16.143-.088-26.489-9.027-26.39-21.542.127-16.061 13.079-29.166 28.498-28.359 7.436.389 14.934 1.161 22.184 2.759 2.841.626 5.861 3.536 7.404 6.21 2.153 3.73 2.603 8.405 4.498 12.329 2.51 5.198 1.188 8.949-2.477 13.011-9.474 10.5-21.663 14.446-33.717 15.592zm-860.526 312.24c-1.888-6.506-3.862-12.988-5.643-19.524-2.196-8.061-3.5-16.45-6.508-24.185-4.369-11.238-7.135-22.596-7.331-34.65-.623-38.287-1.36-76.573-2.016-114.859-.101-5.894 1.026-10.808 9.858-9.246 0 4.693.476 9.522-.077 14.229-3.581 30.48-.432 60.625 3.526 90.832 3.143 23.989 5.172 48.124 7.753 72.188.882 8.222 1.941 16.426 2.919 24.639l-2.482.577zm-375.614-176.128c-4.63 4.154-9.074 3.039-12.051-.633-16.79-20.713-37.572-38.447-44.188-66.426-4.297-18.172-4.719-35.881-.755-53.673 1.6-7.183 4.558-15.361 16.641-15.745-.678 7.148-.78 13.636-1.983 19.912-4.07 21.235-2.298 42.181 2.882 62.889 3.773 15.086 15.555 24.219 26.792 33.555 6.502 5.402 12.778 10.859 12.662 20.12zm316.861 259.55c.263-8.681 2.807-15.541 6.966-21.763 3.896-5.829 9.455-7.434 16.232-5.4 9.697 2.909 19.387 5.9 29.216 8.294 8.517 2.075 17.171 4.298 25.859 4.793 13.227.754 18.902-3.081 22.155-15.948 3.756-14.854 7.7-29.989 3.448-45.616-.521-1.913-.071-4.091.444-6.17 4.847 14.373 7.197 29.095 6.522 44.166-.765 17.091-16.678 35.562-33.431 38.288-4.508.734-9.645-.479-14.129-1.927-9.22-2.977-18.059-7.143-27.297-10.052-18.779-5.914-23.256-4.397-35.987 11.334z"/><path d="M577.466 1728.698c-16.072 9.852-31.872 20.194-48.348 29.317-6.762 3.744-14.836 5.753-22.564 7.001-24.219 3.909-43.862-18.115-37.942-41.961.637-2.564 1.262-5.135 2.024-7.664 7.091-23.543-1.757-43.785-23.928-54.777-4.999-2.478-9.928-5.097-14.31-8.517 21.048 3.982 40.226 11.707 45.683 34.863 2.529 10.731.785 22.722-.392 33.999-1.087 10.416-1.05 20.106 4.561 29.373 4.987 8.236 13.944 13.481 23.279 11.33 10.648-2.454 20.986-5.505 30.158-12.594 10.397-8.036 22.163-14.323 33.489-21.111 2.047-1.227 4.844-1.201 7.294-1.753l.995 2.493zm-211.721 5.335c-9.784-3.794-12.404-9.18-13.853-16.09-4.597-21.909-3.928-43.857-.713-65.761 3.723-25.366 4.685-27.476 13.982-41.282-.401 3.92-.362 6.111-.875 8.164-5.534 22.166-5.801 44.443-1.867 66.885 1.9 10.838 3.756 21.708 4.933 32.638.482 4.468-.883 9.135-1.607 15.446zm1412.126-37.583c-13.588-25.917-26.941-51.081-39.995-76.399-7.752-15.034-12.475-30.923-11.774-50.203 2.408 3.046 4.132 4.538 4.996 6.424 14.28 31.194 28.355 62.481 42.712 93.639 3.937 8.544 7.465 16.917 4.061 26.539zm-436.795 535.671c5.27-3.659 10.848-6.952 15.744-11.058 8.729-7.322 17.207-14.966 25.484-22.799 6.426-6.082 7.455-13.223 3.997-21.654-8.485-20.687-7.601-23.258 10.027-37.014.975-.761 2.164-1.25 5.834-3.325-2.311 4.397-3.349 6.478-4.481 8.507-4.826 8.656-4.941 17.477-1.502 26.678 4.78 12.79 2.826 24.657-7.565 33.709-11.217 9.77-23.092 18.836-35.173 27.523-2.89 2.078-7.738 1.434-11.685 2.041l-.68-2.607z"/><path d="M514.983 1728.218c1.904-1.512 3.689-3.21 5.729-4.51 23.812-15.178 47.278-30.952 71.639-45.196 15.9-9.297 33.197-16.049 52.509-14.933-32.276 8.608-57.948 29.24-85.681 46.085-9.416 5.719-19.105 11.025-28.902 16.066-4.399 2.264-9.372 3.413-14.085 5.069l-1.209-2.581zM50.991 1311.986c9.093 2.936 12.184 9.338 15.509 15.423 6.762 12.375 13.104 24.99 20.175 37.183 17.905 30.878 36.117 61.578 54.206 92.35 2.153 3.662 4.304 7.326 7.472 12.718-12.632-10.259-93.483-141.397-97.362-157.674zm134.437 173.024c8.199 7.926 11.12 18.12 12.527 28.562 1.487 11.034-4.377 17.613-15.483 18.86-3.058.343-6.177.154-9.268.185-20.076.202-21.031.813-28.85 18.516-7.619-7.338-8.524-12.188-3.98-21.322 3.657-7.351 13.233-11.487 22.561-9.862 4.724.823 9.552 2.343 14.212 1.983 11.137-.86 14.626-5.578 13.254-16.681-.428-3.469-1.538-6.858-2.386-10.27-.829-3.332-1.722-6.647-2.587-9.97zM48.263 1263.617l127.831 17.702c-37.326 6.46-114.097-4.711-127.831-17.702zm1760.221 484.118c1.064-2.653 1.759-4.681 2.684-6.598.708-1.466 1.707-2.791 4.424-3.645-.522 3.713-.542 7.585-1.66 11.109-3.187 10.048-8.093 12.616-17.947 9.183-5.363-1.868-10.44-4.618-15.524-7.208-3.128-1.593-5.94-3.798-9.044-5.447-13.576-7.214-16.488-6.731-27.377 4.19-2.404-15.741 5.577-23.057 20.421-18.114 6.609 2.201 12.884 5.561 19.066 8.854 7.403 3.944 14.707 7.864 24.958 7.676zm-287.55 274.989c-3.569-22.175-3.696-44.091 8.841-63.937 3.042-4.816 6.199-9.839 10.344-13.628 15.878-14.516 33.151-27.657 42.91-47.886l2.942 1.403c-1.336 4.61-1.595 9.995-4.239 13.663-5.105 7.084-10.659 14.425-17.604 19.502-28.746 21.013-40.455 50.206-42.751 84.383-.145 2.167-.295 4.333-.443 6.5zm-842.676-273.76c3.387 6.552 5.31 10.028 1.652 15.265-6.021 8.62-11.071 17.957-16.092 27.228-5.224 9.646-10.559 19.107-20.653 28.554-.326-4.995-1.433-8.026-.51-10.191 4.304-10.097 8.476-20.361 14.019-29.787 5.988-10.181 13.445-19.497 21.584-31.07zm706.195 137.39c4.423-17.889 37.32-64.006 55.817-79.248 2.887 3.052 4.851 6.098 1.522 10.112-18.772 22.628-37.539 45.261-57.338 69.136zm336.278 179.085c-11.365-1.308-14.49-3.804-15.559-12.485-.806-6.55-.533-13.225-1.031-19.823-.33-4.369-.607-8.879-1.91-13.009-2.709-8.587-9.031-10.351-16.128-4.934-3.442 2.628-6.775 5.399-10.867 8.672 2.322-15.346 12.129-22.874 25.357-19.92 2.463.55 5.474 3.295 6.273 5.683 1.655 4.945 2.702 10.326 2.739 15.537.098 13.951 2.701 27.117 11.127 40.279zm-23.231 29.159c-11.633 19.504-22.483 39.539-35.182 58.322-8.11 11.995-19.47 21.365-35.481 22.895 2.506-1.946 4.94-3.995 7.53-5.823 17.699-12.49 31.597-28.121 39.93-48.322 4.626-11.215 11.801-20.473 20.678-28.485l2.526 1.413zM83.52 1298.419l87.395 26.543c-30.123 3.721-73.472-9.081-87.395-26.543zm1256.381 472.925c-14.707 1.802-28.278-3.27-40.533-10.325-9.606-5.53-22.812-6.905-28.814-20.797 3.86 0 6.96-.978 8.343.15 16.079 13.103 35.486 18.671 54.66 24.85 2.395.771 4.573 2.214 6.852 3.346l-.509 2.777zM121.458 1345.562l85.408 21.454c-27.809 3.606-75.646-8.126-85.408-21.454zm1380.284 846.405-11.263.964c-7.415-4.564-13.155-10.19-19.789-11.597-6.794-1.44-14.463 1.254-21.75 2.138l-.901-2.524c9.439-3.986 18.688-8.541 28.377-11.779 7.803-2.608 11.559.524 12.561 8.519q1.708 13.629 12.764 14.278zm141.152-608.758 36.125-42.753c3.669.103 5.582 3.081 3.851 6.914-2.835 6.276-5.551 13.258-10.324 17.861-8.114 7.826-17.788 14.036-26.806 20.924l-2.845-2.947zm-147.626 540.499c8.949 11.905 16.325 23.043 19.675 36.75-4.582-5.522-9.094-11.103-13.773-16.542-2.568-2.985-5.218-5.959-8.185-8.528-4.835-4.186-9.449-4.561-15.459-.746-8.737 5.547-18.425 9.595-28.308 13.052 13.276-11.364 28.339-19.134 46.051-23.986zm109.816-468.435c-5.92 7.793-12.416 7.33-18.285 6.358-16.343-2.706-32.568-6.131-50.288-9.551 7.837-7.553 14.944-5.452 21.966-3.217 14.632 4.656 29.399 8.307 46.608 6.411zm-338.682 17.235c22.07 4.334 44.572-7.627 66.463.186l.061 3.683c-11.377.122-22.758.088-34.13.411-10.963.311-22.214 4.217-32.394-4.28zm14.469-26.682c-17.401-8.118-34.014-6.415-50.689 2.354 4.585-13.186 16.284-11.534 25.419-13.884 10.464-2.692 19.678.314 25.271 11.531zm95.541 205.081c17.349-22.37 31.174-47.579 55.181-64.583l-52.994 66.344-2.187-1.761zm189.265-303.178c-13.276 14.747-10.634 33.489-12.912 50.919-6.031-23.793-5.177-45.762 12.912-50.919zM445.806 1898.15c-.781-19.139 2.019-28.48 10.168-33.459.036 12.15-4.1 22.229-10.168 33.459zm617.94 19.764-15.441 3.598q1.804-7.453 15.441-3.598z"/></g><path d="M931.012 1276.31c11.488-4.473 22.843-5.261 34.326-2.587 32.599 7.591 64.977 16.313 97.82 22.629 34.145 6.566 68.583 12.49 103.171 15.578 26.106 2.33 52.605 3.342 78.967-2.897 17.85-4.225 36.578-5.181 54.992-6.397 8.962-.592 18.329.913 27.599 9.637-4.966-.243-7.683-.009-10.23-.559-18.997-4.102-37.755-2.108-56.335 2.364-2.487.598-5.297 3.181-6.429 5.569-13.576 28.63-19.84 59.147-22.833 90.486-1.214 12.712-2.922 25.378-4.019 38.098-1.455 16.878-11.828 27.001-25.647 34.44-13.241 7.129-27.827 9.878-42.356 7.322-19.893-3.5-39.398-9.161-59.133-13.612-15.915-3.589-26.053-16-38.534-24.774-13.568-9.538-23.247-22.742-32.097-36.587-25.89-40.503-51.857-80.956-77.795-121.428-1.19-1.857-2.727-3.573-3.526-5.583-2.513-6.327-6.349-10.381-13.801-9.819-1.325.1-2.757-1.216-4.139-1.879zm318.069 40.261c-.992-.093-2.39-.621-3.517-.273-25.097 7.759-51.077 5.801-76.234 3.485-37.199-3.425-74.221-9.921-110.942-17.045-33.259-6.453-66.013-15.512-99.002-23.366-1.59-.378-3.306-.223-5.337-.337.141 1.953-.197 3.449.381 4.372 9.354 14.951 18.737 29.886 28.353 44.669 1.576 2.423 3.964 4.775 6.531 6.016 11.496 5.559 22.928 11.422 34.876 15.843 21.047 7.787 42.662 14.047 63.666 21.939 47.433 17.821 94.752 16.925 141.309 1.559l19.916-56.861zm-120.486 126.184c8.603 1.193 17.261 3.092 25.983 3.452 16.269.671 26.29-11.396 23.354-27.211-.643-3.463-1.166-6.996-2.282-10.316-3.7-11.013-11.785-16.437-23.526-17.784-13.968-1.603-28.003-3.37-41.689-6.477-13.708-3.112-27.157-7.569-40.476-12.143-21.64-7.432-43.086-15.433-64.605-23.217-3.079-1.114-6.11-2.362-9.163-3.548 9.867 18.539 20.585 35.728 32.446 52.089 11.676 16.105 27.001 27.66 46.809 32.605 11.108 2.773 21.985 6.478 33.108 9.176 4.304 1.044 9.066 2.929 14.312.137-10.131-24.473-32.241-37.113-49.412-54.229 23.754 13.061 46.226 27.313 55.142 57.465zm96.607-18.951c-9.535 7.996-16.773 14.248-24.209 20.256-10.031 8.104-21.675 12.233-34.463 10.898-37.765-3.945-75.4-8.737-110.417-24.974-1.462-.678-3.165-.836-4.756-1.236 3.467 6.08 7.75 10.98 12.908 14.647 12.794 9.095 23.104 22.023 39.402 25.813 18.851 4.383 37.546 9.583 56.556 13.089 12.712 2.344 25.63.397 37.402-5.578 9.162-4.651 18.086-10.39 21.241-20.703 2.909-9.511 3.947-19.594 6.336-32.21zm-28.077-582.257c-6.815 10.478-12.09 19.601-18.39 27.951-4.962 6.578-12.861 8.044-20.421 6.203-14.507-3.532-29.123-7.099-43.085-12.289-26.807-9.965-52.98-21.642-79.821-31.504-17.719-6.51-36.143-11.101-54.259-16.528-2.107-.631-4.359-.871-6.371-1.706-4.556-1.892-5.713-5.189-3.249-9.539.646-1.14 1.43-2.283 2.399-3.145 15.748-14.002 32.576-24.973 55.009-25.099 21.988-.123 41.445 7.487 60.308 17.189 19.57 10.066 38.79 20.506 59.938 27.393 15.698 5.113 30.417 13.232 47.942 21.073zm-54.912 113.352c-42.475 2.53-82.087-1.727-121.61-9.412-17.356-3.375-34.704-6.29-51.327-12.38-5.582-2.045-13.698-2.818-14.122-9.986-.433-7.32 7.641-8.839 13.026-11.284 25.408-11.539 52.034-18.76 79.491-23.95 27.068-5.117 48.569 3.13 66.957 22.283 12.046 12.546 19.72 27.749 27.584 44.729zm-96.623-13.146c27.842 3.339 55.015 10.577 84.793 6.955-9.217-22.069-23.055-38.294-43.509-49.922-9.224 19.307-22.378 33.415-41.284 42.967zm-43.665-35.511c-13.397 3.214-25.539 10.004-39.841 15.238 15.946 8.497 35.962 14.013 47.65 13.791l-7.81-29.029zm335.719 227.443c4.889 21.045-2.265 41.361-5.491 62.289 20.759-5.813 26.974-14.042 27.159-34.163.04-4.4-2.694-9.536 2.212-13.478 9.348 15.221 4.243 38.422-10.234 47.922-2.203 1.446-4.555 2.77-7.007 3.712-10.372 3.987-16.999 11.092-22.505 21.005-10.471 18.853-25.864 32.752-48.64 34.391-8.133.586-16.763-.866-24.68-3.105-20.951-5.925-40.699-14.904-57.951-28.342-13.141-10.236-27.376-14.676-44.09-14.998-11.624-.224-23.558-3.262-34.661-7.065-15.212-5.212-24.238-15.848-26.296-33.058-2.451-20.501.658-39.487 9.35-57.895 6.222-13.175 17.584-19.21 30.982-22.404.688-.164 1.612.438 2.353.824.309.161.426.69 1.26 2.166-3.553 1.887-7.081 4.02-10.816 5.692-9.374 4.197-15.32 11.187-19.437 20.603-7.517 17.191-8.842 34.904-6.495 53.188 1.372 10.689 7.667 18.312 17.027 22.006 10.109 3.989 21.05 8.009 31.667 8.118 21.192.217 39.781 5.124 56.489 18.612 14.213 11.474 31.489 17.481 48.346 24.2 36.205 14.431 61.812-8.434 71.763-31.371 8.992-20.726 13.858-42.753 15.204-65.433.272-4.576.682-9.143 1.029-13.714l3.46.297zm112.226-178.841c-27.173 26.109-106.263 27.067-130.356 1.731 2.23-2.801 4.195-6.202 6.998-8.641 19.555-17.012 41.995-26.612 68.264-27.647 26.392-1.04 42.385 13.076 55.094 34.557zm-8.226 1.844c-13.957-23.52-26.302-30.671-45.921-27.608-.7 6.959-.542 14.15-2.345 20.811-1.75 6.465-5.514 12.384-8.906 19.638 20.325-.017 38.814-4.14 57.172-12.841zm-106.935 4.748-3.01-10.359-6.418 5.727 9.429 4.632z"/><path d="M1248.017 1506.171c1.446 15.087-5.129 26.215-16.48 36.323-27.882 24.83-60.372 23.196-93.701 18.279-7.394-1.091-14.884-2.322-21.952-4.639-9.107-2.986-18.439-6.128-26.573-11.03-10.14-6.11-19.595-13.585-28.504-21.427-5.851-5.151-11.382-11.374-15.003-18.205-7.728-14.578-17.341-27.571-28.399-39.661-1.985-2.17-3.46-4.807-4.071-8.849 1.604.67 3.753.892 4.728 2.078 10.03 12.215 20.805 23.96 29.568 37.044 18.422 27.506 41.939 47.217 75.192 53.243 14.261 2.585 28.724 4.025 43.054 6.253 33.075 5.142 70.655-16.674 82.142-49.409zM523.415 723.802c-2.552 13.391-4.988 26.743-10.869 39.459-5.726 12.38-10.67 25.119-16.166 37.608-12.653 28.754-6.639 54.518 10.5 79.752 13.842 20.38 25.639 42.151 38.233 63.371.755 1.272.527 3.128.961 6.116-8.088-3.735-11.966-9.677-15.51-15.501-13.516-22.214-26.772-44.587-39.943-67.008-11.561-19.68-11.264-40.689-4.225-61.337 5.522-16.196 13.563-31.522 20.194-47.357 3.053-7.291 5.371-14.887 8.092-22.319 1.705-4.656 3.54-9.264 5.317-13.893l3.416 1.11zm505.36 390.744c.222 9.968-5.11 16.246-10.845 22.267-28.565 29.987-57.127 59.977-85.739 89.919-15.165 15.87-25.362 34.88-34.258 54.618-6.051 13.426-5.581 27.24.513 41.821-6.88.447-8.776-3.739-10.249-8.311-3.832-11.896-2.675-23.728 2.124-34.903 9.077-21.14 19.959-41.321 36.185-58.018 11.371-11.701 23.201-22.954 34.627-34.602 7.709-7.859 15.013-16.115 22.607-24.089 8.196-8.606 16.661-16.959 24.744-25.668 6.958-7.498 13.542-15.343 20.292-23.034zm286.852-242.562c-1.517 5.927-2.258 9.203-3.195 12.421-9.087 31.216-11.94 63.083-9.492 95.408 2.626 34.69 5.701 69.345 8.392 104.03.219 2.819-1.003 5.75-3.987 8.966-1.111-4.691-2.469-9.34-3.267-14.084-.875-5.202-1.403-10.479-1.79-15.744-2.072-28.103-4.319-56.197-5.99-84.325-1.707-28.732.006-57.26 7.915-85.112 1.962-6.911 3.529-14.262 11.415-21.56zM592.541 978.849c1.648-6.165 2.997-12.43 5.004-18.476 4.634-13.963 3.765-17.966-7.451-27.597-4.335-3.723-8.832-7.325-13.595-10.465-6.408-4.225-8.49-9.952-6.7-17.069 1.385-5.509 2.892-11.086 5.217-16.239 3.962-8.782 9.292-16.99 12.768-25.936 3.236-8.329 4.804-17.306 7.352-26.924 3.262 5.677 4.295 11.311 2.434 16.743-3.83 11.179-8.307 22.143-12.743 33.105-1.476 3.648-3.971 6.885-5.426 10.539-4.999 12.555-4.219 14.933 6.496 23 2.462 1.854 4.836 3.828 7.211 5.794 18.859 15.608 19.316 35.312-.566 53.526zm526.276-79.925c-5.516-3.24-11.26-6.149-16.507-9.779-18.346-12.69-38.483-14.852-59.497-9.726-23.135 5.643-46.048 12.189-69.086 18.235-3.229.848-6.617 1.091-10.384.091 1.819-1.111 3.501-2.719 5.476-3.258 28.911-7.898 57.526-17.463 86.902-22.894 25.34-4.685 46.947 6.751 64.761 24.488l-1.665 2.843zM1325.28 939c7.29-10.55 17.443-16.471 27.935-21.866 4.295-2.208 8.873-3.862 13.179-6.05 27.918-14.188 51.899-4.953 74.499 12.451.97.747 1.44 2.144 3.376 5.158-4.327-1.499-6.98-2.171-9.417-3.308-8.339-3.89-16.594-7.958-24.894-11.93-11.171-5.345-22.464-4.107-33.27.543-12.085 5.2-23.772 11.328-35.611 17.097-5.293 2.579-10.533 5.267-15.797 7.906zm54.051 336.481-9.117-80.207 2.696-.665c1.021 2.087 2.676 4.091 2.963 6.274 2.585 19.632 5.225 39.266 7.146 58.968.508 5.204-1.42 10.645-2.229 15.977l-1.459-.348zm-424.809 254.901c-13.298-12.592-25.607-51.522-21.878-68.226l21.878 68.226zm212.158-373.227c-2.607-15.42.732-29.253 11.045-41.225l-11.045 41.225zM409.832 1470.72c-1.005 9.747-10.034 17.627-18.984 16.567-8.404-.995-15.669-10.435-14.752-19.166.872-8.297 13.022-17.168 21.583-15.758 6.831 1.125 12.974 10.403 12.154 18.357zm-12.069 40.862c7.86-.263 13.164 4.887 13.415 13.027.266 8.631-4.849 14.16-13.528 14.624-7.199.385-13.396-5.518-13.704-13.054-.323-7.903 5.758-14.327 13.817-14.597z"/><path d="m1249.081 1316.571-19.916 56.861c-46.557 15.367-93.876 16.263-141.309-1.559-21.004-7.892-42.62-14.151-63.666-21.939-11.948-4.421-23.379-10.283-34.876-15.843-2.566-1.241-4.955-3.594-6.531-6.016-9.616-14.783-19-29.717-28.353-44.669-.578-.923-.24-2.419-.381-4.372 2.03.114 3.747-.041 5.337.337 32.99 7.854 65.743 16.913 99.002 23.366 36.721 7.125 73.743 13.621 110.942 17.045 25.157 2.316 51.137 4.273 76.234-3.485 1.127-.348 2.524.179 3.517.273z" fill="#fff"/><path d="M1128.595 1442.755c-8.916-30.152-31.388-44.404-55.142-57.465 17.171 17.116 39.281 29.756 49.412 54.229-5.246 2.791-10.008.907-14.312-.137-11.123-2.698-22.001-6.403-33.108-9.176-19.808-4.945-35.133-16.5-46.809-32.605-11.861-16.361-22.578-33.55-32.446-52.089 3.053 1.186 6.084 2.434 9.163 3.548 21.519 7.785 42.965 15.785 64.605 23.217 13.32 4.575 26.768 9.031 40.476 12.143 13.686 3.107 27.721 4.874 41.689 6.477 11.741 1.347 19.826 6.771 23.526 17.784 1.115 3.32 1.639 6.853 2.282 10.316 2.936 15.815-7.085 27.882-23.354 27.211-8.722-.36-17.38-2.259-25.983-3.452z" fill="#fff"/><path d="M1225.202 1423.804c-2.389 12.616-3.427 22.699-6.336 32.21-3.154 10.313-12.078 16.052-21.241 20.703-11.773 5.975-24.69 7.922-37.402 5.578-19.01-3.506-37.705-8.705-56.556-13.089-16.297-3.79-26.607-16.718-39.402-25.813-5.159-3.667-9.441-8.567-12.908-14.647 1.591.4 3.294.558 4.756 1.236 35.018 16.237 72.652 21.03 110.417 24.974 12.788 1.336 24.432-2.794 34.463-10.898 7.436-6.007 14.674-12.26 24.209-20.256zM1045.59 941.753c18.906-9.551 32.06-23.66 41.284-42.967 20.454 11.628 34.292 27.853 43.509 49.922-29.778 3.622-56.951-3.616-84.793-6.955zm-43.665-35.511 7.81 29.029c-11.688.222-31.704-5.293-47.65-13.791 14.301-5.234 26.443-12.024 39.841-15.238zm439.719 50.446c-18.358 8.701-36.847 12.824-57.172 12.841 3.392-7.254 7.155-13.174 8.906-19.638 1.803-6.66 1.645-13.852 2.343-20.811 19.621-3.063 31.967 4.088 45.923 27.608zm-106.935 4.748-9.429-4.632 6.418-5.727 3.01 10.359z" fill="#fff"/></svg></g></svg>
