<?xml version="1.0" encoding="UTF-8"?>
<svg id="_Слой_1" data-name="Слой 1" xmlns="http://www.w3.org/2000/svg" width="2391.634" height="1899.4" viewBox="0 0 2391.634 1899.4">
  <path d="M1582.75,1371.423c5.635,4.518,11.538,6.432,17.367,8.307,10.279,3.307,20.626,6.425,31.023,9.344,25.258,7.091,50.495,14.277,75.879,20.891,9.817,2.558,19.961,4.033,30.04,5.364,13.184,1.741,26.162,4.231,39.041,7.568,11.038,2.86,22.258,5.069,33.462,7.231,52.189,10.071,103.58,23.217,154.175,39.506,7.341,2.363,14.878,4.119,22.2,6.534,21.16,6.98,41.374,16.292,61.602,25.531,11.521,5.262,23.002,10.638,34.292,16.372,22.311,11.333,44.488,22.928,66.697,34.461,7.952,4.129,15.693,8.688,23.78,12.527,17.679,8.393,33.983,18.934,49.592,30.644,3.954,2.967,7.912,5.95,12.053,8.641,24.462,15.896,46.406,34.918,67.696,54.708,16.136,14.998,29.947,32.027,41.734,50.633,11.67,18.421,19.461,38.553,25.452,59.427,5.789,20.174,11.758,40.299,15.654,60.964,2.973,15.769,6.366,31.443,7.066,47.58.445,10.256-.547,14.042-14.09,15.826-2.739.36-5.557.141-8.338.152-86.23.325-172.46.745-258.69.946-183.589.429-367.178.73-550.767,1.151-7.677.018-15.449-1.081-23.027,1.312-1.1.347-2.526.261-3.634-.116-5.745-1.956-11.659-1.126-17.486-1.103-72.012.282-144.023.795-216.035.979-125.792.323-251.585.416-377.378.686-114.355.245-228.71.647-343.066.888-181.733.383-363.466.692-545.199,1.017-8.932.016-17.856.101-26.745-1.331-3.252-.524-4.835-2.045-5.929-4.902-1.619-4.229-1.254-8.45-.703-12.784,1.792-14.081,4.212-28.14,4.935-42.281.621-12.137,2.45-23.891,5.847-35.451,2.696-9.176,5.765-18.243,8.642-27.366,1.856-5.887,3.535-11.832,5.532-17.67,1.496-4.374,3.188-8.704,5.12-12.902,4.003-8.7,8.186-17.318,12.377-25.929,1.485-3.051,3.043-6.091,4.857-8.952,7.942-12.522,15.736-25.149,24.062-37.414,10.926-16.097,22.157-31.994,33.563-47.755,3.966-5.481,8.611-10.53,13.354-15.377,12.75-13.033,25.3-26.305,38.696-38.651,22.109-20.375,46.373-37.823,72.915-52.201,24.167-13.091,48.355-26.211,71.372-41.322,13.458-8.836,27.531-16.508,42.291-23.006,8.748-3.852,17.219-8.368,25.658-12.879,16.893-9.031,33.834-17.992,50.46-27.498,14.211-8.125,28.208-16.669,41.91-25.624,7.197-4.704,13.991-10.238,20.192-16.202,8.718-8.385,17.971-16.057,27.666-23.21,18.472-13.627,35.217-29.179,50.966-45.788,11.527-12.157,20.702-26.165,29.378-40.428,6.896-11.337,14.288-22.48,18.812-35.067,2.076-5.776,3.753-11.779,4.817-17.819,2.782-15.79,5.546-31.605,7.518-47.509,1.669-13.464,2.231-27.066,3.251-40.609.116-1.537.071-3.091.013-4.634-.679-17.927.969-35.782,1.567-53.67.299-8.94.122-17.901.013-26.85-.154-12.667-.608-25.333-.619-37.999-.008-9.187-1.827-17.75-6.647-25.658-4.823-7.911-9.429-15.954-14.217-23.886-3.829-6.345-7.662-12.694-11.717-18.896-9.527-14.572-16.017-30.624-22.812-46.519-2.18-5.099-3.728-10.467-5.603-15.698-3.543-9.883-7.07-19.773-10.687-29.628-2.257-6.149-3.194-12.44-3.523-19.003-1.619-32.246,9.11-60.616,26.639-86.946,1.369-2.056,2.777-4.086,4.103-6.168.313-.492.37-1.148.711-2.28-1.587-3.199-3.048-6.986-5.201-10.328-7.3-11.334-11.567-23.823-14.791-36.777-1.49-5.987-3.443-11.861-4.846-17.866-2.804-12.004-5.603-24.018-7.985-36.11-3.399-17.253-6.545-34.559-9.547-51.886-1.263-7.289-2.339-14.667-2.711-22.044-1.199-23.751-4.101-47.475-2.687-71.284,1.113-18.759,1.558-37.603,5.7-56.112,1.606-7.179,2.298-14.67,2.475-22.041.591-24.548,4.232-48.57,11.24-72.093,1.146-3.846,2.301-7.689,3.425-11.541,3.204-10.981,6.827-21.747,12.552-31.783,6.576-11.529,12.885-23.229,18.824-35.099,11.343-22.668,27.264-41.721,45.559-58.967,10.117-9.537,20.304-18.961,31.827-26.892,5.568-3.832,10.251-8.923,15.565-13.155,7.728-6.155,15.605-12.127,23.531-18.026,5.201-3.871,10.745-7.287,15.887-11.23,16.744-12.837,34.8-23.718,53.52-33.164,29.768-15.02,59.397-30.415,90.307-43.079,26.318-10.783,53.017-20.368,80.969-26.085,2.719-.556,5.423-1.277,8.05-2.17,15.275-5.193,31.081-7.745,46.976-10.175,14.646-2.239,29.331-4.253,44.072-5.204,13.532-.873,27.177-.471,40.753-.036,14.501.465,28.97,1.849,43.469,2.42,13.903.548,27.611,2.679,41.408,4.11,15.376,1.594,30.424,4.952,45.63,7.413,10.627,1.72,21.009,4.95,31.509,7.467,9.298,2.229,18.598,4.457,27.917,6.596,23.555,5.408,46.455,12.633,67.871,24.077,5.447,2.911,10.883,5.889,16.526,8.378,25.875,11.413,49.429,26.691,72.505,42.84,16.52,11.561,32.033,24.276,45.621,39.177,7.903,8.667,15.435,17.694,22.784,26.84,10.447,13.002,20.586,26.251,30.821,39.422,2.084,2.681,4.23,5.351,5.979,8.249,14.364,23.807,28.856,47.541,42.877,71.55,11.092,18.994,19.239,39.372,26.702,60.029,9.236,25.567,18.912,50.969,31.012,75.353,7.714,15.545,13.363,31.889,19.301,48.129,12.204,33.377,22.193,67.425,30.926,101.858,1.896,7.475,3.892,14.95,6.361,22.249,5.647,16.698,9.836,33.754,13.73,50.927,5.394,23.792,10.165,47.693,13.873,71.799.937,6.089.965,12.311,1.666,18.443,1.541,13.494,3.337,26.959,4.829,40.458.508,4.593.426,9.252.602,13.881,1.352,35.529.482,71.055-.274,106.578-.111,5.223-1.479,10.423-1.552,15.644-.224,16.095-2.688,31.966-4.65,47.865-3.022,24.481-5.911,49.005-10.706,73.224-2.276,11.496-5.216,22.862-7.89,34.278-3.167,13.527-5.831,27.202-9.702,40.525-4.389,15.105-9.867,29.895-14.887,44.816-1.772,5.267-3.751,10.471-5.361,15.786-8.159,26.937-18.885,52.93-29.154,79.082-3.377,8.601-7.916,16.743-11.819,25.142-7.809,16.804-15.687,33.58-23.27,50.486-5.722,12.757-12.751,24.691-21.109,35.867-2.2,2.942-4.513,5.804-6.137,9.982ZM1673.721,565.373c-.439-2.008-.622-3.226-.972-4.394-8.345-27.793-15.639-55.911-26.006-83.075-5.504-14.422-9.944-29.284-16.869-43.116-12.05-24.071-21.906-49.053-31.563-74.13-.776-2.015-1.565-4.033-2.192-6.096-3.782-12.449-9.233-24.235-14.506-36.072-11.482-25.775-26.906-49.316-41.957-73.058-.308-.486-.926-.774-1.61-1.324-1.923,0-4.093-.261-6.182.041-19.853,2.87-39.685,5.879-59.536,8.763-21.986,3.194-43.987,6.285-65.977,9.451-6.411.923-12.797,2.022-19.214,2.903-7.645,1.049-15.319,1.891-22.967,2.929-12.237,1.66-24.455,3.463-36.695,5.102-11.626,1.557-23.291,2.836-34.903,4.492-22.916,3.269-45.789,6.834-68.712,10.053-25.075,3.521-50.189,6.768-75.28,10.175-11.625,1.578-23.226,3.334-34.857,4.857-11.631,1.524-23.31,2.693-34.927,4.311-23.545,3.281-47.049,6.859-70.596,10.124-17.427,2.417-34.908,4.439-52.343,6.807-24.774,3.365-49.512,6.997-74.302,10.239-4.66.609-7.361,2.688-8.742,6.908-.672,2.055-1.336,4.121-1.834,6.222-3.996,16.844-6.71,33.921-8.313,51.133-1.261,13.539-2.966,26.957-5.936,40.239-1.817,8.127-3.55,16.33-4.447,24.594-1.864,17.175-3.356,34.362-6.454,51.406-3.809,20.955-6.797,42.059-10.14,63.099-.699,4.401-.507,7.604.923,13.035,1.779-1.496,3.564-2.608,4.843-4.141,5.42-6.495,11.817-11.72,19.295-15.671,2.455-1.297,4.864-2.715,7.157-4.279,9.388-6.404,19.833-8.421,30.925-7.258,4.891.513,9.773,1.489,14.543,2.707,11.932,3.048,20.079,10.536,24.434,22.012,3.405,8.974,5.28,18.356,6.764,27.809,1.647,10.496.67,21.039-.619,31.416-1.533,12.343-5.437,24.115-12.911,34.352-7.101,9.727-14.152,19.498-21.542,29.003-12.892,16.581-26.146,32.882-39.014,49.48-7.563,9.755-15.627,19.255-21.144,30.382-7.954,16.043-14.945,32.465-20.047,49.737-6.119,20.715-8.19,41.737-7.418,63.185.255,7.102.453,14.212.39,21.317-.052,5.927.747,11.699,2.125,17.427,1.445,6.006,2.91,12.008,4.301,18.027.698,3.018,1.45,5.977,4.043,8.56,5.704-.874,10.877-3.713,16.085-6.194,7.593-3.619,15.413-6.296,23.658-7.914,3-.589,5.935-1.65,8.802-2.749,12.114-4.645,24.139-9.531,36.314-14.007,4.004-1.472,8.322-2.283,12.569-2.874,28.776-3.998,57.276-.529,85.777,3.26,13.82,1.837,27.293,5.141,40.631,9.006,13.932,4.038,27.839,8.211,41.582,12.842,11.106,3.742,21.968,8.213,32.911,12.433,17.426,6.719,33.594,15.694,47.966,27.66,18.637,15.517,34.506,33.613,48.295,53.502,11.487,16.569,20.429,34.599,28.448,53.014,11.875,27.271,16.874,56.042,16.912,85.711.012,9.27.137,18.558-.365,27.806-.519,9.545-1.191,19.145-2.793,28.551-1.967,11.541-4.862,22.932-7.551,34.342-3.121,13.246-7.146,26.213-12.707,38.668-10.056,22.523-25.731,39.728-47.929,50.809-5.104,2.548-10.406,3.765-16.123,3.272-1.728-.149-3.671-.943-5.121.762-.152.319-.387.586-.393.858-.566,23.778,1.786,47.521.862,71.304-.172,4.435,1.522,7.387,5.629,9.609,7.69,4.161,15.868,6.793,24.183,9.216,4.434,1.292,8.934,2.568,13.111,4.491,11.782,5.424,23.352,11.307,35.12,16.762,8.676,4.022,17.36,8.126,26.895,9.851,8.183,1.48,16.36,3.003,24.554,4.421,4.256.736,8.526,1.632,12.821,1.861,17.646.943,35.217-.789,52.715-2.563,16.289-1.652,32.197-5.643,47.894-10.4,10.696-3.242,20.912-7.606,30.714-12.854,20.251-10.843,38.822-24.242,55.717-39.696,13.203-12.076,25.496-25.172,37.854-38.137,7.449-7.815,14.31-16.176,19.825-25.575,3.274-5.581,6.84-11.025,10.678-16.233,8.838-11.992,16.282-24.728,22.314-38.364,6.996-15.815,14.003-31.646,21.728-47.11,7.609-15.232,14.39-30.757,20.171-46.756,5.247-14.519,10.843-28.912,16.075-43.437,5.439-15.102,10.782-30.242,15.876-45.463,4.701-14.046,9.499-28.066,12.408-42.658,2.111-10.591,4.516-21.137,7.218-31.593,6.655-25.747,11.398-51.818,14.098-78.271.688-6.741,1.538-13.467,2.441-20.183,1.066-7.934,2.637-15.817,3.337-23.78,1.379-15.69,2.635-31.405,3.337-47.137.854-19.13,1.419-38.286,1.488-57.433.069-19.123.378-38.256-2.235-57.331-2.511-18.33-3.876-36.814-6.244-55.167-1.695-13.142-3.84-26.253-6.463-39.24-3.054-15.121-6.832-30.097-10.345-45.124-.389-1.662-1.1-3.249-1.857-5.433-3.46,1.445-6.394,2.383-9.05,3.83-11.928,6.503-23.86,13.009-35.637,19.78-20.082,11.546-41.394,20.861-60.807,33.611-.258.17-.519.342-.798.472-4.829,2.259-9.948.911-13.11-3.411-4.186-5.722-8.404-11.421-12.592-17.142-2.372-3.241-4.758-6.474-7.048-9.772-1.052-1.515-2.06-3.103-2.793-4.787-2.569-5.9-1.915-8.062,3.312-11.693,8.875-6.165,17.664-12.461,26.657-18.45,12.854-8.559,25.675-17.192,38.846-25.245,16.855-10.305,34.05-20.052,51.075-30.079,1.289-.759,2.389-1.838,4.04-3.132ZM1090.164,1885.071c.48-.907.99-1.436,1.019-1.99.447-8.62,1.037-17.24,1.175-25.867.157-9.882-.09-19.77-.18-29.656-.186-20.391-.242-40.785-.641-61.172-.177-9.027.833-17.87,2.389-26.71,2.239-12.72,6.607-24.264,16.009-33.723,7.174-7.218,13.65-15.137,20.328-22.838,6.522-7.522,12.06-15.746,15.412-25.157,5.279-14.817,10.972-29.53,13.117-45.279.456-3.347,1.638-6.589,2.352-9.907,1.424-6.62,3.011-13.219,4.059-19.901,1.243-7.922,1.943-15.928,2.961-23.888,1.644-12.863,3.71-25.678,3.581-38.713-.113-11.433.071-22.869-.088-34.3-.095-6.791-.587-13.578-.922-20.365-.426-8.632-1.093-17.257-1.268-25.894-.382-18.839-.162-37.696-.885-56.519-.46-11.986-.725-24.041-3.431-35.888-1.157-5.065-1.458-10.441-1.345-15.658.28-12.964.469-25.971,1.714-38.862,1.662-17.202,5.537-34.092,8.933-51.029,1.696-8.459,3.555-16.89,5.577-25.277.711-2.947,1.781-5.939,3.367-8.488.78-1.254,3.125-2.159,4.737-2.122,2.262.053,4.123,1.839,4.302,4.173.208,2.712.04,5.54-.502,8.209-3.194,15.728-6.629,31.407-9.815,47.137-2.579,12.731-3.562,25.663-4.867,38.573-1.094,10.814-1.581,21.601-.952,32.379.336,5.763,1.865,11.577,3.672,17.102,1.888,5.775,5.748,7.33,11.739,5.804,1.49-.38,3.083-.728,4.355-1.528,6.268-3.938,13.107-7.296,18.505-12.217,9.374-8.546,17.711-18.301,22.742-30.136,4.095-9.636,7.506-19.596,10.652-29.591,2.592-8.234,4.402-16.717,6.464-25.113,2.803-11.409,4.672-22.997,5.481-34.699.745-10.784,1.073-21.607,1.241-32.418.255-16.416-1.639-32.666-4.666-48.775-3.624-19.284-11.017-37.177-19.654-54.734-10.996-22.35-24.711-42.652-41.264-61.275-20.759-23.356-45.072-41.151-74.833-51.192-4.972-1.677-9.914-3.473-14.765-5.469-19.181-7.892-39.083-13.534-59.094-18.762-10.143-2.65-20.455-4.753-30.789-6.538-7.592-1.311-15.345-1.683-23.022-2.513-5.521-.597-11.033-1.268-16.551-1.888-11.739-1.318-23.46.361-35.191.239-8.143-.084-15.968,1.576-23.535,4.432-10.405,3.928-20.724,8.084-31.14,11.979-3.746,1.401-7.6,2.783-11.525,3.373-7.73,1.162-14.903,3.955-22.083,6.739-6.609,2.563-13.075,5.49-19.609,8.247-3.96,1.671-7.497,1.176-9.893-2.313-2.232-3.251-4.099-6.921-5.302-10.671-1.785-5.567-2.57-11.45-4.269-17.05-3.088-10.176-4.123-20.549-4.05-31.117.043-6.179-.298-12.36-.256-18.539.083-12.043-.597-24.159,1.727-36.057,1.714-8.771,4.193-17.39,6.176-26.112,4.768-20.979,13.601-40.372,24.001-58.979,5.241-9.377,12.082-17.918,18.676-26.47,20.179-26.17,40.596-52.156,60.893-78.235,1.133-1.456,2.036-3.093,3.017-4.664,5.013-8.035,7.019-16.937,8.442-26.221,2.537-16.558.819-32.615-4.054-48.457-.9-2.927-2.153-5.799-3.631-8.483-2.791-5.068-6.93-8.857-12.646-10.145-5.995-1.351-12.098-2.566-18.211-2.96-6.196-.4-12.282.961-17.767,4.249-5.826,3.493-11.717,6.878-17.512,10.42-1.292.789-2.341,1.999-3.437,3.081-5.056,4.99-10.06,10.034-15.137,15.003-7.751,7.586-14.609,15.879-20.888,24.741-5.349,7.549-11.329,14.658-17.151,21.864-5.625,6.963-11.341,13.855-17.135,20.678-5.794,6.823-11.691,13.561-17.631,20.259-2.867,3.233-6.327,6.002-8.844,9.47-12.185,16.791-25.77,32.378-39.94,47.494-8.449,9.013-16.892,18.044-24.979,27.378-6.256,7.221-12.209,14.74-17.818,22.474-3.978,5.484-7.014,11.641-10.725,17.33-8.7,13.336-14.775,27.729-18.468,43.22-3.021,12.67-5.152,25.382-4.821,38.475.172,6.787-.083,13.599-.451,20.382-.637,11.715-1.513,23.417-2.288,35.124-.061.925-.014,1.871-.194,2.772-2.083,10.392-1.736,20.918-1.681,31.415.076,14.827.452,29.652.482,44.478.024,11.736-.156,23.476-.47,35.208-.322,12.034-1.194,24.058-1.332,36.091-.23,20.069.28,40.146-2.98,60.077-1.742,10.653-2.407,21.508-4.608,32.053-2.124,10.177-2.385,20.368-1.134,30.417,1.461,11.732,1.1,23.423,1.383,35.137.105,4.324-.133,8.673.232,12.972,1.176,13.836,2.744,27.641,3.817,41.484,1.297,16.747,4.961,32.927,10.652,48.69,3.985,11.037,8.012,22.06,11.903,33.131,2.354,6.698,4.343,13.525,6.741,20.207,5.526,15.402,11.444,30.666,16.749,46.142,5.705,16.642,11.899,33.138,16.067,50.281,4.161,17.113,9.277,33.94,15.124,50.558,1.524,4.332,2.336,8.957,3.089,13.511,3.279,19.831,4.989,39.834,6.162,59.884.505,8.634.909,17.279,1.102,25.924.407,18.313-2.364,36.308-5.749,54.23-1.259,6.667-2.542,13.332-3.676,20.021-2.474,14.602-5.014,29.166-9.414,43.37-2.094,6.762-3.243,13.813-4.903,20.714-1.804,7.498-3.711,14.972-5.561,22.459-2.442,9.878-5.162,19.699-7.222,29.657-1.873,9.056-3.052,18.256-4.467,27.404-.259,1.672-1.777,3.388-.083,5.095,8.273,1.158,386.062,1.13,406.899-.068,1.49-.086,2.957-.569,4.182-.816ZM1762.252,1884.672c205.323-.047,410.377-.538,615.709-2.124.446-1.992,1.073-3.451,1.04-4.895-.106-4.625-.039-9.314-.796-13.852-1.928-11.564-4.183-23.076-6.468-34.577-1.623-8.167-3.138-16.385-5.355-24.399-3.951-14.281-8.225-28.48-12.704-42.606-2.517-7.936-5.256-15.864-8.692-23.434-9.783-21.555-23.196-40.754-39.314-58.048-17.533-18.812-37.097-35.411-57.424-51.045-14.191-10.915-29.272-20.664-43.713-31.263-11.017-8.085-22.794-14.771-34.991-20.823-6.086-3.02-12.183-6.044-18.094-9.386-40.91-23.137-83.144-43.624-126.007-62.822-13.518-6.054-27.244-11.776-41.235-16.607-16.621-5.74-33.57-10.569-50.488-15.404-18.989-5.425-38.019-10.753-57.185-15.5-19.158-4.745-38.501-8.748-57.776-13.02-11.75-2.605-23.493-5.256-35.294-7.611-16.019-3.197-31.661-8.233-48.069-9.573-6.131-.501-12.302-1.359-18.275-2.8-14.398-3.472-28.712-7.299-43.019-11.137-24.749-6.64-49.315-13.899-73.545-22.263-1.29-.445-2.712-.506-5.936-1.074,2.179,2.522,3.033,3.702,4.073,4.685,11.896,11.243,23.801,22.478,35.756,33.658,2.024,1.892,4.271,3.552,6.463,5.257,10.953,8.518,21.821,17.148,32.911,25.483,11.839,8.898,23.733,17.741,35.898,26.183,12.694,8.81,24.902,18.246,36.881,27.958,18.704,15.165,37.085,30.728,55.611,46.112,9.256,7.686,18.835,15.015,27.739,23.088,28.15,25.522,56.059,51.309,84.041,77.016,5.687,5.224,11.282,10.548,16.926,15.82,6.771,6.324,13.361,12.858,20.362,18.917,13.569,11.743,26.563,24.073,38.676,37.299,13.353,14.579,26.513,29.336,39.664,44.098,2.663,2.988,5.099,6.222,7.311,9.56,5.474,8.261,6.807,16.966,2.581,26.294-3.096,6.832-6.882,12.952-12.741,17.926-8.474,7.195-18.266,11.115-28.763,14.276-21.028,6.333-42.381,8.293-64.108,6.064-15.986-1.64-31.95-3.162-48.046-3.002-4.304.043-8.636-.374-12.916-.899-8.583-1.052-17.109-2.667-25.714-3.4-7.356-.627-14.795-.596-22.187-.412-13.292.33-26.531.659-39.734-1.711-10.611-1.905-21.336-3.17-32.012-4.714-4.273-.618-8.541-1.274-12.824-1.809-1.435-.179-3.101-.697-4.18,1.391.093.649-.024,1.667.385,2.386,4.268,7.512,8.456,15.077,12.995,22.425,4.678,7.572,10.703,14.377,12.584,24.316ZM1107.958,1885.497c1.73.149,2.956.35,4.182.346,138.768-.388,277.536-.791,416.304-1.204.299,0,.613-.112.893-.233.271-.117.507-.314,1.279-.81,1.202-2.584,2.764-5.59,4.013-8.722,1.254-3.144,2.508-6.345,3.22-9.638,3.062-14.171,6.13-28.347,8.788-42.597,1.753-9.4,2.956-18.911,4.15-28.405,1.923-15.295,3.846-30.596,5.367-45.934,1.156-11.662,1.682-23.387,2.504-35.083.108-1.54.171-3.102.488-4.604,1.876-8.895,1.336-17.82.504-26.763-.515-5.535-.888-11.083-1.389-16.619-.305-3.37-.622-6.745-1.122-10.09-2.234-14.952-4.445-29.908-6.836-44.835-3.076-19.2-5.756-38.489-9.637-57.529-4.249-20.845-9.531-41.485-14.64-62.146-3.339-13.504-9.528-25.936-15.243-39.158-1.735,1.017-3.167,1.58-4.252,2.537-9.298,8.201-19.576,15.03-29.871,21.885-29.44,19.602-62.23,29.698-96.902,34.383-9.164,1.238-18.493,1.202-27.696,2.21-16.731,1.833-33.285,1.011-49.763-2.266-3.63-.722-7.296-1.285-10.964-1.784-10.472-1.425-20.583-4.181-30.215-8.491-9.87-4.418-19.962-8.509-29.327-13.847-15.193-8.66-32.294-11.635-48.676-18.235-.392,1.644-.919,2.774-.877,3.884.105,2.774.485,5.537.723,8.308,2.52,29.424-.339,58.614-3.863,87.772-.703,5.817-1.164,11.688-2.307,17.42-1.99,9.978-4.68,19.818-6.611,29.806-2.823,14.598-7.235,28.682-12.12,42.699-4.554,13.067-11.397,24.605-20.466,34.926-7.342,8.355-14.827,16.587-22.028,25.06-2.358,2.775-4.424,5.956-5.932,9.267-4.299,9.44-5.624,19.545-5.62,29.825.015,38.315.116,76.63.112,114.945,0,4.756.995,9.123,3.83,13.719ZM479.402,1392.42c-1.425.861-2.954,1.763-4.46,2.701-13.896,8.657-27.575,17.691-41.737,25.889-17.105,9.902-34.593,19.145-51.966,28.582-8.952,4.863-17.76,10.108-27.078,14.152-16.502,7.162-32.298,15.505-47.292,25.4-20.655,13.632-42.47,25.302-64.212,36.999-25.721,13.837-50.067,29.526-71.598,49.231-15.717,14.384-30.716,29.559-45.891,44.528-3.503,3.456-6.652,7.337-9.557,11.32-10.737,14.722-21.443,29.472-31.876,44.41-5.479,7.844-10.073,16.308-15.586,24.126-10.574,14.993-18.438,31.393-25.877,48.042-1.887,4.223-3.871,8.434-5.334,12.81-4.406,13.178-8.785,26.372-12.761,39.683-2.289,7.662-4.656,15.474-5.451,23.374-1.795,17.821-3.827,35.604-6.18,53.356-.48,3.625-.98,7.315.613,10.903,3.782,1.441,7.513.788,11.151.769,82.211-.43,164.422-1.104,246.633-1.332,127.337-.354,254.674-.411,382.012-.595,3.091-.005,6.19.11,9.269-.086,1.746-.111,3.458-.743,5.39-1.188.239-4.993.258-9.606.733-14.173.51-4.903,1.324-9.784,2.225-14.635,2.365-12.734,4.602-25.469,8.609-37.871,2.548-7.888,3.813-16.19,5.618-24.315.129-.579-.022-1.224-.069-1.837-.123-1.596-1.78-2.969-3.219-2.438-2.007.742-4.028,1.56-5.85,2.665-5.854,3.552-10.767,8.241-15.563,13.088-8.691,8.784-17.425,17.528-26.269,26.157-6.255,6.103-13.351,11.184-21.693,13.881-5.834,1.886-12.006,2.773-18.062,3.921-9.498,1.799-19.022,1.853-28.559.133-8.812-1.589-17.636-2.759-26.664-2.572-11.194.232-22.111-1.877-32.792-5.228-5.891-1.848-11.738-3.967-17.759-5.228-6.268-1.313-11.579-4.216-16.537-7.961-2.952-2.23-5.545-4.936-8.498-7.164-8.228-6.207-11.976-14.92-13.176-24.663-1.698-13.786-2.79-27.65-3.993-41.493-.293-3.368-.002-6.786.01-10.181.017-5.233.047-10.467.031-15.7-.027-8.645-.735-17.346.01-25.921,1.281-14.729,3.482-29.378,5.256-44.065,1.147-9.49,2.047-19.014,3.372-28.479,1.926-13.76,3.658-27.517,3.611-41.448-.016-4.624.094-9.28.61-13.869.961-8.566,2.323-17.086,3.399-25.64.731-5.812,1.559-11.635,1.82-17.477.634-14.201,2.024-28.295,4.254-42.342,1.886-11.88,3.134-23.861,4.682-35.795.754-5.808,1.271-11.664,2.379-17.405,2.805-14.529,3.125-29.312,4.803-43.953.021-.186-.35-.418-.929-1.066ZM1749.497,1883.488c-3.015-4.803-5.149-8.921-7.945-12.526-9.153-11.8-14.613-25.771-22.776-38.161-3.423-5.196-.591-10.518,5.602-11.681,2.38-.447,4.907-.257,7.358-.155,15.457.645,30.503,4.452,45.855,5.993,9.807.985,19.379,3.958,29.371,3.574,7.1-.273,14.204-.656,21.304-.615,7.712.045,15.49-.026,23.116.935,13.786,1.737,27.508,3.763,41.453,3.897,7.403.071,14.813.651,22.197,1.269,6.755.566,13.462,1.745,20.22,2.215,23.369,1.624,46.238-.969,68.428-8.721,8.678-3.032,15.9-8.246,21.713-15.261,5.816-7.019,6.203-14.699,1.325-22.232-2.176-3.359-4.597-6.609-7.257-9.597-14.786-16.611-29.604-33.195-44.582-49.633-4.569-5.014-9.585-9.635-14.559-14.261-12.21-11.356-24.493-22.633-36.788-33.897-11.38-10.426-22.804-20.804-34.225-31.185-12.798-11.633-25.677-23.177-38.406-34.885-12.505-11.502-24.86-23.168-37.301-34.74-1.128-1.049-2.399-1.944-3.603-2.91-13.962-11.2-27.954-22.362-41.873-33.616-6.957-5.625-13.888-11.293-20.639-17.162-11.887-10.335-24.172-20.146-36.98-29.319-12.79-9.16-25.601-18.299-38.169-27.757-9.604-7.227-18.727-15.092-28.285-22.384-7.868-6.003-15.51-12.209-22.447-19.289-12.972-13.24-26.038-26.39-39.077-39.564-1.302-1.315-2.575-2.706-4.069-3.771-2.198-1.566-5.593-1.043-7.573.963-.648.656-1.175,1.432-1.76,2.151-13.482,16.566-28.533,31.669-43.594,46.763-2.132,2.136-4.262,4.274-6.523,6.542,1.524,3.581,2.829,6.693,4.169,9.79,4.652,10.756,10.296,21.096,13.17,32.59,3.291,13.166,7.168,26.197,10.126,39.434,4.034,18.059,7.784,36.169,10.657,54.489,4.733,30.172,10.007,60.247,13.227,90.646,1.341,12.665,1.357,25.321.685,37.939-.869,16.322-2.603,32.602-4.122,48.885-.802,8.601-1.81,17.188-2.957,25.75-1.804,13.463-3.47,26.957-5.803,40.332-3.233,18.539-6.558,37.086-12.392,55.056-.448,1.381-.513,2.886-.859,4.95,3.247.186,5.955.45,8.666.482,78.934.923,186.318.323,195.927-1.322ZM691.25,1771.46c1.674-7.894,3.431-15.698,4.96-23.547,1.12-5.746,1.736-11.593,2.933-17.321,3.728-17.842,7.03-35.747,8.139-53.97.374-6.147.3-12.334.162-18.496-.131-5.863-.605-11.718-.943-17.576-1.192-20.665-2.209-41.359-6.185-61.729-1.296-6.641-3.302-13.156-5.209-19.662-2.171-7.402-4.733-14.689-6.88-22.097-4.296-14.823-8.239-29.75-12.689-44.525-3.026-10.05-6.576-19.948-10.048-29.859-8.269-23.601-16.604-47.18-24.971-70.747-2.582-7.274-5.454-14.445-8.015-21.726-4.822-13.71-9.051-27.575-10.507-42.135-1.32-13.206-2.318-26.462-4.21-39.588-1.82-12.626-1.618-25.258-1.718-37.916-.01-1.236.077-2.484-.076-3.703-.098-.784-.552-1.524-1.004-2.69-.984.85-1.823,1.27-2.2,1.947-4.358,7.826-8.461,15.799-12.995,23.521-8.299,14.135-17.157,27.968-28.289,40.044-17.195,18.653-35.664,35.957-56.247,50.93-5.981,4.35-11.447,9.407-17.149,14.14-2.465,2.046-4.079,4.625-4.732,7.763-1.506,7.232-3.807,14.331-3.577,21.856.066,2.157.016,4.335-.202,6.481-1.245,12.267-2.438,24.541-3.884,36.785-1.048,8.876-2.475,17.706-3.704,26.561-1.951,14.061-4.036,28.085-4.817,42.304-.608,11.067-2.267,22.08-3.57,33.104-.688,5.819-1.926,11.586-2.363,17.418-.808,10.771-1.209,21.572-1.78,32.361-.196,3.702-.189,7.427-.626,11.1-2.076,17.452-4.267,34.891-6.429,52.333-.834,6.729-1.477,13.491-2.598,20.172-2.355,14.032-4.046,28.081-3.007,42.352.314,4.31.636,8.668.351,12.964-1.213,18.316,1.642,36.326,3.826,54.387.332,2.745,1.085,5.458,1.847,8.128,1.12,3.925,2.989,7.413,6.248,10.077,2.149,1.757,4.017,3.864,6.195,5.58,5.59,4.404,11.27,8.453,18.698,9.591,4.831.741,9.508,2.61,14.191,4.162,5.88,1.949,11.812,3.345,18.004,4.112,8.602,1.066,17.176,1.655,25.831,1.542,2.447-.032,4.98.239,7.339.87,10.905,2.916,21.886,3.073,33.008,1.594,13.926-1.853,26.027-7.043,35.837-17.506,8.448-9.01,17.506-17.445,26.188-26.239,5.916-5.992,12.422-11.101,20.043-14.765,5.274-2.537,10.481-5.215,16.821-8.381ZM685.438,766.086c-3.325-2.795-5.654-5.377-8.517-7.032-6.142-3.55-12.393-7.018-18.909-9.793-8.265-3.519-16.287-7.382-23.955-12.07-2.568-1.57-5.592-2.7-8.553-3.252-5.144-.96-10.401-1.327-15.612-1.922-4.976-.568-9.802.107-14.681,1.25-5.179,1.213-8.575,3.919-11.356,8.545-8.352,13.891-14.09,28.749-18.568,44.269-5.217,18.082-6.163,35.794,1.942,53.308,1.033,2.232,1.687,4.642,2.484,6.981,5.975,17.54,11.994,35.065,19.52,52.019,2.001,4.508,4.048,9.042,6.586,13.257,9.077,15.076,18.354,30.031,27.639,44.98.519.836,1.788,1.207,3.044,2.009,1.739-5.4,1.958-10.334,2.099-15.258.24-8.338-.142-16.73.675-25.007.944-9.565,1.14-19.096,1.055-28.677-.08-8.976.878-17.859,3.185-26.567,1.263-4.769,2.662-9.511,3.69-14.331,1.754-8.227,4.485-16.156,8.535-23.436,9.303-16.721,18.338-33.65,30.859-48.339,2.778-3.259,5.391-6.657,8.84-10.934Z" stroke-width="0"/>
  <path d="M1673.721,565.373c-1.651,1.293-2.751,2.373-4.04,3.132-17.025,10.027-34.22,19.775-51.075,30.079-13.171,8.053-25.992,16.686-38.846,25.245-8.993,5.989-17.782,12.284-26.657,18.45-5.227,3.631-5.882,5.793-3.312,11.693.733,1.683,1.741,3.272,2.793,4.787,2.291,3.298,4.676,6.531,7.048,9.772,4.188,5.721,8.405,11.42,12.592,17.142,3.162,4.322,8.281,5.67,13.11,3.411.279-.13.539-.302.798-.472,19.413-12.75,40.725-22.066,60.807-33.611,11.777-6.771,23.709-13.276,35.637-19.78,2.656-1.448,5.59-2.385,9.05-3.83.756,2.184,1.468,3.771,1.857,5.433,3.513,15.027,7.291,30.003,10.345,45.124,2.623,12.987,4.767,26.099,6.463,39.24,2.368,18.352,3.733,36.837,6.244,55.167,2.613,19.074,2.304,38.208,2.235,57.331-.069,19.147-.635,38.303-1.488,57.433-.702,15.732-1.959,31.447-3.337,47.137-.7,7.963-2.27,15.846-3.337,23.78-.903,6.716-1.753,13.442-2.441,20.183-2.7,26.453-7.442,52.524-14.098,78.271-2.703,10.455-5.107,21.002-7.218,31.593-2.909,14.593-7.707,28.613-12.408,42.658-5.094,15.221-10.437,30.361-15.876,45.463-5.231,14.525-10.828,28.918-16.075,43.437-5.782,16-12.563,31.524-20.171,46.756-7.725,15.463-14.732,31.295-21.728,47.11-6.032,13.636-13.476,26.372-22.314,38.364-3.838,5.208-7.404,10.652-10.678,16.233-5.515,9.4-12.376,17.761-19.825,25.575-12.359,12.965-24.652,26.061-37.854,38.137-16.895,15.454-35.467,28.853-55.717,39.696-9.802,5.249-20.018,9.613-30.714,12.854-15.697,4.757-31.604,8.749-47.894,10.4-17.498,1.775-35.069,3.507-52.715,2.563-4.295-.23-8.565-1.125-12.821-1.861-8.194-1.418-16.37-2.941-24.554-4.421-9.534-1.724-18.219-5.829-26.895-9.851-11.768-5.455-23.338-11.337-35.12-16.762-4.176-1.923-8.677-3.199-13.111-4.491-8.316-2.423-16.494-5.056-24.183-9.216-4.106-2.222-5.801-5.174-5.629-9.609.923-23.783-1.428-47.526-.862-71.304.006-.273.242-.54.393-.858,1.45-1.705,3.394-.911,5.121-.762,5.717.493,11.018-.724,16.123-3.272,22.198-11.082,37.873-28.286,47.929-50.809,5.561-12.455,9.585-25.422,12.707-38.668,2.689-11.41,5.584-22.8,7.551-34.342,1.603-9.406,2.274-19.007,2.793-28.551.503-9.248.377-18.536.365-27.806-.038-29.669-5.036-58.44-16.912-85.711-8.019-18.415-16.962-36.445-28.448-53.014-13.788-19.889-29.658-37.985-48.295-53.502-14.372-11.966-30.54-20.941-47.966-27.66-10.943-4.219-21.805-8.69-32.911-12.433-13.743-4.631-27.65-8.803-41.582-12.842-13.337-3.866-26.811-7.169-40.631-9.006-28.501-3.789-57.002-7.258-85.777-3.26-4.247.59-8.565,1.401-12.569,2.874-12.175,4.477-24.2,9.363-36.314,14.007-2.867,1.099-5.802,2.161-8.802,2.749-8.244,1.618-16.064,4.295-23.658,7.914-5.207,2.481-10.381,5.32-16.085,6.194-2.593-2.583-3.345-5.543-4.043-8.56-1.391-6.019-2.856-12.021-4.301-18.027-1.378-5.728-2.178-11.499-2.125-17.427.062-7.104-.135-14.215-.39-21.317-.772-21.448,1.299-42.47,7.418-63.185,5.102-17.271,12.093-33.694,20.047-49.737,5.517-11.126,13.581-20.627,21.144-30.382,12.869-16.599,26.123-32.899,39.014-49.48,7.39-9.505,14.441-19.277,21.542-29.003,7.474-10.237,11.378-22.008,12.911-34.352,1.289-10.376,2.266-20.92.619-31.416-1.484-9.453-3.359-18.835-6.764-27.809-4.355-11.476-12.502-18.964-24.434-22.012-4.77-1.218-9.652-2.194-14.543-2.707-11.092-1.163-21.537.855-30.925,7.258-2.293,1.564-4.702,2.982-7.157,4.279-7.477,3.952-13.875,9.176-19.295,15.671-1.28,1.533-3.064,2.645-4.843,4.141-1.43-5.431-1.622-8.633-.923-13.035,3.343-21.04,6.331-42.144,10.14-63.099,3.098-17.044,4.59-34.231,6.454-51.406.897-8.264,2.629-16.467,4.447-24.594,2.97-13.281,4.675-26.699,5.936-40.239,1.603-17.212,4.317-34.289,8.313-51.133.498-2.101,1.162-4.167,1.834-6.222,1.381-4.22,4.082-6.299,8.742-6.908,24.79-3.242,49.528-6.874,74.302-10.239,17.434-2.368,34.916-4.39,52.343-6.807,23.547-3.266,47.051-6.844,70.596-10.124,11.617-1.619,23.296-2.787,34.927-4.311,11.632-1.524,23.233-3.279,34.857-4.857,25.091-3.407,50.205-6.654,75.28-10.175,22.922-3.219,45.796-6.784,68.712-10.053,11.612-1.656,23.276-2.936,34.903-4.492,12.24-1.639,24.458-3.442,36.695-5.102,7.647-1.037,15.321-1.88,22.967-2.929,6.417-.881,12.803-1.98,19.214-2.903,21.99-3.165,43.991-6.257,65.977-9.451,19.851-2.884,39.683-5.893,59.536-8.763,2.089-.302,4.259-.041,6.182-.041.684.55,1.302.838,1.61,1.324,15.051,23.741,30.474,47.283,41.957,73.058,5.273,11.837,10.724,23.623,14.506,36.072.627,2.064,1.416,4.081,2.192,6.096,9.657,25.077,19.512,50.059,31.563,74.13,6.925,13.832,11.365,28.694,16.869,43.116,10.367,27.165,17.661,55.283,26.006,83.075.351,1.168.534,2.386.972,4.394ZM1104.205,723.153c3.426.215,5.837.486,8.25.498,10.199.048,20.398.019,30.597.018,80.356-.009,160.711-.012,241.067-.033,8.672-.002,12.277-2.814,14.373-11.069.226-.89.185-1.844.343-2.756,1.31-7.593,2.662-15.18,3.953-22.776.827-4.865,1.624-9.736,2.339-14.618.588-4.012-.655-7.032-4.245-9.46-3.402-2.3-6.926-2.287-10.632-2.141-10.799.423-21.596,1.161-32.398,1.23-22.555.144-45.141.63-67.659-.336-19.159-.822-38.267-1.611-57.433-.785-5.553.239-11.125.096-16.687.04-18.85-.191-37.7-.619-56.549-.578-15.743.035-31.524-.443-47.196,1.714-1.757.242-3.5.584-5.836.979-.193,5.198-.349,10.096-.562,14.992-.201,4.626.376,9.49-.864,13.827-2.899,10.138-1.418,20.129-.862,31.256ZM1156.011,839.842c12.273-.478,21.905-.237,31.372-1.37,13.465-1.611,27.075-.941,40.489-3.484,11.489-2.178,23.26-2.859,34.763-4.982,19.755-3.646,37.279-12.449,53.208-24.572,5.541-4.217,7.229-7.596-.315-13.963-1.164-.982-2.529-1.869-3.952-2.378-10.114-3.616-19.572-9.226-30.652-9.928-4.608-.292-9.218-.791-13.781-1.492-14.525-2.23-28.948.177-43.41.789-1.216.051-2.411.512-3.625.726-20.404,3.604-38.721,12.282-56.03,23.282-5.706,3.625-11.15,7.681-16.563,11.742-3.938,2.954-7.72,6.136-11.399,9.41-3.217,2.862-6.301,5.894-9.233,9.047-1.645,1.77-.786,4.476,1.454,5.281,1.142.411,2.366.749,3.569.808,8.938.444,17.879.811,24.106,1.083ZM1309.366,1189.304c1.416.547,2.417.652,2.997,1.201,6.42,6.07,14.052,10.032,22.331,12.803,9.651,3.23,19.45,6.035,29.015,9.495,10.899,3.942,22.066,5.881,33.596,5.719,10.185-.142,20.368-.813,30.549-.762,13.662.068,27.136-1.102,40.436-4.283,13.198-3.157,26.584-5.522,39.428-10.114,18.316-6.549,36.753-12.759,55.046-19.368,14.544-5.254,28.661-11.546,41.912-19.57,17.955-10.873,35.781-21.959,53.66-32.959.524-.322,1.039-.672,1.508-1.068,2.398-2.024,3.059-5.081,1.633-7.449-1.151-1.913-3.414-2.372-6.648-1.114-7.81,3.039-14.993,7.24-21.999,11.809-25.936,16.913-52.803,31.963-82.359,41.814-22.828,7.608-45.104,16.895-68.624,22.376-13.228,3.083-26.46,6.579-40.067,7.024-18.517.606-37.064.405-55.597.343-3.025-.01-6.12-.84-9.056-1.718-11.24-3.361-22.486-6.72-33.618-10.418-9.96-3.308-19.245-8.068-27.757-13.993.291-3.805,2.877-5.771,4.768-8.136,2.505-3.133,5.166-6.142,7.609-9.322,1.271-1.655,1.039-3.544-.326-5.096-1.317-1.498-3.204-2.314-4.991-1.404-2.435,1.238-4.893,2.696-6.84,4.578-6.938,6.706-12.485,14.453-16.752,23.151-4.818,9.822-6.802,20.473-9.394,30.947-.355,1.435-.193,3.107.139,4.577.44,1.944,1.937,3.391,3.873,3.473,1.37.059,3.334-.517,4.067-1.518,1.607-2.193,2.92-4.729,3.78-7.316,1.848-5.559,3.273-11.257,4.998-16.859.699-2.269,1.727-4.437,2.681-6.843ZM1570.414,764.007v-.626c4.927,0,9.859.139,14.78-.026,14.22-.477,28.276-1.937,41.335-8.227,8.051-3.878,16.361-7.36,23.963-11.991,8.393-5.113,16.347-11.037,24.05-17.163,6.93-5.511,6.329-11.002-1.335-15.073-6.524-3.465-13.167-6.848-20.081-9.387-5.122-1.88-10.718-2.85-16.182-3.337-11.77-1.049-23.406.107-34.599,4.163-3.74,1.355-7.425,2.938-10.967,4.745-4.386,2.237-8.548,4.907-12.893,7.229-7.936,4.242-15.386,9.064-21.24,16.072-4.937,5.911-10.067,11.66-15.021,17.557-1.175,1.399-2.141,3.03-2.936,4.682-1.917,3.984-.454,8.301,3.585,10.024,1.933.825,4.166,1.252,6.276,1.298,7.086.156,14.177.059,21.266.059Z" fill="#fff" stroke-width="0"/>
  <path d="M1090.164,1885.071c-1.225.247-2.692.73-4.182.816-20.837,1.198-398.626,1.226-406.899.068-1.694-1.707-.176-3.422.083-5.095,1.415-9.147,2.593-18.348,4.467-27.404,2.06-9.957,4.781-19.779,7.222-29.657,1.851-7.487,3.757-14.961,5.561-22.459,1.66-6.901,2.809-13.952,4.903-20.714,4.4-14.203,6.94-28.768,9.414-43.37,1.133-6.689,2.417-13.354,3.676-20.021,3.385-17.923,6.156-35.917,5.749-54.23-.192-8.645-.596-17.29-1.102-25.924-1.173-20.05-2.883-40.053-6.162-59.884-.753-4.554-1.565-9.179-3.089-13.511-5.847-16.619-10.963-33.445-15.124-50.558-4.168-17.142-10.363-33.639-16.067-50.281-5.305-15.476-11.223-30.741-16.749-46.142-2.397-6.682-4.387-13.509-6.741-20.207-3.89-11.07-7.918-22.093-11.903-33.131-5.691-15.763-9.354-31.944-10.652-48.69-1.072-13.843-2.641-27.648-3.817-41.484-.365-4.3-.127-8.648-.232-12.972-.284-11.715.078-23.406-1.383-35.137-1.252-10.049-.99-20.241,1.134-30.417,2.201-10.545,2.866-21.4,4.608-32.053,3.259-19.931,2.75-40.008,2.98-60.077.138-12.034,1.009-24.057,1.332-36.091.314-11.732.494-23.472.47-35.208-.031-14.826-.406-29.652-.482-44.478-.054-10.497-.401-21.024,1.681-31.415.181-.901.133-1.847.194-2.772.775-11.707,1.652-23.409,2.288-35.124.369-6.784.623-13.595.451-20.382-.331-13.092,1.8-25.804,4.821-38.475,3.694-15.491,9.769-29.884,18.468-43.22,3.712-5.69,6.747-11.847,10.725-17.33,5.61-7.733,11.562-15.253,17.818-22.474,8.087-9.333,16.53-18.365,24.979-27.378,14.17-15.116,27.754-30.702,39.94-47.494,2.517-3.469,5.977-6.238,8.844-9.47,5.94-6.698,11.837-13.436,17.631-20.259,5.794-6.823,11.509-13.715,17.135-20.678,5.822-7.206,11.802-14.315,17.151-21.864,6.279-8.862,13.137-17.155,20.888-24.741,5.077-4.969,10.081-10.012,15.137-15.003,1.096-1.082,2.145-2.291,3.437-3.081,5.795-3.542,11.686-6.928,17.512-10.42,5.485-3.289,11.571-4.649,17.767-4.249,6.113.395,12.215,1.61,18.211,2.96,5.716,1.288,9.856,5.077,12.646,10.145,1.478,2.684,2.731,5.556,3.631,8.483,4.872,15.843,6.591,31.9,4.054,48.457-1.423,9.284-3.429,18.186-8.442,26.221-.98,1.571-1.884,3.209-3.017,4.664-20.297,26.079-40.713,52.066-60.893,78.235-6.594,8.552-13.435,17.093-18.676,26.47-10.399,18.607-19.232,38-24.001,58.979-1.983,8.722-4.462,17.341-6.176,26.112-2.325,11.898-1.645,24.014-1.727,36.057-.042,6.179.299,12.36.256,18.539-.073,10.568.962,20.942,4.05,31.117,1.7,5.6,2.484,11.483,4.269,17.05,1.202,3.75,3.07,7.42,5.302,10.671,2.395,3.489,5.932,3.984,9.893,2.313,6.533-2.757,13-5.685,19.609-8.247,7.18-2.784,14.353-5.577,22.083-6.739,3.925-.59,7.779-1.973,11.525-3.373,10.417-3.895,20.736-8.051,31.14-11.979,7.567-2.856,15.392-4.517,23.535-4.432,11.732.122,23.452-1.558,35.191-.239,5.518.62,11.031,1.292,16.551,1.888,7.677.83,15.43,1.202,23.022,2.513,10.333,1.785,20.646,3.888,30.789,6.538,20.011,5.228,39.913,10.87,59.094,18.762,4.851,1.996,9.794,3.792,14.765,5.469,29.761,10.041,54.073,27.836,74.833,51.192,16.553,18.623,30.268,38.925,41.264,61.275,8.637,17.557,16.03,35.45,19.654,54.734,3.028,16.109,4.921,32.359,4.666,48.775-.168,10.811-.495,21.634-1.241,32.418-.809,11.702-2.678,23.29-5.481,34.699-2.062,8.396-3.873,16.879-6.464,25.113-3.146,9.995-6.556,19.955-10.652,29.591-5.031,11.835-13.368,21.591-22.742,30.136-5.398,4.921-12.237,8.279-18.505,12.217-1.272.799-2.865,1.148-4.355,1.528-5.99,1.526-9.851-.03-11.739-5.804-1.806-5.525-3.335-11.338-3.672-17.102-.628-10.778-.141-21.565.952-32.379,1.305-12.91,2.288-25.842,4.867-38.573,3.187-15.73,6.621-31.409,9.815-47.137.542-2.669.71-5.496.502-8.209-.179-2.334-2.04-4.12-4.302-4.173-1.611-.038-3.956.868-4.737,2.122-1.586,2.549-2.657,5.541-3.367,8.488-2.022,8.387-3.881,16.818-5.577,25.277-3.396,16.937-7.271,33.826-8.933,51.029-1.245,12.891-1.434,25.898-1.714,38.862-.113,5.217.188,10.593,1.345,15.658,2.706,11.847,2.971,23.902,3.431,35.888.723,18.823.502,37.68.885,56.519.175,8.636.842,17.262,1.268,25.894.335,6.787.827,13.574.922,20.365.159,11.432-.025,22.868.088,34.3.129,13.035-1.937,25.85-3.581,38.713-1.018,7.959-1.718,15.965-2.961,23.888-1.048,6.682-2.635,13.281-4.059,19.901-.714,3.319-1.896,6.561-2.352,9.907-2.146,15.748-7.839,30.462-13.117,45.279-3.353,9.411-8.89,17.635-15.412,25.157-6.678,7.701-13.154,15.62-20.328,22.838-9.401,9.459-13.77,21.003-16.009,33.723-1.556,8.84-2.565,17.683-2.389,26.71.399,20.387.455,40.781.641,61.172.09,9.886.337,19.774.18,29.656-.138,8.627-.728,17.247-1.175,25.867-.029.554-.539,1.083-1.019,1.99Z" fill="#fff" stroke-width="0"/>
  <path d="M1762.252,1884.672c-1.881-9.939-7.906-16.743-12.584-24.316-4.539-7.347-8.727-14.913-12.995-22.425-.408-.719-.291-1.736-.385-2.386,1.079-2.088,2.745-1.57,4.18-1.391,4.283.535,8.551,1.191,12.824,1.809,10.675,1.544,21.401,2.809,32.012,4.714,13.203,2.37,26.442,2.041,39.734,1.711,7.391-.183,14.831-.214,22.187.412,8.605.733,17.131,2.348,25.714,3.4,4.28.525,8.612.941,12.916.899,16.095-.16,32.059,1.363,48.046,3.002,21.727,2.228,43.08.268,64.108-6.064,10.497-3.161,20.288-7.081,28.763-14.276,5.859-4.974,9.645-11.094,12.741-17.926,4.226-9.328,2.894-18.033-2.581-26.294-2.212-3.338-4.649-6.571-7.311-9.56-13.151-14.762-26.311-29.518-39.664-44.098-12.113-13.225-25.106-25.556-38.676-37.299-7.001-6.059-13.591-12.593-20.362-18.917-5.644-5.272-11.239-10.595-16.926-15.82-27.982-25.707-55.891-51.494-84.041-77.016-8.904-8.073-18.483-15.401-27.739-23.088-18.526-15.384-36.908-30.947-55.611-46.112-11.979-9.713-24.187-19.149-36.881-27.958-12.165-8.442-24.059-17.286-35.898-26.183-11.09-8.335-21.959-16.965-32.911-25.483-2.192-1.705-4.439-3.364-6.463-5.257-11.955-11.18-23.86-22.414-35.756-33.658-1.04-.983-1.894-2.163-4.073-4.685,3.224.568,4.647.629,5.936,1.074,24.23,8.364,48.796,15.623,73.545,22.263,14.306,3.839,28.621,7.665,43.019,11.137,5.973,1.44,12.144,2.299,18.275,2.8,16.408,1.34,32.05,6.376,48.069,9.573,11.801,2.355,23.544,5.006,35.294,7.611,19.275,4.272,38.618,8.275,57.776,13.02,19.167,4.747,38.197,10.074,57.185,15.5,16.918,4.834,33.867,9.664,50.488,15.404,13.991,4.832,27.717,10.553,41.235,16.607,42.863,19.198,85.098,39.686,126.007,62.822,5.911,3.343,12.008,6.366,18.094,9.386,12.197,6.052,23.974,12.738,34.991,20.823,14.442,10.599,29.523,20.349,43.713,31.263,20.327,15.634,39.891,32.233,57.424,51.045,16.118,17.294,29.531,36.492,39.314,58.048,3.436,7.57,6.176,15.498,8.692,23.434,4.479,14.126,8.753,28.325,12.704,42.606,2.217,8.014,3.732,16.232,5.355,24.399,2.285,11.501,4.54,23.013,6.468,34.577.757,4.538.69,9.227.796,13.852.033,1.444-.594,2.903-1.04,4.895-205.331,1.586-410.386,2.076-615.709,2.124Z" fill="#fff" stroke-width="0"/>
  <path d="M1107.958,1885.497c-2.835-4.596-3.831-8.963-3.83-13.719.003-38.315-.098-76.63-.112-114.945-.004-10.28,1.322-20.385,5.62-29.825,1.508-3.31,3.573-6.492,5.932-9.267,7.201-8.474,14.686-16.705,22.028-25.06,9.069-10.321,15.912-21.859,20.466-34.926,4.885-14.017,9.297-28.102,12.12-42.699,1.931-9.988,4.621-19.828,6.611-29.806,1.143-5.732,1.604-11.604,2.307-17.42,3.524-29.158,6.383-58.348,3.863-87.772-.237-2.77-.618-5.534-.723-8.308-.042-1.11.484-2.24.877-3.884,16.383,6.6,33.484,9.575,48.676,18.235,9.365,5.338,19.457,9.429,29.327,13.847,9.632,4.31,19.743,7.067,30.215,8.491,3.668.499,7.334,1.062,10.964,1.784,16.477,3.276,33.032,4.099,49.763,2.266,9.203-1.008,18.532-.972,27.696-2.21,34.671-4.685,67.462-14.781,96.902-34.383,10.295-6.855,20.573-13.684,29.871-21.885,1.085-.957,2.518-1.52,4.252-2.537,5.715,13.222,11.904,25.654,15.243,39.158,5.108,20.661,10.39,41.301,14.64,62.146,3.882,19.04,6.561,38.329,9.637,57.529,2.391,14.927,4.602,29.883,6.836,44.835.5,3.345.817,6.72,1.122,10.09.501,5.536.874,11.085,1.389,16.619.832,8.943,1.372,17.868-.504,26.763-.317,1.502-.38,3.065-.488,4.604-.822,11.696-1.348,23.42-2.504,35.083-1.521,15.338-3.444,30.639-5.367,45.934-1.194,9.494-2.396,19.005-4.15,28.405-2.658,14.25-5.726,28.426-8.788,42.597-.712,3.293-1.966,6.494-3.22,9.638-1.249,3.132-2.811,6.139-4.013,8.722-.772.497-1.008.693-1.279.81-.28.121-.594.232-.893.233-138.768.412-277.536.815-416.304,1.204-1.225.004-2.451-.197-4.182-.346Z" fill="#fff" stroke-width="0"/>
  <path d="M479.402,1392.42c.58.649.951.88.929,1.066-1.678,14.641-1.998,29.424-4.803,43.953-1.108,5.741-1.626,11.597-2.379,17.405-1.548,11.934-2.796,23.915-4.682,35.795-2.23,14.047-3.62,28.141-4.254,42.342-.261,5.842-1.089,11.665-1.82,17.477-1.076,8.554-2.438,17.074-3.399,25.64-.515,4.589-.625,9.245-.61,13.869.047,13.932-1.684,27.688-3.611,41.448-1.325,9.465-2.225,18.988-3.372,28.479-1.775,14.687-3.975,29.336-5.256,44.065-.746,8.576-.038,17.277-.01,25.921.017,5.233-.014,10.467-.031,15.7-.011,3.395-.302,6.813-.01,10.181,1.203,13.843,2.295,27.707,3.993,41.493,1.2,9.742,4.948,18.456,13.176,24.663,2.954,2.228,5.546,4.934,8.498,7.164,4.957,3.745,10.268,6.648,16.537,7.961,6.021,1.262,11.869,3.38,17.759,5.228,10.681,3.351,21.598,5.46,32.792,5.228,9.028-.187,17.852.983,26.664,2.572,9.537,1.72,19.061,1.666,28.559-.133,6.056-1.147,12.228-2.034,18.062-3.921,8.342-2.697,15.438-7.778,21.693-13.881,8.844-8.63,17.579-17.373,26.269-26.157,4.796-4.847,9.709-9.536,15.563-13.088,1.821-1.105,3.843-1.923,5.85-2.665,1.438-.532,3.096.841,3.219,2.438.047.613.198,1.258.069,1.837-1.805,8.125-3.07,16.427-5.618,24.315-4.007,12.402-6.244,25.137-8.609,37.871-.901,4.85-1.715,9.732-2.225,14.635-.475,4.567-.494,9.18-.733,14.173-1.931.445-3.644,1.077-5.39,1.188-3.079.196-6.178.082-9.269.086-127.337.184-254.675.241-382.012.595-82.212.229-164.422.902-246.633,1.332-3.638.019-7.37.673-11.151-.769-1.593-3.588-1.093-7.279-.613-10.903,2.353-17.752,4.385-35.535,6.18-53.356.796-7.899,3.163-15.711,5.451-23.374,3.977-13.311,8.355-26.506,12.761-39.683,1.463-4.376,3.447-8.587,5.334-12.81,7.44-16.649,15.303-33.049,25.877-48.042,5.513-7.818,10.107-16.282,15.586-24.126,10.433-14.938,21.139-29.687,31.876-44.41,2.905-3.983,6.054-7.865,9.557-11.32,15.174-14.969,30.173-30.143,45.891-44.528,21.531-19.704,45.877-35.394,71.598-49.231,21.742-11.697,43.557-23.367,64.212-36.999,14.993-9.895,30.79-18.238,47.292-25.4,9.319-4.045,18.126-9.29,27.078-14.152,17.372-9.437,34.861-18.68,51.966-28.582,14.162-8.199,27.841-17.232,41.737-25.889,1.506-.939,3.036-1.84,4.46-2.701Z" fill="#fff" stroke-width="0"/>
  <path d="M1749.497,1883.488c-9.609,1.645-116.992,2.245-195.927,1.322-2.711-.032-5.419-.295-8.666-.482.346-2.064.411-3.569.859-4.95,5.834-17.97,9.159-36.517,12.392-55.056,2.333-13.375,3.999-26.87,5.803-40.332,1.147-8.562,2.155-17.149,2.957-25.75,1.52-16.283,3.253-32.562,4.122-48.885.672-12.618.656-25.273-.685-37.939-3.22-30.399-8.494-60.474-13.227-90.646-2.874-18.32-6.623-36.431-10.657-54.489-2.957-13.238-6.834-26.268-10.126-39.434-2.873-11.494-8.517-21.834-13.17-32.59-1.34-3.097-2.645-6.209-4.169-9.79,2.261-2.268,4.392-4.406,6.523-6.542,15.061-15.094,30.112-30.197,43.594-46.763.585-.719,1.112-1.495,1.76-2.151,1.98-2.006,5.375-2.529,7.573-.963,1.494,1.065,2.768,2.456,4.069,3.771,13.04,13.174,26.105,26.324,39.077,39.564,6.937,7.08,14.579,13.286,22.447,19.289,9.557,7.293,18.68,15.157,28.285,22.384,12.569,9.458,25.379,18.597,38.169,27.757,12.808,9.173,25.093,18.985,36.98,29.319,6.751,5.869,13.682,11.537,20.639,17.162,13.918,11.254,27.911,22.416,41.873,33.616,1.204.967,2.476,1.861,3.603,2.91,12.441,11.573,24.795,23.238,37.301,34.74,12.729,11.708,25.608,23.252,38.406,34.885,11.421,10.381,22.844,20.759,34.225,31.185,12.295,11.264,24.578,22.541,36.788,33.897,4.974,4.626,9.99,9.247,14.559,14.261,14.978,16.438,29.796,33.022,44.582,49.633,2.66,2.988,5.081,6.238,7.257,9.597,4.878,7.533,4.491,15.213-1.325,22.232-5.813,7.015-13.035,12.229-21.713,15.261-22.19,7.752-45.058,10.345-68.428,8.721-6.758-.47-13.465-1.649-20.22-2.215-7.384-.618-14.793-1.198-22.197-1.269-13.944-.134-27.667-2.16-41.453-3.897-7.626-.961-15.404-.89-23.116-.935-7.1-.041-14.204.342-21.304.615-9.992.384-19.564-2.589-29.371-3.574-15.352-1.542-30.398-5.348-45.855-5.993-2.451-.102-4.978-.292-7.358.155-6.193,1.163-9.025,6.485-5.602,11.681,8.163,12.389,13.623,26.361,22.776,38.161,2.796,3.605,4.931,7.723,7.945,12.526Z" fill="#fff" stroke-width="0"/>
  <path d="M691.25,1771.46c-6.34,3.166-11.547,5.844-16.821,8.381-7.62,3.664-14.127,8.773-20.043,14.765-8.682,8.794-17.74,17.229-26.188,26.239-9.81,10.464-21.911,15.654-35.837,17.506-11.122,1.479-22.102,1.322-33.008-1.594-2.36-.631-4.892-.902-7.339-.87-8.655.114-17.23-.476-25.831-1.542-6.192-.767-12.125-2.164-18.004-4.112-4.683-1.552-9.36-3.421-14.191-4.162-7.428-1.138-13.108-5.188-18.698-9.591-2.178-1.716-4.046-3.823-6.195-5.58-3.258-2.664-5.127-6.152-6.248-10.077-.762-2.67-1.515-5.383-1.847-8.128-2.185-18.061-5.039-36.07-3.826-54.387.284-4.296-.037-8.654-.351-12.964-1.038-14.271.653-28.319,3.007-42.352,1.121-6.681,1.764-13.443,2.598-20.172,2.162-17.442,4.354-34.88,6.429-52.333.437-3.673.43-7.399.626-11.1.571-10.789.972-21.59,1.78-32.361.437-5.832,1.676-11.599,2.363-17.418,1.303-11.024,2.962-22.037,3.57-33.104.781-14.219,2.865-28.243,4.817-42.304,1.229-8.855,2.656-17.686,3.704-26.561,1.445-12.244,2.639-24.518,3.884-36.785.218-2.146.267-4.324.202-6.481-.229-7.525,2.072-14.624,3.577-21.856.653-3.138,2.267-5.717,4.732-7.763,5.702-4.733,11.169-9.79,17.149-14.14,20.583-14.972,39.052-32.277,56.247-50.93,11.132-12.076,19.99-25.909,28.289-40.044,4.533-7.721,8.636-15.695,12.995-23.521.377-.677,1.216-1.097,2.2-1.947.452,1.165.906,1.905,1.004,2.69.153,1.218.066,2.467.076,3.703.1,12.658-.102,25.29,1.718,37.916,1.891,13.126,2.889,26.382,4.21,39.588,1.456,14.56,5.685,28.426,10.507,42.135,2.561,7.281,5.432,14.452,8.015,21.726,8.367,23.567,16.702,47.145,24.971,70.747,3.472,9.911,7.022,19.808,10.048,29.859,4.449,14.775,8.392,29.703,12.689,44.525,2.147,7.408,4.71,14.695,6.88,22.097,1.908,6.506,3.913,13.021,5.209,19.662,3.976,20.371,4.993,41.065,6.185,61.729.338,5.858.812,11.714.943,17.576.138,6.163.212,12.349-.162,18.496-1.11,18.222-4.411,36.128-8.139,53.97-1.197,5.728-1.813,11.575-2.933,17.321-1.529,7.849-3.286,15.653-4.96,23.547Z" fill="#fff" stroke-width="0"/>
  <path d="M685.438,766.086c-3.449,4.277-6.062,7.676-8.84,10.934-12.52,14.688-21.556,31.618-30.859,48.339-4.05,7.279-6.78,15.209-8.535,23.436-1.028,4.82-2.426,9.562-3.69,14.331-2.307,8.708-3.265,17.592-3.185,26.567.085,9.58-.111,19.111-1.055,28.677-.817,8.277-.436,16.669-.675,25.007-.141,4.924-.36,9.858-2.099,15.258-1.256-.802-2.525-1.173-3.044-2.009-9.285-14.949-18.562-29.905-27.639-44.98-2.538-4.214-4.585-8.749-6.586-13.257-7.526-16.954-13.545-34.48-19.52-52.019-.797-2.339-1.451-4.749-2.484-6.981-8.104-17.515-7.158-35.226-1.942-53.308,4.477-15.52,10.215-30.377,18.568-44.269,2.781-4.626,6.177-7.331,11.356-8.545,4.878-1.143,9.704-1.817,14.681-1.25,5.212.594,10.468.961,15.612,1.922,2.961.553,5.986,1.682,8.553,3.252,7.668,4.689,15.69,8.551,23.955,12.07,6.516,2.774,12.766,6.242,18.909,9.793,2.864,1.656,5.193,4.237,8.517,7.032Z" fill="#fff" stroke-width="0"/>
  <path d="M1104.205,723.153c-.556-11.127-2.037-21.118.862-31.256,1.24-4.337.663-9.2.864-13.827.213-4.896.37-9.794.562-14.992,2.336-.395,4.079-.738,5.836-.979,15.672-2.157,31.453-1.679,47.196-1.714,18.849-.041,37.699.386,56.549.578,5.562.056,11.134.199,16.687-.04,19.166-.825,38.274-.036,57.433.785,22.517.966,45.104.48,67.659.336,10.801-.069,21.598-.807,32.398-1.23,3.706-.145,7.23-.159,10.632,2.141,3.59,2.427,4.833,5.448,4.245,9.46-.715,4.882-1.512,9.753-2.339,14.618-1.291,7.597-2.642,15.183-3.953,22.776-.157.912-.117,1.866-.343,2.756-2.095,8.255-5.701,11.067-14.373,11.069-80.356.021-160.711.025-241.067.033-10.199.001-20.398.03-30.597-.018-2.413-.011-4.824-.282-8.25-.498Z" stroke-width="0"/>
  <path d="M1156.011,839.842c-6.227-.272-15.168-.639-24.106-1.083-1.202-.06-2.427-.398-3.569-.808-2.239-.806-3.098-3.512-1.454-5.281,2.931-3.154,6.016-6.185,9.233-9.047,3.679-3.274,7.461-6.455,11.399-9.41,5.413-4.06,10.857-8.116,16.563-11.742,17.309-10.999,35.626-19.677,56.03-23.282,1.214-.215,2.409-.675,3.625-.726,14.462-.612,28.885-3.019,43.41-.789,4.563.701,9.174,1.2,13.781,1.492,11.08.702,20.538,6.312,30.652,9.928,1.423.509,2.788,1.396,3.952,2.378,7.544,6.367,5.856,9.746.315,13.963-15.929,12.122-33.453,20.925-53.208,24.572-11.503,2.123-23.273,2.805-34.763,4.982-13.413,2.542-27.024,1.873-40.489,3.484-9.467,1.133-19.099.892-31.372,1.37ZM1239.172,823.228c22.118,1.369,58.684-11.635,68.208-25.559-7.597-3.455-15.189-6.615-23.184-8.761-.88-.236-1.835-.187-2.752-.295-3.968-.466-7.927-1.036-11.904-1.392-6.672-.596-13.374-1.5-20.038.476-.904,6.391,1.763,12.732-1.165,18.558-2.854,5.679-6.03,11.198-9.164,16.972ZM1171.525,830.54c-3.421-4.599-5.734-7.76-8.11-10.873-.858-1.124-1.866-2.132-2.79-3.175-6.006,2.536-9.398,7.565-14.049,10.978-.734.539-.875,1.885-1.381,3.071h26.33Z" stroke-width="0"/>
  <path d="M1309.366,1189.304c-.954,2.405-1.983,4.573-2.681,6.843-1.725,5.602-3.15,11.3-4.998,16.859-.86,2.587-2.173,5.123-3.78,7.316-.733,1-2.697,1.576-4.067,1.518-1.936-.083-3.434-1.529-3.873-3.473-.332-1.47-.494-3.141-.139-4.577,2.591-10.474,4.576-21.125,9.394-30.947,4.267-8.698,9.814-16.445,16.752-23.151,1.947-1.882,4.405-3.34,6.84-4.578,1.788-.909,3.675-.093,4.991,1.404,1.365,1.553,1.597,3.442.326,5.096-2.442,3.179-5.104,6.189-7.609,9.322-1.891,2.365-4.477,4.33-4.768,8.136,8.511,5.925,17.797,10.685,27.757,13.993,11.132,3.698,22.378,7.057,33.618,10.418,2.935.878,6.031,1.708,9.056,1.718,18.533.062,37.08.263,55.597-.343,13.606-.445,26.838-3.941,40.067-7.024,23.52-5.481,45.797-14.768,68.624-22.376,29.555-9.85,56.423-24.9,82.359-41.814,7.006-4.569,14.19-8.77,21.999-11.809,3.234-1.258,5.496-.8,6.648,1.114,1.425,2.368.765,5.425-1.633,7.449-.469.396-.984.746-1.508,1.068-17.878,11-35.704,22.086-53.66,32.959-13.251,8.025-27.368,14.316-41.912,19.57-18.293,6.609-36.73,12.819-55.046,19.368-12.843,4.592-26.23,6.958-39.428,10.114-13.3,3.181-26.774,4.351-40.436,4.283-10.181-.051-20.364.62-30.549.762-11.53.161-22.697-1.778-33.596-5.719-9.565-3.459-19.365-6.265-29.015-9.495-8.279-2.771-15.911-6.732-22.331-12.803-.58-.549-1.581-.654-2.997-1.201Z" stroke-width="0"/>
  <path d="M1570.414,764.007c-7.089,0-14.18.097-21.266-.059-2.11-.046-4.343-.474-6.276-1.298-4.039-1.723-5.502-6.039-3.585-10.024.795-1.652,1.761-3.283,2.936-4.682,4.954-5.897,10.084-11.646,15.021-17.557,5.854-7.008,13.304-11.831,21.24-16.072,4.345-2.322,8.508-4.991,12.893-7.229,3.542-1.807,7.227-3.39,10.967-4.745,11.193-4.056,22.829-5.213,34.599-4.163,5.464.487,11.06,1.457,16.182,3.337,6.914,2.538,13.558,5.922,20.081,9.387,7.664,4.071,8.264,9.563,1.335,15.073-7.704,6.126-15.657,12.05-24.05,17.163-7.602,4.631-15.912,8.113-23.963,11.991-13.059,6.29-27.115,7.749-41.335,8.227-4.922.165-9.853.026-14.78.026v.626ZM1663.662,719.334c-9.094-6.449-18.779-9.469-29.077-9.813-6.556-.219-13.564-1.875-19.966,2.364.339,3.535.798,6.855.935,10.188.126,3.077.346,6.26-.28,9.228-.689,3.271-2.343,6.332-3.487,9.516-1.078,3-4.052,5.091-4.71,8.664,15.402-1.942,46.478-18.423,56.585-30.146ZM1569.301,752.452c-3.484-4.048-5.95-6.913-8.715-10.126-3.094,3.195-6.735,5.099-7.119,10.592,5.079.131,9.564.402,15.834-.466Z" stroke-width="0"/>
  <path d="M1239.172,823.228c3.135-5.774,6.31-11.292,9.164-16.972,2.928-5.826.261-12.167,1.165-18.558,6.663-1.977,13.366-1.073,20.038-.476,3.978.355,7.936.926,11.904,1.392.917.108,1.872.058,2.752.295,7.995,2.146,15.587,5.306,23.184,8.761-9.524,13.924-46.09,26.929-68.208,25.559Z" fill="#fff" stroke-width="0"/>
  <path d="M1171.525,830.54h-26.33c.506-1.186.647-2.532,1.381-3.071,4.651-3.412,8.043-8.442,14.049-10.978.924,1.043,1.932,2.051,2.79,3.175,2.376,3.113,4.689,6.275,8.11,10.873Z" fill="#fff" stroke-width="0"/>
  <path d="M1663.662,719.334c-10.107,11.724-41.184,28.205-56.585,30.146.658-3.573,3.632-5.664,4.71-8.664,1.144-3.184,2.798-6.245,3.487-9.516.625-2.967.406-6.151.28-9.228-.136-3.333-.596-6.652-.935-10.188,6.402-4.239,13.41-2.583,19.966-2.364,10.297.344,19.983,3.364,29.077,9.813Z" fill="#fff" stroke-width="0"/>
  <path d="M1569.301,752.452c-6.27.868-10.755.597-15.834.466.384-5.493,4.024-7.397,7.119-10.592,2.765,3.212,5.231,6.078,8.715,10.126Z" fill="#fff" stroke-width="0"/>
</svg>
