<svg xmlns="http://www.w3.org/2000/svg" viewBox="0 0 3000 2092" width="3000" height="2092"><g transform="translate(34.8 208.79999999999998) rotate(0.0 1460.9999999999998 837.0) scale(1.2023395008439417 1.2015383135684827)"><svg width="2430.262" height="1393.214" viewBox="0 0 2430.262 1393.214"><path d="m1020.55 390.9 17.705-9.991 48.599 10.267 37.492 23.059 17.01-23.335 5.207.276 19.092 42.846 9.373 6.942 13.539-10.414 13.885-16.663 17.01-12.149 64.435 9.199 27.068-5.799h12.575l13.341 9.529 22.551 22.513 4.765 3.784 6.035-12.957 25.41-6.034 43.197-39.386 13.658 1.588 30.175 20.646 30.212 73.973-33.254 157.744-106.418 140.412-53.208 48.775 19.214 218.748 90.326 206.181 73.416 81.633-.821 8.392-92.7 3.743-122.463-38.889-87.669 38.889-255.844 7.163-6.822-13.645 11.257-22.855 63.449-4.776 184.771-27.981 75.386-102.478 1.178-169.892-18.846-141.076 1.178-97.766-100.712-86.576-107.778-94.233-31.804-108.957 8.245-54.773z" fill="#fff"/><path d="M1431.505 464.754c1.821-2.574 4.838-3.156 7.502-4.281a150.436 150.436 0 0 1 26.923-8.488c3.44-.741 6.881-1.703 10.137-3.021 4.77-1.931 5.885-4.589 3.697-9.058-7.9-16.133-15.954-32.19-23.968-48.267-2.104-4.222-5.676-5.5-10.83-5.106 1.484 5.185 4.584 9.107 6.706 13.471 2.319 4.768 4.703 9.504 7.039 14.263 2.207 4.495 4.597 8.916 6.521 13.529 1.894 4.541 4.976 8.669 5.523 14.344-2.677.784-5.118 1.683-7.638 2.206-10.453 2.172-20.26 6.198-29.991 10.407-2.667 1.154-5.054 2.956-8.166 4.817-7.923-5.447-16.134-11.08-24.327-16.74-1.207-.834-2.236-1.961-3.507-2.662-2.206-1.217-3.921-.387-5.419 2.046a44.604 44.604 0 0 0 10.817 11.165c3.817 2.765 7.666 5.487 11.473 8.266 6.432 4.694 12.133 9.926 16.734 16.675 4.798 7.038 11.515 12.551 18.651 17.357 1.952 1.315 4.09 2.423 5.822 3.983 8.287 7.466 16.465 15.054 24.793 22.701-.358.904-.48 1.849-1.003 2.438-8.255 9.311-14.853 19.817-21.209 30.407-9.088 15.142-17.478 30.702-26.292 46.011-7.348 12.761-14.877 25.418-22.327 38.12-2.532 4.316-4.908 8.734-7.631 12.925-13.881 21.366-30.169 40.591-49.834 56.959-12.296 10.234-25.654 18.717-39.575 26.452-8.221 4.568-16.333 9.333-24.458 13.989-1.797-1.298-.799-2.672-.341-3.887 3.686-9.79 9.422-18.466 16.439-25.985 10.259-10.993 19.949-22.447 29.678-33.884.191-.224.401-.433.582-.665 13.03-16.723 26.165-33.366 38.992-50.244 2.427-3.194 4.244-7.159 5.265-11.051 2.012-7.671 3.838-15.476 4.723-23.341 1.94-17.258 3.266-34.586 4.804-51.889 1.575-17.71.228-35.287-2.702-52.759-2.239-13.35-4.796-26.647-7.032-39.997-1.214-7.244-2.041-14.553-3.091-21.826-.066-.457-.56-.852-1.108-1.64-2.579 1.884-3.084 4.939-4.221 7.474-3.265 7.282-7.558 9.208-13.078.9-3.387-5.097-7.818-9.589-12.225-13.898-5.889-5.756-12.195-11.088-18.368-16.55-.604-.535-1.525-.713-2.655-1.214-3.388 4.095-6.715 8.145-10.072 12.17-7.354 8.819-14.636 17.701-22.138 26.392-2.253 2.61-3.379 5.349-3.634 8.726-.553 7.339-1.32 14.662-1.993 21.993-.081.88-.239 1.772-.168 2.643 1.418 17.287-.012 34.797 4.098 51.881.545 2.264.839 4.675.731 6.994-.42 8.983 2.717 16.576 7.919 23.774 6.033 8.349 11.291 17.254 17.2 25.697 4.88 6.973 7.508 14.684 8.304 22.99 1.15 12.014 2.034 24.058 2.801 36.104.561 8.817.741 17.659 1.114 26.489.125 2.963.179 5.749-2.031 8.278-10.839 12.405-21.551 24.922-32.66 37.808-1.535-1.503-3.102-2.466-3.842-3.865-2.512-4.749-5.89-8.799-9.511-12.68-8.031-8.607-16.065-17.156-24.969-24.954-13.504-11.826-26.337-24.419-39.443-36.699-1.074-1.006-2.034-2.131-3.076-3.173-4.777-4.775-7.482-10.076-6.948-17.292.383-5.172-.946-10.505-1.771-15.725-1.975-12.495-4.763-24.901-6.004-37.464-1.55-15.678.604-31.15 6-46.053 1.704-4.707 3.723-9.305 5.316-14.047 2.154-6.412 4.217-12.865 5.993-19.39 2.873-10.556 6.353-20.814 12.046-30.259 2.573-4.268 4.617-8.855 7.143-13.767-5.222-12.97-10.103-26.132-18.178-38.605-1.741 1.317-3.161 2.168-4.312 3.296-9.672 9.482-19.618 18.714-27.592 29.773-.344.476-.833.856-1.134 1.353-3.286 5.435-12.13 5.081-15.667-.556-8.126-12.951-17.53-25.205-21.057-40.545-.243-1.058-.902-2.021-2.179-4.787-1.741 14.369-3.289 26.875-4.763 39.39-1.169 9.927-2.356 19.854-3.339 29.8-1.45 14.663-2.609 29.335-.01 44.017 2.102 11.881 4.012 23.797 6.116 35.678 1.929 10.896 6.713 20.668 12.242 30.111a74.94 74.94 0 0 0 4.363 6.649c13.638 18.472 26.891 37.251 41.137 55.242 8.755 11.057 19.159 20.777 29.947 29.973 15.691 13.376 30.929 27.259 44.686 42.636 5.067 5.664 9.212 12.153 14.001 18.566-5.335 8.995-8.574 18.785-14.319 27.736-1.642-1.031-2.982-1.637-4.033-2.57-9.712-8.611-19.858-16.657-30.587-23.974-2.182-1.488-4.066-3.406-6.196-4.979-6.391-4.718-12.729-9.518-19.282-14.001-11.931-8.161-23.14-17.225-34.11-26.604-8.054-6.886-15.7-14.316-24.19-20.609-23.806-17.646-44.603-38.404-63.872-60.739-8.887-10.3-15.713-22.002-20.822-34.705-6.391-15.892-11.261-32.175-14.788-48.954-2.61-12.42-6.847-24.371-14.885-34.602-1.775-2.26-3.03-4.928-4.734-7.755 1.402-.952 2.23-1.751 3.219-2.146 5.463-2.179 11.04-4.085 16.438-6.408 12.982-5.585 25.909-11.301 38.816-17.058 8.628-3.849 17.448-7.098 26.628-9.368 1.994-.493 3.954-1.176 5.868-1.929 1.844-.725 2.694-2.235 2.464-4.199-.198-1.694-2.008-2.937-3.958-2.71-1.455.169-2.921.435-4.319.862a2419.188 2419.188 0 0 0-21.059 6.569c-1.665.526-3.297 1.157-4.848 1.706-14.947-16.23-31.732-30.045-48.464-43.921-2.023-1.678-3.834-3.616-5.698-5.48-1.452-1.451-2.744-3.072-4.27-4.436-1.568-1.402-3.621-1.385-4.77-.168-1.427 1.512-1.485 3.399-.332 4.849 2.912 3.665 5.749 7.503 9.222 10.589 13.866 12.319 27.974 24.366 41.961 36.55 1.52 1.325 2.834 2.887 4.641 4.75-4.113 2.012-7.716 3.934-11.444 5.571-13.747 6.033-27.535 11.97-41.307 17.943-.81.351-1.639.663-2.432 1.049-5.157 2.512-5.907 4.402-3.341 9.776 1.643 3.44 3.383 6.922 5.652 9.957 8.157 10.91 12.224 23.471 14.778 36.543 3.696 18.918 9.813 37.016 18.026 54.364 5.428 11.465 12.319 22.088 21.186 31.352 5.698 5.954 10.677 12.617 16.557 18.371 13.252 12.967 26.351 26.119 41.409 37.111 10.233 7.469 19.604 15.993 29.135 24.347 10.602 9.293 22.148 17.517 33.369 26.092 4.67 3.568 9.686 6.685 14.334 10.279 14.44 11.163 28.786 22.447 43.147 33.712 1.598 1.254 3.057 2.687 4.978 4.39-.787 1.646-1.577 3.143-2.231 4.697-2.421 5.749-4.137 11.703-3.96 17.984.198 7.051.653 14.096 1.115 21.137.848 12.919 1.666 25.842 2.708 38.746 1.422 17.609 2.972 35.209 4.593 52.801 1.837 19.94 3.884 39.861 5.706 59.802 1.285 14.07 2.58 28.146 3.46 42.245 1.614 25.849 3.023 51.711 4.319 77.578.56 11.17 1.054 22.373.837 33.547-.582 30.066-3.166 59.857-9.695 89.393-4.675 21.149-12.178 41.16-19.601 61.318-4.164 11.309-11.821 19.189-21.716 25.794-16.378 10.932-34.775 15.605-53.685 19.041a212.956 212.956 0 0 1-17.49 2.457c-11.421 1.11-22.869 1.933-34.302 2.926-11.141.968-22.3 1.798-33.41 3.048-21.347 2.4-42.666 5.044-63.994 7.61-6.424.773-12.825 1.757-19.261 2.405-13.176 1.326-26.317 3.001-39.597 3.237-5.561.099-11.096 1.267-16.659 1.762-4.105.365-8.248.295-12.349.689-1.679.161-3.354.894-4.913 1.621-1.277.596-1.263 2.772-.272 3.852 1.539 1.677 3.51 2.135 5.614 2.026 6.174-.32 12.344-.708 18.512-1.132 2.053-.141 4.092-.68 6.138-.683 21.863-.036 43.418-3.451 65.06-5.88 17.842-2.003 35.729-3.739 53.481-6.367 20.73-3.07 41.662-3.354 62.428-5.514 21.046-2.188 42.131-4.618 62.426-11.442 15.097-5.076 28.3-13.011 39.753-23.941 6.066-5.789 10.142-12.821 12.754-20.838 2.552-7.833 5.579-15.513 8.466-23.235.482-1.289 1.315-2.446 2.718-4.992 1.12 4.134 1.871 6.842 2.587 9.56 1.872 7.11 3.887 14.186 5.557 21.344 2.796 11.986 10.798 19.511 21.46 24.14 17.82 7.738 35.7 15.396 54.588 20.345 14.224 3.727 28.077 8.781 42.698 11.12 8.694 1.391 17.237 3.756 25.818 5.808 6.861 1.641 13.65 3.584 20.518 5.192 13.513 3.163 27.169 5.226 41.108 4.923 1.456-.032 2.932.26 4.379.519 1.416.253 2.806.655 4.707 1.111-.195 1.864-.164 3.575-.584 5.167-.825 3.129-1.866 6.203-2.88 9.279-2.675 8.117-5.11 16.281-6.466 24.756-.851 5.317-2.521 10.351-7.602 13.332-2.763-.599-5.532-1.789-8.255-1.691-13.935.5-27.561-2.271-41.332-3.465-13.781-1.195-27.535-2.311-41.438-1.118-15.861 1.361-31.756.965-47.635-.671-12.595-1.298-25.246-2.08-37.884-2.916-25.858-1.712-51.712-3.563-77.592-4.841-12.633-.624-25.325-.202-37.987-.042-10.893.138-21.787.95-32.671.806-23.016-.305-45.925.953-68.791 3.444-4.087.445-8.234.449-12.354.463-12.669.041-25.34.087-38.007-.054-18.009-.202-35.891 1.544-53.757 3.412-8.477.886-16.879 2.464-25.348 3.449-3.466.403-7.018.067-10.778.067-2.458-2.148-2.955-5.367-3.459-8.557-.506-3.197-.922-6.409-1.361-9.616-.931-6.801-3.102-13.096-6.798-18.965-2.652-4.212-4.753-8.783-6.939-13.272-1.482-3.044-1.34-6.24-.378-9.475 5.457-18.341 10.738-36.735 16.331-55.035 4.656-15.238 7.929-30.794 11.227-46.348 4.518-21.309 8.79-42.668 12.101-64.207.447-2.908.969-5.824 1.744-8.658 4.288-15.668 6.78-31.648 8.719-47.75 2.394-19.877 5.136-39.712 7.507-59.592 1.01-8.472 1.487-17.009 2.154-25.52.62-7.925.851-15.895 1.829-23.774 1.321-10.646.203-21.208-.926-31.692-1.449-13.459-4.399-26.707-7.327-39.95-3.625-16.398-6.116-33.032-5.764-49.898.581-27.816-4.96-54.295-15.291-80.109-6.363-15.9-14.178-31.065-21.042-46.687-5.075-11.549-11.069-22.794-14.057-35.207-.397-1.651-1.198-3.205-2.006-5.307-4.793 1.757-9.222 3.247-13.547 4.993-10.366 4.184-20.44 9.272-31.072 12.578-20.531 6.384-41.017 12.781-61.133 20.439-10.141 3.86-20.968 5.883-31.382 9.071-17.172 5.257-34.267 10.767-51.384 16.206-8.417 2.675-16.796 5.468-25.216 8.133-7.564 2.394-15.213 1.127-22.75-.005-5.217-.784-10.367-2.239-15.425-3.794-4.288-1.319-8.265-.955-11.832 1.481-12.53 8.558-27.091 11.136-41.454 14.217-3.984.855-8.183.98-12.282.976-42.127-.046-84.255-.217-126.382-.28-9.124-.014-18.202.477-27.306 1.584-21.355 2.595-42.429 6.898-63.694 9.93-19.599 2.795-38.512 8.509-57.892 12.117-7.794 1.451-15.713 2.381-23.618 3.047-6.806.574-13.58-.61-19.972-2.94-3.527-1.286-6.77-3.491-9.936-5.59-4.139-2.744-5.248-6.38-3.863-11.451 1.79-6.554 3.38-13.07 6.773-19.063 1.551-2.74 3.008-5.693 3.27-9.48-2.788-.55-5.306-1.075-7.835-1.541-6.217-1.145-6.514-1.426-7.79-7.626-.173-.84-.401-1.669-.753-3.122-8.402.712-16.812 1.139-25.144 2.185-22.001 2.763-44.029 3.442-66.141 1.783-14.974-1.124-29.982-1.849-44.931-3.224-33.811-3.11-67.218-8.359-99.135-20.612-14.675-5.634-25.168-16.047-32.681-29.596-4.428-7.986-2.835-15.49 3.101-21.959 8.666-9.444 18.785-17.003 30.855-21.621 17.448-6.675 35.544-10.424 54.17-11.776 10.866-.789 21.719-1.773 32.568-2.778 2.582-.239 5.124-.913 7.704-2.323-3.327-.829-6.705-1.498-9.968-2.529-3.631-1.147-7.251-2.42-10.702-4.014-3.281-1.516-5.675-4.201-7.375-7.396-3.409-6.406-1.475-13.094 4.916-16.597 5.534-3.033 11.614-4.227 17.851-4.438 20.041-.676 40.05-.657 59.87 3.116 4.333.825 8.71 1.591 13.101 1.912 15.467 1.13 29.143 6.931 41.55 15.867 8.601 6.194 16.898 12.809 25.335 19.231 1.859 1.415 3.736 2.807 5.311 3.989l23.749-5.273c.218-.621.7-1.414.752-2.234.783-12.111 8.608-18.393 19.003-21.725 21.32-6.835 42.964-12.491 65.118-16.039 5.22-.836 10.322-2.464 15.553-3.17 23.665-3.194 46.834-8.894 70.212-13.543 21.358-4.248 42.703-8.668 64.2-12.084 20.387-3.24 40.299-8.588 60.555-12.324 9.545-1.76 19.286-2.526 28.773-4.527 21.885-4.616 43.692-9.611 65.486-14.65 13.481-3.117 26.876-6.605 40.314-9.908a182.53 182.53 0 0 1 6.899-1.533c21.918-4.487 43.915-8.62 65.733-13.547 18.112-4.091 35.959-9.371 52.304-18.492 7.439-4.151 14.525-8.983 21.515-13.873 5.847-4.09 10.366-9.562 14.159-15.623 7.187-11.483 14.182-23.097 21.704-34.357 7.194-10.769 14.97-21.148 22.465-31.716 4.175-5.887 9.474-10.318 15.972-13.568 14.338-7.17 29.514-11.753 45.104-15.061 6.903-1.465 13.932-2.321 20.882-3.573 14.198-2.558 28.444-4.897 42.555-7.872 23.185-4.888 44.964-13.882 66.475-23.591 4.374-1.974 6.833-5.043 8.276-9.606 4.602-14.552 5.472-29.467 5.02-44.557-.388-12.949-.576-25.909-1.247-38.843-.67-12.922-1.824-25.819-2.781-38.726-.218-2.938-.641-5.868-.715-8.809-.268-10.592-.819-21.198-.523-31.778.328-11.751 1.403-23.484 2.28-35.215.395-5.277 1.264-10.519 1.629-15.797.805-11.624 4.243-22.632 8.528-33.262 9.524-23.624 23.712-43.877 44.096-59.687 17.29-13.41 37.028-21.634 57.329-28.887 4.159-1.486 8.377-2.809 12.597-4.116 2.525-.782 5.073-1.642 7.673-1.954 1.215-.146 2.938.595 3.784 1.523 1.247 1.368.015 2.799-1.093 3.729-4.285 3.599-8.682 7.063-12.974 10.653-.995.833-1.739 1.966-2.864 3.269 1.25.147 1.885.432 2.289.238 10.941-5.263 22.811-7.853 34.173-11.898 1.358-.483 2.834-.805 4.265-.838.719-.017 1.899.644 2.088 1.245.309.986.417 2.565-.158 3.201-1.941 2.148-4.219 3.992-6.587 6.152 1.663 2.387 3.844 1.44 5.605 1.213 6.127-.787 12.219-1.849 18.34-2.692 1.427-.197 2.937-.073 4.372.143 1.626.244 2.472 3.213 1.235 4.322-1.08.968-2.35 1.724-3.536 2.574l-6 4.305c.495 2.431 1.869 1.853 2.912 1.837 7.053-.111 14.106-.285 21.159-.38.856-.012 1.837.131 2.54.561.675.413 1.381 1.245 1.492 1.98.112.741-.26 2.014-.82 2.32-2.473 1.35-5.091 2.435-8.261 3.894 1.353 1.11 2.155 1.91 3.087 2.507 2.974 1.905 5.988 3.749 9.002 5.592 16.784 10.262 28.735 24.919 38.659 41.633 13.23 22.281 19.94 46.386 21.497 72.092.086 1.42-.637 60.444-.984 67.316-.504 10.002-.763 20.017-1.34 30.014-.474 8.224-1.218 16.433-1.934 24.641-1.023 11.732-2.393 23.442-3.096 35.192-.403 6.729.397 13.522.327 20.283-.064 6.223 3.015 10.794 7.456 14.381 8.477 6.847 17.308 13.133 27.475 17.487 24.958 10.69 50.779 18.778 76.76 26.485 18.084 5.364 35.751 11.721 52.124 21.481 13.375 7.973 24.557 18.093 34.409 30.026 10.495 12.712 21.502 25.001 32.135 37.6 7.629 9.04 16.422 16.822 25.175 24.716 6.323 5.702 11.865 12.273 17.718 18.493 12.164 12.927 25.347 24.699 40.87 33.403 7.146 4.007 15.018 6.751 22.647 9.858 17.181 6.997 34.318 14.119 51.659 20.701a812.493 812.493 0 0 0 42.541 14.792c19.36 6.143 38.703 12.548 58.798 15.887 15.962 2.652 31.999 5.078 48.097 6.629 17.611 1.697 35.122 3.754 52.408 7.54 12.691 2.78 25.514 4.469 38.505 4.872 2.056.064 4.112.286 6.157.52 17.854 2.049 35.678 3.779 53.733 2.417 17.437-1.316 34.659.323 51.579 5.316 8.76 2.585 17.782 4.277 25.644 9.225 3.971 2.499 7.778 5.257 11.652 7.909 5.078 3.475 7.18 8.449 6.983 14.429-.177 5.367.257 10.526 3.762 15.434 3.88.334 7.959.649 12.031 1.047 2.921.285 5.908.384 8.724 1.114 2.567.665 4.614.059 6.689-1.188.504-.303 1.03-.586 1.485-.955 11.251-9.13 24.564-12.458 38.609-13.367 5.849-.379 11.785-.286 17.626.225 17.434 1.525 34.084 6.451 50.492 12.294 4.876 1.736 8.908 4.52 11.602 9.037 3.176 5.325 2.548 10.233-2.418 14.075-3.417 2.643-7.352 4.615-11.07 6.896.06 1.942 1.737 2.232 2.992 2.785 10.836 4.777 22.088 8.297 33.844 9.714 10.797 1.301 21.669 1.986 32.511 2.903 10.843.917 21.696 1.721 32.531 2.72 2.616.241 5.194.993 7.762 1.622 4.839 1.185 7.385 4.671 8.587 9.192 1.218 4.58-1.09 7.983-4.324 10.845-4.253 3.764-9.291 6.257-14.541 8.225-13.794 5.171-27.728 9.913-42.254 12.664-2.024.383-4.03.877-6.029 1.383-30.625 7.75-61.712 8.565-93.006 6.179-9.1-.694-18.185-1.579-27.282-2.311-12.372-.995-24.304-4.349-36.424-6.696-.844-.163-1.696-.288-2.918-.493-3.107 4.005-4.59 8.832-5.552 13.64-.952 4.757-3.58 7.35-7.944 8.334-5.416 1.221-10.909 2.099-16.914 3.228-2.519 4.909-2.512 10.924-3.573 16.577-1.46 7.773-3.184 15.535-3.426 23.558-.13 4.329-1.677 8.645-2.82 12.903-.688 2.565-2.678 3.786-5.366 3.643-1.458-.078-2.929-.336-4.347-.697-7.991-2.029-16.085-3.748-23.929-6.248-24.413-7.78-48.932-15.117-73.915-20.907-10.017-2.322-19.811-5.624-29.669-8.605-9.335-2.823-18.794-4.482-28.564-5.291-29.32-2.426-58.655-4.84-87.754-9.419-5.225-.822-10.574-.842-15.809-1.618-27.948-4.139-55.87-8.453-83.82-12.58-6.107-.901-12.318-1.087-18.43-1.958-7.28-1.037-14.5-2.483-21.754-3.704-8.122-1.367-16.298-2.457-24.372-4.065-18.444-3.672-36.915-7.265-55.213-11.579-6.19-1.459-11.909-4.952-17.812-7.586-14.253-6.358-28.63-12.46-42.685-19.231-12.189-5.872-23.936-12.652-36.012-18.768-5.733-2.904-11.776-5.196-17.996-7.904-1.797 2.124-3.565 3.706-4.701 5.657-2.513 4.317-4.782 8.782-7.007 13.258-1.572 3.162-2.682 6.567-4.388 9.647-12.156 21.948-21.879 45.034-31.253 68.224-11.696 28.936-22.78 58.116-31.573 88.13-4.428 15.113-6.126 30.526-7.633 46.07-1.234 12.733.755 25.281 1.346 37.907.427 9.116 1.254 18.214 1.937 27.317 1.233 16.443 2.631 32.875 3.7 49.328a322.008 322.008 0 0 0 5.879 43.734c.528 2.58.627 5.269.709 7.915.384 12.438 2.657 24.579 5.731 36.585 1.759 6.869 3.115 13.763 3.426 20.883.179 4.104.902 8.196 1.563 12.264 2.832 17.435 5.815 34.847 8.552 52.297.728 4.641.816 9.385 1.139 14.086.768 11.164 1.443 22.335 2.292 33.493.177 2.325.951 4.604 1.436 6.908.789 3.745 1.766 7.465 2.302 11.247.846 5.96-.068 10.947-6.834 13.408-4.37 1.589-8.35 4.256-12.493 6.463-3.298 1.757-6.86 1.973-10.324 1.113-3.787-.941-7.564-.71-11.363-.954-7.923-.51-15.91-1.08-23.684-2.585-10.961-2.122-21.751-5.125-32.62-7.73-8.014-1.921-15.951-4.389-24.075-5.571-10.852-1.579-21.291-4.518-31.727-7.644-4.513-1.352-9.019-2.737-13.565-3.972-17.682-4.805-34.41-12.181-51.219-19.27-7.838-3.306-13.364-9.08-16.11-17.682-4.496-14.081-7.058-28.571-10.027-42.972-1.127-5.466-.451-11.031.851-16.619 3.471-14.903 6.098-29.944 7.832-45.205 2.872-25.275 2.73-50.601 2.127-75.898-.631-26.479-2.335-52.942-4.039-79.382-1.363-21.142-3.236-42.257-5.241-63.351-1.95-20.508-4.498-40.958-6.5-61.461-1.001-10.25-1.298-20.568-2.042-30.845a3283.646 3283.646 0 0 0-2.973-37.861c-.518-6.158-1.389-12.287-1.862-18.447-.478-6.221.448-12.355 2.045-18.358 1.716-6.448 4.86-11.924 10.832-15.483 5.053-3.011 9.843-6.482 14.991-9.311 13.932-7.656 28.046-15.086 40.984-24.295 10.043-7.149 19.556-15.194 28.525-23.665a225.135 225.135 0 0 0 34.896-42.071c5.725-8.914 11.084-18.071 16.408-27.235 13.907-23.936 27.509-48.05 41.625-71.861 7.195-12.137 14.49-24.292 24.461-34.527 2.692-2.763 2.803-4.772.634-7.93-1.476-2.15-3.349-4.084-5.284-5.851-6.739-6.155-13.576-12.203-20.391-18.274-1.538-1.37-3.003-2.889-4.735-3.963-10.463-6.488-18.025-15.941-25.884-25.096-.354-.413-.422-1.071-.649-1.684zm-42.567-306.748c-.327-11.842-2.324-23.484-5.731-34.755-6.302-20.847-16.998-39.414-30.968-56.091-1.501-1.792-3.178-3.51-5.033-4.922-10.715-8.159-20.676-17.443-33.279-22.247l-1.41-5.562c-3.399.523-6.259 1.077-9.145 1.374-2.897.298-5.83.552-8.731.426-2.319-.1-3.519-2.58-2.325-4.572 1.323-2.206 2.92-4.248 4.614-6.673-1.352-.295-2.207-.747-2.942-.6a622.148 622.148 0 0 0-15.504 3.328c-2.294.519-4.523 1.45-6.836 1.707-1.277.142-3.214-.343-3.846-1.248-.599-.858-.159-2.741.321-3.981.659-1.702 3.035-2.515 3.022-5.556-2.658.93-4.832 1.598-6.935 2.441-8.746 3.506-17.474 7.059-26.202 10.611-1.736.707-3.4.998-4.867-.523-1.378-1.428-1.428-3.368.35-5.59 2.201-2.75 4.744-5.223 7.061-7.883.975-1.12 2.807-1.856 2.262-4.318-5.774 1.161-10.756 3.755-15.886 5.825-19.63 7.921-37.013 19.13-51.836 34.46-11.481 11.873-19.627 25.815-26.251 40.596-4.421 9.864-8.287 20.16-9.293 31.188-.641 7.029-1.63 14.027-2.227 21.06-1.37 16.135-2.364 32.273-1.396 48.496.63 10.567 1.106 21.135 1.86 31.703 1.76 24.661 2.647 49.386 3.784 74.089.189 4.107.329 8.316-.348 12.336-.841 4.989.255 9.387 2.534 13.598 4.527 8.364 10.185 15.906 17.698 21.811 9.74 7.655 19.96 14.626 31.343 19.671 12.92 5.727 25.839 11.464 38.881 16.901 5.137 2.141 10.518 3.902 15.954 5.055 4.24.899 8.862 1.371 13.096.684 17.104-2.778 34.517-4.491 50.384-12.372a8.97 8.97 0 0 1 1.65-.628c11.747-3.166 22.855-7.748 32.909-14.71.958-.663 2.067-1.144 3.161-1.568 12.258-4.748 20.894-14.016 29.414-23.453 2.703-2.994 3.944-6.294 3.743-10.426-.645-13.278.416-26.506 2.326-39.624 2.936-20.163 2.836-40.516 4.282-60.77.201-2.811.389-67.556.341-69.291zM270.893 752.492c.215-1.424.481-2.837.635-4.263 1.531-14.106.779-28.245.706-42.38-.059-11.505-.471-22.945-2.123-34.36-.515-3.561-1.853-6.016-4.649-8.014-11.022-7.874-21.914-15.935-33.037-23.665-10.376-7.211-22.02-11.034-34.628-12.086-5.275-.44-10.562-1.071-15.759-2.059-17.462-3.317-35.086-3.922-52.781-3.474-5.619.142-11.176.962-16.379 3.209-4.182 1.806-5.191 6.044-2.078 9.329 1.556 1.642 3.687 3.127 5.829 3.752 5.634 1.643 11.372 3.031 17.151 4.052 8.457 1.494 16.701 3.576 24.522 7.163 1.596.732 3.337 1.408 4.578 2.571.95.891 1.655 2.499 1.686 3.807.045 1.882-1.333 3.459-3.157 3.775-2.577.446-5.247.455-7.878.469-10.603.057-21.228-.388-31.802.166-12.927.677-25.812 2.165-38.714 3.313-15.969 1.42-31.294 5.536-46.109 11.49-10.015 4.025-18.252 10.666-25.378 18.724-3.78 4.274-4.314 8.859-1.504 13.823 6.285 11.101 14.886 19.78 26.891 24.471 7.12 2.782 14.523 4.836 21.791 7.24 21.68 7.172 44.183 10.026 66.738 12.366 16.391 1.7 32.895 2.326 49.273 4.115 14.711 1.607 29.406 1.384 44.128 1.204 3.229-.039 6.469-.311 9.678-.691 7.012-.831 13.989-1.984 21.014-2.662 6.981-.674 14.003-.927 21.354-1.387zm1931.843 23.505c1.481 1.061 1.915 1.604 2.438 1.712 8.049 1.654 16.059 3.612 24.182 4.771 10.167 1.451 20.423 2.308 30.653 3.292 20.243 1.948 40.507 2.455 60.83 1.197 29.016-1.797 56.92-8.557 84.148-18.402 4.129-1.493 8.081-3.548 11.965-5.621 1.76-.939 3.36-2.387 4.671-3.914 1.875-2.184.932-5.744-1.775-6.524-3.369-.971-6.839-1.862-10.317-2.138-11.425-.905-22.863-1.751-34.313-2.179-13.276-.496-26.405-2.086-39.35-4.895-12.414-2.694-24.398-6.762-35.096-13.876-2.409-1.602-4.725-3.467-6.694-5.575-1.784-1.911-.562-4.99 2.071-5.435 2.591-.437 5.263-.382 7.894-.606 4.445-.378 8.748-1.249 12.444-3.971 2.938-2.164 3.198-4.961.374-7.383-1.749-1.5-3.806-2.861-5.959-3.628-6.081-2.164-12.272-4.026-18.44-5.94-12.132-3.765-24.545-6.279-37.224-6.767-11.814-.455-23.515.789-34.456 5.823-2.927 1.347-5.652 3.139-8.447 4.764-2.754 1.602-5.48 3.252-8.137 4.833 0 1.572-.177 2.763.028 3.885 1.697 9.308 2.44 18.637 1.497 28.106-.317 3.185.384 6.458.302 9.682-.096 3.792-.405 7.592-.859 11.36-.697 5.78-1.598 11.535-2.43 17.428zM1144.902 344.62c-.993 6.309-.683 11.335.33 16.174 2.65 12.655 5.546 25.263 8.63 37.82 2.405 9.792 6.484 18.877 12.589 27.011 2.112 2.814 3.802 5.942 5.756 8.879.766 1.151 1.216 2.771 3.685 2.672 2.433-1.909 4.406-4.834 6.67-7.473 2.489-2.901 4.815-5.956 7.458-8.708 2.437-2.539 5.231-4.731 7.81-7.139a402.665 402.665 0 0 0 8.269-7.95c2.51-2.481 5.035-4.956 7.396-7.576 2.46-2.73 5.896-4.632 7.856-8.546-2.173-1.198-3.861-2.307-5.687-3.1-4.315-1.873-8.658-3.695-13.057-5.361-15.789-5.978-30.401-14.085-43.734-24.413-4.572-3.541-8.714-7.636-13.97-12.291zm-1.585 689.325c-8.664-.322-16.59-.453-24.493-.955-8.244-.524-16.436-.881-24.683.194-14.008 1.827-28.056 3.336-42.078 5.062-9.078 1.117-17.998 3.053-26.635 6.07-10.007 3.496-19.884 7.332-28.985 12.888-.753.46-1.607.794-2.268 1.358-1.195 1.02-2.053 2.502-.934 3.807.813.948 2.553 1.939 3.592 1.693 2.821-.667 5.548-1.853 8.209-3.06 13.159-5.969 26.444-11.535 40.907-13.555 12.823-1.791 25.685-3.336 38.462-5.405 13.488-2.185 26.939-2.102 40.479-.821 6.147.582 12.348.72 18.527.778 5.527.052 8.12-2.303 8.869-7.697.727-5.243 1.471-10.496 1.881-15.77.798-10.265 1.425-20.543 2.012-30.823.436-7.638.96-15.286.961-22.93 0-6.96-.882-7.651-7.491-8.119-4.7-.333-9.408-.554-14.116-.759-11.847-.517-23.427 1.402-35.093 3.253-21.531 3.416-42.833 7.863-64.104 12.544-10.693 2.353-20.867 6.199-30.954 10.329-1.067.437-2.257.976-2.943 1.827-.64.794-1.139 2.208-.866 3.092.277.898 1.542 2.035 2.428 2.084 1.692.093 3.521-.255 5.12-.871 15.452-5.947 31.538-9.616 47.674-12.955 16.127-3.337 32.436-5.792 48.577-9.069 13.129-2.665 26.273-3.176 39.544-1.944 1.374.127 2.724.504 4.531.85-.162 15.769-2.358 30.917-2.716 46.157-.124 5.272-1.009 10.535-1.7 15.782-.264 2.007-.956 3.957-1.713 6.965zm219.424-599.089c3.246-4.775 4.647-9.159 5.844-13.673 6.397-24.127 11.429-48.448 10.95-73.936-2.805.471-3.906 2.729-5.42 4.38-6.007 6.552-12.405 12.526-20.848 15.938-2.422.979-4.514 2.746-6.834 4.012-5.413 2.954-10.736 6.132-16.356 8.633-5.086 2.264-10.532 3.712-15.788 5.607-1.237.446-3.062.244-3.325 2.675 17.962 13.883 35.335 28.718 51.776 46.363zM289.181 763.828c.888-.804 1.509-1.111 1.711-1.594a83.523 83.523 0 0 0 2.157-5.759c6.036-18.003 7.837-36.722 8.737-55.498.362-7.559-.713-15.229-1.605-22.792-.611-5.177-1.802-10.331-4.335-15.275-6.516-.48-12.153 1.62-18.267 3.639.258 3.388.456 6.272.703 9.151.275 3.216.847 6.427.852 9.641.036 22.597 1.334 45.206-.608 67.79-.27 3.146-.891 6.441.921 9.539 3.341 1.22 6.782 1.308 9.733 1.157zm1883.814 38.279c6.383-1.2 11.63-1.393 16.309-4.154 1.122-3.185 1.917-6.355 3.321-9.228 2.403-4.92 2.875-10.057 3.088-15.418.221-5.56 1.189-11.091 1.865-16.63.283-2.321.905-4.627.941-6.946.101-6.461.217-12.938-.123-19.385-.372-7.032-1.171-14.045-1.973-21.045-.154-1.344-1.183-2.587-1.965-4.2-2.694-.21-5.297-.5-7.907-.594-2.842-.102-5.691-.023-8.9-.023.092 11.079.47 21.599.188 32.1-.292 10.872-1.101 21.736-1.91 32.586-.781 10.479-1.852 20.937-2.934 32.937zm-778.253 169.977c-.355 3.143-.861 5.718-.889 8.298a143.61 143.61 0 0 0 .396 12.344c1.086 14.358 2.496 28.677 2.275 43.126-.166 10.841 1.457 12.177 11.947 13.008.586.047 1.175.056 1.763.085 17.656.893 35.076 3.546 52.42 6.869 6.346 1.216 12.771 2.042 19.178 2.91 3.454.468 5.281-.387 5.966-2.367.779-2.251-1.049-4.416-4.714-5.072-6.363-1.139-12.766-2.052-19.147-3.088-17.979-2.917-35.848-6.686-54.18-6.848-1.383-.012-2.76-.606-4.614-1.04-.439-4.835-1.235-9.483-1.212-14.127a283.122 283.122 0 0 0-2.928-42.209c-.24-1.65-.815-3.522 1.667-5.415 8.059 0 16.874-.409 25.635.099 12.022.698 23.998 2.17 36.006 3.146 4.666.379 9.368.418 14.053.387 1.558-.01 2.917-1.294 2.738-2.86-.142-1.244-1.035-3.007-2.05-3.421-2.127-.867-4.537-1.173-6.862-1.402-14.038-1.383-28.065-2.954-42.133-3.918-11.423-.782-22.904-.928-35.316 1.493z"/><g fill="#fff"><path d="M1333.922 263.628c-2.008-2.137-3.393-.937-4.759.264-4.858 4.273-9.611 8.674-14.589 12.802-5.616 4.658-12.291 6.808-19.494 7.492-9.587.91-18.808.019-27.283-5.095-3.594-2.168-6.804-4.536-7.51-9.264 1.495-1.131 3.059-2.007 4.171-3.278.631-.721 1.004-2.343.61-3.098-.393-.754-1.976-1.436-2.888-1.28-6.137 1.05-11.95 3.109-17.288 6.367-.733.447-1.557 1.073-1.861 1.813-.403.982-.595 2.219-.357 3.223.11.466 1.488.976 2.221.889 2.527-.302 5.024-.859 7.644-1.34 4.376 10.166 12.905 13.893 22.178 16.616 7.264 2.133 14.567 1.184 21.927.652 8.554-.617 16.053-3.527 22.567-8.995 3.155-2.648 6.226-5.415 9.148-8.317 2.695-2.676 4.928-5.719 5.563-9.451z"/><path d="M1388.591 227.3c-1.436 20.253-1.334 40.607-4.282 60.771-1.906 13.112-2.961 26.339-2.325 39.616.203 4.129-1.042 7.433-3.735 10.431-8.525 9.44-17.153 18.703-29.413 23.455-1.093.419-2.211.902-3.164 1.563-10.05 6.963-21.168 11.55-32.908 14.713a9.181 9.181 0 0 0-1.652.623c-15.87 7.89-33.276 9.593-50.391 12.375-4.231.686-8.856.216-13.087-.686-5.438-1.156-10.825-2.91-15.958-5.057-13.036-5.438-25.958-11.168-38.879-16.899-11.384-5.044-21.6-12.02-31.345-19.668-7.509-5.908-13.176-13.443-17.699-21.816-2.274-4.206-3.367-8.602-2.528-13.595.673-4.015.534-8.233.343-12.337-1.131-24.7-2.02-49.425-3.786-74.087-.75-10.571-1.232-21.142-1.855-31.701-.966-16.225.025-32.361 1.398-48.498.597-7.039 1.588-14.027 2.223-21.066 1.004-11.029 4.879-21.32 9.288-31.18 6.632-14.789 14.777-28.728 26.263-40.607 14.815-15.323 32.196-26.529 51.826-34.458 5.133-2.071 10.114-4.663 15.895-5.819.546 2.465-1.296 3.202-2.262 4.32-2.325 2.656-4.866 5.133-7.064 7.878-1.779 2.223-1.728 4.167-.356 5.591 1.474 1.525 3.138 1.232 4.866.521 8.729-3.545 17.458-7.102 26.212-10.609 2.096-.839 4.269-1.512 6.925-2.44.013 3.037-2.363 3.85-3.011 5.552-.483 1.245-.927 3.126-.33 3.99.635.902 2.579 1.385 3.85 1.245 2.312-.254 4.548-1.194 6.835-1.715 5.159-1.156 10.317-2.287 15.501-3.316.737-.152 1.588.305 2.948.597-1.703 2.427-3.291 4.46-4.612 6.67-1.194 1.995 0 4.472 2.325 4.574 2.897.127 5.832-.127 8.729-.432 2.884-.292 5.743-.851 9.148-1.372.496 1.969.889 3.532 1.41 5.565 12.591 4.803 22.553 14.091 33.276 22.248 1.855 1.41 3.532 3.126 5.031 4.917 13.964 16.683 24.662 35.245 30.964 56.096 3.405 11.27 5.413 22.908 5.73 34.75.051 1.741-.14 66.489-.343 69.297zM270.893 752.492c-7.351.459-14.373.713-21.354 1.387-7.025.678-14.002 1.83-21.014 2.662-3.209.38-6.449.652-9.678.691-14.722.18-29.417.403-44.128-1.204-16.379-1.789-32.883-2.415-49.273-4.115-22.555-2.339-45.058-5.194-66.738-12.366-7.268-2.404-14.672-4.458-21.791-7.24-12.005-4.691-20.605-13.37-26.891-24.471-2.811-4.964-2.277-9.549 1.504-13.823 7.126-8.058 15.363-14.698 25.378-18.724 14.815-5.954 30.14-10.07 46.109-11.49 12.902-1.148 25.787-2.635 38.714-3.313 10.574-.554 21.2-.109 31.802-.166 2.631-.014 5.301-.024 7.878-.469 1.823-.315 3.202-1.893 3.157-3.775-.031-1.308-.736-2.916-1.686-3.807-1.241-1.164-2.982-1.839-4.578-2.571-7.821-3.587-16.065-5.669-24.522-7.163-5.779-1.021-11.517-2.409-17.151-4.052-2.142-.625-4.273-2.11-5.829-3.752-3.113-3.285-2.104-7.523 2.078-9.329 5.203-2.247 10.761-3.067 16.379-3.209 17.694-.448 35.318.157 52.781 3.474 5.197.987 10.484 1.619 15.759 2.059 12.608 1.052 24.251 4.875 34.628 12.086 11.122 7.729 22.014 15.79 33.037 23.665 2.796 1.998 4.134 4.453 4.649 8.014 1.651 11.415 2.063 22.855 2.123 34.36.073 14.136.825 28.275-.706 42.38-.155 1.426-.42 2.839-.635 4.263zm1931.843 23.505c.832-5.893 1.733-11.648 2.43-17.428.454-3.768.763-7.567.859-11.36.082-3.225-.619-6.497-.302-9.682.943-9.469.2-18.798-1.497-28.106-.205-1.122-.028-2.313-.028-3.885 2.657-1.581 5.383-3.231 8.137-4.833 2.795-1.626 5.52-3.418 8.447-4.764 10.941-5.034 22.642-6.278 34.456-5.823 12.679.488 25.092 3.002 37.224 6.767 6.168 1.914 12.359 3.776 18.44 5.94 2.153.766 4.21 2.128 5.959 3.628 2.824 2.422 2.564 5.219-.374 7.383-3.696 2.722-8 3.593-12.444 3.971-2.631.224-5.303.169-7.894.606-2.634.444-3.855 3.524-2.071 5.435 1.968 2.109 4.284 3.973 6.694 5.575 10.698 7.113 22.682 11.182 35.096 13.876 12.945 2.809 26.073 4.399 39.35 4.895 11.45.428 22.889 1.274 34.313 2.179 3.478.276 6.948 1.166 10.317 2.138 2.708.78 3.65 4.34 1.775 6.524-1.311 1.527-2.91 2.974-4.671 3.914-3.885 2.073-7.836 4.128-11.965 5.621-27.228 9.845-55.132 16.605-84.148 18.402-20.323 1.258-40.587.751-60.83-1.197-10.23-.985-20.486-1.841-30.653-3.292-8.123-1.159-16.133-3.117-24.182-4.771-.523-.107-.957-.651-2.438-1.712zM1144.902 344.62c5.256 4.655 9.399 8.75 13.97 12.291 13.333 10.328 27.945 18.435 43.734 24.413 4.399 1.665 8.742 3.488 13.057 5.361 1.826.792 3.514 1.902 5.687 3.1-1.96 3.915-5.396 5.817-7.856 8.546-2.361 2.62-4.886 5.095-7.396 7.576a405.347 405.347 0 0 1-8.269 7.95c-2.578 2.408-5.372 4.6-7.81 7.139-2.642 2.752-4.969 5.806-7.458 8.708-2.264 2.639-4.237 5.564-6.67 7.473-2.468.099-2.919-1.521-3.685-2.672-1.954-2.937-3.644-6.065-5.756-8.879-6.105-8.134-10.184-17.219-12.589-27.011-3.085-12.556-5.981-25.165-8.63-37.82-1.013-4.839-1.323-9.865-.33-16.174zm-1.585 689.325c.757-3.008 1.449-4.958 1.713-6.965.691-5.247 1.577-10.51 1.7-15.782.357-15.24 2.553-30.388 2.716-46.157-1.807-.346-3.157-.722-4.531-.85-13.271-1.232-26.415-.721-39.544 1.944-16.141 3.277-32.45 5.731-48.577 9.069-16.136 3.339-32.222 7.008-47.674 12.955-1.599.615-3.428.963-5.12.871-.886-.049-2.151-1.186-2.428-2.084-.272-.884.226-2.298.866-3.092.687-.852 1.876-1.39 2.943-1.827 10.087-4.13 20.261-7.976 30.954-10.329 21.271-4.681 42.574-9.128 64.104-12.544 11.666-1.851 23.246-3.77 35.093-3.253 4.707.205 9.416.426 14.116.759 6.609.468 7.492 1.159 7.491 8.119-.001 7.644-.524 15.292-.961 22.93-.587 10.279-1.215 20.558-2.012 30.823-.41 5.274-1.153 10.527-1.881 15.77-.748 5.394-3.342 7.749-8.869 7.697-6.179-.058-12.381-.197-18.527-.778-13.54-1.281-26.991-1.364-40.479.821-12.777 2.07-25.639 3.614-38.462 5.405-14.462 2.02-27.748 7.587-40.907 13.555-2.661 1.207-5.388 2.393-8.209 3.06-1.039.246-2.779-.745-3.592-1.693-1.12-1.305-.262-2.787.934-3.807.661-.564 1.515-.898 2.268-1.358 9.101-5.557 18.978-9.393 28.985-12.888 8.637-3.017 17.558-4.952 26.635-6.07 14.021-1.726 28.07-3.235 42.078-5.062 8.246-1.075 16.439-.718 24.683-.194 7.902.502 15.828.633 24.493.955zm219.424-599.089c-16.44-17.646-33.813-32.48-51.776-46.363.263-2.431 2.088-2.229 3.325-2.675 5.256-1.895 10.702-3.344 15.788-5.607 5.62-2.501 10.942-5.68 16.356-8.633 2.32-1.266 4.412-3.033 6.834-4.012 8.443-3.413 14.841-9.387 20.848-15.938 1.514-1.651 2.615-3.909 5.42-4.38.479 25.488-4.553 49.81-10.95 73.936-1.197 4.515-2.598 8.898-5.844 13.673zM289.181 763.828c-2.952.151-6.392.063-9.733-1.157-1.812-3.099-1.191-6.393-.921-9.539 1.941-22.584.644-45.193.608-67.79-.005-3.214-.577-6.426-.852-9.641-.246-2.879-.445-5.763-.703-9.151 6.113-2.019 11.751-4.119 18.267-3.639 2.533 4.944 3.724 10.098 4.335 15.275.892 7.564 1.967 15.233 1.605 22.792-.9 18.776-2.701 37.495-8.737 55.498a82.5 82.5 0 0 1-2.157 5.759c-.203.483-.823.79-1.711 1.594zm1883.814 38.279c1.082-12 2.153-22.457 2.934-32.937.809-10.85 1.618-21.714 1.91-32.586.282-10.502-.096-21.021-.188-32.1 3.208 0 6.057-.079 8.9.023 2.61.094 5.213.383 7.907.594.782 1.613 1.811 2.857 1.965 4.2.802 7 1.601 14.013 1.973 21.045.34 6.447.224 12.924.123 19.385-.036 2.319-.658 4.625-.941 6.946-.676 5.539-1.644 11.071-1.865 16.63-.213 5.361-.685 10.498-3.088 15.418-1.403 2.873-2.199 6.043-3.321 9.228-4.679 2.761-9.926 2.954-16.309 4.154zm-778.253 169.977c12.412-2.421 23.893-2.276 35.316-1.493 14.068.964 28.095 2.535 42.133 3.918 2.324.229 4.735.535 6.862 1.402 1.015.414 1.908 2.177 2.05 3.421.179 1.565-1.18 2.85-2.738 2.86-4.684.03-9.387-.008-14.053-.387-12.009-.976-23.984-2.449-36.006-3.146-8.761-.508-17.576-.099-25.635-.099-2.482 1.893-1.906 3.765-1.667 5.415 2.033 13.999 3 28.056 2.928 42.209-.024 4.644.773 9.292 1.212 14.127 1.854.434 3.231 1.028 4.614 1.04 18.332.162 36.201 3.931 54.18 6.848 6.382 1.036 12.784 1.949 19.147 3.088 3.664.656 5.492 2.822 4.714 5.072-.685 1.98-2.512 2.835-5.966 2.367-6.407-.868-12.832-1.694-19.178-2.91-17.343-3.324-34.763-5.977-52.42-6.869-.588-.03-1.177-.039-1.763-.085-10.49-.831-12.113-2.167-11.947-13.008.221-14.449-1.189-28.768-2.275-43.126-.31-4.103-.44-8.231-.396-12.344.028-2.58.534-5.155.889-8.298z"/></g><path d="M1333.922 263.628c-.635 3.732-2.868 6.775-5.563 9.451-2.922 2.902-5.993 5.669-9.148 8.317-6.514 5.468-14.013 8.378-22.567 8.995-7.36.531-14.663 1.481-21.927-.652-9.273-2.723-17.803-6.45-22.178-16.616-2.62.48-5.117 1.037-7.644 1.34-.734.088-2.111-.423-2.221-.889-.237-1.004-.046-2.241.357-3.223.304-.74 1.128-1.366 1.861-1.813 5.338-3.258 11.151-5.317 17.288-6.367.912-.156 2.495.527 2.888 1.28.394.755.021 2.377-.61 3.098-1.112 1.271-2.677 2.146-4.171 3.278.706 4.728 3.917 7.096 7.51 9.264 8.476 5.114 17.697 6.005 27.283 5.095 7.203-.684 13.878-2.834 19.494-7.492 4.978-4.128 9.731-8.529 14.589-12.802 1.366-1.201 2.751-2.401 4.759-.264zm116.279-98.713v14.472h-14.485v14.484h-14.471v14.472h-14.485v14.484h-54.914v-14.484h-14.471v-14.472h-14.472v-14.484h-12.935v14.484h-14.484v14.472h-14.472v14.484h-59.31v-14.484h-14.472v-14.472h-14.484v-14.484h-14.472v-14.472z"/><path d="M1237.167 191.489h-14.478v-14.478h14.478zm14.478 14.479h-14.478V191.49h14.478zm114.685-14.479h-14.478v-14.478h14.478zm14.478 14.479h-14.478V191.49h14.478z" fill="#fff"/></svg></g></svg>
